<svg width="234" height="227" viewBox="0 0 234 227" fill="none" xmlns="http://www.w3.org/2000/svg">
<path d="M91.208 5.49743L36.1289 77.0557L184.256 40.2322L101.751 2.85312C99.9531 2.03732 97.9323 1.85463 96.0177 2.33486C94.1031 2.81508 92.4077 3.92989 91.208 5.49743Z" fill="#EBEBEB"/>
<path d="M35.3477 77.565L90.9649 5.31814C92.2052 3.69357 93.9617 2.5397 95.9451 2.04645C97.9286 1.55321 100.021 1.74999 101.878 2.60439L185.199 40.348L35.3477 77.565ZM98.1282 2.34401C96.8344 2.34489 95.5584 2.64518 94.4 3.22137C93.2416 3.79757 92.2322 4.63404 91.4509 5.66531L36.9042 76.5524L183.33 40.1512L101.629 3.11937C100.529 2.62337 99.3351 2.36885 98.1282 2.37294V2.34401Z" fill="#E0E0E0"/>
<path d="M36.125 77.0583L184.774 40.1062L204.801 120.669C205.197 122.264 204.944 123.952 204.097 125.36C203.249 126.768 201.877 127.782 200.282 128.178L63.6609 162.141C62.0659 162.537 60.3787 162.284 58.9705 161.436C57.5623 160.589 56.5484 159.217 56.1519 157.622L36.125 77.0583Z" fill="#F0F0F0"/>
<path d="M175.623 44.5198L124.126 97.134L46.2895 79.6133L37.3845 38.3286C36.8917 36.199 37.2554 33.961 38.3973 32.0972C39.5392 30.2333 41.3679 28.8928 43.489 28.3647L156.089 0.376683C157.151 0.111865 158.254 0.059007 159.336 0.221134C160.418 0.383261 161.457 0.75719 162.395 1.32152C163.332 1.88584 164.149 2.62949 164.798 3.50988C165.448 4.39028 165.917 5.39014 166.18 6.45223L175.623 44.5198Z" fill="white"/>
<path d="M117.055 92.9968L55.9004 156.9C56.1163 157.769 56.5014 158.587 57.0336 159.307C57.5657 160.027 58.2346 160.636 59.0019 161.097C59.7692 161.559 60.62 161.865 61.5056 161.997C62.3912 162.13 63.2942 162.087 64.1631 161.87L199.734 128.165C201.488 127.729 202.997 126.614 203.929 125.066C204.861 123.518 205.14 121.663 204.705 119.909L204.578 119.399L124.612 91.1915C123.312 90.7321 121.908 90.6582 120.567 90.9785C119.226 91.2987 118.007 91.9996 117.055 92.9968Z" fill="#E0E0E0"/>
<path d="M97.5171 34.4597L53.4668 45.4182L54.5857 49.9159L98.636 38.9574L97.5171 34.4597Z" fill="#E0E0E0"/>
<path d="M154.038 32.5071L56.3018 56.8212L57.5659 61.9028L155.302 37.5888L154.038 32.5071Z" fill="#E0E0E0"/>
<path d="M157.13 44.9223L59.3936 69.2363L60.6577 74.318L158.394 50.004L157.13 44.9223Z" fill="#E0E0E0"/>
<path d="M159.185 61.3751L156.124 64.436L74.0752 85.8856L63.3533 83.3801L62.9482 82.2171L160.371 57.9844L160.793 59.6682L159.185 61.3751Z" fill="#E0E0E0"/>
<path d="M138.198 82.7552L101.235 91.9437L89.9346 89.363L145.176 75.6207L138.198 82.7552Z" fill="#E0E0E0"/>
<path d="M114.821 95.323C114.821 95.323 114.781 95.3866 114.682 95.4966L114.243 95.9768L112.541 97.7995L106.24 104.471C100.905 110.089 93.5105 117.855 85.3229 126.366C77.1354 134.878 69.6133 142.516 64.128 147.989C61.3853 150.726 59.1518 152.937 57.6011 154.447L55.8132 156.183L55.3387 156.628C55.2892 156.683 55.2328 156.732 55.1709 156.773C55.2136 156.712 55.2621 156.656 55.3156 156.605L55.7669 156.136L57.5027 154.36L63.966 147.839C69.4108 142.325 76.8924 134.669 85.0973 126.152C93.3022 117.635 100.72 109.951 106.072 104.321L112.437 97.7185L114.173 95.9363L114.636 95.4792C114.763 95.3693 114.821 95.323 114.821 95.323Z" fill="#FAFAFA"/>
<path d="M204.579 119.388C204.55 119.469 187.498 113.55 166.494 106.166C145.49 98.7832 128.484 92.7308 128.513 92.6497C128.542 92.5687 145.594 98.4823 166.598 105.866C187.602 113.249 204.607 119.301 204.579 119.388Z" fill="#FAFAFA"/>
<path d="M178.07 41.9854C178.038 42.0369 178.001 42.0853 177.96 42.13L177.636 42.5293L176.264 44.051L171.155 49.6C166.827 54.2695 160.798 60.6691 154.039 67.6531C147.281 74.6371 141.044 80.8688 136.519 85.3474L131.132 90.6244L129.651 92.042L129.263 92.4066C129.17 92.4876 129.124 92.5281 129.118 92.5223C129.155 92.4728 129.196 92.4264 129.24 92.3834L129.604 91.9958L131.045 90.5376L136.357 85.1911C140.847 80.6721 147.021 74.4114 153.779 67.4332C160.537 60.455 166.59 54.1017 170.964 49.4727L176.143 43.9932L177.56 42.5119L177.937 42.13C177.975 42.0765 178.02 42.0279 178.07 41.9854Z" fill="#FAFAFA"/>
<path d="M114.822 95.3229C114.753 95.319 114.685 95.3074 114.619 95.2881L114.04 95.1493L111.726 94.5707C109.747 94.073 106.871 93.3729 103.313 92.5397C96.2015 90.8559 86.336 88.6861 75.4348 86.3253C64.5335 83.9645 54.6738 81.7599 47.5741 80.0183C44.0213 79.1503 41.1514 78.4213 39.1782 77.889L36.9043 77.2698L36.3256 77.102C36.2573 77.0876 36.1912 77.0642 36.1289 77.0326L36.3314 77.0731L36.91 77.2062L39.2245 77.7848C41.2092 78.2824 44.085 78.9768 47.6435 79.8158C54.7548 81.4996 64.6145 83.6694 75.5216 86.0302C86.4286 88.391 96.2825 90.5955 103.382 92.3372C106.935 93.2051 109.805 93.9284 111.778 94.4665L114.046 95.0856L114.625 95.2534L114.822 95.3229Z" fill="#FAFAFA"/>
<path d="M175.623 44.5197C175.623 44.5197 175.565 44.3288 175.466 43.9411L175.044 42.3036C174.674 40.8513 174.136 38.7277 173.441 35.9908L167.615 12.7765C167.306 11.5498 166.992 10.2942 166.671 9.00965C166.515 8.37317 166.353 7.71932 166.185 7.06548C166.104 6.73566 166.023 6.40584 165.919 6.0876C165.829 5.76269 165.712 5.4454 165.572 5.13866C164.998 3.84056 164.096 2.71437 162.955 1.87118C161.813 1.02798 160.472 0.496899 159.063 0.330305C158.331 0.229115 157.589 0.229115 156.858 0.330305C156.129 0.457602 155.388 0.66012 154.642 0.839493L150.1 1.99674L140.604 4.34016L98.4171 14.8711L56.1776 25.3558L46.694 27.705L44.3795 28.2836C43.6282 28.4397 42.8924 28.6623 42.1807 28.949C40.808 29.544 39.6236 30.5023 38.7553 31.7206C38.335 32.3127 37.9927 32.9564 37.7369 33.6358C37.4983 34.3071 37.3409 35.0045 37.2682 35.7131C37.1004 37.1307 37.4939 38.4963 37.7716 39.8445C38.3502 42.5447 38.9038 45.1312 39.4322 47.6038C41.5442 57.4925 43.2512 65.489 44.4315 71.0265C45.0102 73.7923 45.4673 75.9332 45.7797 77.3913C45.9244 78.1146 46.0401 78.6701 46.1211 79.052C46.2021 79.4339 46.2253 79.6306 46.2253 79.6306C46.2253 79.6306 46.1732 79.4396 46.0864 79.052C45.9996 78.6643 45.8781 78.1204 45.7161 77.4029C45.3921 75.939 44.9234 73.7981 44.3158 71.038C43.1065 65.5064 41.3648 57.5098 39.2124 47.6385C38.68 45.1678 38.113 42.5814 37.5286 39.8792C37.2508 38.5484 36.8458 37.1365 37.0194 35.6726C37.0859 34.9398 37.2453 34.2185 37.4939 33.5259C37.7582 32.8248 38.1101 32.1599 38.5412 31.547C38.9796 30.9232 39.5035 30.3642 40.0977 29.8864C40.6926 29.3903 41.3574 28.9848 42.0708 28.6828C42.7948 28.3873 43.5443 28.1588 44.31 28.0001L46.6245 27.4214L56.1255 25.0722L98.365 14.5644L140.604 4.07978L150.088 1.73057L154.63 0.608043C155.377 0.422884 156.106 0.226152 156.87 0.0930691C157.985 -0.0735252 159.122 -0.0160482 160.215 0.262137C161.308 0.540323 162.334 1.03363 163.234 1.71321C164.379 2.58002 165.284 3.72536 165.861 5.0403C166.007 5.3563 166.126 5.68327 166.22 6.01817C166.324 6.34799 166.405 6.6778 166.486 7.00762C166.648 7.66146 166.805 8.3153 166.967 8.95758C167.285 10.2421 167.591 11.4977 167.898 12.7244L173.626 35.9793C174.292 38.7219 174.813 40.8513 175.166 42.3036C175.339 43.0269 175.472 43.5766 175.559 43.9527C175.646 44.3288 175.623 44.5197 175.623 44.5197Z" fill="#E0E0E0"/>
<path d="M233.764 225.953C233.764 226.04 181.433 226.109 116.882 226.109C52.3307 226.109 0 226.045 0 225.953C0 225.86 52.3249 225.791 116.882 225.791C181.439 225.791 233.764 225.872 233.764 225.953Z" fill="#263238"/>
<path d="M110.928 13.9801L105.205 18.3371L105.483 26.6577L100.246 22.4974L97.3532 24.9739L86.3594 11.3994L110.928 13.9801Z" fill="#2B1FC5"/>
<path d="M103.053 20.1078C103.053 20.3624 105.484 26.6578 105.484 26.6578L100.247 22.4975L103.053 20.1078Z" fill="#2B1FC5"/>
<g opacity="0.3">
<path d="M103.054 20.1077C103.054 20.3623 105.485 26.6577 105.485 26.6577L100.248 22.4974L103.054 20.1077Z" fill="black"/>
</g>
<path d="M86.3594 11.3994L103.053 20.1077L105.483 26.6577L105.205 18.3371L86.3594 11.3994Z" fill="#2B1FC5"/>
<path opacity="0.1" d="M86.3594 11.3994L103.053 20.1077L105.483 26.6577L105.205 18.3371L86.3594 11.3994Z" fill="black"/>
<path d="M132.649 123.664C131.62 123.63 130.61 123.384 129.681 122.941C130.709 122.975 131.72 123.221 132.649 123.664Z" fill="#263238"/>
<path d="M137.382 124.821C137.382 124.908 136.949 124.879 136.462 124.763C135.976 124.647 135.595 124.474 135.612 124.387C135.629 124.3 136.046 124.329 136.538 124.451C137.03 124.572 137.406 124.734 137.382 124.821Z" fill="#263238"/>
<path d="M117.849 25.5699C117.336 25.5774 116.825 25.4971 116.339 25.3326C115.829 25.2701 115.335 25.1152 114.881 24.8755C115.397 24.8078 115.921 24.8592 116.414 25.026C116.929 25.0891 117.422 25.2757 117.849 25.5699Z" fill="#263238"/>
<path d="M123.45 27.9713C122.479 27.6527 121.561 27.1926 120.725 26.6057C121.241 26.6548 121.739 26.8253 122.177 27.1033C122.935 27.4852 123.496 27.896 123.45 27.9713Z" fill="#263238"/>
<path d="M128.303 31.6512C128.24 31.7148 127.725 31.2808 127.077 30.7369C126.429 30.193 125.919 29.7301 125.995 29.6549C126.488 29.8292 126.934 30.1166 127.297 30.4939C127.927 31.0494 128.367 31.5933 128.303 31.6512Z" fill="#263238"/>
<path d="M132.007 36.4828C131.926 36.5233 131.544 35.962 131.081 35.2677C130.757 34.8697 130.503 34.4198 130.329 33.9368C130.393 33.8848 130.879 34.3824 131.347 35.0941C131.674 35.4983 131.9 35.9742 132.007 36.4828Z" fill="#263238"/>
<path d="M134.109 42.1938C133.86 41.7451 133.688 41.2582 133.6 40.753C133.406 40.2761 133.298 39.7688 133.281 39.2544C133.594 39.6709 133.806 40.1541 133.9 40.6662C134.095 41.1504 134.166 41.6752 134.109 42.1938Z" fill="#263238"/>
<path d="M134.421 48.2693C134.318 47.7669 134.296 47.251 134.357 46.7418C134.314 46.2303 134.361 45.7151 134.496 45.22C134.673 45.7086 134.734 46.2313 134.675 46.7475C134.712 47.2678 134.625 47.7893 134.421 48.2693Z" fill="#263238"/>
<path d="M132.841 54.1366C132.903 53.6286 133.048 53.1341 133.269 52.6727C133.387 52.1765 133.582 51.702 133.848 51.2666C133.876 51.7879 133.77 52.3078 133.541 52.7768C133.423 53.2808 133.183 53.7479 132.841 54.1366Z" fill="#263238"/>
<path d="M129.306 59.0779C129.248 59.0085 129.699 58.4993 130.249 57.8744C130.799 57.2495 131.238 56.7172 131.314 56.7808C131.149 57.2764 130.865 57.7236 130.486 58.0827C129.925 58.7308 129.364 59.1416 129.306 59.0779Z" fill="#263238"/>
<path d="M124.202 62.3647C124.593 62.0341 125.035 61.7684 125.51 61.5778C125.937 61.2944 126.408 61.0833 126.904 60.9529C126.568 61.3532 126.139 61.6652 125.654 61.8613C125.219 62.1463 124.72 62.3193 124.202 62.3647Z" fill="#263238"/>
<path d="M118.266 63.6433C118.75 63.4654 119.26 63.3695 119.776 63.3598C120.276 63.2449 120.792 63.2117 121.303 63.2615C120.849 63.519 120.338 63.6601 119.816 63.6723C119.305 63.7946 118.772 63.7847 118.266 63.6433Z" fill="#263238"/>
<path d="M112.305 62.5149C113.294 62.7209 114.263 63.0173 115.198 63.4002C114.679 63.4649 114.153 63.3931 113.67 63.1919C113.164 63.09 112.693 62.8565 112.305 62.5149Z" fill="#263238"/>
<path d="M108.081 58.3258C108.168 58.2969 108.434 58.9044 108.908 59.5872C109.383 60.27 109.84 60.7445 109.776 60.8313C109.713 60.9181 109.146 60.4841 108.648 59.7724C108.298 59.3699 108.098 58.8589 108.081 58.3258Z" fill="#263238"/>
<path d="M110.651 53.5869C110.651 53.6795 110.021 53.882 109.361 54.3507C108.701 54.8193 108.348 55.4037 108.267 55.3575C108.186 55.3112 108.441 54.6168 109.176 54.0961C109.585 53.7447 110.113 53.5626 110.651 53.5869Z" fill="#263238"/>
<path d="M115.881 55.7567C115.8 55.803 115.43 55.236 114.828 54.6805C114.226 54.125 113.613 53.8473 113.671 53.7605C114.208 53.8029 114.709 54.0492 115.071 54.4491C115.487 54.776 115.774 55.2391 115.881 55.7567Z" fill="#263238"/>
<path d="M116.078 61.6644C116.121 61.1602 116.216 60.6619 116.362 60.1773C116.405 59.6713 116.5 59.1711 116.645 58.6844C116.8 59.1897 116.8 59.7299 116.645 60.2352C116.605 60.758 116.408 61.2565 116.078 61.6644Z" fill="#263238"/>
<path d="M112.115 66.2067C112.063 66.1314 112.589 65.6975 113.22 65.1594C113.851 64.6212 114.377 64.1583 114.418 64.2162C114.458 64.2741 114.082 64.8411 113.428 65.3735C112.775 65.9058 112.161 66.2819 112.115 66.2067Z" fill="#263238"/>
<path d="M106.705 69.0187C107.088 68.6723 107.537 68.4067 108.024 68.2376C108.469 67.9752 108.964 67.8077 109.477 67.7457C108.651 68.3583 107.707 68.7919 106.705 69.0187Z" fill="#263238"/>
<path d="M101.26 71.7846C101.213 71.7093 101.763 71.2985 102.492 70.8588C102.917 70.562 103.404 70.3643 103.915 70.2802C103.962 70.3669 103.372 70.7199 102.648 71.1365C102.235 71.4461 101.762 71.6668 101.26 71.7846Z" fill="#263238"/>
<path d="M96.6297 75.7655C96.566 75.7077 96.9653 75.1406 97.5729 74.5446C97.9079 74.1478 98.3296 73.833 98.8053 73.6246C98.8632 73.6941 98.3945 74.2033 97.7985 74.7819C97.2025 75.3605 96.7223 75.8234 96.6297 75.7655Z" fill="#263238"/>
<path d="M93.1602 80.7531C93.2572 80.2425 93.471 79.7612 93.7851 79.347C94.2306 78.6238 94.6877 78.103 94.7572 78.1551C94.607 78.6466 94.3699 79.1071 94.057 79.5148C93.6173 80.2265 93.2412 80.7936 93.1602 80.7531Z" fill="#263238"/>
<path d="M90.9379 86.4237C90.9083 85.9053 91.0036 85.3874 91.2156 84.9135C91.3245 84.4045 91.5526 83.9286 91.881 83.5248C91.7116 84.5305 91.3938 85.5055 90.9379 86.4179V86.4237Z" fill="#263238"/>
<path d="M90.1381 92.4646C89.9282 91.4501 90.0003 90.3975 90.3464 89.421C90.4345 89.9264 90.4345 90.4432 90.3464 90.9486C90.3665 91.4622 90.296 91.9754 90.1381 92.4646Z" fill="#263238"/>
<path d="M90.9369 98.4995C90.6772 98.0522 90.5137 97.5556 90.4567 97.0414C90.2866 96.549 90.2428 96.0218 90.3294 95.5081C90.5535 95.9713 90.702 96.4675 90.7691 96.9778C90.9295 97.468 90.9866 97.9861 90.9369 98.4995Z" fill="#263238"/>
<path d="M93.2915 104.112C93.2163 104.158 92.8054 103.603 92.4293 102.839C92.1503 102.4 91.9815 101.9 91.9375 101.381C92.2709 101.772 92.5333 102.219 92.7129 102.7C92.9872 103.133 93.183 103.611 93.2915 104.112Z" fill="#263238"/>
<path d="M96.9494 108.99C96.8916 109.048 96.3708 108.608 95.7922 107.96C95.4196 107.597 95.1347 107.154 94.959 106.664C95.0342 106.606 95.4913 107.115 96.0352 107.752C96.5791 108.388 97.0131 108.926 96.9494 108.99Z" fill="#263238"/>
<path d="M101.648 112.867C101.145 112.732 100.681 112.48 100.294 112.132C99.611 111.634 99.1365 111.137 99.1828 111.067C99.6605 111.26 100.101 111.534 100.485 111.877C101.156 112.369 101.694 112.792 101.648 112.867Z" fill="#263238"/>
<path d="M107.144 115.494C106.623 115.49 106.111 115.361 105.651 115.118C105.149 114.977 104.69 114.715 104.314 114.354C104.821 114.429 105.312 114.587 105.767 114.823C106.259 114.972 106.723 115.198 107.144 115.494Z" fill="#263238"/>
<path d="M110.206 116.275C110.206 116.356 110.154 116.426 110.125 116.42C110.096 116.414 110.084 116.339 110.125 116.252C110.165 116.165 110.177 116.102 110.206 116.107C110.235 116.113 110.223 116.188 110.206 116.275Z" fill="#263238"/>
<path d="M105.782 101.122L99.4541 99.0439L98.1615 102.98L104.489 105.058L105.782 101.122Z" fill="#2B1FC5"/>
<g opacity="0.3">
<path d="M105.782 101.122L99.4541 99.0439L98.1615 102.98L104.489 105.058L105.782 101.122Z" fill="black"/>
</g>
<path d="M105.768 101.132C104.585 101.726 103.358 102.229 102.099 102.637L101.989 102.677L101.92 102.585L101.81 102.446C100.932 101.378 100.141 100.243 99.4434 99.0493C100.397 100.05 101.273 101.121 102.065 102.255L102.169 102.394L101.989 102.342C103.214 101.838 104.478 101.433 105.768 101.132Z" fill="#2B1FC5"/>
<g opacity="0.1">
<path d="M105.768 101.132C104.585 101.726 103.358 102.229 102.099 102.637L101.989 102.677L101.92 102.585L101.81 102.446C100.932 101.378 100.141 100.243 99.4434 99.0493C100.397 100.05 101.273 101.121 102.065 102.255L102.169 102.394L101.989 102.342C103.214 101.838 104.478 101.433 105.768 101.132Z" fill="black"/>
</g>
<path d="M101.26 101.462C100.825 101.854 100.321 102.162 99.7733 102.371C99.2691 102.669 98.7171 102.879 98.1416 102.99C98.581 102.6 99.0866 102.293 99.6344 102.081C100.137 101.784 100.687 101.574 101.26 101.462Z" fill="#2B1FC5"/>
<g opacity="0.1">
<path d="M101.259 101.462C100.824 101.854 100.32 102.162 99.7723 102.371C99.2682 102.669 98.7161 102.879 98.1406 102.99C98.58 102.6 99.0856 102.293 99.6335 102.081C100.136 101.784 100.686 101.574 101.259 101.462Z" fill="black"/>
</g>
<path d="M104.587 105.102C104.232 104.665 103.958 104.17 103.776 103.638C103.395 102.776 103.14 102.035 103.256 102.047C103.611 102.483 103.887 102.979 104.072 103.51C104.341 104.004 104.516 104.544 104.587 105.102Z" fill="#2B1FC5"/>
<g opacity="0.1">
<path d="M104.587 105.102C104.233 104.665 103.959 104.17 103.777 103.638C103.396 102.776 103.141 102.035 103.257 102.047C103.612 102.483 103.888 102.979 104.073 103.51C104.342 104.004 104.517 104.544 104.587 105.102Z" fill="black"/>
</g>
<path d="M131.583 116.541L115.311 111.197L111.985 121.323L128.257 126.667L131.583 116.541Z" fill="#2B1FC5"/>
<path d="M131.569 116.553C131.337 116.686 131.093 116.796 130.84 116.882L128.815 117.675C127.079 118.329 124.713 119.22 122.045 120.198L121.935 120.238L121.866 120.146L121.594 119.787C119.823 117.473 118.226 115.314 117.086 113.758L115.727 111.912C115.553 111.691 115.4 111.455 115.27 111.206C115.482 111.398 115.675 111.609 115.848 111.837L117.266 113.625C118.452 115.141 120.072 117.253 121.848 119.596L122.12 119.949L121.941 119.897C124.603 118.925 127.004 118.069 128.74 117.467L130.8 116.767C131.049 116.671 131.307 116.6 131.569 116.553Z" fill="#2B1FC5"/>
<g opacity="0.2">
<path d="M131.566 116.553C131.335 116.686 131.09 116.796 130.837 116.883L128.812 117.675C127.076 118.329 124.71 119.22 122.042 120.198L121.932 120.239L121.863 120.146L121.591 119.787C119.82 117.473 118.223 115.315 117.083 113.758L115.724 111.912C115.55 111.691 115.397 111.455 115.267 111.206C115.479 111.398 115.673 111.609 115.845 111.837L117.263 113.625C118.449 115.141 120.069 117.253 121.846 119.596L122.117 119.949L121.938 119.897C124.6 118.925 127.001 118.069 128.737 117.467L130.797 116.767C131.046 116.672 131.304 116.6 131.566 116.553Z" fill="black"/>
</g>
<path d="M119.995 117.415C118.73 118.205 117.411 118.907 116.049 119.515C114.732 120.213 113.37 120.82 111.97 121.332C113.23 120.535 114.547 119.831 115.91 119.226C117.226 118.523 118.591 117.918 119.995 117.415Z" fill="#2B1FC5"/>
<g opacity="0.2">
<path d="M119.995 117.415C118.73 118.205 117.411 118.907 116.049 119.515C114.732 120.214 113.37 120.821 111.97 121.332C113.23 120.535 114.547 119.831 115.91 119.226C117.226 118.523 118.591 117.918 119.995 117.415Z" fill="black"/>
</g>
<path d="M128.536 126.771C127.824 125.53 127.203 124.238 126.678 122.906C126.06 121.613 125.538 120.277 125.116 118.908C125.829 120.151 126.45 121.445 126.974 122.779C127.592 124.069 128.114 125.404 128.536 126.771Z" fill="#2B1FC5"/>
<g opacity="0.2">
<path d="M128.536 126.771C127.824 125.529 127.203 124.238 126.678 122.906C126.06 121.613 125.538 120.277 125.116 118.908C125.829 120.151 126.45 121.445 126.974 122.779C127.592 124.069 128.114 125.403 128.536 126.771Z" fill="black"/>
</g>
<path d="M116.189 113.7C115.784 113.997 115.3 114.168 114.799 114.19C114.297 114.212 113.8 114.085 113.37 113.824C112.941 113.564 112.598 113.182 112.385 112.727C112.173 112.272 112.1 111.764 112.176 111.268C112.252 110.771 112.473 110.308 112.812 109.938C113.151 109.567 113.593 109.305 114.08 109.185C114.568 109.065 115.08 109.093 115.553 109.264C116.025 109.435 116.436 109.743 116.733 110.147C116.931 110.416 117.074 110.721 117.153 111.046C117.233 111.37 117.248 111.706 117.198 112.036C117.147 112.366 117.032 112.683 116.859 112.969C116.686 113.254 116.458 113.503 116.189 113.7Z" fill="#263238"/>
<path d="M116.303 111.183C115.765 111.583 115.194 111.935 114.596 112.236L114.191 112.462L114.116 112.502L114.075 112.433C113.801 111.998 113.569 111.539 113.381 111.062C113.703 111.462 113.984 111.895 114.22 112.352L114.11 112.317L114.515 112.086C115.084 111.733 115.682 111.431 116.303 111.183Z" fill="white"/>
<path d="M121.131 102.897L112.604 100.097L110.862 105.402L119.389 108.202L121.131 102.897Z" fill="#2B1FC5"/>
<g opacity="0.2">
<path d="M121.131 102.897L112.604 100.097L110.862 105.402L119.389 108.202L121.131 102.897Z" fill="black"/>
</g>
<path d="M121.112 102.903C120.993 102.974 120.867 103.032 120.736 103.076L119.671 103.493C118.774 103.834 117.525 104.303 116.124 104.812H116.066L116.032 104.76L115.893 104.575C114.961 103.348 114.157 102.232 113.526 101.416L112.832 100.473C112.742 100.356 112.663 100.232 112.595 100.102C112.702 100.202 112.799 100.313 112.884 100.432L113.63 101.369C114.25 102.162 115.1 103.267 116.026 104.494L116.171 104.685H116.078C117.473 104.176 118.728 103.724 119.642 103.412L120.719 103.047C120.844 102.985 120.976 102.936 121.112 102.903Z" fill="#2B1FC5"/>
<g opacity="0.2">
<path d="M121.115 102.903C120.996 102.974 120.87 103.032 120.739 103.077L119.674 103.493C118.777 103.835 117.528 104.303 116.127 104.813H116.069L116.035 104.76L115.896 104.575C114.964 103.349 114.16 102.232 113.529 101.416L112.835 100.473C112.745 100.356 112.666 100.233 112.598 100.103C112.705 100.203 112.802 100.313 112.887 100.432L113.633 101.37C114.253 102.162 115.103 103.268 116.029 104.494L116.174 104.685H116.081C117.475 104.176 118.731 103.725 119.645 103.412L120.722 103.048C120.847 102.985 120.979 102.936 121.115 102.903Z" fill="#2B1FC5"/>
</g>
<path d="M115.054 103.354C114.391 103.767 113.701 104.134 112.989 104.454C112.297 104.82 111.582 105.139 110.848 105.408C111.508 104.99 112.199 104.62 112.913 104.303C113.603 103.936 114.319 103.619 115.054 103.354Z" fill="#2B1FC5"/>
<g opacity="0.2">
<path d="M115.053 103.354C114.39 103.766 113.7 104.134 112.988 104.454C112.296 104.82 111.581 105.139 110.847 105.408C111.507 104.99 112.198 104.62 112.912 104.303C113.602 103.936 114.318 103.619 115.053 103.354Z" fill="#2B1FC5"/>
</g>
<path d="M119.526 108.255C119.153 107.605 118.828 106.928 118.554 106.23C118.232 105.551 117.958 104.852 117.732 104.135C118.434 105.461 119.034 106.838 119.526 108.255Z" fill="#2B1FC5"/>
<g opacity="0.2">
<path d="M119.528 108.255C119.155 107.605 118.83 106.928 118.556 106.23C118.234 105.551 117.96 104.852 117.734 104.135C118.436 105.461 119.036 106.838 119.528 108.255Z" fill="#2B1FC5"/>
</g>
<path d="M52.6555 36.4943C52.0671 38.8101 50.8052 40.8995 49.0294 42.4982C47.2537 44.0969 45.0437 45.1331 42.679 45.4758C40.3143 45.8186 37.9011 45.4525 35.7445 44.4238C33.5878 43.3951 31.7847 41.75 30.563 39.6966C29.3412 37.6431 28.7558 35.2735 28.8808 32.8874C29.0057 30.5012 29.8354 28.2057 31.2649 26.2911C32.6944 24.3765 34.6595 22.9287 36.9118 22.1309C39.1641 21.3331 41.6023 21.221 43.9183 21.8089C47.0237 22.5987 49.6884 24.5892 51.3268 27.343C52.9652 30.0967 53.4431 33.3883 52.6555 36.4943Z" fill="#263238"/>
<path d="M45.4048 26.9701C45.6189 27.0569 44.2476 31.1015 42.3381 36.0082C42.0546 36.7199 41.7595 37.4027 41.5223 38.0739L41.3776 38.4384L41.0131 38.2996C37.0958 36.7894 34.2316 35.5453 34.301 35.366C34.3705 35.1866 37.3446 36.1239 41.2908 37.5531L40.7816 37.7846C41.0362 37.1134 41.3024 36.4248 41.5743 35.7131C43.478 30.8006 45.1965 26.9065 45.4048 26.9701Z" fill="white"/>
<path d="M201.158 207.489C203.322 206.472 205.756 206.176 208.101 206.644C209.363 206.852 210.676 207.223 211.538 208.172C212.4 209.121 212.557 210.787 211.573 211.603C210.936 212.029 210.172 212.223 209.409 212.153C207.569 212.153 205.532 211.805 204.063 212.911C203.224 213.541 202.668 214.589 201.667 214.901C201.166 215.015 200.642 214.964 200.173 214.756C199.703 214.547 199.314 214.192 199.063 213.744C198.586 212.823 198.481 211.754 198.768 210.758C198.887 210.066 199.164 209.41 199.579 208.843C199.994 208.276 200.534 207.812 201.158 207.489Z" fill="#2B1FC5"/>
<g opacity="0.2">
<path d="M201.159 207.489C203.323 206.472 205.757 206.176 208.102 206.644C209.364 206.853 210.677 207.223 211.539 208.172C212.401 209.121 212.558 210.787 211.574 211.603C210.937 212.029 210.173 212.223 209.41 212.153C207.57 212.153 205.533 211.806 204.064 212.911C203.225 213.542 202.669 214.589 201.668 214.901C201.167 215.015 200.643 214.964 200.174 214.756C199.704 214.547 199.315 214.192 199.064 213.744C198.587 212.823 198.482 211.755 198.769 210.758C198.888 210.066 199.165 209.41 199.58 208.843C199.995 208.276 200.535 207.812 201.159 207.489Z" fill="white"/>
</g>
<path d="M196.315 198.138C197.611 199.984 200.122 199.371 201.285 198.243C202.448 197.114 202.946 195.483 203.391 193.926C204.415 190.368 205.445 186.635 204.687 183.013C204.5 181.916 204.018 180.89 203.293 180.045C202.924 179.63 202.452 179.318 201.925 179.143C201.398 178.967 200.834 178.933 200.29 179.044C199.023 179.379 198.236 180.624 197.669 181.804C195.993 185.289 195.113 189.104 195.094 192.971C195.094 194.771 195.302 196.657 196.315 198.144" fill="#2B1FC5"/>
<path d="M192.768 200.789C194.168 199.122 194.435 196.692 193.81 194.603C193.101 192.531 191.835 190.693 190.153 189.291C188.236 187.599 186.01 186.294 183.597 185.449C182.661 185.071 181.654 184.899 180.646 184.946C180.143 184.976 179.654 185.128 179.223 185.389C178.791 185.65 178.43 186.012 178.169 186.444C177.481 187.758 178.141 189.338 178.858 190.657C180.12 192.953 181.559 195.147 183.163 197.218C184.453 198.879 185.935 200.522 187.902 201.269C189.869 202.015 191.912 201.934 192.953 200.569" fill="#2B1FC5"/>
<g opacity="0.1">
<path d="M192.768 200.789C194.168 199.122 194.435 196.692 193.81 194.603C193.101 192.531 191.835 190.693 190.153 189.291C188.236 187.599 186.01 186.294 183.597 185.449C182.661 185.071 181.654 184.899 180.646 184.946C180.143 184.976 179.654 185.128 179.223 185.389C178.791 185.65 178.43 186.012 178.169 186.444C177.481 187.758 178.141 189.338 178.858 190.657C180.12 192.953 181.559 195.147 183.163 197.218C184.453 198.879 185.935 200.522 187.902 201.269C189.869 202.015 191.912 201.934 192.953 200.569" fill="black"/>
</g>
<path d="M196.229 225.988C196.296 225.713 196.335 225.431 196.345 225.149C196.408 224.535 196.478 223.771 196.57 222.834C196.684 221.707 196.856 220.587 197.085 219.478C197.384 218.126 197.793 216.8 198.306 215.514C198.808 214.229 199.49 213.021 200.331 211.927C201.014 211.035 201.888 210.308 202.889 209.798C203.567 209.464 204.293 209.237 205.041 209.127C205.322 209.117 205.602 209.078 205.875 209.011C205.594 208.976 205.31 208.976 205.03 209.011C204.251 209.069 203.489 209.265 202.779 209.589C201.728 210.089 200.805 210.823 200.083 211.736C199.206 212.845 198.498 214.077 197.982 215.393C197.463 216.706 197.058 218.061 196.773 219.443C196.555 220.565 196.406 221.7 196.327 222.84C196.252 223.812 196.223 224.576 196.212 225.154C196.189 225.432 196.195 225.711 196.229 225.988Z" fill="#263238"/>
<path d="M196.385 224.217C196.402 224.088 196.402 223.958 196.385 223.829V222.718C196.385 221.752 196.385 220.352 196.431 218.628C196.518 215.156 196.813 210.405 197.391 205.169C197.97 199.932 198.734 195.216 199.434 191.86C199.596 191.016 199.764 190.252 199.92 189.586C200.076 188.921 200.198 188.337 200.319 187.851C200.441 187.365 200.51 187.052 200.58 186.769C200.619 186.643 200.642 186.512 200.649 186.381C200.59 186.497 200.546 186.619 200.516 186.745L200.192 187.816C200.047 188.279 199.903 188.852 199.735 189.517C199.567 190.182 199.376 190.94 199.191 191.791C198.247 196.194 197.538 200.644 197.067 205.122C196.489 210.371 196.234 215.15 196.211 218.61C196.211 220.346 196.211 221.741 196.269 222.707C196.296 223.158 196.319 223.528 196.338 223.818C196.341 223.952 196.356 224.086 196.385 224.217Z" fill="#263238"/>
<path d="M196.408 215.005C196.439 214.62 196.439 214.233 196.408 213.848C196.343 212.793 196.223 211.743 196.049 210.7C195.474 207.254 194.487 203.889 193.109 200.678C191.78 197.433 189.87 194.456 187.474 191.895C187.059 191.456 186.617 191.044 186.149 190.663C185.946 190.489 185.767 190.321 185.57 190.182L185.061 189.829C184.749 189.595 184.42 189.384 184.077 189.199C185.205 190.087 186.277 191.044 187.288 192.063C189.605 194.645 191.464 197.604 192.785 200.812C193.545 202.561 194.189 204.359 194.712 206.193C195.216 207.877 195.551 209.427 195.806 210.735C196.06 212.043 196.182 213.113 196.269 213.854C196.287 214.24 196.334 214.625 196.408 215.005Z" fill="#263238"/>
<path d="M108.406 138.725H132.633L142.227 111.923H140.884L131.372 137.418L108.406 137.551V138.725Z" fill="#455A64"/>
<path d="M97.6992 142.111L98.5961 226.063H101.061L100.06 141.491L97.6992 142.111Z" fill="#263238"/>
<path d="M149.556 141.295C149.226 142.897 151.778 226.254 151.778 226.254H154.092L152.212 141.295H149.556Z" fill="#263238"/>
<path d="M177.879 138.725H74.8672V142.973H83.3672L77.8355 225.791L80.2542 225.924L85.7916 142.973H169.212L173.256 225.959H175.681L171.636 142.973H177.879V138.725Z" fill="#263238"/>
<path d="M119.775 222.903V216.539L107.85 216.417L107.717 225.733L108.457 225.785C111.744 226.005 125.191 226.653 127.396 226.011C129.849 225.293 119.775 222.903 119.775 222.903Z" fill="#2B1FC5"/>
<path d="M112.033 225.681C111.87 224.673 111.338 223.762 110.541 223.123C109.758 222.49 108.768 222.17 107.763 222.226L107.729 225.559L112.033 225.681Z" fill="#F5F5F5"/>
<path d="M124.684 224.246C124.684 224.246 128.225 225.31 127.774 225.889C127.322 226.468 113.713 226.323 107.713 225.733V225.467L123.59 225.773C123.59 225.773 123.99 224.269 124.684 224.246Z" fill="#F5F5F5"/>
<path d="M107.551 225.455H107.753L108.332 225.501L110.496 225.617C112.324 225.704 114.853 225.785 117.648 225.819C120.443 225.854 122.977 225.819 124.805 225.779L126.975 225.715L127.554 225.686H127.756C127.689 225.678 127.621 225.678 127.554 225.686H126.975H124.805C122.977 225.686 120.443 225.686 117.654 225.686C114.865 225.686 112.33 225.582 110.502 225.524L108.332 225.455H107.753H107.551Z" fill="#263238"/>
<path d="M123.606 225.953C123.705 225.594 123.844 225.248 124.023 224.923C124.238 224.62 124.489 224.344 124.769 224.101C124.411 224.256 124.109 224.516 123.902 224.846C123.696 225.177 123.594 225.563 123.612 225.953H123.606Z" fill="#263238"/>
<path d="M120.104 224.136C120.139 224.136 120.313 223.951 120.486 223.679C120.66 223.407 120.781 223.17 120.747 223.146C120.712 223.123 120.544 223.332 120.365 223.604C120.24 223.76 120.152 223.942 120.104 224.136Z" fill="#263238"/>
<path d="M119.144 223.638C119.173 223.667 119.364 223.546 119.572 223.361C119.781 223.175 119.925 223.008 119.896 222.979C119.867 222.95 119.682 223.071 119.474 223.251C119.266 223.43 119.121 223.586 119.144 223.638Z" fill="#263238"/>
<path d="M118.549 222.481C118.746 222.558 118.958 222.587 119.168 222.568C119.378 222.595 119.591 222.575 119.793 222.51C119.596 222.433 119.384 222.404 119.174 222.423C118.964 222.396 118.75 222.416 118.549 222.481Z" fill="#263238"/>
<path d="M118.347 221.688C118.561 221.805 118.797 221.875 119.04 221.896C119.283 221.917 119.528 221.888 119.759 221.81C119.288 221.773 118.817 221.733 118.347 221.688Z" fill="#263238"/>
<path d="M120.521 223.1C120.776 223.144 121.036 223.144 121.291 223.1C121.568 223.071 121.841 223.015 122.107 222.932C122.27 222.887 122.427 222.823 122.576 222.741C122.621 222.717 122.662 222.684 122.694 222.645C122.727 222.605 122.752 222.559 122.767 222.51C122.779 222.453 122.776 222.393 122.756 222.338C122.737 222.283 122.702 222.234 122.657 222.197C122.366 222.054 122.035 222.014 121.719 222.086C121.403 222.158 121.121 222.336 120.921 222.591C120.799 222.74 120.71 222.914 120.66 223.1C120.66 223.233 120.66 223.308 120.66 223.308C120.737 223.072 120.857 222.853 121.013 222.66C121.187 222.458 121.416 222.311 121.673 222.238C121.823 222.19 121.981 222.172 122.138 222.184C122.294 222.197 122.447 222.241 122.587 222.313C122.709 222.406 122.657 222.545 122.524 222.626C122.385 222.7 122.24 222.76 122.09 222.805C121.831 222.891 121.566 222.957 121.297 223.002C120.817 223.059 120.521 223.059 120.521 223.1Z" fill="#263238"/>
<path d="M120.718 223.14C120.815 222.981 120.85 222.792 120.816 222.608C120.795 222.402 120.726 222.204 120.614 222.03C120.55 221.914 120.458 221.817 120.347 221.748C120.236 221.678 120.108 221.637 119.977 221.63C119.899 221.646 119.83 221.691 119.786 221.758C119.741 221.824 119.725 221.905 119.74 221.983C119.756 222.104 119.797 222.221 119.861 222.325C119.964 222.493 120.084 222.65 120.22 222.793C120.336 222.933 120.485 223.04 120.654 223.106C120.654 223.106 120.504 222.967 120.295 222.724C120.175 222.581 120.07 222.426 119.983 222.261C119.879 222.099 119.809 221.804 119.983 221.775C120.157 221.746 120.371 221.948 120.486 222.105C120.589 222.255 120.66 222.424 120.695 222.602C120.723 222.78 120.731 222.961 120.718 223.14Z" fill="#263238"/>
<path d="M107.827 222.197C107.827 222.197 108.169 222.168 108.707 222.238C109.407 222.327 110.07 222.607 110.622 223.048C111.159 223.51 111.559 224.11 111.779 224.784C111.953 225.293 111.97 225.64 111.993 225.634C112.016 225.629 111.993 225.548 111.993 225.397C111.973 225.178 111.933 224.961 111.872 224.749C111.664 224.047 111.249 223.424 110.681 222.961C110.113 222.499 109.419 222.219 108.689 222.157C108.47 222.132 108.249 222.132 108.03 222.157C107.96 222.157 107.891 222.171 107.827 222.197Z" fill="#263238"/>
<path d="M109.117 217.273C108.978 218.901 108.939 220.536 109.001 222.168C109.093 221.356 109.135 220.539 109.128 219.721C109.17 218.905 109.166 218.088 109.117 217.273Z" fill="#263238"/>
<path d="M113.551 224.535C114.118 224.676 114.702 224.74 115.287 224.726C115.868 224.764 116.452 224.723 117.023 224.605C117.023 224.564 116.241 224.605 115.287 224.605C114.332 224.605 113.557 224.495 113.551 224.535Z" fill="#263238"/>
<path d="M111.212 224.506C111.212 224.535 111.276 224.674 111.351 224.853C111.426 225.033 111.472 225.189 111.513 225.189C111.553 225.189 111.576 224.998 111.484 224.795C111.391 224.593 111.241 224.477 111.212 224.506Z" fill="#263238"/>
<path d="M110.344 223.401C110.344 223.43 110.39 223.551 110.512 223.679C110.633 223.806 110.755 223.887 110.784 223.858C110.812 223.829 110.737 223.708 110.616 223.58C110.494 223.453 110.373 223.372 110.344 223.401Z" fill="#263238"/>
<path d="M109.088 222.886C109.088 222.926 109.256 222.926 109.43 222.99C109.603 223.054 109.731 223.152 109.76 223.123C109.789 223.094 109.696 222.932 109.476 222.857C109.256 222.782 109.077 222.851 109.088 222.886Z" fill="#263238"/>
<path d="M108.203 222.643C108.203 222.678 108.255 222.741 108.354 222.782C108.452 222.822 108.545 222.822 108.556 222.782C108.568 222.741 108.504 222.683 108.406 222.643C108.307 222.602 108.203 222.602 108.203 222.643Z" fill="#263238"/>
<path d="M143.222 216.481L140.607 210.665L129.688 215.462L133.397 224.003L134.092 223.748C137.182 222.591 149.715 217.655 151.45 216.162C153.412 214.496 143.222 216.481 143.222 216.481Z" fill="#2B1FC5"/>
<path d="M137.336 222.18C136.773 221.321 135.911 220.703 134.918 220.444C133.946 220.192 132.915 220.309 132.024 220.774L133.361 223.823L137.336 222.18Z" fill="#F5F5F5"/>
<path d="M148.273 215.671C148.273 215.671 151.935 215.179 151.744 215.896C151.554 216.614 139.107 222.076 133.396 223.997L133.31 223.748L147.902 217.493C147.902 217.493 147.648 215.977 148.273 215.671Z" fill="#F5F5F5"/>
<path d="M133.147 223.823L133.344 223.76L133.923 223.557L135.948 222.77C137.649 222.093 139.998 221.133 142.55 220.01C145.102 218.888 147.405 217.829 149.054 217.03L151.004 216.081L151.53 215.809C151.594 215.784 151.654 215.751 151.71 215.711L151.519 215.786L150.981 216.029L149.013 216.944C147.353 217.707 145.05 218.76 142.492 219.877C139.935 220.994 137.597 221.978 135.908 222.678L133.905 223.505L133.362 223.731L133.147 223.823Z" fill="#263238"/>
<path d="M147.994 217.673C147.934 217.305 147.918 216.932 147.948 216.562C148.024 216.198 148.139 215.843 148.29 215.503C148.006 215.776 147.833 216.145 147.803 216.538C147.726 216.927 147.794 217.331 147.994 217.673Z" fill="#263238"/>
<path d="M144.078 217.447C144.118 217.447 144.188 217.198 144.24 216.868C144.292 216.538 144.298 216.29 144.24 216.29C144.182 216.29 144.13 216.538 144.078 216.868C144.03 217.058 144.03 217.257 144.078 217.447Z" fill="#263238"/>
<path d="M142.968 217.372C143.002 217.372 143.124 217.192 143.24 216.944C143.355 216.695 143.413 216.475 143.378 216.458C143.344 216.44 143.222 216.631 143.107 216.886C142.991 217.14 142.921 217.354 142.968 217.372Z" fill="#263238"/>
<path d="M141.955 216.585C142.158 216.565 142.355 216.504 142.534 216.405C142.852 216.272 143.112 216.133 143.077 216.099C143.043 216.064 142.794 216.139 142.499 216.272C142.204 216.405 141.938 216.544 141.955 216.585Z" fill="#263238"/>
<path d="M141.444 215.943C141.688 215.982 141.938 215.948 142.162 215.844C142.399 215.786 142.613 215.657 142.775 215.474C142.547 215.533 142.324 215.612 142.11 215.711C141.881 215.767 141.658 215.844 141.444 215.943Z" fill="#263238"/>
<path d="M144.009 216.336C144.258 216.271 144.495 216.166 144.709 216.024C144.947 215.88 145.172 215.715 145.38 215.532C145.511 215.423 145.629 215.301 145.733 215.167C145.794 215.082 145.821 214.976 145.809 214.872C145.798 214.815 145.771 214.763 145.731 214.722C145.691 214.681 145.639 214.652 145.583 214.641C145.374 214.632 145.165 214.67 144.972 214.752C144.779 214.834 144.607 214.958 144.468 215.114C144.329 215.271 144.226 215.457 144.168 215.658C144.11 215.86 144.097 216.071 144.131 216.278C144.137 216.349 144.159 216.418 144.194 216.481C144.174 216.232 144.193 215.982 144.252 215.74C144.328 215.485 144.477 215.258 144.68 215.086C144.916 214.875 145.226 214.765 145.542 214.779C145.693 214.808 145.705 214.959 145.612 215.092C145.517 215.215 145.41 215.33 145.294 215.433C145.091 215.615 144.877 215.784 144.651 215.937C144.264 216.197 143.998 216.313 144.009 216.336Z" fill="#263238"/>
<path d="M144.206 216.29C144.224 216.106 144.177 215.922 144.072 215.769C143.968 215.595 143.826 215.446 143.656 215.335C143.551 215.258 143.428 215.208 143.298 215.191C143.169 215.174 143.037 215.189 142.915 215.237C142.85 215.282 142.806 215.351 142.792 215.429C142.778 215.507 142.795 215.588 142.84 215.653C142.903 215.759 142.99 215.848 143.095 215.914C143.256 216.029 143.431 216.124 143.615 216.197C143.779 216.275 143.96 216.311 144.142 216.301C144.142 216.301 143.945 216.238 143.656 216.099C143.485 216.021 143.324 215.924 143.176 215.809C143.014 215.705 142.834 215.468 142.996 215.358C143.093 215.33 143.196 215.323 143.296 215.339C143.396 215.355 143.491 215.393 143.575 215.451C143.734 215.543 143.87 215.67 143.974 215.821C144.064 215.97 144.142 216.127 144.206 216.29Z" fill="#263238"/>
<path d="M132.066 220.745C132.066 220.745 132.361 220.577 132.882 220.421C133.556 220.209 134.276 220.193 134.96 220.375C135.643 220.556 136.26 220.927 136.741 221.445C137.111 221.844 137.268 222.151 137.291 222.134C137.269 222.056 137.235 221.982 137.192 221.914C137.087 221.723 136.961 221.545 136.816 221.382C136.34 220.823 135.707 220.42 134.999 220.224C134.291 220.042 133.544 220.072 132.853 220.311C132.65 220.385 132.456 220.48 132.274 220.595C132.124 220.676 132.06 220.745 132.066 220.745Z" fill="#263238"/>
<path d="M131.204 215.694C131.45 216.483 131.745 217.256 132.089 218.008C132.39 218.769 132.731 219.513 133.114 220.236C132.862 219.457 132.565 218.694 132.222 217.95C131.925 217.18 131.585 216.426 131.204 215.694Z" fill="#263238"/>
<path d="M138.24 220.514C138.817 220.403 139.377 220.221 139.907 219.97C140.455 219.765 140.973 219.487 141.446 219.142C141.446 219.108 140.734 219.46 139.849 219.837C138.964 220.213 138.229 220.473 138.24 220.514Z" fill="#263238"/>
<path d="M136.099 221.445C136.099 221.486 136.226 221.573 136.371 221.706C136.515 221.839 136.619 221.966 136.654 221.943C136.689 221.92 136.654 221.746 136.469 221.596C136.284 221.445 136.11 221.411 136.099 221.445Z" fill="#263238"/>
<path d="M134.854 220.797C134.854 220.838 134.959 220.919 135.121 220.982C135.283 221.046 135.427 221.069 135.445 221.034C135.462 221 135.341 220.913 135.179 220.849C135.017 220.785 134.866 220.745 134.854 220.797Z" fill="#263238"/>
<path d="M133.501 220.843C133.501 220.878 133.669 220.814 133.854 220.803C134.039 220.791 134.189 220.803 134.207 220.803C134.224 220.803 134.068 220.652 133.842 220.676C133.616 220.699 133.472 220.814 133.501 220.843Z" fill="#263238"/>
<path d="M132.58 220.988C132.58 221.029 132.673 221.058 132.777 221.052C132.881 221.046 132.968 221.011 132.968 220.971C132.968 220.93 132.875 220.901 132.771 220.907C132.667 220.913 132.58 220.948 132.58 220.988Z" fill="#263238"/>
<path d="M35.0129 173.946L26.403 109.609C26.3493 109.209 26.3857 108.801 26.5095 108.417C26.6333 108.032 26.8415 107.68 27.1187 107.386C27.3959 107.092 27.7353 106.864 28.112 106.718C28.4887 106.572 28.8932 106.512 29.2961 106.542L50.0513 108.278C50.9771 108.356 51.8453 108.76 52.5012 109.418C53.157 110.076 53.5581 110.945 53.633 111.871L58.6901 172.783L35.0129 173.946Z" fill="#2B1FC5"/>
<g opacity="0.2">
<path d="M35.0129 173.946L26.403 109.609C26.3493 109.208 26.3857 108.801 26.5095 108.416C26.6333 108.032 26.8415 107.68 27.1187 107.386C27.3959 107.092 27.7353 106.864 28.112 106.718C28.4887 106.572 28.8932 106.512 29.2961 106.542L50.0513 108.278C50.9771 108.356 51.8453 108.76 52.5012 109.418C53.157 110.076 53.5581 110.945 53.633 111.871L58.6901 172.783L35.0129 173.946Z" fill="black"/>
</g>
<path d="M55.0334 79.3933C54.8598 76.9399 54.2175 74.5502 53.8761 72.12C53.5347 69.6897 53.4653 67.1322 54.4258 64.8698C55.0137 63.6086 55.8449 62.4758 56.8716 61.5364C57.8983 60.5971 59.1003 59.8697 60.4088 59.396C63.0368 58.4636 65.843 58.143 68.6137 58.4587C69.1145 58.4739 69.6077 58.5859 70.066 58.7885C70.2923 58.8933 70.4875 59.055 70.6325 59.2579C70.7775 59.4607 70.8675 59.6977 70.8934 59.9457C70.899 60.0689 70.8792 60.1918 70.8352 60.3069C70.7912 60.422 70.7239 60.5268 70.6376 60.6148C70.5512 60.7027 70.4477 60.772 70.3335 60.8181C70.2192 60.8643 70.0966 60.8864 69.9734 60.8831C71.0303 60.9911 72.0722 61.2142 73.0806 61.5485C73.4904 61.6646 73.8466 61.9205 74.0874 62.2718C74.1851 62.4918 74.2237 62.7335 74.1994 62.973C74.175 63.2125 74.0886 63.4415 73.9486 63.6373C73.6609 64.025 73.3062 64.3582 72.9013 64.621C73.0251 64.5966 73.1526 64.5969 73.2763 64.6218C73.4001 64.6467 73.5178 64.6957 73.6225 64.7661C73.7273 64.8365 73.8172 64.9269 73.8871 65.032C73.9569 65.1372 74.0053 65.2551 74.0296 65.379C74.0666 65.6319 74.0502 65.8898 73.9815 66.1359C73.9127 66.3821 73.7931 66.6111 73.6303 66.8082C73.3352 67.2248 72.9533 67.5662 72.6467 67.9655C71.3968 69.6261 71.6399 71.9348 71.9407 73.9947" fill="#263238"/>
<path d="M55.2595 93.7661L66.9535 93.5578C67.1097 92.2038 67.3353 86.9384 67.3353 86.9384C67.3353 86.9384 72.2247 86.4871 72.5834 81.6498C72.9422 76.8125 72.7918 65.645 72.7918 65.645C70.1131 64.2928 67.122 63.6801 64.1273 63.8703C61.1327 64.0605 58.2431 65.0468 55.7571 66.7271L55.0049 67.2363L55.2595 93.7661Z" fill="#B78876"/>
<path d="M71.1703 74.0352C71.0719 73.9363 71.0051 73.8105 70.9781 73.6737C70.9512 73.5368 70.9654 73.3951 71.0189 73.2663C71.0725 73.1375 71.163 73.0275 71.279 72.9501C71.395 72.8727 71.5313 72.8314 71.6708 72.8314C71.8102 72.8314 71.9466 72.8727 72.0626 72.9501C72.1786 73.0275 72.269 73.1375 72.3226 73.2663C72.3761 73.3951 72.3903 73.5368 72.3634 73.6737C72.3365 73.8105 72.2696 73.9363 72.1713 74.0352C72.1061 74.1018 72.0282 74.1548 71.9423 74.1909C71.8563 74.2271 71.764 74.2457 71.6708 74.2457C71.5775 74.2457 71.4852 74.2271 71.3993 74.1909C71.3133 74.1548 71.2355 74.1018 71.1703 74.0352Z" fill="#263238"/>
<path d="M72.4035 72.8606C72.3225 72.9416 71.8712 72.5481 71.2058 72.5018C70.5403 72.4555 70.0485 72.7738 69.9617 72.6812C69.8749 72.5886 70.0138 72.496 70.2337 72.3456C70.5325 72.1612 70.8819 72.0759 71.2321 72.1019C71.5823 72.1278 71.9153 72.2638 72.1836 72.4902C72.3804 72.6696 72.444 72.8258 72.4035 72.8606Z" fill="#263238"/>
<path d="M64.6851 72.9705C64.7999 73.0506 64.8883 73.163 64.939 73.2935C64.9898 73.424 65.0006 73.5666 64.9701 73.7032C64.9396 73.8398 64.8691 73.9643 64.7677 74.0608C64.6663 74.1573 64.5385 74.2214 64.4005 74.2451C64.2625 74.2688 64.1206 74.2509 63.9929 74.1938C63.8651 74.1366 63.7572 74.0427 63.6829 73.9241C63.6086 73.8054 63.5712 73.6674 63.5755 73.5275C63.5799 73.3876 63.6257 73.2521 63.7072 73.1383C63.7603 73.0629 63.8277 72.9987 63.9057 72.9495C63.9836 72.9002 64.0705 72.8669 64.1613 72.8513C64.2522 72.8357 64.3452 72.8382 64.4351 72.8586C64.525 72.8791 64.61 72.9171 64.6851 72.9705Z" fill="#263238"/>
<path d="M65.1246 73.0052C65.0436 73.0804 64.5922 72.6869 63.9268 72.6407C63.2614 72.5944 62.7696 72.9126 62.6886 72.8258C62.6076 72.739 62.7349 72.6349 62.9605 72.4902C63.2573 72.3028 63.6064 72.2157 63.9565 72.2417C64.3065 72.2677 64.6389 72.4056 64.9047 72.6349C65.1014 72.8085 65.1651 72.9705 65.1246 73.0052Z" fill="#263238"/>
<path d="M67.4618 78.6699C67.8125 78.554 68.1804 78.4992 68.5496 78.5078C68.729 78.5078 68.8679 78.4673 68.8852 78.3748C68.9001 78.1998 68.8681 78.0241 68.7927 77.8656C68.648 77.4142 68.4976 76.9571 68.3471 76.4769C67.7396 74.5038 67.323 72.8778 67.4271 72.8489C67.5313 72.82 68.0983 74.3938 68.7116 76.3669C68.8563 76.8472 68.9894 77.3101 69.1283 77.7614C69.2233 77.9948 69.2395 78.2528 69.1745 78.4963C69.1455 78.5615 69.1016 78.619 69.0464 78.6643C68.9911 78.7095 68.926 78.7411 68.8563 78.7566C68.7582 78.7672 68.6593 78.7672 68.5612 78.7566C68.1925 78.7902 67.8207 78.7608 67.4618 78.6699Z" fill="#263238"/>
<path d="M65.2457 79.2718C64.5803 78.8147 67.0973 80.4291 68.457 80.4291C68.2081 80.7627 67.8531 81.0017 67.4504 81.1068C67.0477 81.212 66.6211 81.177 66.2409 81.0077C64.8059 80.4001 65.2457 79.2718 65.2457 79.2718Z" fill="white"/>
<path d="M67.3523 86.869C65.1136 86.7756 62.9538 86.016 61.1494 84.6876C61.1494 84.6876 62.4282 88.2635 67.2828 88.1246L67.3523 86.869Z" fill="#A36957"/>
<path d="M54.8478 70.8818L55.0966 77.1599C55.0966 77.1599 57.3012 76.4887 57.4458 76.425C57.5905 76.3614 57.4053 68.7351 57.4053 68.7351C57.4053 68.7351 57.0987 65.842 58.9734 65.1766C60.9465 64.4649 61.8029 65.8941 64.5976 66.3338C73.8151 67.8903 73.1844 65.0609 73.1844 65.0609C73.1844 65.0609 74.3416 63.8168 71.9751 62.4513C69.6085 61.0857 63.6892 60.6228 60.4489 61.7396C54.084 63.9326 53.7021 66.114 53.7021 68.0408C53.7021 70.7892 54.8478 70.8818 54.8478 70.8818Z" fill="#263238"/>
<path d="M55.9301 71.5297C55.8259 71.4892 52.3426 71.0379 52.6724 75.1519C53.0022 79.2659 57.0468 77.5763 57.0468 77.4664C57.0468 77.3564 55.9301 71.5297 55.9301 71.5297Z" fill="#B78876"/>
<path d="M55.6705 76.0892C55.6705 76.0892 55.601 76.1471 55.4853 76.2107C55.3194 76.297 55.1265 76.3157 54.9472 76.2628C54.6665 76.1188 54.4304 75.901 54.2643 75.6329C54.0981 75.3648 54.0081 75.0564 54.004 74.741C53.964 74.3877 54.0035 74.0298 54.1197 73.6937C54.1506 73.5646 54.2119 73.4447 54.2984 73.3441C54.385 73.2434 54.4943 73.1649 54.6174 73.1151C54.6981 73.0872 54.786 73.0882 54.8661 73.1177C54.9463 73.1472 55.0137 73.2035 55.0571 73.2771C55.1208 73.387 55.0976 73.4738 55.1208 73.4796C55.1439 73.4854 55.2018 73.3986 55.1555 73.2366C55.127 73.1351 55.0635 73.0469 54.9761 72.9878C54.8541 72.9159 54.71 72.8912 54.5711 72.9184C54.4046 72.9643 54.2528 73.0524 54.1302 73.174C54.0076 73.2956 53.9183 73.4466 53.8709 73.6127C53.7251 73.9799 53.6715 74.3772 53.7147 74.77C53.8073 75.5974 54.2933 76.338 54.872 76.4653C54.9852 76.4883 55.1022 76.4857 55.2143 76.4577C55.3265 76.4296 55.4309 76.3769 55.52 76.3033C55.6705 76.2165 55.682 76.1181 55.6705 76.0892Z" fill="#A36957"/>
<path d="M101.884 127.008C101.884 127.008 107.67 126.73 108.827 127.257C110.829 128.131 116.789 137.475 116.488 137.475C115.586 137.475 113.728 137.475 113.728 137.475L104.47 133.963L102.289 134.513L101.884 127.008Z" fill="#B78876"/>
<path d="M126.765 153.839C126.765 153.839 144.078 213.802 144.118 213.506C144.159 213.211 128.6 220.988 128.6 220.988L118.104 177.626L126.765 153.839Z" fill="#263238"/>
<path d="M128.259 221.353L144.657 213.35L143.945 211.157L127.42 219.171L128.259 221.353Z" fill="#455A64"/>
<path d="M126.107 199.296C126.02 199.296 125.84 198.943 125.696 198.462C125.551 197.982 125.505 197.56 125.592 197.537C125.678 197.513 125.858 197.884 126.002 198.37C126.147 198.856 126.188 199.267 126.107 199.296Z" fill="#455A64"/>
<path d="M127.176 202.808C127.09 202.808 126.899 202.46 126.754 201.98C126.609 201.5 126.552 201.083 126.633 201.054C126.714 201.025 126.904 201.402 127.055 201.882C127.205 202.362 127.257 202.767 127.176 202.808Z" fill="#455A64"/>
<path d="M128.294 206.28C128.207 206.308 128.016 205.938 127.86 205.458C127.704 204.978 127.646 204.567 127.727 204.538C127.808 204.509 128.005 204.879 128.161 205.359C128.317 205.84 128.375 206.28 128.294 206.28Z" fill="#455A64"/>
<path d="M129.462 209.751C129.375 209.78 129.178 209.416 129.016 208.935C128.854 208.455 128.785 208.044 128.872 208.015C128.958 207.986 129.155 208.351 129.317 208.831C129.479 209.312 129.543 209.751 129.462 209.751Z" fill="#455A64"/>
<path d="M130.677 213.223C130.596 213.223 130.388 212.887 130.22 212.413C130.052 211.938 129.977 211.528 130.064 211.499C130.15 211.47 130.347 211.828 130.521 212.309C130.694 212.789 130.77 213.177 130.677 213.223Z" fill="#455A64"/>
<path d="M131.927 216.643C131.84 216.643 131.632 216.313 131.458 215.838C131.284 215.364 131.203 214.953 131.284 214.924C131.365 214.895 131.58 215.254 131.753 215.728C131.927 216.203 132.025 216.614 131.927 216.643Z" fill="#455A64"/>
<path d="M131.018 218.083C130.875 217.891 130.759 217.681 130.671 217.459C130.468 217.042 130.191 216.434 129.872 215.676C129.23 214.16 128.437 212.025 127.639 209.647C126.84 207.269 126.169 205.093 125.695 203.52C125.475 202.779 125.29 202.154 125.116 201.651C125.032 201.425 124.978 201.19 124.954 200.95C125.067 201.161 125.16 201.382 125.232 201.61C125.394 202.044 125.614 202.669 125.88 203.45L127.911 209.543C128.704 211.921 129.462 214.062 130.052 215.595L130.758 217.406C130.868 217.622 130.956 217.849 131.018 218.083Z" fill="#455A64"/>
<path d="M45.9955 149.673C46.1402 146.496 44.3349 167.107 60.1775 167.651C76.0202 168.195 108.388 167.957 108.388 167.957L104.598 220.224H123.606L127.576 164.619C127.576 164.619 129.601 148.51 118.578 146.456C111.681 145.165 68.7875 144.755 68.7875 144.755L45.9955 149.673Z" fill="#263238"/>
<path d="M104.164 220.334H124.179V217.221L104.164 217.25V220.334Z" fill="#455A64"/>
<path d="M72.8555 165.197C72.9227 165.189 72.9907 165.189 73.058 165.197L73.6366 165.162L75.9511 165.058L84.5437 164.729L113.527 163.733H113.712V163.918C113.452 166.048 113.232 168.299 113.047 170.584C112.792 173.853 112.549 177.042 112.312 180.12C112.075 183.198 111.733 186.161 111.438 188.984C110.859 194.62 110.316 199.7 109.864 203.977C109.413 208.253 109.037 211.678 108.776 214.079C108.643 215.237 108.539 216.185 108.464 216.828C108.429 217.129 108.4 217.366 108.377 217.539C108.37 217.621 108.356 217.703 108.337 217.782C108.328 217.702 108.328 217.62 108.337 217.539C108.337 217.36 108.371 217.123 108.394 216.822C108.452 216.174 108.539 215.248 108.649 214.068C108.881 211.666 109.228 208.212 109.639 203.953C110.049 199.695 110.576 194.597 111.143 188.95C111.421 186.126 111.722 183.163 111.994 180.091C112.265 177.018 112.474 173.824 112.723 170.561C112.908 168.247 113.128 166.019 113.394 163.878L113.556 164.057L84.5668 164.943L75.9742 165.18L73.6598 165.226H73.0811C73.0049 165.228 72.9288 165.218 72.8555 165.197Z" fill="#455A64"/>
<path d="M74.6839 162.935C74.6839 163.022 74.2789 163.103 73.7697 163.114C73.2605 163.126 72.8555 163.068 72.8555 162.981C72.8555 162.894 73.2605 162.807 73.7639 162.796C74.2673 162.784 74.6839 162.848 74.6839 162.935Z" fill="#455A64"/>
<path d="M78.346 162.848C78.346 162.935 77.941 163.016 77.4318 163.027C76.9226 163.039 76.5176 162.981 76.5118 162.894C76.506 162.807 76.9226 162.726 77.426 162.709C77.9294 162.692 78.346 162.761 78.346 162.848Z" fill="#455A64"/>
<path d="M82.0081 162.761C82.0081 162.854 81.6031 162.929 81.0939 162.946C80.5847 162.964 80.1797 162.894 80.1739 162.808C80.1681 162.721 80.5847 162.64 81.0881 162.628C81.5915 162.617 82.0081 162.674 82.0081 162.761Z" fill="#455A64"/>
<path d="M85.6722 162.674C85.6722 162.767 85.2671 162.848 84.758 162.86C84.2488 162.871 83.8437 162.807 83.838 162.721C83.8322 162.634 84.2488 162.553 84.7522 162.541C85.2556 162.53 85.6722 162.588 85.6722 162.674Z" fill="#455A64"/>
<path d="M89.3343 162.593C89.3343 162.68 88.9293 162.761 88.4201 162.773C87.9109 162.784 87.5058 162.721 87.5001 162.634C87.4943 162.547 87.9109 162.466 88.4143 162.454C88.9177 162.443 89.3343 162.501 89.3343 162.593Z" fill="#455A64"/>
<path d="M92.9964 162.507C92.9964 162.593 92.5914 162.674 92.0822 162.686C91.573 162.698 91.168 162.634 91.1622 162.547C91.1564 162.46 91.573 162.379 92.0764 162.368C92.5798 162.356 92.9906 162.42 92.9964 162.507Z" fill="#455A64"/>
<path d="M96.6595 162.42C96.6595 162.507 96.2545 162.588 95.7453 162.599C95.2361 162.611 94.831 162.547 94.8253 162.46C94.8195 162.373 95.2303 162.292 95.7395 162.281C96.2487 162.269 96.6306 162.333 96.6595 162.42Z" fill="#455A64"/>
<path d="M100.323 162.333C100.323 162.42 99.9175 162.501 99.4084 162.512C98.8992 162.524 98.4941 162.466 98.4883 162.374C98.4826 162.281 98.8934 162.206 99.4026 162.194C99.9117 162.183 100.317 162.246 100.323 162.333Z" fill="#455A64"/>
<path d="M103.984 162.246C103.984 162.333 103.579 162.414 103.069 162.426C102.56 162.437 102.155 162.379 102.149 162.293C102.144 162.206 102.555 162.119 103.064 162.107C103.573 162.096 103.978 162.16 103.984 162.246Z" fill="#455A64"/>
<path d="M107.624 162.16C107.624 162.246 107.214 162.327 106.71 162.339C106.207 162.35 105.796 162.293 105.79 162.206C105.784 162.119 106.195 162.032 106.704 162.021C107.214 162.009 107.624 162.073 107.624 162.16Z" fill="#455A64"/>
<path d="M111.311 162.073C111.311 162.159 110.9 162.24 110.397 162.252C109.893 162.264 109.482 162.206 109.477 162.119C109.471 162.032 109.882 161.951 110.391 161.94C110.9 161.928 111.305 161.986 111.311 162.073Z" fill="#455A64"/>
<path d="M114.972 161.986C114.972 162.078 114.561 162.159 114.058 162.171C113.554 162.183 113.138 162.119 113.138 162.032C113.138 161.945 113.543 161.864 114.052 161.853C114.561 161.841 114.966 161.899 114.972 161.986Z" fill="#455A64"/>
<path d="M114.966 165.307C114.874 165.307 114.845 164.885 114.897 164.381C114.949 163.878 115.053 163.479 115.14 163.485C115.227 163.49 115.261 163.907 115.209 164.41C115.157 164.914 115.053 165.319 114.966 165.307Z" fill="#455A64"/>
<path d="M114.609 168.952C114.522 168.952 114.487 168.53 114.539 168.027C114.591 167.523 114.701 167.124 114.788 167.13C114.875 167.136 114.904 167.552 114.857 168.056C114.811 168.559 114.695 168.964 114.609 168.952Z" fill="#455A64"/>
<path d="M114.25 172.598C114.163 172.598 114.129 172.175 114.181 171.672C114.233 171.169 114.343 170.769 114.43 170.775C114.516 170.781 114.545 171.203 114.499 171.707C114.453 172.21 114.337 172.609 114.25 172.598Z" fill="#455A64"/>
<path d="M113.891 176.243C113.804 176.243 113.775 175.821 113.822 175.317C113.868 174.814 113.984 174.415 114.071 174.42C114.157 174.426 114.186 174.849 114.14 175.352C114.094 175.855 113.99 176.255 113.891 176.243Z" fill="#455A64"/>
<path d="M113.532 179.894C113.445 179.894 113.416 179.466 113.462 178.963C113.509 178.459 113.624 178.06 113.711 178.072C113.798 178.083 113.833 178.494 113.781 178.997C113.728 179.501 113.619 179.9 113.532 179.894Z" fill="#455A64"/>
<path d="M113.174 183.54C113.087 183.54 113.058 183.111 113.11 182.608C113.162 182.105 113.266 181.705 113.353 181.717C113.44 181.728 113.474 182.139 113.422 182.643C113.37 183.146 113.266 183.545 113.174 183.54Z" fill="#455A64"/>
<path d="M112.832 187.185C112.74 187.185 112.711 186.763 112.763 186.259C112.815 185.756 112.919 185.351 113.012 185.362C113.104 185.374 113.128 185.785 113.075 186.288C113.023 186.792 112.908 187.185 112.832 187.185Z" fill="#455A64"/>
<path d="M112.461 190.83C112.374 190.83 112.34 190.408 112.392 189.904C112.444 189.401 112.554 188.996 112.64 189.008C112.727 189.019 112.756 189.43 112.71 189.933C112.664 190.437 112.548 190.836 112.461 190.83Z" fill="#455A64"/>
<path d="M112.103 194.475C112.016 194.475 111.987 194.053 112.034 193.55C112.08 193.046 112.196 192.647 112.282 192.653C112.369 192.659 112.398 193.075 112.352 193.579C112.306 194.082 112.19 194.487 112.103 194.475Z" fill="#455A64"/>
<path d="M111.744 198.121C111.657 198.121 111.628 197.698 111.674 197.195C111.721 196.692 111.836 196.292 111.923 196.298C112.01 196.304 112.039 196.721 111.992 197.224C111.946 197.727 111.83 198.132 111.744 198.121Z" fill="#455A64"/>
<path d="M111.385 201.766C111.298 201.766 111.27 201.344 111.316 200.841C111.362 200.337 111.478 199.938 111.565 199.944C111.651 199.949 111.686 200.366 111.634 200.869C111.582 201.373 111.472 201.778 111.385 201.766Z" fill="#455A64"/>
<path d="M111.032 205.411C110.939 205.411 110.91 204.989 110.962 204.486C111.014 203.982 111.118 203.583 111.205 203.589C111.292 203.595 111.327 204.017 111.275 204.52C111.223 205.024 111.095 205.423 111.032 205.411Z" fill="#455A64"/>
<path d="M110.675 209.057C110.588 209.057 110.553 208.634 110.606 208.131C110.658 207.628 110.762 207.228 110.854 207.234C110.947 207.24 110.97 207.662 110.918 208.166C110.866 208.669 110.762 209.068 110.675 209.057Z" fill="#455A64"/>
<path d="M110.316 212.708C110.229 212.708 110.194 212.28 110.246 211.776C110.298 211.273 110.408 210.874 110.495 210.885C110.582 210.897 110.611 211.308 110.564 211.811C110.518 212.314 110.402 212.714 110.316 212.708Z" fill="#455A64"/>
<path d="M109.94 216.353C109.853 216.353 109.824 215.931 109.871 215.427C109.917 214.924 110.033 214.519 110.119 214.531C110.206 214.542 110.235 214.953 110.189 215.456C110.142 215.96 110.044 216.359 109.94 216.353Z" fill="#455A64"/>
<path d="M109.764 218.286C109.677 218.286 109.608 218.245 109.614 218.216C109.619 218.187 109.689 218.164 109.776 218.176C109.862 218.187 109.932 218.216 109.932 218.245C109.932 218.274 109.851 218.292 109.764 218.286Z" fill="#455A64"/>
<path d="M110.98 165.521C110.648 166.043 110.227 166.504 109.736 166.881C109.314 167.334 108.82 167.714 108.272 168.004C109.026 167.027 109.942 166.187 110.98 165.521Z" fill="#263238"/>
<path d="M112.294 166.227C111.665 166.681 110.978 167.049 110.252 167.321C109.566 167.685 108.834 167.954 108.076 168.119C108.705 167.665 109.392 167.297 110.119 167.026C110.804 166.662 111.536 166.394 112.294 166.227Z" fill="#263238"/>
<path d="M73.6423 124.751C73.6423 124.751 71.7039 103.985 68.2611 94.8945L68.9439 94.3796L67.9197 90.7979L55.0395 89.2356L55.2363 92.0303C53.3355 92.8865 51.7827 94.3638 50.833 96.2196C46.204 106.021 48.5185 117.467 46.0362 138.673C46.0362 138.673 43.1431 148.62 46.1288 151.733L74.2325 145.183L72.9074 138.772C85.1742 138.54 105.345 136.283 105.345 136.283L104.766 124.676C104.766 124.676 74.6259 124.856 73.6423 124.751Z" fill="#455A64"/>
<path d="M67.8973 90.7805C68.3059 91.5088 68.619 92.2867 68.8289 93.095C68.9547 93.4109 69.0403 93.7414 69.0835 94.0787C69.092 94.2534 69.0341 94.425 68.9215 94.5589C68.8287 94.6685 68.7091 94.7522 68.5743 94.8019C68.0883 94.9524 67.8105 94.8482 67.8105 94.8019C67.8105 94.7557 68.1114 94.7499 68.476 94.5763C68.5736 94.5326 68.656 94.4609 68.7127 94.3702C68.7694 94.2795 68.7978 94.174 68.7942 94.0671C68.7285 93.7618 68.6395 93.462 68.528 93.1702C68.219 92.4031 68.0071 91.6003 67.8973 90.7805Z" fill="#E0E0E0"/>
<path d="M70.9691 106.241C70.9691 106.334 65.7615 106.403 59.3967 106.403C53.0318 106.403 47.8242 106.334 47.8242 106.241C47.8242 106.149 53.0318 106.085 59.3967 106.085C65.7615 106.085 70.9691 106.178 70.9691 106.241Z" fill="#263238"/>
<path d="M69.7603 100.391C69.7603 100.478 65.166 100.553 59.5071 100.553C53.8482 100.553 49.2539 100.478 49.2539 100.391C49.2539 100.305 53.8424 100.235 59.5071 100.235C65.1718 100.235 69.7603 100.305 69.7603 100.391Z" fill="#263238"/>
<path d="M68.0708 95.2475C68.0708 95.3343 64.275 95.4037 59.5882 95.4037C54.9013 95.4037 51.1113 95.3343 51.1113 95.2475C51.1113 95.1607 54.9071 95.0854 59.5882 95.0854C64.2692 95.0854 68.0708 95.1838 68.0708 95.2475Z" fill="#263238"/>
<path d="M67.9031 91.6139C65.7412 91.7775 63.5725 91.8316 61.4052 91.7759C59.2378 91.8316 57.0691 91.7775 54.9072 91.6139C54.9072 91.5271 57.8003 91.4576 61.4052 91.4576C65.01 91.4576 67.9031 91.5271 67.9031 91.6139Z" fill="#263238"/>
<path d="M71.7843 111.871C71.7843 111.958 66.3048 112.027 59.5465 112.027C52.7882 112.027 47.3086 111.958 47.3086 111.871C47.3086 111.784 52.7882 111.709 59.5465 111.709C66.3048 111.709 71.7843 111.779 71.7843 111.871Z" fill="#263238"/>
<path d="M72.7797 117.525C72.7797 117.611 67.0803 117.681 60.05 117.681C53.0197 117.681 47.3203 117.611 47.3203 117.525C47.3203 117.438 53.0197 117.363 60.05 117.363C67.0803 117.363 72.7797 117.438 72.7797 117.525Z" fill="#263238"/>
<path d="M73.4045 122.732C73.4045 122.825 67.5604 122.894 60.3565 122.894C53.1527 122.894 47.3086 122.825 47.3086 122.732C47.3086 122.64 53.1527 122.576 60.3565 122.576C67.5604 122.576 73.4045 122.645 73.4045 122.732Z" fill="#263238"/>
<path d="M101.885 128.432C101.885 128.518 89.5604 128.588 74.36 128.588C59.1596 128.588 46.8291 128.518 46.8291 128.432C46.8291 128.345 59.1538 128.27 74.36 128.27C89.5662 128.27 101.885 128.345 101.885 128.432Z" fill="#263238"/>
<path d="M102.099 132.991C102.099 133.084 89.6813 133.153 74.3652 133.153C59.049 133.153 46.626 133.084 46.626 132.991C46.626 132.899 59.0432 132.835 74.3652 132.835C89.6871 132.835 102.099 132.904 102.099 132.991Z" fill="#263238"/>
<path d="M72.4677 138.615C72.4677 138.708 66.5368 138.777 59.2172 138.777C51.8976 138.777 45.9609 138.708 45.9609 138.615C45.9609 138.523 51.8918 138.459 59.2172 138.459C66.5426 138.459 72.4677 138.529 72.4677 138.615Z" fill="#263238"/>
<path d="M73.8154 143.834C73.8154 143.921 67.3638 143.996 59.4077 143.996C51.4516 143.996 45 143.921 45 143.834C45 143.748 51.4516 143.678 59.4077 143.678C67.3638 143.678 73.8154 143.748 73.8154 143.834Z" fill="#263238"/>
<path d="M49.2821 145.217C49.1896 145.217 49.1201 135.097 49.1201 122.616C49.1201 110.135 49.1896 100.015 49.2821 100.015C49.3747 100.015 49.4384 110.135 49.4384 122.616C49.4384 135.097 49.3689 145.217 49.2821 145.217Z" fill="#263238"/>
<path d="M56.2304 144.662C56.1436 144.662 56.0742 132.291 56.0742 117.033C56.0742 101.774 56.1263 89.3976 56.2304 89.3976C56.3346 89.3976 56.3925 101.763 56.3925 117.027C56.3925 132.291 56.323 144.662 56.2304 144.662Z" fill="#263238"/>
<path d="M63.9101 143.834C63.8233 143.834 63.7539 131.909 63.7539 117.218C63.7539 102.526 63.8233 90.6011 63.9101 90.6011C63.9969 90.6011 64.0722 102.526 64.0722 117.218C64.0722 131.909 64.0027 143.834 63.9101 143.834Z" fill="#263238"/>
<path d="M70.3613 145.2C70.2745 145.2 70.2051 135.838 70.2051 124.294C70.2051 112.751 70.2745 103.383 70.3613 103.383C70.4481 103.383 70.5233 112.745 70.5233 124.294C70.5233 135.844 70.4481 145.2 70.3613 145.2Z" fill="#263238"/>
<path d="M77.1958 124.723C77.271 125.399 77.2923 126.08 77.2594 126.759C77.2594 128.015 77.2594 129.745 77.19 131.654C77.1206 133.564 77.0858 135.3 77.028 136.55C77.0226 137.23 76.9685 137.908 76.866 138.581C76.7904 137.906 76.7691 137.227 76.8023 136.55C76.8023 135.294 76.8023 133.564 76.8718 131.649C76.9412 129.733 76.9759 128.003 77.0338 126.748C77.032 126.069 77.0862 125.392 77.1958 124.723Z" fill="#263238"/>
<path d="M84.4798 124.965C84.5515 125.599 84.5728 126.238 84.5435 126.875C84.5435 128.032 84.5435 129.67 84.4856 131.458C84.4278 133.246 84.3815 134.871 84.3294 136.046C84.3314 136.682 84.2772 137.317 84.1674 137.944C84.0954 137.314 84.0741 136.679 84.1037 136.046C84.1037 134.889 84.1037 133.246 84.1674 131.452C84.231 129.658 84.2657 128.038 84.3236 126.863C84.3183 126.227 84.3705 125.592 84.4798 124.965Z" fill="#263238"/>
<path d="M91.7236 124.838C91.8027 125.45 91.8259 126.068 91.793 126.684C91.793 127.841 91.793 129.398 91.7351 131.134C91.6773 132.87 91.6368 134.443 91.5789 135.577C91.5847 136.196 91.5324 136.814 91.4227 137.423C91.3502 136.813 91.3269 136.198 91.3533 135.583C91.3533 134.426 91.3533 132.87 91.4169 131.134C91.4806 129.398 91.5153 127.818 91.5673 126.684C91.5689 126.066 91.6212 125.448 91.7236 124.838Z" fill="#263238"/>
<path d="M98.998 124.636C99.0776 125.228 99.1009 125.827 99.0674 126.424C99.0674 127.529 99.0674 129.056 99.0095 130.74C98.9517 132.424 98.9169 133.952 98.8591 135.051C98.8605 135.65 98.8101 136.248 98.7086 136.839C98.6284 136.247 98.6033 135.648 98.6334 135.051C98.6334 133.946 98.6334 132.418 98.6913 130.734C98.7491 129.051 98.7897 127.517 98.8417 126.418C98.8396 125.82 98.8918 125.224 98.998 124.636Z" fill="#263238"/>
<path d="M71.1191 127.338C71.6428 126.052 72.5955 124.987 73.8155 124.323C73.3909 124.848 72.9328 125.345 72.4442 125.81C72.0347 126.347 71.5922 126.857 71.1191 127.338Z" fill="#263238"/>
<path d="M72.7806 127.477C72.6595 126.896 72.7038 126.292 72.9083 125.735C73.1129 125.177 73.4695 124.688 73.9379 124.323C74.0073 124.387 73.5213 124.977 73.2088 125.845C72.8964 126.713 72.9079 127.477 72.7806 127.477Z" fill="#263238"/>
<path d="M102.418 136.22C102.094 134.384 101.873 132.531 101.758 130.671C101.538 128.817 101.422 126.953 101.411 125.087C101.743 126.924 101.965 128.779 102.077 130.642C102.297 132.493 102.411 134.355 102.418 136.22Z" fill="#263238"/>
<path d="M102.781 127.274C102.781 127.315 102.619 127.431 102.596 127.72C102.591 127.796 102.601 127.873 102.626 127.946C102.651 128.018 102.69 128.085 102.741 128.142C102.806 128.201 102.887 128.238 102.974 128.249C103.061 128.261 103.149 128.245 103.227 128.206C103.309 128.175 103.379 128.12 103.431 128.049C103.482 127.978 103.512 127.894 103.516 127.807C103.508 127.73 103.485 127.656 103.449 127.588C103.412 127.521 103.362 127.461 103.302 127.413C103.076 127.234 102.862 127.292 102.851 127.245C102.839 127.199 103.065 127.037 103.429 127.245C103.536 127.303 103.627 127.385 103.693 127.486C103.76 127.587 103.801 127.703 103.811 127.824C103.819 127.974 103.78 128.123 103.699 128.25C103.618 128.376 103.5 128.474 103.36 128.53C103.223 128.595 103.069 128.615 102.919 128.588C102.77 128.561 102.633 128.488 102.527 128.379C102.451 128.288 102.399 128.18 102.373 128.064C102.348 127.949 102.351 127.828 102.382 127.714C102.486 127.292 102.787 127.234 102.781 127.274Z" fill="#263238"/>
<path d="M73.6069 124.694H73.7515L74.1739 124.728C74.55 124.769 75.1055 124.804 75.8346 124.827C77.2927 124.885 79.4336 124.914 82.1589 124.89C87.6038 124.856 95.3862 124.653 104.725 124.312H104.858V124.445C105.043 128.05 105.24 131.967 105.437 136.121V136.255H105.315C103.834 136.532 102.336 136.648 100.802 136.804L96.1269 137.209C92.9502 137.47 89.681 137.713 86.3539 137.95L74.1218 138.772C70.5749 138.546 67.1321 137.273 64.725 134.935C63.5417 133.808 62.6126 132.441 61.9997 130.925C61.4244 129.495 60.9658 128.021 60.6284 126.516C59.1992 120.73 58.3139 115.459 57.5906 111.084C57.2434 108.897 56.9483 106.924 56.6995 105.2C56.4359 103.733 56.2639 102.25 56.1845 100.762C56.1373 99.8166 56.3367 98.8755 56.7632 98.0307C56.9093 97.7422 57.1052 97.4817 57.3418 97.2611C57.1391 97.5108 56.959 97.778 56.8037 98.0596C56.409 98.903 56.2338 99.8325 56.2945 100.762C56.399 102.244 56.5922 103.718 56.8731 105.177C57.145 106.913 57.4517 108.868 57.8105 111.055C58.5395 115.418 59.4653 120.655 60.9061 126.447C61.2476 127.937 61.7061 129.398 62.2774 130.815C62.8799 132.293 63.7913 133.625 64.9507 134.721C67.2652 136.995 70.6733 138.239 74.1566 138.465L86.3829 137.632L96.15 136.897L100.825 136.498C102.347 136.341 103.875 136.226 105.292 135.959L105.177 136.116C104.98 131.978 104.795 128.044 104.598 124.433L104.743 124.566C95.4094 124.908 87.6269 125.07 82.1763 125.058C79.451 125.058 77.3101 125.006 75.8519 124.919C75.1229 124.879 74.5616 124.833 74.1855 124.775L73.7631 124.723C73.7099 124.72 73.6574 124.71 73.6069 124.694Z" fill="#263238"/>
<path d="M73.6063 124.694C73.4788 124.401 73.3781 124.097 73.3055 123.785C73.1377 123.207 72.9062 122.339 72.6285 121.274C72.0499 119.15 71.3844 116.194 70.6438 112.93C69.9032 109.667 69.2262 106.71 68.717 104.575L68.1384 102.046C68.048 101.741 67.9879 101.427 67.959 101.109C68.0833 101.403 68.1839 101.707 68.2599 102.017C68.4392 102.596 68.6707 103.458 68.9542 104.523C69.5328 106.641 70.2388 109.592 70.9794 112.861C71.72 116.13 72.3276 119.029 72.8483 121.222C73.0798 122.252 73.2765 123.102 73.427 123.756C73.5101 124.064 73.5701 124.377 73.6063 124.694Z" fill="#263238"/>
<path d="M67.936 91.0236C67.9411 91.2375 67.9197 91.4513 67.8723 91.66C67.8145 92.0709 67.7219 92.6553 67.5946 93.3959C67.5392 93.7999 67.458 94.2 67.3516 94.5937C67.3162 94.7242 67.2507 94.8446 67.1602 94.9451C67.0697 95.0456 66.9569 95.1234 66.8308 95.1723C66.5767 95.2392 66.3096 95.2392 66.0555 95.1723C65.1007 94.9756 64.0592 94.721 62.9714 94.4259C60.8016 93.8472 58.869 93.205 57.4629 92.771L55.8023 92.2502C55.6008 92.1994 55.4064 92.1236 55.2236 92.0246C55.4376 92.0308 55.6497 92.0659 55.8543 92.1287C56.2594 92.2213 56.838 92.3602 57.5497 92.5569C58.9731 92.933 60.9173 93.5232 63.0813 94.1192C64.1634 94.4143 65.1933 94.6978 66.1422 94.8888C66.3457 94.9551 66.5626 94.969 66.7729 94.9293C66.8592 94.8978 66.9368 94.8462 66.9991 94.7787C67.0615 94.7113 67.107 94.63 67.1317 94.5416C67.259 94.1713 67.3111 93.7431 67.3979 93.3843C67.5483 92.6669 67.6814 92.0882 67.774 91.6832C67.7958 91.4566 67.8504 91.2345 67.936 91.0236Z" fill="#263238"/>
<path d="M57.8115 171.128L61.8561 226.022L63.5457 225.629L62.915 172.285L57.8115 171.128Z" fill="#263238"/>
<path d="M40.6719 173.038L28.3877 225.959H30.6096L48.194 173.038H40.6719Z" fill="#263238"/>
<path d="M73.1621 173.038L89.919 225.959H91.7128L78.3986 173.038H73.1621Z" fill="#263238"/>
<path d="M75.4081 176.59L37.8555 201.13V202.472L76.4554 176.59H75.4081Z" fill="#263238"/>
<path d="M43.542 176.59L84.2308 203.971V201.876L44.734 175.393L43.542 176.59Z" fill="#263238"/>
<path d="M35.0593 173.946L83.4438 173.072C83.8771 173.064 84.3039 172.965 84.6966 172.782C85.0893 172.598 85.439 172.334 85.7232 172.007C86.0073 171.68 86.2196 171.296 86.3463 170.882C86.4729 170.467 86.5111 170.031 86.4584 169.601C86.3708 168.839 86.0029 168.138 85.4263 167.633C84.8498 167.128 84.1059 166.856 83.3396 166.87L34.2666 167.656L35.0593 173.946Z" fill="#2B1FC5"/>
<g opacity="0.2">
<path d="M35.0603 173.946L83.4447 173.072C83.8781 173.064 84.3049 172.965 84.6976 172.782C85.0902 172.598 85.44 172.334 85.7241 172.007C86.0083 171.68 86.2206 171.296 86.3473 170.882C86.4739 170.467 86.5121 170.031 86.4594 169.601C86.3718 168.839 86.0039 168.138 85.4273 167.633C84.8507 167.128 84.1068 166.856 83.3406 166.87L34.2676 167.656L35.0603 173.946Z" fill="black"/>
</g>
<path d="M30.1295 136.544L35.0131 173.946L73.1617 173.038L73.0633 150.321C73.0768 149.428 72.9023 148.543 72.5512 147.722C72.2001 146.901 71.6802 146.163 71.0254 145.556C70.3706 144.95 69.5954 144.487 68.7503 144.2C67.9051 143.912 67.0089 143.805 66.1199 143.886L37.0325 146.513L33.202 106.872L29.3368 106.542C28.9331 106.513 28.5279 106.574 28.1507 106.721C27.7736 106.868 27.434 107.097 27.1568 107.392C26.8796 107.687 26.6717 108.04 26.5483 108.426C26.425 108.811 26.3892 109.219 26.4437 109.62L30.1295 136.544Z" fill="#2B1FC5"/>
</svg>
