<svg width="251" height="183" viewBox="0 0 251 183" fill="none" xmlns="http://www.w3.org/2000/svg">
<path d="M37.3377 85.0194L21.5664 130.436L88.9472 153.835L104.719 108.418L37.3377 85.0194Z" fill="#EBEBEB"/>
<path d="M104.713 108.407C104.447 108.563 104.167 108.693 103.877 108.797L101.43 109.786L92.3804 113.326L62.3684 124.814L62.1189 124.906L61.9789 124.682L61.6332 124.14L44.3384 96.5433L39.1569 88.141L37.7784 85.8391C37.6079 85.5772 37.4614 85.3003 37.3408 85.012C37.5475 85.2458 37.7307 85.4994 37.8878 85.769L39.3714 88.0053L44.7235 96.3157L62.1846 123.811C62.2984 124 62.4165 124.183 62.5259 124.354L62.1364 124.223L92.2185 112.919L101.343 109.554L103.833 108.679C104.117 108.56 104.411 108.469 104.713 108.407Z" fill="#E0E0E0"/>
<path d="M21.5653 130.45C21.4734 130.297 28.7029 125.833 37.7092 120.477C46.7154 115.12 54.0937 110.906 54.1856 111.059C54.2775 111.212 47.048 115.676 38.0374 121.033C29.0268 126.389 21.6572 130.581 21.5653 130.45Z" fill="#E0E0E0"/>
<path d="M76.7795 118.245C76.9458 118.188 79.8078 126.122 83.1687 135.929C86.5297 145.736 89.116 153.767 88.9453 153.824C88.7747 153.88 85.917 145.946 82.5561 136.139C79.1951 126.332 76.6088 118.302 76.7795 118.245Z" fill="#E0E0E0"/>
<path d="M236.177 73.1982L169.502 84.4993L177.119 129.441L243.794 118.14L236.177 73.1982Z" fill="#E0E0E0"/>
<path d="M236.17 73.2181C236.02 73.4685 235.847 73.7044 235.653 73.9226L234.074 75.8613L228.166 82.9333C223.094 88.9155 216.153 97.1034 208.473 106.171L208.311 106.363L208.092 106.241L207.558 105.948L180.592 90.9023L172.456 86.2811L170.268 84.9988C170.004 84.8629 169.755 84.7001 169.524 84.5131C169.803 84.6153 170.073 84.7412 170.33 84.8894L172.583 86.0754L180.815 90.5216L207.869 105.401L208.403 105.694L208.022 105.764L227.864 82.6444L233.916 75.6994C234.612 74.9248 235.163 74.3034 235.583 73.8307C235.762 73.6113 235.958 73.4064 236.17 73.2181Z" fill="#EBEBEB"/>
<path d="M177.113 129.457C176.969 129.369 180.938 122.359 185.979 113.799C191.021 105.239 195.231 98.3682 195.375 98.4557C195.52 98.5432 191.55 105.55 186.509 114.114C181.468 122.678 177.258 129.54 177.113 129.457Z" fill="#EBEBEB"/>
<path d="M217.445 94.1276C217.558 94.0051 223.571 99.2784 230.823 105.913C238.074 112.547 243.903 118.026 243.785 118.166C243.667 118.306 237.685 113.007 230.407 106.381C223.129 99.7554 217.313 94.2633 217.445 94.1276Z" fill="#EBEBEB"/>
<path d="M169.53 1.76201L157.519 32.302L202.83 50.1231L214.841 19.5831L169.53 1.76201Z" fill="#EBEBEB"/>
<path d="M214.828 19.9902C214.644 20.0928 214.449 20.1736 214.246 20.2309L212.552 20.8436L206.281 23.0098L185.49 30.0117L185.319 30.0686L185.232 29.9111L185.013 29.5347L173.989 10.2312C172.611 7.78494 171.49 5.78939 170.689 4.35837L169.814 2.7523C169.703 2.56892 169.609 2.37552 169.534 2.17464C169.67 2.33974 169.79 2.51699 169.893 2.70416C170.129 3.10239 170.444 3.62316 170.843 4.27084L174.265 10.0781C177.136 15.0363 181.07 21.8195 185.411 29.3334L185.63 29.7141L185.372 29.6135L206.198 22.7341L212.5 20.6816L214.22 20.1696C214.417 20.0938 214.621 20.0338 214.828 19.9902Z" fill="#E0E0E0"/>
<path d="M157.507 32.7162C157.446 32.6112 162.501 29.7623 168.794 26.3576C175.087 22.9529 180.233 20.2834 180.29 20.3884C180.347 20.4935 175.301 23.3424 169.004 26.734C162.706 30.1255 157.564 32.8256 157.507 32.7162Z" fill="#E0E0E0"/>
<path d="M195.501 25.9287C195.62 25.8937 197.353 31.3771 199.37 38.1821C201.387 44.9871 202.937 50.5143 202.818 50.5493C202.7 50.5843 200.967 45.1053 198.95 38.2959C196.932 31.4865 195.383 25.9637 195.501 25.9287Z" fill="#E0E0E0"/>
<path d="M250.827 181.249C250.827 181.31 194.671 181.363 125.418 181.363C56.1643 181.363 0 181.31 0 181.249C0 181.188 56.1424 181.135 125.418 181.135C194.693 181.135 250.827 181.184 250.827 181.249Z" fill="#263238"/>
<path d="M12.3747 61.945L18.6327 59.7262L15.9413 56.1333C15.8079 55.3396 15.7435 54.5357 15.7488 53.7308C15.7502 53.3164 15.8212 52.9051 15.9588 52.5142C16.1107 52.0224 16.3302 51.554 16.6109 51.1226C16.6805 51.0492 16.725 50.9556 16.7379 50.8553C16.7509 50.755 16.7316 50.6532 16.6829 50.5645C16.6342 50.4759 16.5586 50.405 16.467 50.3622C16.3754 50.3193 16.2725 50.3067 16.1732 50.3261C15.7356 50.4355 14.9129 51.4333 14.5409 52.9124C14.1689 54.3916 13.1537 52.2122 12.7904 51.4289C12.4272 50.6456 11.1056 48.2649 10.7686 48.1905C10.2785 48.0811 10.0728 48.5888 10.4754 49.3633C10.878 50.1379 11.9152 52.5536 11.4863 52.7374C11.0575 52.9212 9.17131 48.8863 9.17131 48.8863C9.17131 48.8863 8.90874 47.9586 8.40985 48.1555C7.50835 48.5056 9.84087 52.6411 10.0728 53.0262C10.2347 53.2976 9.77961 53.512 9.63519 53.2144C9.49078 52.9168 7.83657 49.1489 6.91756 49.499C6.21299 49.766 8.80371 52.9168 8.71181 53.8752C8.61991 54.8336 6.99196 51.2889 6.32677 51.5689C6.08171 51.674 5.88915 51.7878 7.14075 53.6958C7.75373 54.5885 8.4125 55.4488 9.11442 56.2734L12.3835 61.9362" fill="#FFBE9D"/>
<path d="M68.7013 69.5946C68.7013 69.5946 65.6117 62.3826 63.4805 58.8772C61.4718 55.5776 58.8111 55.0437 57.3932 54.9386C56.8053 54.7578 56.2016 54.6333 55.5902 54.5667L44.0151 54.4748C41.4851 54.4978 39.0409 55.3944 37.0963 57.013C36.558 57.4506 32.5538 62.0981 27.2367 68.715L17.9372 58.6497L12.3926 61.9318C12.3926 61.9318 18.4142 82.7232 25.9588 81.2966C30.4488 80.4607 33.9498 77.3448 33.9498 77.3448L39.8358 72.601L39.9715 73.3888C40.0896 74.3471 40.3872 75.8963 40.6148 76.8328C41.3237 79.8043 41.7219 83.7166 40.1771 86.3073C40.1771 86.3073 38.0809 87.9134 39.7395 89.677H61.5549C61.5549 89.677 64.6446 87.5808 61.8219 85.2527L60.0714 80.8283L61.2136 75.4281L61.6512 73.2662L63.5724 76.5571C63.5724 76.5571 67.3709 81.3359 71.3226 80.7495C76.0708 80.0406 78.8235 71.3888 74.5392 59.9494L69.3752 61.5205L68.7013 69.5946Z" fill="#2B1FC5"/>
<g opacity="0.4">
<path d="M12.373 61.9449L12.9201 63.6779L19.0818 59.9187L17.9177 58.6628L12.373 61.9449Z" fill="black"/>
</g>
<g opacity="0.2">
<path d="M40.1714 86.3073C41.0883 86.17 41.968 85.8488 42.7576 85.363C43.5472 84.8772 44.2305 84.2368 44.7664 83.4803C45.3279 82.7182 45.7329 81.8526 45.9582 80.9333C46.1836 80.0139 46.2247 79.0591 46.0793 78.1238C46.0554 77.7915 45.9621 77.4678 45.8053 77.1738C45.6485 76.8798 45.4317 76.622 45.169 76.4171C44.482 75.9795 43.5411 76.207 42.8277 75.8263C42.2413 75.5156 41.9306 74.8766 41.5149 74.3515C41.0991 73.8264 40.5434 73.0124 39.9395 73.275C39.9395 73.275 40.6703 77.126 40.9897 78.8415C41.3092 80.557 41.4274 83.0208 40.8103 84.8194C40.6521 85.3371 40.4379 85.8361 40.1714 86.3073Z" fill="black"/>
</g>
<path d="M26.3438 72.2466C26.35 71.6303 26.4595 71.0193 26.6676 70.4392C26.8014 69.8411 26.9859 69.2555 27.219 68.6887C27.218 69.3055 27.1084 69.9173 26.8952 70.4961C26.7614 71.0942 26.5769 71.6798 26.3438 72.2466Z" fill="#263238"/>
<path d="M27.7263 71.3057C27.3951 70.4797 27.2171 69.6003 27.2012 68.7106C27.4013 69.1093 27.5287 69.5406 27.5775 69.9841C27.7017 70.413 27.752 70.8599 27.7263 71.3057Z" fill="#263238"/>
<path d="M69.3272 45.8317L61.4062 58.6628L67.638 60.4001L74.5524 49.7353L69.3272 45.8317Z" fill="#455A64"/>
<path d="M68.8317 56.7635L69.0986 58.6409L70.2058 60.0632L70.3152 61.2272L74.2888 60.0194L72.6827 54.3303C72.8114 53.5643 72.8641 52.7874 72.8403 52.0109L71.7462 53.4595L71.4443 51.0963L69.208 49.2977C69.15 49.255 69.0842 49.2243 69.0143 49.2071C68.9443 49.19 68.8717 49.1868 68.8006 49.1978C68.7294 49.2088 68.6612 49.2337 68.5997 49.2711C68.5382 49.3085 68.4847 49.3577 68.4422 49.4159C68.3668 49.521 68.3311 49.6496 68.3416 49.7786C68.352 49.9076 68.4078 50.0287 68.4991 50.1204L70.2977 51.7046L70.4159 53.6608L69.103 52.4529C68.9748 52.333 68.8156 52.2512 68.6435 52.2166L66.8361 51.8534C66.7717 51.8409 66.7054 51.842 66.6414 51.8565C66.5774 51.871 66.5172 51.8988 66.4645 51.9379C66.4118 51.977 66.3678 52.0266 66.3353 52.0837C66.3029 52.1407 66.2827 52.2039 66.276 52.2691C66.2649 52.3774 66.2915 52.4861 66.3513 52.577C66.4111 52.6679 66.5004 52.7354 66.6042 52.768L68.2496 53.2713L69.9126 54.9518L68.2847 54.3303L66.0747 54.641C65.9711 54.6578 65.877 54.7112 65.8096 54.7916C65.7421 54.8719 65.7057 54.9738 65.7071 55.0787C65.7071 55.1947 65.7532 55.306 65.8352 55.3881C65.9173 55.4702 66.0286 55.5163 66.1447 55.5163L67.5494 55.4375L68.3766 55.6957L66.4773 56.199C66.3918 56.2203 66.3164 56.271 66.2645 56.3422C66.2125 56.4133 66.1871 56.5005 66.1928 56.5885C66.195 56.6397 66.2075 56.6899 66.2296 56.7361C66.2516 56.7824 66.2828 56.8237 66.3212 56.8576C66.3596 56.8915 66.4045 56.9173 66.4531 56.9335C66.5017 56.9497 66.5531 56.9559 66.6042 56.9517L68.8317 56.7635Z" fill="#FFBE9D"/>
<g opacity="0.4">
<path d="M69.3513 61.5205L69.1807 63.621L75.2067 61.9624L74.5153 59.9494L69.3513 61.5205Z" fill="black"/>
</g>
<path d="M61.4058 58.6803C61.4058 58.6803 60.8719 57.9582 60.9156 57.8357C60.9594 57.7132 68.4515 45.3766 68.4515 45.3766L69.3267 45.8492L61.4058 58.6803Z" fill="#263238"/>
<path d="M71.3093 49.0526C71.3432 49.0187 71.3852 48.9942 71.4314 48.9815C71.4776 48.9688 71.5263 48.9683 71.5727 48.9802C71.6191 48.992 71.6616 49.0157 71.6961 49.049C71.7305 49.0823 71.7557 49.124 71.7692 49.1699C71.7826 49.2159 71.7838 49.2646 71.7728 49.3112C71.7617 49.3578 71.7386 49.4007 71.7059 49.4357C71.6732 49.4706 71.6319 49.4965 71.5862 49.5107C71.5404 49.5248 71.4918 49.5269 71.445 49.5165C71.402 49.5031 71.3627 49.4798 71.3303 49.4485C71.2979 49.4172 71.2733 49.3787 71.2584 49.3362C71.2435 49.2937 71.2388 49.2483 71.2446 49.2036C71.2504 49.1589 71.2666 49.1162 71.2918 49.0789" fill="#263238"/>
<path d="M66.3331 64.8902C66.2772 65.007 66.2 65.1123 66.1055 65.2009C65.8326 65.4559 65.4951 65.6315 65.1296 65.7085C64.5521 65.8264 63.9567 65.8264 63.3791 65.7085C62.6438 65.5341 61.8821 65.4999 61.1341 65.6079C60.2569 65.8635 59.448 66.312 58.7666 66.9207C57.9833 67.5203 57.1562 68.2642 56.0446 68.6143C55.476 68.7759 54.8808 68.822 54.2941 68.75C53.6935 68.6579 53.1059 68.4948 52.5436 68.2642C51.3971 67.8266 50.2986 67.1789 49.0908 66.7413C47.9268 66.2874 46.6522 66.1989 45.4367 66.4875C44.2507 66.7325 43.1391 67.1439 42.032 67.3627C40.0533 67.7892 37.9876 67.5041 36.1985 66.5575C34.9868 65.9328 33.9378 65.0336 33.1351 63.9318C32.8428 63.534 32.5976 63.1037 32.4043 62.6495C32.4349 62.6495 32.645 63.1222 33.2095 63.8793C34.0296 64.9377 35.0764 65.799 36.2729 66.3999C38.0369 67.3092 40.0635 67.5724 42.0013 67.1439C43.091 66.9076 44.1894 66.4918 45.406 66.238C46.6632 65.9366 47.9825 66.0267 49.1871 66.4962C50.4212 66.9338 51.524 67.5815 52.6487 68.0279C53.1942 68.2524 53.764 68.4125 54.3466 68.5049C54.9036 68.5727 55.4685 68.5311 56.0096 68.3824C57.0599 68.0585 57.8826 67.3408 58.6703 66.7413C59.3795 66.1245 60.2187 65.6757 61.1254 65.4284C61.894 65.3235 62.6756 65.3681 63.4273 65.5597C63.9848 65.6862 64.5619 65.7011 65.1252 65.6035C65.4786 65.5432 65.8103 65.3925 66.088 65.1659C66.1748 65.0786 66.2566 64.9866 66.3331 64.8902Z" fill="#FAFAFA"/>
<path d="M68.8273 73.2268C68.69 72.5901 68.6297 71.9392 68.6479 71.2882C68.5873 70.6391 68.6064 69.9851 68.7048 69.3407C68.8421 69.9774 68.9023 70.6283 68.8842 71.2794C68.9446 71.9284 68.9255 72.5824 68.8273 73.2268Z" fill="#263238"/>
<path d="M55.1787 153.692C55.3669 154.454 59.8306 179.481 59.8306 179.481L66.6706 178.969L65.4191 153.412L55.1787 153.692Z" fill="#FFBE9D"/>
<path d="M66.8766 179.367L66.8548 178.645L59.5684 178.799L59.6121 181.17H60.0497C62.0541 181.236 70.2463 181.372 71.5723 180.974C73.069 180.54 66.8766 179.367 66.8766 179.367Z" fill="#2B1FC5"/>
<g opacity="0.3">
<path d="M62.2413 181.065C62.1118 180.489 61.7695 179.983 61.2829 179.648C60.7854 179.299 60.1814 179.136 59.5762 179.188L59.6156 181.074L62.2413 181.065Z" fill="black"/>
</g>
<g opacity="0.3">
<path d="M69.9042 180.041C69.9042 180.041 72.0923 180.58 71.8166 180.917C71.5409 181.254 63.2698 181.407 59.6113 181.175V181.022L69.274 180.925C69.274 180.925 69.4841 180.063 69.9042 180.041Z" fill="black"/>
</g>
<path d="M59.5078 181.017H59.6303H59.9892L61.3021 181.048C62.418 181.048 63.954 181.07 65.6564 181.048C67.3587 181.026 68.8948 180.96 70.0107 180.903L71.3236 180.829L71.6781 180.803H71.805H71.6781H71.3192L70.0063 180.851C68.8948 180.89 67.3544 180.943 65.6564 180.969C63.9584 180.995 62.418 181.004 61.3021 181.004H59.5078V181.017Z" fill="#263238"/>
<path d="M69.2831 181.026C69.3346 180.82 69.4126 180.621 69.5151 180.435C69.6407 180.259 69.7877 180.099 69.9527 179.958C69.7316 180.034 69.5472 180.19 69.4363 180.396C69.3064 180.579 69.2516 180.804 69.2831 181.026Z" fill="#263238"/>
<path d="M67.1202 180.055C67.1202 180.055 67.2384 179.949 67.3434 179.792C67.4484 179.634 67.5097 179.499 67.4878 179.486C67.4659 179.472 67.3697 179.591 67.269 179.748C67.1684 179.906 67.0983 180.041 67.1202 180.055Z" fill="#263238"/>
<path d="M66.5257 179.774C66.5257 179.774 66.657 179.718 66.7795 179.613C66.902 179.507 66.9852 179.407 66.972 179.389C66.9589 179.372 66.8408 179.446 66.7182 179.551C66.5957 179.656 66.5082 179.761 66.5257 179.774Z" fill="#263238"/>
<path d="M66.1406 179.144C66.2631 179.185 66.3931 179.199 66.5214 179.184C66.6485 179.197 66.777 179.182 66.8977 179.14C66.7748 179.101 66.6452 179.088 66.517 179.101C66.3899 179.091 66.2621 179.106 66.1406 179.144Z" fill="#263238"/>
<path d="M66.0049 178.698C66.1358 178.779 66.2888 178.817 66.4425 178.807C66.5917 178.83 66.744 178.807 66.8801 178.742C66.7345 178.731 66.5882 178.731 66.4425 178.742C66.2982 178.714 66.1518 178.699 66.0049 178.698Z" fill="#263238"/>
<path d="M67.3525 179.464C67.5077 179.488 67.6657 179.488 67.8208 179.464C67.9876 179.442 68.1518 179.404 68.3109 179.35C68.4103 179.325 68.506 179.286 68.5954 179.236C68.6219 179.222 68.6454 179.203 68.6642 179.18C68.683 179.156 68.6968 179.129 68.7048 179.101C68.7129 179.068 68.7099 179.033 68.6965 179.003C68.6831 178.972 68.6598 178.946 68.6304 178.93C68.4526 178.848 68.2526 178.828 68.0622 178.873C67.8718 178.919 67.7021 179.026 67.5801 179.179C67.5117 179.266 67.4624 179.366 67.4357 179.472C67.4357 179.547 67.4357 179.591 67.4357 179.591C67.4774 179.455 67.5459 179.328 67.637 179.219C67.7421 179.1 67.8787 179.014 68.0309 178.969C68.2128 178.908 68.4113 178.917 68.5866 178.995C68.661 179.044 68.6348 179.127 68.556 179.171C68.4725 179.216 68.3845 179.253 68.2934 179.28C68.1379 179.334 67.9784 179.377 67.8164 179.407C67.532 179.464 67.3525 179.464 67.3525 179.464Z" fill="#263238"/>
<path d="M67.4762 179.464C67.5265 179.372 67.542 179.264 67.5199 179.162C67.5034 179.047 67.4582 178.939 67.3887 178.847C67.3459 178.781 67.2875 178.727 67.2188 178.69C67.15 178.652 67.0731 178.633 66.9948 178.632C66.9722 178.636 66.9506 178.644 66.9313 178.656C66.9119 178.668 66.8952 178.684 66.8821 178.703C66.8691 178.722 66.8599 178.743 66.8552 178.766C66.8505 178.788 66.8504 178.811 66.8548 178.834C66.8665 178.904 66.895 178.97 66.9379 179.026C67.0025 179.121 67.079 179.208 67.1655 179.284C67.2405 179.363 67.3337 179.421 67.4368 179.455C67.4368 179.455 67.3405 179.381 67.2092 179.245C67.1327 179.167 67.0652 179.08 67.0079 178.987C66.9423 178.899 66.8941 178.733 67.0079 178.711C67.0694 178.717 67.129 178.736 67.1825 178.767C67.2361 178.798 67.2825 178.84 67.3186 178.89C67.3855 178.972 67.432 179.068 67.4543 179.17C67.4715 179.267 67.4788 179.365 67.4762 179.464Z" fill="#263238"/>
<path d="M59.6113 179.17C59.6113 179.17 59.8214 179.149 60.1496 179.17C60.5731 179.213 60.9785 179.364 61.3268 179.608C61.6615 179.846 61.9223 180.174 62.0795 180.553C62.1977 180.842 62.2108 181.035 62.2283 181.035C62.2379 180.99 62.2379 180.944 62.2283 180.899C62.2129 180.776 62.1851 180.654 62.1452 180.536C61.9977 180.135 61.7322 179.789 61.3837 179.542C61.024 179.285 60.5996 179.134 60.1584 179.105C60.0259 179.092 59.8925 179.092 59.7601 179.105C59.6595 179.149 59.6113 179.162 59.6113 179.17Z" fill="#263238"/>
<path d="M63.1387 180.391C63.4884 180.463 63.8457 180.489 64.2021 180.47C64.5577 180.48 64.9132 180.448 65.2611 180.374C65.2611 180.348 64.7841 180.374 64.1977 180.374C63.6113 180.374 63.143 180.37 63.1387 180.391Z" fill="#263238"/>
<path d="M61.7158 180.418C61.7158 180.418 61.7552 180.51 61.8077 180.61C61.8602 180.711 61.8865 180.798 61.9127 180.798C61.939 180.798 61.9478 180.689 61.8865 180.575C61.8252 180.462 61.7333 180.4 61.7158 180.418Z" fill="#263238"/>
<path d="M61.1699 179.805C61.1699 179.805 61.2006 179.893 61.275 179.963C61.3493 180.033 61.4281 180.076 61.4456 180.059C61.4631 180.041 61.415 179.971 61.3362 179.901C61.2574 179.831 61.1831 179.792 61.1699 179.805Z" fill="#263238"/>
<path d="M60.396 179.538C60.396 179.56 60.4966 179.56 60.606 179.591C60.7154 179.621 60.7898 179.674 60.8073 179.661C60.8249 179.648 60.7636 179.551 60.6323 179.512C60.501 179.472 60.3872 179.516 60.396 179.538Z" fill="#263238"/>
<path d="M59.8438 179.416C59.8438 179.416 59.879 179.469 59.9406 179.491C60.0022 179.513 60.0595 179.513 60.0683 179.491C60.0771 179.469 60.0331 179.433 59.9714 179.411C59.9098 179.389 59.8526 179.394 59.8438 179.416Z" fill="#263238"/>
<path d="M37.7775 151.605C37.7425 152.388 34.9023 176.759 34.9023 176.759L41.5936 178.243L47.7684 153.412L37.7775 151.605Z" fill="#FFBE9D"/>
<path d="M41.8964 178.89L42.0496 178.19L34.9339 176.602L34.4131 178.917L34.8507 179.039C36.7806 179.582 44.7059 181.665 46.0932 181.591C47.6336 181.507 41.8964 178.89 41.8964 178.89Z" fill="#2B1FC5"/>
<g opacity="0.3">
<path d="M37.0123 179.464C37.0259 178.873 36.8148 178.299 36.4215 177.858C36.0214 177.4 35.4729 177.098 34.8723 177.004L34.4609 178.847L37.0123 179.464Z" fill="black"/>
</g>
<g opacity="0.3">
<path d="M44.6797 180.269C44.6797 180.269 46.6621 181.31 46.3295 181.582C45.9969 181.853 37.9141 180.02 34.4131 178.925L34.4569 178.781L43.8657 180.969C43.8657 180.969 44.2639 180.19 44.6797 180.269Z" fill="black"/>
</g>
<path d="M34.3477 178.742L34.4658 178.781L34.8115 178.882L36.085 179.223C37.1659 179.503 38.6582 179.875 40.3168 180.251C41.9754 180.628 43.4852 180.938 44.5792 181.149L45.8921 181.389L46.2466 181.446H46.3735L46.251 181.415L45.9009 181.341L44.588 181.074C43.4939 180.847 41.9885 180.532 40.3299 180.155C38.6714 179.779 37.1791 179.416 36.0938 179.149L34.8247 178.851L34.4746 178.768C34.4338 178.753 34.391 178.744 34.3477 178.742Z" fill="#263238"/>
<path d="M43.8408 181.079C43.9418 180.891 44.0652 180.716 44.2084 180.558C44.3752 180.418 44.5573 180.298 44.7511 180.199C44.5202 180.225 44.3061 180.332 44.1472 180.501C43.9743 180.647 43.8645 180.854 43.8408 181.079Z" fill="#263238"/>
<path d="M41.9707 179.621C41.9707 179.621 42.1151 179.547 42.2508 179.416C42.3865 179.284 42.4827 179.171 42.4652 179.157C42.4477 179.144 42.3252 179.232 42.1895 179.359C42.0539 179.486 41.9532 179.604 41.9707 179.621Z" fill="#263238"/>
<path d="M41.4595 179.21C41.5612 179.201 41.659 179.166 41.7439 179.109C41.8884 179.035 41.9978 178.956 41.9846 178.939C41.9715 178.921 41.8446 178.96 41.7002 179.035C41.5558 179.109 41.4507 179.188 41.4595 179.21Z" fill="#263238"/>
<path d="M41.2358 178.505C40.7778 178.497 40.334 178.664 39.9958 178.973C39.6576 179.282 39.4507 179.709 39.4177 180.166C39.3848 180.623 39.5282 181.075 39.8185 181.429C40.1089 181.784 40.524 182.013 40.9784 182.071C41.4329 182.128 41.8921 182.009 42.2615 181.738C42.6308 181.467 42.8823 181.065 42.9641 180.614C43.0458 180.164 42.9517 179.699 42.701 179.315C42.4504 178.932 42.0622 178.659 41.6166 178.553C41.4943 178.511 41.3647 178.495 41.2358 178.505Z" fill="#263238"/>
<path d="M41.21 178.037C41.3152 178.142 41.4492 178.214 41.5951 178.243C41.734 178.298 41.8856 178.313 42.0327 178.287C41.8998 178.233 41.7621 178.192 41.6213 178.164C41.4874 178.112 41.35 178.069 41.21 178.037Z" fill="#263238"/>
<path d="M42.3389 179.1C42.4788 179.155 42.6265 179.188 42.7765 179.197C42.9453 179.213 43.1153 179.213 43.2841 179.197C43.3846 179.192 43.4843 179.178 43.5817 179.153C43.6413 179.137 43.6929 179.1 43.7261 179.048C43.7398 179.017 43.7441 178.983 43.7387 178.949C43.7332 178.916 43.7182 178.885 43.6955 178.86C43.5413 178.739 43.351 178.673 43.155 178.673C42.959 178.673 42.7687 178.739 42.6146 178.86C42.5253 178.926 42.452 179.011 42.4001 179.109C42.3651 179.175 42.3607 179.219 42.3651 179.219C42.4393 179.098 42.5358 178.992 42.6496 178.908C42.7785 178.818 42.9302 178.766 43.0872 178.759C43.2787 178.742 43.4696 178.798 43.6211 178.917C43.6824 178.982 43.6211 179.052 43.5467 179.079C43.4566 179.103 43.3642 179.12 43.271 179.127C43.1063 179.138 42.9411 179.138 42.7765 179.127C42.5139 179.122 42.3432 179.087 42.3389 179.1Z" fill="#263238"/>
<path d="M42.4529 179.144C42.4529 179.144 42.5491 179.061 42.571 178.864C42.5802 178.749 42.5606 178.633 42.5141 178.527C42.4878 178.453 42.4436 178.387 42.3856 178.335C42.3276 178.282 42.2575 178.244 42.1815 178.225C42.1588 178.224 42.136 178.227 42.1146 178.235C42.0931 178.243 42.0734 178.255 42.0567 178.271C42.04 178.286 42.0265 178.305 42.0172 178.326C42.0078 178.346 42.0027 178.369 42.0021 178.392C41.997 178.462 42.009 178.533 42.0371 178.597C42.0763 178.704 42.1293 178.806 42.1947 178.899C42.2503 178.993 42.3267 179.072 42.4179 179.131C42.4179 179.131 42.3435 179.035 42.2472 178.873C42.1926 178.778 42.1472 178.679 42.1115 178.575C42.0678 178.47 42.0634 178.3 42.1815 178.308C42.2997 178.317 42.3916 178.453 42.4397 178.553C42.4856 178.649 42.5095 178.754 42.5098 178.86C42.5014 178.956 42.4823 179.052 42.4529 179.144Z" fill="#263238"/>
<path d="M34.8906 176.974C34.8906 176.974 35.0963 177 35.4114 177.109C35.8127 177.246 36.1716 177.484 36.4529 177.801C36.7214 178.114 36.8972 178.496 36.9606 178.904C36.9785 179.069 36.9873 179.236 36.9868 179.402C36.9868 179.402 37.0087 179.354 37.0175 179.271C37.0313 179.146 37.0313 179.02 37.0175 178.895C36.9695 178.473 36.7957 178.075 36.5186 177.753C36.2255 177.423 35.8469 177.18 35.4245 177.052C35.2961 177.013 35.1642 176.987 35.0307 176.974C34.9843 176.966 34.937 176.966 34.8906 176.974Z" fill="#263238"/>
<path d="M38.0234 179C38.3449 179.152 38.6847 179.263 39.0343 179.328C39.3782 179.423 39.7324 179.476 40.089 179.486C40.089 179.464 39.6208 179.385 39.0562 179.249C38.4917 179.114 38.0322 178.978 38.0234 179Z" fill="#263238"/>
<path d="M36.6367 178.685C36.6367 178.685 36.6367 178.785 36.6805 178.895C36.7242 179.004 36.7111 179.096 36.7374 179.1C36.7636 179.105 36.7986 179.004 36.768 178.882C36.7374 178.759 36.6542 178.672 36.6367 178.685Z" fill="#263238"/>
<path d="M36.2471 177.963C36.2471 177.963 36.2471 178.055 36.3171 178.138C36.3871 178.221 36.4396 178.282 36.4571 178.273C36.4746 178.265 36.4571 178.182 36.3915 178.098C36.3258 178.015 36.269 177.95 36.2471 177.963Z" fill="#263238"/>
<path d="M35.5596 177.516C35.5596 177.543 35.6558 177.56 35.7521 177.617C35.8484 177.674 35.914 177.744 35.9359 177.735C35.9578 177.726 35.9359 177.617 35.7959 177.547C35.6559 177.477 35.5596 177.494 35.5596 177.516Z" fill="#263238"/>
<path d="M35.0566 177.276C35.0566 177.276 35.0787 177.337 35.1315 177.373C35.1843 177.408 35.2415 177.421 35.2547 177.399C35.268 177.377 35.2547 177.337 35.1799 177.302C35.1051 177.267 35.0698 177.249 35.0566 177.276Z" fill="#263238"/>
<path d="M62.8985 43.066C62.719 42.5452 62.277 42.1557 62.0626 41.6481C61.7431 40.8866 61.9795 40.0245 62.0626 39.2062C62.1458 38.3878 61.9751 37.39 61.2267 37.0531C60.8992 36.9677 60.5776 36.861 60.264 36.7336C59.6776 36.366 59.7082 35.5345 59.6557 34.8475C59.6203 34.3931 59.5047 33.9486 59.3143 33.5346L59.4369 33.4952C59.8803 33.3878 60.3474 33.44 60.7562 33.6424C61.1651 33.8448 61.4897 34.1847 61.6731 34.6024C61.754 34.7772 61.7893 34.9696 61.7755 35.1618C61.7617 35.3539 61.6994 35.5394 61.5944 35.7008C61.5042 35.8353 61.3715 35.9356 61.2176 35.9856C61.0636 36.0356 60.8973 36.0324 60.7454 35.9765C60.6277 35.9152 60.5335 35.8168 60.4773 35.6966C60.4212 35.5763 60.4062 35.4409 60.4347 35.3113C60.4715 35.2176 60.5394 35.1395 60.6271 35.0901C60.7148 35.0407 60.8168 35.023 60.916 35.04C60.9823 35.0456 61.0467 35.0653 61.1048 35.0978C61.1629 35.1302 61.2134 35.1747 61.253 35.2282C61.3055 35.307 61.3099 35.3638 61.3186 35.3595C61.3274 35.3551 61.3186 35.3026 61.3186 35.2063C61.2816 35.136 61.2287 35.0753 61.1642 35.0289C61.0996 34.9826 61.0251 34.9519 60.9467 34.9394C60.834 34.9183 60.7178 34.9274 60.6097 34.9656C60.5421 34.9908 60.4808 35.0305 60.4301 35.0819C60.3795 35.1333 60.3407 35.1952 60.3165 35.2632C60.2659 35.4286 60.2744 35.6064 60.3407 35.7661C60.407 35.9259 60.5269 36.0575 60.6797 36.1384C60.8707 36.2221 61.0847 36.2373 61.2856 36.1815C61.4865 36.1257 61.662 36.0023 61.7825 35.8321C61.9155 35.643 61.9974 35.4229 62.0204 35.1929C62.0434 34.9629 62.0067 34.7309 61.9138 34.5192C61.7302 34.076 61.4044 33.7064 60.9876 33.4688C60.5709 33.2311 60.0869 33.1388 59.6119 33.2064C59.7149 33.0327 59.7802 32.8393 59.8036 32.6388C59.8269 32.4382 59.8079 32.235 59.7476 32.0423C59.6671 31.8075 59.5343 31.5941 59.3591 31.4182C59.184 31.2423 58.9711 31.1085 58.7367 31.027C58.3259 30.876 57.8792 30.8516 57.4545 30.957C57.0951 31.0443 56.7532 31.1923 56.4435 31.3946C56.1591 31.5784 55.9403 31.7797 55.7302 31.9154C55.5562 32.041 55.3527 32.1194 55.1394 32.143C54.956 32.1599 54.7716 32.1218 54.6099 32.0335C54.6099 32.0335 54.7456 32.2436 55.1438 32.2436C55.3788 32.2371 55.6075 32.166 55.8046 32.0379C56.0366 31.9066 56.2685 31.7097 56.5398 31.5478C56.8438 31.3372 57.1923 31.1995 57.5581 31.1456C57.924 31.0917 58.2974 31.123 58.6492 31.2371C58.852 31.3067 59.0363 31.4218 59.188 31.5735C59.3397 31.7251 59.4548 31.9094 59.5244 32.1123C59.5892 32.3157 59.5953 32.5334 59.5419 32.7401C59.4884 32.9468 59.3777 33.1342 59.2224 33.2808C59.0007 32.8776 58.6741 32.5419 58.2772 32.3092C57.4019 31.8147 56.0891 32.0554 55.6515 32.9569L48.4701 30.4887C48.0199 30.1103 47.4816 29.8514 46.9049 29.7359C46.3282 29.6204 45.7317 29.6521 45.1704 29.8279L45.0216 29.8017C44.607 29.7628 44.1893 29.8321 43.8094 30.003C43.3328 30.2704 42.917 30.634 42.5885 31.0708C42.3916 31.2974 42.1596 31.491 41.9014 31.6441C41.8558 31.6642 41.809 31.6817 41.7614 31.6966C41.4432 31.7325 41.1229 31.7442 40.803 31.7316C40.1991 31.5915 39.5733 31.2458 38.8293 31.1714C38.4134 31.1152 37.9904 31.145 37.5865 31.259C37.1574 31.3853 36.7723 31.6294 36.4749 31.9635C36.1622 32.3137 35.9907 32.7675 35.9935 33.237C35.9992 33.5739 36.0523 33.9083 36.1511 34.2304C35.9897 34.6637 35.9182 35.1253 35.941 35.587C35.9716 36.1953 36.1467 36.8343 36.1554 37.4294C35.9796 37.5668 35.779 37.6693 35.5646 37.7314C35.1883 37.8495 34.7813 37.9064 34.3962 38.0552C34.0356 38.2021 33.7108 38.4245 33.4435 38.7076C33.1763 38.9907 32.9729 39.3279 32.847 39.6963C32.7267 39.9906 32.6813 40.3102 32.7149 40.6264C32.7485 40.9427 32.86 41.2456 33.0396 41.508C32.9477 41.9074 32.9455 42.3223 33.0333 42.7226C33.1211 43.1229 33.2966 43.4988 33.5472 43.8231C33.9456 44.2016 34.3212 44.6034 34.6719 45.0265C35.1445 45.7573 35.0745 46.6982 35.197 47.5603C35.3196 48.4225 35.8141 49.4027 36.685 49.4596C37.3851 49.5034 37.9978 48.917 38.7155 48.9739C39.6958 49.0526 40.0984 50.2298 40.6673 51.0351C41.0346 51.541 41.5307 51.9393 42.1041 52.1886C42.6774 52.438 43.3071 52.5293 43.9276 52.453C44.8028 52.3348 45.7043 51.8622 46.5752 52.081C47.6736 52.361 48.3257 53.6477 49.4591 53.8096C50.2906 53.9277 51.0652 53.372 51.6866 52.803C52.308 52.2341 52.9338 51.5777 53.7653 51.4289C54.7631 51.2495 55.7258 51.8665 56.7324 51.9891C57.3857 52.0673 58.0476 51.9518 58.6358 51.6569C59.224 51.3621 59.7126 50.9008 60.0408 50.3305C60.5922 49.3283 60.5878 48.0986 61.1086 47.079C61.507 46.4294 61.9455 45.8053 62.4215 45.2103C62.8328 44.5933 63.1523 43.8012 62.8985 43.066ZM34.103 39.8363C34.0222 39.8191 33.9387 39.8191 33.8579 39.8363C33.8579 39.8363 33.9323 39.8363 34.0549 39.8845L33.9192 39.9851C33.5094 40.3264 33.2133 40.7843 33.0702 41.298C32.9617 41.0653 32.9019 40.813 32.8944 40.5564C32.8869 40.2998 32.9318 40.0443 33.0264 39.8057C33.1467 39.4702 33.3368 39.164 33.5843 38.9075C33.8317 38.651 34.1309 38.45 34.4618 38.3178C34.8119 38.1865 35.2102 38.1296 35.6172 38.0071C35.7935 37.9574 35.9615 37.8822 36.116 37.7839C36.0974 38.0222 36.0273 38.2537 35.9104 38.4622C35.534 39.1143 34.7375 39.39 34.103 39.8363ZM39.0043 31.7841C38.4226 31.894 37.8748 32.139 37.4051 32.4992C36.9354 32.8595 36.5568 33.3251 36.2998 33.8584C36.2552 33.6616 36.2318 33.4607 36.2298 33.2589C36.2278 32.85 36.3757 32.4545 36.6456 32.1473C36.916 31.8624 37.2518 31.6477 37.624 31.5219C37.9961 31.3961 38.3933 31.3629 38.7812 31.4253C39.1843 31.4782 39.5795 31.5796 39.9584 31.7272C39.6394 31.722 39.3205 31.7411 39.0043 31.7841ZM42.606 31.4821C42.5184 31.5215 42.4265 31.5478 42.339 31.5784C42.4666 31.4625 42.5879 31.3398 42.7022 31.2108C43.0121 30.7868 43.4015 30.4271 43.8488 30.1518C44.1792 29.9896 44.5444 29.9114 44.9122 29.9242C44.7224 29.9936 44.5404 30.0831 44.3696 30.1912C43.7569 30.585 43.2712 31.1758 42.606 31.4821Z" fill="#263238"/>
<path d="M58.1717 46.5144C58.513 44.3613 58.408 40.8254 58.2242 37.9327C58.1857 37.3162 58.0228 36.7138 57.7454 36.162C57.4679 35.6101 57.0817 35.12 56.6098 34.7214C56.138 34.3227 55.5903 34.0237 54.9999 33.8423C54.4094 33.6609 53.7883 33.6009 53.1741 33.6659L45.6514 34.4623C45.2719 34.5018 44.9213 34.6827 44.6691 34.9689C44.4169 35.2551 44.2817 35.6258 44.2904 36.0071L45.0649 54.4879H43.3145V57.8357C43.3145 59.6741 44.0448 61.4373 45.3448 62.7373C46.6448 64.0373 48.4079 64.7676 50.2464 64.7676C52.0848 64.7676 53.848 64.0373 55.148 62.7373C56.448 61.4373 57.1783 59.6741 57.1783 57.8357V54.9386C57.1783 54.9386 55.3753 54.3478 54.2812 54.4091H54.0143C54.0143 52.7155 54.1543 51.3895 54.1543 51.3895C54.1543 51.3895 57.4846 50.8513 58.1717 46.5144Z" fill="#FFBE9D"/>
<path d="M57.0998 40.7378C57.0999 40.8827 57.0439 41.0219 56.9436 41.1264C56.8432 41.2308 56.7063 41.2923 56.5616 41.298C56.4906 41.304 56.4192 41.2955 56.3515 41.2733C56.2839 41.251 56.2214 41.2153 56.1679 41.1683C56.1144 41.1213 56.0709 41.064 56.04 40.9998C56.0092 40.9356 55.9916 40.8659 55.9883 40.7947C55.9882 40.6499 56.0442 40.5106 56.1445 40.4062C56.2449 40.3017 56.3818 40.2402 56.5266 40.2346C56.5974 40.2292 56.6686 40.2381 56.736 40.2606C56.8034 40.2831 56.8656 40.3189 56.919 40.3657C56.9724 40.4126 57.0159 40.4697 57.0469 40.5336C57.078 40.5974 57.096 40.6669 57.0998 40.7378Z" fill="#263238"/>
<path d="M57.4581 39.7751C57.3881 39.8451 56.968 39.5344 56.3685 39.5344C55.7689 39.5344 55.3313 39.8363 55.2657 39.7619C55.2 39.6875 55.3051 39.6 55.4976 39.46C55.7554 39.2836 56.0605 39.189 56.3728 39.1887C56.687 39.1864 56.9936 39.2845 57.2481 39.4687C57.4275 39.6088 57.4932 39.7401 57.4581 39.7751Z" fill="#263238"/>
<path d="M51.2479 40.7378C51.2491 40.8823 51.1941 41.0215 51.0944 41.1261C50.9948 41.2307 50.8583 41.2923 50.714 41.298C50.643 41.304 50.5716 41.2955 50.5039 41.2733C50.4363 41.251 50.3738 41.2153 50.3203 41.1683C50.2668 41.1213 50.2233 41.064 50.1924 40.9998C50.1616 40.9356 50.144 40.8659 50.1407 40.7947C50.1383 40.65 50.193 40.5101 50.2929 40.4053C50.3928 40.3005 50.5299 40.2392 50.6746 40.2346C50.7454 40.2292 50.8166 40.2381 50.884 40.2606C50.9514 40.2831 51.0136 40.3189 51.067 40.3657C51.1204 40.4126 51.1639 40.4697 51.195 40.5336C51.226 40.5974 51.244 40.6669 51.2479 40.7378Z" fill="#263238"/>
<path d="M51.5763 39.8845C51.5063 39.9589 51.0862 39.6482 50.4866 39.6482C49.8871 39.6482 49.4495 39.9501 49.3838 39.8757C49.3182 39.8013 49.4232 39.7138 49.6158 39.5738C49.8717 39.3935 50.178 39.2986 50.491 39.3025C50.8055 39.298 51.1128 39.3964 51.3663 39.5825C51.5457 39.7226 51.6113 39.8626 51.5763 39.8845Z" fill="#263238"/>
<path d="M53.7482 44.322C54.0635 44.2234 54.3899 44.1646 54.7198 44.1469C54.8729 44.1469 55.0173 44.1031 55.0436 43.9981C55.053 43.8456 55.018 43.6936 54.9429 43.5605C54.7985 43.1929 54.6497 42.8034 54.5053 42.3964C53.8795 40.7422 53.4244 39.3812 53.4944 39.3549C53.989 40.3056 54.4089 41.2932 54.7504 42.3089C54.8992 42.7203 55.0436 43.1054 55.188 43.4817C55.2847 43.6659 55.3126 43.8784 55.2668 44.0813C55.244 44.1351 55.2093 44.1832 55.1653 44.2218C55.1214 44.2605 55.0693 44.2887 55.013 44.3044C54.9288 44.3276 54.842 44.3393 54.7548 44.3395C54.4199 44.3767 54.0816 44.3708 53.7482 44.322Z" fill="#263238"/>
<path d="M54.1627 51.4027C52.1209 51.4339 50.1104 50.8976 48.3555 49.8535C48.3555 49.8535 49.7646 52.8337 54.1014 52.4267L54.1627 51.4027Z" fill="#EB996E"/>
<path d="M53.4947 45.7661C53.3809 45.6225 53.2324 45.5102 53.0632 45.4398C52.894 45.3694 52.7097 45.3431 52.5276 45.3635C52.3956 45.3759 52.2675 45.4149 52.1509 45.4781C52.0344 45.5412 51.9318 45.6273 51.8493 45.7311C51.7688 45.8306 51.721 45.9525 51.7123 46.0801C51.7037 46.2078 51.7347 46.335 51.8011 46.4444C51.8982 46.5501 52.0241 46.6251 52.1633 46.6601C52.3025 46.6951 52.4489 46.6886 52.5845 46.6413C52.8655 46.546 53.1255 46.3974 53.3503 46.2037C53.4179 46.1551 53.4758 46.0943 53.521 46.0243C53.5436 45.9915 53.5557 45.9525 53.5557 45.9127C53.5557 45.8728 53.5436 45.8339 53.521 45.8011" fill="#EB996E"/>
<path d="M51.9885 44.7377C52.0848 44.7377 52.0848 45.381 52.6406 45.8405C53.1964 46.3 53.8878 46.23 53.8922 46.3219C53.8966 46.4138 53.739 46.4488 53.4546 46.4576C53.0748 46.4624 52.7056 46.3321 52.413 46.0899C52.1289 45.8609 51.9466 45.5291 51.9054 45.1666C51.8922 44.8952 51.9448 44.7333 51.9885 44.7377Z" fill="#263238"/>
<path d="M51.8438 38.8385C51.787 39.0005 51.1874 38.9217 50.4872 39.0092C49.787 39.0967 49.2181 39.2849 49.1262 39.1361C49.0825 39.0705 49.1831 38.9173 49.4107 38.7598C49.7138 38.5611 50.0608 38.4395 50.4216 38.4053C50.7808 38.3622 51.145 38.4042 51.485 38.5278C51.7432 38.6329 51.892 38.7598 51.8438 38.8385Z" fill="#263238"/>
<path d="M57.2398 38.5497C57.1348 38.6854 56.7191 38.5497 56.2245 38.5497C55.73 38.5497 55.3099 38.6416 55.2136 38.4972C55.1699 38.4272 55.2136 38.2915 55.4193 38.1646C55.6644 38.0081 55.9515 37.9302 56.2421 37.9414C56.5335 37.946 56.8163 38.0408 57.0517 38.2128C57.2267 38.3441 57.2836 38.4841 57.2398 38.5497Z" fill="#263238"/>
<path d="M59.8392 34.0641C59.5416 32.9088 58.6664 31.841 57.4935 31.6222C56.7277 31.4822 55.9444 31.7053 55.1698 31.6572C54.5265 31.6178 54.2945 31.1058 53.6862 30.9045C52.671 30.5719 51.892 29.4428 49.6995 29.6792C49.1131 29.7448 48.3604 30.4231 47.8221 31.1933C46.9819 30.8301 45.8747 31.2196 45.2708 31.4865C44.0148 32.0336 43.2315 33.4471 42.982 34.8825C42.7326 36.3179 42.9383 37.7927 43.1396 39.2368C43.2315 39.8932 43.3234 40.5497 43.4196 41.2148C43.4554 41.6528 43.5726 42.0803 43.7654 42.4752L42.7676 51.7528C43.267 51.9125 43.7938 51.9688 44.3157 51.9182C44.8376 51.8676 45.3438 51.7112 45.8033 51.4586C46.2627 51.2059 46.6659 50.8622 46.9882 50.4486C47.3105 50.0349 47.5451 49.56 47.6777 49.0526C48.0628 47.2278 47.0475 45.3722 47.2094 43.5124C47.3057 42.4052 47.9315 41.3768 47.9271 40.2652C47.92 39.8997 47.867 39.5366 47.7696 39.1843C49.5201 37.7533 49.984 36.6023 49.9096 35.2457C50.4498 35.6234 51.0887 35.8349 51.7476 35.854C52.6753 35.854 53.6425 35.5039 54.509 35.854C55.1054 36.1591 55.6315 36.5854 56.0538 37.1056C56.5308 37.5782 57.1478 38.0115 57.8042 37.9196C58.118 37.8453 58.4231 37.7383 58.7145 37.6001C58.8609 37.5308 59.0208 37.4948 59.1828 37.4948C59.3447 37.4948 59.5046 37.5308 59.651 37.6001C60.0053 36.4552 60.07 35.2402 59.8392 34.0641Z" fill="#263238"/>
<path d="M33.9141 43.5649C34.3629 43.8903 34.8456 44.1662 35.3538 44.3876C35.9501 44.6387 36.5887 44.7739 37.2356 44.7858C38.0931 44.8087 38.9353 44.5556 39.6381 44.0638C40.0597 43.7727 40.4154 43.3964 40.6822 42.9591C40.9491 42.5219 41.1212 42.0335 41.1873 41.5256C41.2553 40.9617 41.1403 40.391 40.8591 39.8976C40.7137 39.6448 40.5075 39.4323 40.2591 39.2794C40.0107 39.1266 39.7281 39.0382 39.4368 39.0224C39.1394 39.0146 38.8486 39.1105 38.6141 39.2937C38.3763 39.4926 38.2001 39.7552 38.1065 40.0508C38.0032 40.3554 37.9795 40.6814 38.0378 40.9977C38.096 41.314 38.2341 41.6102 38.4391 41.8581C38.8849 42.3763 39.4869 42.7357 40.1545 42.8822C40.8441 43.0448 41.5606 43.0568 42.2551 42.9172C42.9521 42.7784 43.607 42.4787 44.1675 42.0419C44.7101 41.6218 45.1215 41.0555 45.3535 40.4096C45.5812 39.7882 45.6356 39.1166 45.511 38.4666C45.4515 38.1591 45.3421 37.8635 45.1872 37.5913C45.0456 37.3188 44.8435 37.0823 44.5964 36.8999C44.3674 36.7184 44.0874 36.6128 43.7955 36.5979C43.6602 36.5933 43.5262 36.626 43.4081 36.6924C43.29 36.7587 43.1924 36.8563 43.126 36.9743C42.9986 37.215 42.9688 37.4955 43.0428 37.7576C43.1271 38.018 43.278 38.2518 43.4805 38.4359C44.2007 39.0453 45.1229 39.363 46.0657 39.3266C47.0084 39.2901 47.9033 38.9021 48.5744 38.239C49.0248 37.7747 49.354 37.2066 49.5328 36.5848C49.6802 36.0526 49.7263 35.4974 49.6684 34.9481C49.7088 35.0907 49.7323 35.2376 49.7384 35.3857C49.7695 35.802 49.7311 36.2206 49.6247 36.6242C49.4512 37.2665 49.1237 37.8569 48.6706 38.344C48.054 38.9879 47.2291 39.3926 46.3425 39.4862C45.8079 39.5554 45.2647 39.5112 44.7482 39.3567C44.2317 39.2021 43.7536 38.9406 43.3448 38.5891C43.118 38.3821 42.9517 38.1174 42.8634 37.8233C42.7744 37.5084 42.8105 37.1713 42.9641 36.8824C43.0486 36.7323 43.1721 36.608 43.3216 36.5224C43.471 36.4369 43.6409 36.3934 43.8131 36.3966C44.1517 36.4106 44.4776 36.5299 44.7452 36.738C45.0173 36.9375 45.2403 37.1964 45.3972 37.4951C45.5661 37.7934 45.6857 38.117 45.7517 38.4535C45.8879 39.1438 45.8319 39.8583 45.5898 40.519C45.3447 41.2093 44.9093 41.8162 44.3338 42.2695C43.7424 42.7249 43.0533 43.0365 42.3208 43.1798C41.597 43.3241 40.8507 43.3106 40.1327 43.1404C39.4158 42.9808 38.7696 42.594 38.2903 42.0376C38.0642 41.7546 37.9136 41.4188 37.8527 41.0617C37.7986 40.7099 37.8271 40.3503 37.9358 40.0114C38.0416 39.6697 38.2437 39.3659 38.5178 39.1361C38.7958 38.9224 39.1389 38.8111 39.4894 38.8211C39.8177 38.8386 40.1362 38.9394 40.4148 39.114C40.6935 39.2885 40.9232 39.5311 41.0823 39.8188C41.38 40.351 41.501 40.9639 41.428 41.5693C41.3551 42.1026 41.1704 42.6144 40.8861 43.0714C40.6018 43.5284 40.2243 43.9202 39.7782 44.2213C39.0472 44.7261 38.1712 44.9781 37.2837 44.939C36.6223 44.9202 35.971 44.7715 35.367 44.5014C34.9841 44.3372 34.6226 44.127 34.2904 43.8756C34.1766 43.7924 34.0979 43.718 34.041 43.6743L33.9141 43.5649Z" fill="#455A64"/>
<path d="M60.0931 36.0247C60.031 36.0834 59.9602 36.1321 59.8831 36.1691C59.6686 36.2887 59.4368 36.3744 59.196 36.4229C58.8119 36.5009 58.416 36.5009 58.0319 36.4229C57.524 36.3028 57.0535 36.0593 56.6622 35.7139C56.1907 35.2944 55.8223 34.7717 55.5856 34.1866C55.507 34.0182 55.4633 33.8356 55.4573 33.6498C55.4513 33.464 55.483 33.2789 55.5506 33.1057C55.6343 32.9189 55.7774 32.7651 55.9576 32.6681C56.0549 32.6175 56.163 32.591 56.2727 32.591C56.3824 32.591 56.4905 32.6175 56.5878 32.6681C56.7752 32.777 56.9204 32.9461 56.9998 33.1478C57.0793 33.3495 57.0883 33.5722 57.0254 33.7797C56.9493 33.983 56.8323 34.1687 56.6818 34.3252C56.5313 34.4817 56.3504 34.6059 56.1502 34.6899C55.344 35.0378 54.4329 35.052 53.6163 34.7293C53.2084 34.5821 52.8168 34.3929 52.4479 34.1648C52.0794 33.9514 51.7446 33.6844 51.4545 33.3727C51.2991 33.2077 51.2044 32.9948 51.1861 32.7689C51.1678 32.543 51.227 32.3176 51.3538 32.1298C51.4286 32.0388 51.5269 31.97 51.6379 31.9306C51.7489 31.8913 51.8686 31.883 51.984 31.9066C52.1958 31.9534 52.3845 32.0726 52.5179 32.2436C52.651 32.4118 52.7123 32.6256 52.6886 32.8388C52.6611 33.0382 52.5759 33.2253 52.4435 33.377C52.2003 33.6579 51.8557 33.831 51.4851 33.8584C51.1517 33.8823 50.8169 33.8391 50.5005 33.7315C50.2154 33.641 49.9363 33.5328 49.6646 33.4077C49.1833 33.2067 48.7625 32.884 48.4436 32.4712C48.211 32.146 48.0995 31.7496 48.1286 31.3509C48.1438 31.1019 48.2321 30.8629 48.3824 30.6638C48.4348 30.5948 48.5002 30.5368 48.5749 30.4931C48.3544 30.7321 48.2284 31.0432 48.2205 31.3684C48.2091 31.74 48.3249 32.1043 48.5487 32.4011C48.8611 32.7911 49.2699 33.0928 49.7346 33.2764C50.2772 33.5505 50.8772 33.6915 51.4851 33.6878C51.6443 33.6727 51.799 33.6263 51.9402 33.5512C52.0814 33.4761 52.2064 33.3737 52.3078 33.2501C52.4209 33.1356 52.4892 32.9844 52.5004 32.8238C52.5116 32.6633 52.4651 32.5041 52.3691 32.3749C52.1722 32.1167 51.7521 32.0029 51.5551 32.2699C51.5048 32.3367 51.4685 32.413 51.4482 32.4942C51.4279 32.5754 51.4241 32.6598 51.437 32.7425C51.4626 32.9205 51.5385 33.0875 51.6558 33.2239C51.9312 33.5125 52.2466 33.7601 52.5923 33.9591C52.9467 34.1786 53.3238 34.359 53.717 34.4974C54.09 34.6526 54.4901 34.7326 54.8942 34.7326C55.2983 34.7326 55.6983 34.6526 56.0714 34.4974C56.2402 34.4266 56.3928 34.3222 56.52 34.1906C56.6471 34.0589 56.7462 33.9027 56.811 33.7315C56.8646 33.5692 56.8604 33.3932 56.799 33.2337C56.7375 33.0741 56.6227 32.9407 56.474 32.8563C56.4043 32.8248 56.3289 32.8082 56.2524 32.8076C56.176 32.8071 56.1002 32.8226 56.0301 32.8531C55.96 32.8836 55.8971 32.9285 55.8454 32.9848C55.7937 33.0411 55.7544 33.1077 55.73 33.1801C55.6744 33.3278 55.6485 33.485 55.6538 33.6427C55.659 33.8004 55.6954 33.9555 55.7607 34.0991C55.9805 34.6591 56.3247 35.1619 56.7672 35.5695C57.1322 35.9067 57.5738 36.15 58.0538 36.2785C58.4184 36.3711 58.7977 36.3905 59.1697 36.3354C59.49 36.2733 59.8005 36.1688 60.0931 36.0247Z" fill="#455A64"/>
<path d="M47.4545 46.2037C47.4025 46.2637 47.3402 46.3141 47.2707 46.3525C47.0766 46.4785 46.8595 46.5648 46.6318 46.6063C46.2718 46.6806 45.8983 46.6564 45.5509 46.5363C45.3113 46.4668 45.0894 46.3469 44.9 46.1846C44.7105 46.0223 44.5579 45.8215 44.4525 45.5954C44.3813 45.4513 44.359 45.2879 44.389 45.13C44.419 44.972 44.4997 44.8282 44.6188 44.7202C44.7535 44.6162 44.919 44.5598 45.0892 44.5598C45.2594 44.5598 45.4249 44.6162 45.5596 44.7202C45.8308 44.9413 46.0368 45.232 46.1555 45.5611C46.2742 45.8903 46.3012 46.2455 46.2336 46.5888C46.1889 46.969 46.0498 47.332 45.8289 47.6446C45.608 47.9573 45.3123 48.2096 44.9688 48.3787C44.5907 48.5385 44.1799 48.6059 43.7705 48.5755C43.3611 48.545 42.9648 48.4176 42.6145 48.2036C42.252 48.0003 41.9431 47.7138 41.713 47.3678C41.596 47.1946 41.5165 46.9988 41.4796 46.7931C41.4427 46.5873 41.4491 46.3762 41.4985 46.1731C41.5511 45.97 41.6586 45.7852 41.8092 45.6392C41.886 45.5643 41.9771 45.5059 42.0772 45.4676C42.1773 45.4292 42.2842 45.4116 42.3913 45.416C42.588 45.4309 42.7776 45.4963 42.9417 45.606C43.1057 45.7156 43.2387 45.8657 43.3278 46.0418C43.49 46.3593 43.5783 46.7094 43.586 47.0658C43.5989 47.394 43.5665 47.7224 43.4897 48.0417C43.3521 48.6223 43.0479 49.1501 42.6145 49.5603C42.3043 49.8602 41.9125 50.0618 41.4881 50.1397C41.0637 50.2175 40.6258 50.1682 40.2294 49.9979C40.0177 49.9056 39.8248 49.7751 39.6605 49.6128C39.6011 49.5601 39.5509 49.498 39.5117 49.429C39.7361 49.6275 39.9901 49.7899 40.2644 49.9104C40.5901 50.0363 40.9419 50.0799 41.2885 50.0373C41.7443 49.982 42.169 49.7773 42.4963 49.4552C42.8918 49.061 43.1652 48.5611 43.284 48.0155C43.3547 47.7131 43.3812 47.4021 43.3628 47.0921C43.3534 46.7701 43.2711 46.4544 43.1221 46.1687C43.0516 46.0256 42.9451 45.9032 42.8132 45.8135C42.6813 45.7238 42.5284 45.6697 42.3694 45.6567C42.2086 45.6666 42.056 45.7309 41.9367 45.8391C41.8174 45.9473 41.7385 46.0928 41.713 46.2519C41.6716 46.4234 41.667 46.6018 41.6994 46.7752C41.7318 46.9487 41.8006 47.1134 41.9011 47.2584C42.1114 47.5721 42.3915 47.8327 42.7195 48.0198C43.0428 48.2164 43.4083 48.3332 43.7858 48.3606C44.1632 48.388 44.5417 48.3252 44.8901 48.1774C45.1997 48.0239 45.4665 47.7961 45.6666 47.5143C45.8667 47.2325 45.9938 46.9055 46.0366 46.5626C46.0985 46.2585 46.0784 45.9435 45.9784 45.6497C45.8785 45.356 45.7022 45.0941 45.4677 44.8909C45.366 44.811 45.2404 44.7676 45.1111 44.7676C44.9817 44.7676 44.8562 44.811 44.7544 44.8909C44.6661 44.9725 44.6062 45.0802 44.5833 45.1983C44.5605 45.3163 44.576 45.4386 44.6275 45.5473C44.7195 45.7529 44.8534 45.9369 45.0207 46.0876C45.188 46.2384 45.385 46.3524 45.599 46.4225C45.926 46.5436 46.2783 46.5797 46.6231 46.5276C46.9167 46.4678 47.1979 46.3583 47.4545 46.2037Z" fill="#455A64"/>
<path d="M29.376 152.585C29.376 152.585 32.3037 158.274 39.9358 155.508C39.9358 155.508 47.4103 159.569 54.5611 155.023C54.5611 155.023 63.8168 156.261 68.8538 153.824L62.3945 97.9656L61.5718 89.3882H41.1305C41.1305 89.3882 35.0651 92.1496 34.0892 105.633C33.1133 119.116 31.0258 137.636 31.0258 137.636L29.376 152.585Z" fill="#263238"/>
<path d="M54.1247 155.193C54.1247 155.193 54.1247 155.136 54.1247 155.023C54.1247 154.909 54.0985 154.738 54.081 154.528C54.046 154.09 53.9978 153.438 53.9322 152.62C53.8096 150.966 53.6477 148.568 53.4727 145.618C53.1182 139.693 52.7419 131.492 52.5449 122.424C52.348 113.357 52.3699 105.151 52.4661 99.2303C52.5143 96.2588 52.5668 93.8563 52.6237 92.1977C52.6499 91.375 52.6718 90.7361 52.6893 90.2853C52.6893 90.0752 52.6893 89.9089 52.6893 89.7864C52.6837 89.7311 52.6837 89.6754 52.6893 89.6201C52.696 89.6753 52.696 89.7312 52.6893 89.7864V90.2853C52.6893 90.7229 52.6893 91.3794 52.6675 92.1977C52.6675 93.8694 52.6193 96.272 52.5843 99.2303C52.5318 105.169 52.5318 113.374 52.7287 122.424C52.9257 131.474 53.2801 139.68 53.604 145.618C53.7659 148.576 53.8972 150.97 53.9934 152.62C54.0372 153.438 54.0722 154.082 54.0985 154.528C54.0985 154.738 54.0985 154.904 54.1204 155.027C54.1264 155.082 54.1279 155.138 54.1247 155.193Z" fill="#455A64"/>
<path d="M55.9183 139.203C55.9183 139.203 55.962 139.141 56.0758 139.111C56.2443 139.074 56.4201 139.096 56.5747 139.172C56.6919 139.229 56.7947 139.312 56.8757 139.414C56.9567 139.517 57.0139 139.636 57.043 139.763C57.0597 139.926 57.0286 140.091 56.9535 140.237C56.8783 140.384 56.7623 140.505 56.6196 140.586C56.4769 140.668 56.3135 140.706 56.1494 140.697C55.9853 140.687 55.8275 140.63 55.6951 140.533C55.6003 140.442 55.5272 140.332 55.4809 140.209C55.4347 140.086 55.4167 139.955 55.4281 139.824C55.4407 139.652 55.5118 139.49 55.6294 139.365C55.7126 139.281 55.7826 139.264 55.787 139.273C55.6701 139.437 55.6019 139.631 55.5901 139.833C55.5903 139.934 55.6119 140.035 55.6533 140.127C55.6948 140.22 55.7552 140.303 55.8308 140.371C55.9314 140.435 56.0473 140.469 56.1663 140.472C56.2852 140.475 56.4026 140.445 56.506 140.386C56.6094 140.327 56.6948 140.242 56.7531 140.138C56.8115 140.034 56.8406 139.917 56.8373 139.798C56.8189 139.697 56.7788 139.602 56.7198 139.519C56.6608 139.436 56.5844 139.367 56.4959 139.316C56.3195 139.22 56.1179 139.181 55.9183 139.203Z" fill="#455A64"/>
<path d="M55.4631 122.617C55.4631 122.617 55.5068 122.56 55.6206 122.529C55.7889 122.49 55.9657 122.512 56.1195 122.59C56.2386 122.645 56.343 122.727 56.4244 122.83C56.5058 122.932 56.5617 123.053 56.5877 123.181C56.6028 123.344 56.5707 123.507 56.4954 123.652C56.42 123.796 56.3046 123.916 56.1628 123.997C56.0211 124.078 55.8591 124.116 55.6962 124.107C55.5332 124.098 55.3764 124.043 55.2442 123.947C55.1477 123.859 55.0732 123.749 55.0269 123.627C54.9805 123.504 54.9635 123.373 54.9773 123.243C54.9915 123.079 55.0609 122.924 55.1742 122.805C55.2617 122.717 55.3274 122.704 55.3318 122.713C55.2155 122.876 55.1472 123.069 55.1348 123.269C55.1348 123.37 55.1563 123.471 55.1977 123.564C55.2392 123.656 55.2998 123.739 55.3755 123.807C55.4755 123.872 55.5914 123.908 55.7105 123.912C55.8296 123.915 55.9475 123.886 56.0512 123.828C56.155 123.769 56.2407 123.683 56.299 123.579C56.3573 123.475 56.386 123.357 56.3821 123.238C56.3631 123.138 56.3233 123.043 56.2652 122.959C56.2072 122.876 56.1322 122.805 56.0451 122.752C55.8675 122.654 55.6659 122.607 55.4631 122.617Z" fill="#455A64"/>
<path d="M55.1959 107.948C55.1959 107.948 55.2396 107.891 55.3578 107.86C55.5247 107.821 55.6999 107.843 55.8523 107.921C55.9716 107.976 56.0764 108.058 56.1585 108.161C56.2405 108.264 56.2975 108.384 56.3249 108.512C56.3407 108.675 56.3089 108.84 56.2334 108.985C56.1579 109.131 56.0418 109.251 55.8993 109.332C55.7567 109.413 55.5938 109.451 55.4302 109.442C55.2665 109.432 55.1091 109.375 54.977 109.278C54.8813 109.189 54.8074 109.079 54.7611 108.957C54.7148 108.835 54.6974 108.704 54.7101 108.573C54.7222 108.403 54.7915 108.241 54.907 108.114C54.9945 108.031 55.0602 108.013 55.0689 108.022C54.95 108.184 54.8801 108.377 54.8676 108.578C54.867 108.68 54.8886 108.781 54.931 108.874C54.9733 108.967 55.0353 109.05 55.1127 109.116C55.2126 109.18 55.328 109.215 55.4465 109.218C55.5649 109.221 55.6819 109.192 55.785 109.133C55.888 109.075 55.9732 108.989 56.0313 108.886C56.0894 108.783 56.1183 108.666 56.1149 108.547C56.0959 108.447 56.0561 108.352 55.998 108.269C55.94 108.185 55.865 108.114 55.7779 108.061C55.5982 107.97 55.3967 107.931 55.1959 107.948Z" fill="#455A64"/>
<path d="M54.6756 92.2546C54.6756 92.2546 54.7193 92.1933 54.8331 92.1627C55.002 92.1256 55.1785 92.1488 55.332 92.2283C55.4505 92.2838 55.5544 92.3661 55.6357 92.4686C55.7169 92.5711 55.7733 92.6911 55.8002 92.8191C55.8226 92.9842 55.7924 93.1522 55.7138 93.2991C55.6353 93.446 55.5124 93.5644 55.3626 93.6375C55.222 93.7247 55.0579 93.7664 54.8926 93.757C54.7274 93.7476 54.5691 93.6875 54.4392 93.585C54.3445 93.4943 54.2713 93.3836 54.2251 93.2609C54.1789 93.1381 54.1608 93.0066 54.1723 92.876C54.1896 92.712 54.2604 92.5583 54.3736 92.4384C54.4611 92.3552 54.5268 92.3377 54.5311 92.3465C54.4143 92.511 54.346 92.7052 54.3342 92.9066C54.3345 93.0082 54.356 93.1086 54.3975 93.2013C54.4389 93.294 54.4994 93.377 54.5749 93.4449C54.6755 93.5084 54.7915 93.5434 54.9104 93.5461C55.0293 93.5487 55.1468 93.5191 55.2501 93.4602C55.3535 93.4013 55.4389 93.3155 55.4973 93.2118C55.5556 93.1081 55.5847 92.9905 55.5814 92.8716C55.563 92.7714 55.5229 92.6764 55.4639 92.5932C55.405 92.5101 55.3286 92.4408 55.2401 92.3902C55.0698 92.2893 54.8731 92.242 54.6756 92.2546Z" fill="#455A64"/>
<path d="M81.318 75.2661L184.54 74.5178L187.415 144.695L80.5303 143.706L81.318 75.2661Z" fill="#2B1FC5"/>
<path d="M81.3135 75.2661L130.169 35.7358C131.173 34.9246 132.426 34.4842 133.717 34.489C135.007 34.4938 136.257 34.9434 137.255 35.7621L184.54 74.5178" fill="#2B1FC5"/>
<g opacity="0.3">
<path d="M81.3154 75.2661L130.171 35.7358C131.175 34.9246 132.428 34.4842 133.719 34.489C135.009 34.4938 136.259 34.9434 137.257 35.7621L184.542 74.5178" fill="black"/>
</g>
<path d="M80.5307 143.706C80.4038 143.583 88.6661 134.559 98.9896 123.553C109.313 112.547 117.781 103.72 117.912 103.838C118.044 103.957 109.777 112.98 99.4535 123.991C89.13 135.001 80.662 143.824 80.5307 143.706Z" fill="#263238"/>
<path d="M187.416 144.695C187.285 144.813 179.237 135.973 169.443 124.954C159.649 113.934 151.815 104.902 151.938 104.784C152.06 104.665 160.117 113.505 169.911 124.529C179.705 135.553 187.556 144.577 187.416 144.695Z" fill="#263238"/>
<g opacity="0.5">
<path d="M184.541 74.5178L132.705 115.926L81.3193 75.2661" fill="black"/>
</g>
<path d="M86.513 79.0997L86.3555 46.8645L176.737 45.7924L177.757 79.7124L132.7 115.383L86.513 79.0997Z" fill="#FAFAFA"/>
<path d="M86.5133 79.0997C86.5133 79.0997 86.8065 79.3185 87.3623 79.7518L89.813 81.6598L99.1562 88.9549L132.77 115.308H132.656L177.7 79.6248L177.657 79.7167C177.464 73.2487 177.258 66.4568 177.048 59.5512C176.913 54.8993 176.773 50.3042 176.637 45.7967L176.751 45.9061L86.3689 46.9345L86.4389 46.8645C86.4739 57.0042 86.5046 65.0608 86.5221 70.5836C86.5221 73.345 86.5221 75.4718 86.5221 76.9116V78.5439C86.5221 78.9115 86.5221 79.0997 86.5221 79.0997C86.5221 79.0997 86.5221 78.9159 86.5221 78.5527C86.5221 78.1894 86.5221 77.6424 86.5221 76.9291C86.5221 75.4893 86.4915 73.3669 86.4696 70.6098C86.4346 65.0783 86.382 57.0173 86.3164 46.8645V46.7901H86.3864L176.773 45.683H176.882V45.7967C177.018 50.2999 177.153 54.8949 177.293 59.5468C177.504 66.4568 177.705 73.2443 177.902 79.7167V79.7736L177.858 79.8086L132.783 115.462L132.726 115.505L132.669 115.462L99.0774 89.0206L89.7911 81.6904L87.3404 79.7649C86.789 79.3273 86.5133 79.0997 86.5133 79.0997Z" fill="#263238"/>
<path d="M162.454 62.0281C162.454 62.0894 148.629 62.225 131.584 62.3257C114.539 62.4263 100.71 62.4657 100.71 62.4001C100.71 62.3344 114.53 62.2031 131.584 62.0981C148.638 61.9931 162.454 61.9625 162.454 62.0281Z" fill="#263238"/>
<path d="M162.454 71.1306C162.454 71.1962 148.629 71.3319 131.584 71.4325C114.539 71.5332 100.71 71.5682 100.71 71.5069C100.71 71.4457 114.53 71.31 131.584 71.205C148.638 71.1 162.454 71.0693 162.454 71.1306Z" fill="#263238"/>
<path d="M162.454 81.6291C162.454 81.6904 148.629 81.8261 131.584 81.9311C114.539 82.0361 100.71 82.0668 100.71 82.0011C100.71 81.9355 114.53 81.8042 131.584 81.7035C148.638 81.6029 162.454 81.5635 162.454 81.6291Z" fill="#263238"/>
<path d="M162.454 92.1233C162.454 92.1889 149.269 92.3158 133.002 92.4165C116.736 92.5172 103.55 92.5434 103.546 92.4821C103.542 92.4209 116.731 92.2896 133.002 92.1889C149.273 92.0883 162.454 92.062 162.454 92.1233Z" fill="#263238"/>
<path d="M150.891 101.335C150.773 101.355 150.653 101.364 150.532 101.361L149.491 101.392L145.675 101.453L133.076 101.633C128.157 101.716 123.698 101.742 120.472 101.747H116.656H115.615C115.495 101.749 115.375 101.741 115.256 101.725C115.374 101.705 115.495 101.696 115.615 101.698L116.656 101.672L120.472 101.607L133.071 101.427C137.99 101.344 142.45 101.318 145.671 101.313H149.491H150.532C150.652 101.313 150.772 101.32 150.891 101.335Z" fill="#263238"/>
<path d="M139.255 110.193C139.255 110.254 136.309 110.306 132.69 110.306C129.071 110.306 126.126 110.254 126.126 110.193C126.126 110.131 129.076 110.079 132.69 110.079C136.305 110.079 139.255 110.127 139.255 110.193Z" fill="#263238"/>
<path d="M169.678 103.042C175.709 103.042 180.597 98.1535 180.597 92.1233C180.597 86.0931 175.709 81.2047 169.678 81.2047C163.648 81.2047 158.76 86.0931 158.76 92.1233C158.76 98.1535 163.648 103.042 169.678 103.042Z" fill="#263238"/>
<path d="M166.839 103.042C172.869 103.042 177.757 98.1535 177.757 92.1233C177.757 86.0931 172.869 81.2047 166.839 81.2047C160.808 81.2047 155.92 86.0931 155.92 92.1233C155.92 98.1535 160.808 103.042 166.839 103.042Z" fill="#455A64"/>
<path d="M168.226 87.0425V96.1188H166.55V88.4385H164.629V87.025L168.226 87.0425Z" fill="#EBEBEB"/>
<path d="M87.2227 32.1386H97.2092L95.8569 30.5894V26.874C95.8569 25.9084 95.4733 24.9823 94.7905 24.2994C94.1077 23.6166 93.1816 23.233 92.2159 23.233C91.738 23.233 91.2647 23.3272 90.8232 23.5102C90.3817 23.6933 89.9806 23.9615 89.6429 24.2997C89.3051 24.6378 89.0373 25.0393 88.8548 25.481C88.6723 25.9227 88.5787 26.3961 88.5793 26.874V30.4056L87.2227 32.1386Z" fill="#2B1FC5"/>
<path d="M90.8418 31.6484C90.8528 31.8659 90.9098 32.0785 91.0091 32.2723C91.1083 32.4661 91.2474 32.6366 91.4174 32.7727C91.5873 32.9088 91.7842 33.0073 91.995 33.0618C92.2058 33.1162 92.4257 33.1254 92.6403 33.0886C92.8549 33.0519 93.0592 32.9701 93.2399 32.8486C93.4205 32.7271 93.5734 32.5687 93.6884 32.3838C93.8033 32.1989 93.8778 31.9918 93.9069 31.776C93.9359 31.5602 93.919 31.3408 93.857 31.132" fill="#2B1FC5"/>
<path d="M92.7713 21.7188H91.791V23.8019H92.7713V21.7188Z" fill="#2B1FC5"/>
<path d="M106.776 25.3073C106.746 25.2216 106.722 25.1339 106.705 25.0447C106.662 24.8566 106.605 24.6071 106.53 24.2745C106.439 23.8559 106.321 23.4437 106.176 23.0404C106.088 22.8041 106.027 22.5372 105.909 22.2702L105.537 21.4212C104.864 19.9871 103.971 18.667 102.889 17.5089C101.47 16.0121 99.7503 14.8311 97.8437 14.0429C96.7578 13.5859 95.6204 13.2626 94.4565 13.0802C93.2011 12.8972 91.9273 12.8766 90.6667 13.0189C90.0034 13.0887 89.3455 13.2027 88.6974 13.3603C88.3692 13.4303 88.0497 13.5572 87.7171 13.6578C87.3831 13.7505 87.0568 13.869 86.7412 14.0123C85.4004 14.5545 84.1527 15.3032 83.0433 16.2311C80.5812 18.2612 78.8457 21.0365 78.0982 24.1389C77.7046 25.801 77.6083 27.5196 77.8137 29.2153C77.9939 30.9694 78.5032 32.6737 79.3148 34.2392L79.5686 34.7162L79.5992 34.7774V34.8431C78.7896 37.4688 78.0019 40.0945 77.2317 42.6021L77.026 42.4139L83.2796 39.1537L83.354 39.1143L83.424 39.1668C86.0385 41.1829 89.261 42.25 92.5621 42.1928C95.8632 42.1355 99.0467 40.9573 101.59 38.8517C102.894 37.7615 104.005 36.4597 104.876 35.0006C105.573 33.7822 106.11 32.479 106.474 31.1233C106.719 30.0937 106.865 29.043 106.911 27.9856C106.911 27.5479 106.911 27.1716 106.911 26.8346C106.911 26.4976 106.859 26.2307 106.841 25.9988C106.824 25.7668 106.806 25.6137 106.797 25.4867C106.791 25.4286 106.791 25.3698 106.797 25.3117C106.813 25.3675 106.823 25.4246 106.828 25.4824C106.828 25.6107 106.85 25.7814 106.894 25.9944C106.92 26.2263 106.951 26.502 106.99 26.8346C107.029 27.1672 106.99 27.5567 106.99 27.9899C106.966 29.0566 106.834 30.1181 106.596 31.1583C106.247 32.5348 105.717 33.8592 105.021 35.0969C104.149 36.5877 103.03 37.9195 101.712 39.0355C100.099 40.3826 98.2164 41.3704 96.1911 41.9333C94.1658 42.4963 92.0439 42.6213 89.9665 42.3002C87.5214 41.9118 85.2106 40.924 83.2402 39.425H83.389L77.1442 42.694L76.8291 42.8603L76.9341 42.5058L79.2973 34.7468V34.8737L79.0391 34.388C78.2112 32.788 77.6916 31.0467 77.5074 29.2547C77.2932 27.5193 77.394 25.7596 77.805 24.0601C78.5705 20.897 80.3447 18.0691 82.8595 16.0035C83.9947 15.0643 85.2687 14.3069 86.6362 13.7585C86.9574 13.613 87.2896 13.4931 87.6296 13.3996C87.9666 13.3034 88.2904 13.1765 88.6274 13.1064C89.2849 12.9446 89.9533 12.8306 90.6273 12.7651C91.909 12.624 93.2035 12.6505 94.4784 12.8439C95.6575 13.0394 96.8092 13.3743 97.9093 13.8416C99.8366 14.6531 101.57 15.8643 102.994 17.3951C104.076 18.5746 104.962 19.9189 105.62 21.3775C105.747 21.6838 105.87 21.9683 105.979 22.2527C106.088 22.5372 106.154 22.7954 106.237 23.0361C106.379 23.4426 106.489 23.8596 106.565 24.2833C106.627 24.6115 106.679 24.8697 106.714 25.0623C106.74 25.1425 106.761 25.2244 106.776 25.3073Z" fill="#263238"/>
<path d="M227.513 129.229C228.944 134.065 227.859 140.284 226.126 145.019C224.365 149.8 221.124 153.895 216.875 156.707C216.402 157.018 215.794 157.32 215.295 157.053C215.11 156.907 214.96 156.721 214.855 156.51C214.75 156.299 214.693 156.068 214.687 155.832C213.663 150.604 214.361 145.184 216.677 140.386C218.993 135.587 222.801 131.668 227.531 129.216" fill="#2B1FC5"/>
<g opacity="0.2">
<path d="M227.515 129.229C228.946 134.065 227.861 140.284 226.128 145.019C224.367 149.8 221.126 153.895 216.877 156.707C216.404 157.018 215.796 157.32 215.297 157.053C215.112 156.907 214.962 156.721 214.857 156.51C214.752 156.299 214.694 156.068 214.689 155.832C213.665 150.604 214.363 145.184 216.679 140.386C218.995 135.587 222.803 131.668 227.533 129.216" fill="black"/>
</g>
<path d="M206.019 106.276C209.03 106.193 211.016 109.541 211.318 112.543C211.62 115.545 210.955 118.669 211.835 121.54C212.938 125.199 216.377 127.824 217.41 131.514C218.635 135.859 216.25 140.371 216.137 144.883C216.08 147.071 216.574 149.299 216.159 151.447C215.812 153.285 214.839 154.946 213.406 156.147C211.972 157.348 210.166 158.015 208.296 158.033C206.425 158.052 204.607 157.421 203.149 156.249C201.692 155.077 200.686 153.436 200.304 151.605C199.599 148.226 201.091 144.633 200.198 141.294C199.538 138.831 197.621 136.734 197.463 134.187C197.28 131.155 199.625 128.533 200.063 125.527C200.5 122.52 198.978 119.584 198.75 116.551C198.343 111.116 200.592 106.849 206.014 106.267" fill="#2B1FC5"/>
<path d="M212.618 168.177C212.659 168.08 212.69 167.979 212.71 167.876C212.763 167.648 212.828 167.355 212.907 167C213.069 166.243 213.345 165.145 213.651 163.793C215.361 156.747 217.8 149.9 220.929 143.36C221.528 142.104 222.027 141.097 222.381 140.402L222.78 139.601C222.831 139.509 222.872 139.412 222.902 139.312C222.835 139.391 222.778 139.478 222.732 139.57L222.294 140.349C221.909 141.027 221.379 142.025 220.758 143.272C217.52 149.782 215.071 156.654 213.463 163.744C213.161 165.105 212.938 166.213 212.806 166.983C212.749 167.337 212.701 167.63 212.662 167.858C212.636 167.963 212.621 168.07 212.618 168.177Z" fill="#263238"/>
<path d="M206.142 121.103C206.143 121.264 206.158 121.425 206.185 121.584C206.225 121.921 206.282 122.38 206.352 122.958L207.021 128.013C207.586 132.279 208.365 138.17 209.183 144.686C210.001 151.202 210.706 157.106 211.209 161.381C211.463 163.495 211.669 165.219 211.818 166.44C211.892 167.018 211.949 167.477 211.993 167.814C212.008 167.975 212.034 168.134 212.071 168.291C212.085 168.131 212.085 167.97 212.071 167.81C212.041 167.469 212.001 167.009 211.949 166.427C211.822 165.202 211.647 163.477 211.432 161.355C210.995 157.075 210.308 151.167 209.489 144.651C208.671 138.135 207.861 132.244 207.24 127.982C206.925 125.877 206.667 124.162 206.487 122.945C206.391 122.367 206.317 121.912 206.264 121.575C206.238 121.414 206.197 121.256 206.142 121.103Z" fill="#263238"/>
<path d="M223.13 162.265H200.26V164.935H223.13V162.265Z" fill="#263238"/>
<path d="M202.382 164.935L205.064 181.135H219.252L221.108 164.935H202.382Z" fill="#263238"/>
<path d="M221.183 164.825C221.183 164.891 216.96 164.992 211.748 165.057C206.536 165.123 202.312 165.123 202.312 165.057C202.312 164.992 206.536 164.891 211.748 164.825C216.96 164.76 221.183 164.764 221.183 164.825Z" fill="#455A64"/>
<path d="M220.404 172.934H220.277H219.896C219.408 172.952 218.92 172.933 218.435 172.878C217.655 172.801 216.91 172.52 216.273 172.064C215.874 171.775 215.551 171.393 215.332 170.952C215.078 170.447 215.03 169.864 215.196 169.324C215.292 169.022 215.482 168.758 215.739 168.572C215.996 168.386 216.306 168.288 216.623 168.291C216.96 168.319 217.274 168.476 217.498 168.729C217.717 168.995 217.868 169.31 217.936 169.648C218.211 171.031 217.24 172.571 215.748 173.053C214.255 173.534 212.435 172.702 211.691 171.193C211.497 170.812 211.383 170.394 211.358 169.967C211.329 169.522 211.445 169.08 211.691 168.707C211.82 168.518 211.989 168.359 212.185 168.242C212.382 168.124 212.601 168.05 212.829 168.024C213.064 168.011 213.298 168.06 213.509 168.164C213.72 168.268 213.9 168.425 214.032 168.619C214.297 168.994 214.434 169.443 214.422 169.902C214.413 170.345 214.3 170.779 214.093 171.171C213.691 171.929 213.051 172.534 212.273 172.895C211.537 173.242 210.749 173.465 209.94 173.556C209.162 173.668 208.368 173.599 207.621 173.355C206.899 173.112 206.281 172.631 205.871 171.989C205.68 171.684 205.56 171.34 205.521 170.982C205.482 170.625 205.523 170.263 205.643 169.924C205.744 169.599 205.932 169.309 206.185 169.083C206.439 168.857 206.749 168.704 207.083 168.641C207.391 168.594 207.707 168.626 207.999 168.735C208.292 168.844 208.552 169.026 208.754 169.263C208.922 169.493 209.024 169.764 209.05 170.048C209.076 170.331 209.025 170.616 208.903 170.873C208.7 171.327 208.364 171.708 207.941 171.967C207.585 172.194 207.205 172.379 206.807 172.519C206.444 172.659 206.107 172.768 205.801 172.856C205.333 172.992 204.858 173.1 204.378 173.18L204.002 173.236H203.875C203.875 173.236 203.914 173.236 203.998 173.201L204.37 173.127C204.693 173.057 205.175 172.948 205.779 172.759C206.076 172.667 206.409 172.549 206.768 172.409C207.155 172.267 207.525 172.08 207.87 171.854C208.258 171.598 208.563 171.234 208.746 170.808C208.856 170.575 208.902 170.318 208.877 170.062C208.852 169.806 208.759 169.561 208.606 169.355C208.42 169.142 208.183 168.979 207.918 168.883C207.652 168.786 207.366 168.759 207.087 168.803C206.787 168.865 206.509 169.006 206.283 169.213C206.056 169.419 205.89 169.683 205.801 169.976C205.691 170.289 205.654 170.622 205.692 170.951C205.729 171.28 205.842 171.596 206.019 171.875C206.407 172.473 206.986 172.921 207.66 173.149C208.378 173.378 209.138 173.441 209.884 173.333C210.666 173.241 211.429 173.024 212.142 172.689C212.877 172.346 213.48 171.773 213.862 171.057C214.066 170.705 214.17 170.303 214.163 169.896C214.155 169.488 214.036 169.091 213.818 168.746C213.709 168.582 213.56 168.449 213.384 168.361C213.208 168.273 213.012 168.232 212.816 168.243C212.622 168.266 212.435 168.33 212.268 168.431C212.102 168.533 211.958 168.668 211.848 168.83C211.63 169.16 211.526 169.554 211.555 169.95C211.578 170.346 211.681 170.733 211.857 171.088C212.553 172.501 214.264 173.315 215.651 172.838C217.039 172.361 217.958 170.943 217.704 169.674C217.648 169.366 217.512 169.078 217.31 168.838C217.217 168.727 217.102 168.635 216.973 168.568C216.843 168.501 216.702 168.461 216.557 168.449C216.277 168.445 216.004 168.531 215.776 168.694C215.549 168.857 215.379 169.089 215.293 169.355C215.133 169.855 215.174 170.398 215.406 170.869C215.608 171.291 215.908 171.659 216.282 171.941C216.898 172.391 217.62 172.676 218.378 172.768C218.858 172.831 219.342 172.863 219.826 172.864H220.207L220.404 172.934Z" fill="#455A64"/>
</svg>
