<svg width="183" height="155" viewBox="0 0 183 155" fill="none" xmlns="http://www.w3.org/2000/svg">
<path d="M150.294 89.4574C150.294 89.4574 147.101 89.2276 147.395 96.3864C147.69 103.545 148.419 107.362 148.419 107.362C148.419 107.362 148.323 108.946 147.093 108.636C145.864 108.326 143.55 106.782 142.409 107.935C141.269 109.088 141.648 110.97 143.216 113.135C144.784 115.299 148.053 120.164 148.347 120.608C148.641 121.051 148.75 121.853 147.879 121.773C147.009 121.692 141.128 119.701 140.346 122.551C139.564 125.4 144.937 130.709 145.513 131.302C146.09 131.894 146.118 132.265 145.884 132.624C145.65 132.982 143.74 132.124 142.043 131.628C140.346 131.132 138.29 130.846 137.979 132.527C137.669 134.208 140.031 139.129 148.887 144.297L153.147 146.425L157.178 143.854C165.474 137.807 167.332 132.692 166.852 131.052C166.373 129.411 164.353 129.895 162.741 130.56C161.129 131.225 159.282 132.269 159.012 131.938C158.742 131.608 158.738 131.229 159.254 130.584C159.77 129.939 164.579 124.135 163.519 121.361C162.459 118.588 156.803 121.176 155.945 121.341C155.086 121.507 155.119 120.688 155.36 120.229C155.602 119.769 158.375 114.586 159.722 112.28C161.068 109.974 161.306 108.096 160.008 107.04C158.71 105.984 156.606 107.774 155.417 108.209C154.228 108.644 153.97 107.068 153.97 107.068C153.97 107.068 154.316 103.203 153.893 96.0478C153.47 88.8931 150.245 89.4574 150.245 89.4574" fill="#EBEBEB"/>
<path d="M150.544 95.8705C150.544 95.8705 150.544 95.9188 150.544 96.0196C150.544 96.1204 150.564 96.2695 150.58 96.459C150.604 96.8621 150.644 97.4223 150.693 98.1479C150.789 99.6191 150.918 101.743 151.064 104.372C151.354 109.612 151.696 116.887 152.047 124.909C152.398 132.93 152.72 140.198 152.982 145.466C153.115 148.09 153.224 150.214 153.297 151.689C153.333 152.419 153.361 152.987 153.381 153.382C153.381 153.572 153.381 153.717 153.401 153.826C153.404 153.876 153.404 153.925 153.401 153.975C153.401 153.975 153.401 153.923 153.401 153.826C153.401 153.729 153.381 153.572 153.365 153.386C153.341 152.983 153.301 152.423 153.252 151.694C153.152 150.226 153.027 148.102 152.882 145.474C152.591 140.234 152.249 132.954 151.898 124.917C151.547 116.879 151.225 109.632 150.963 104.359C150.83 101.739 150.721 99.6151 150.644 98.1358C150.612 97.4062 150.58 96.8379 150.564 96.4428C150.564 96.2574 150.564 96.1083 150.544 96.0035C150.541 95.9592 150.541 95.9148 150.544 95.8705Z" fill="#E0E0E0"/>
<path d="M145.557 110.228C145.654 110.289 145.743 110.363 145.823 110.446C145.988 110.595 146.226 110.821 146.5 111.095C147.06 111.655 147.818 112.445 148.636 113.332L150.72 115.609L151.353 116.299C151.437 116.377 151.511 116.465 151.575 116.561C151.477 116.5 151.388 116.427 151.309 116.343C151.143 116.194 150.906 115.972 150.635 115.69C150.079 115.126 149.334 114.328 148.515 113.441L146.415 111.176L145.778 110.49C145.694 110.412 145.62 110.324 145.557 110.228Z" fill="#E0E0E0"/>
<path d="M152 116.42C151.967 116.387 153.523 114.759 155.478 112.792C157.433 110.825 159.041 109.233 159.074 109.265C159.106 109.297 157.55 110.926 155.595 112.893C153.64 114.86 152.032 116.452 152 116.42Z" fill="#E0E0E0"/>
<path d="M151.979 128.766C152.071 128.692 152.171 128.629 152.277 128.577L153.111 128.109C153.813 127.706 154.784 127.166 155.832 126.521C156.88 125.876 157.811 125.267 158.48 124.816L159.286 124.288C159.381 124.217 159.482 124.156 159.589 124.106C159.589 124.106 159.5 124.199 159.323 124.34C159.145 124.481 158.887 124.675 158.557 124.913C157.904 125.388 156.981 126.017 155.929 126.662C154.877 127.307 153.913 127.843 153.176 128.21C152.817 128.395 152.523 128.54 152.317 128.633C152.212 128.694 152.097 128.739 151.979 128.766Z" fill="#E0E0E0"/>
<path d="M144.921 124.445C145.026 124.479 145.126 124.526 145.219 124.586C145.401 124.683 145.667 124.828 145.989 125.013C146.638 125.38 147.529 125.9 148.508 126.481C149.488 127.061 150.367 127.597 150.999 127.992C151.318 128.19 151.572 128.351 151.745 128.468C151.84 128.519 151.928 128.583 152.007 128.657C151.902 128.627 151.803 128.581 151.713 128.52C151.527 128.423 151.265 128.274 150.939 128.093C150.294 127.722 149.403 127.206 148.424 126.622C147.444 126.037 146.565 125.505 145.933 125.114C145.614 124.917 145.36 124.755 145.187 124.639C145.089 124.587 145 124.522 144.921 124.445Z" fill="#E0E0E0"/>
<path d="M143.522 135.344C143.655 135.388 143.781 135.449 143.897 135.526L144.889 136.07C145.723 136.538 146.868 137.195 148.114 137.928C149.359 138.662 150.512 139.335 151.338 139.827L152.306 140.419C152.428 140.487 152.542 140.566 152.648 140.657C152.518 140.609 152.392 140.548 152.273 140.476L151.282 139.928C150.447 139.46 149.299 138.803 148.057 138.069C146.816 137.336 145.659 136.663 144.832 136.171L143.865 135.578C143.744 135.511 143.629 135.433 143.522 135.344Z" fill="#E0E0E0"/>
<path d="M152.471 140.468C152.588 140.375 152.712 140.292 152.842 140.218L153.877 139.589C154.752 139.057 155.957 138.315 157.263 137.465C158.569 136.614 159.738 135.812 160.577 135.228L161.572 134.534C161.691 134.443 161.818 134.364 161.951 134.296C161.845 134.403 161.731 134.5 161.609 134.587C161.387 134.764 161.056 135.014 160.645 135.32C159.839 135.929 158.666 136.747 157.352 137.602C156.038 138.456 154.825 139.182 153.938 139.69C153.491 139.94 153.132 140.141 152.874 140.274C152.745 140.351 152.611 140.415 152.471 140.468Z" fill="#E0E0E0"/>
<path d="M158.876 147.82H147.09L150.935 176.939H155.027L158.876 147.82Z" fill="#E0E0E0"/>
<path d="M147.698 151.403C147.698 151.403 147.698 151.444 147.763 151.508C147.841 151.597 147.939 151.666 148.049 151.71C148.254 151.781 148.472 151.804 148.688 151.778C148.903 151.751 149.109 151.675 149.29 151.556C149.77 151.294 150.181 150.779 150.822 150.553C151.528 150.325 152.29 150.339 152.987 150.593C153.696 150.837 154.372 151.166 155.002 151.573C155.529 151.901 156.077 152.194 156.643 152.451C157.027 152.625 157.434 152.743 157.852 152.802C157.965 152.82 158.08 152.828 158.195 152.826C158.275 152.826 158.315 152.826 158.315 152.826C157.758 152.741 157.216 152.578 156.703 152.342C156.148 152.071 155.61 151.767 155.091 151.432C154.451 151.01 153.76 150.671 153.035 150.424C152.298 150.156 151.492 150.148 150.75 150.4C150.434 150.527 150.142 150.707 149.887 150.932C149.675 151.12 149.45 151.294 149.214 151.452C149.048 151.566 148.86 151.643 148.661 151.678C148.463 151.713 148.26 151.704 148.065 151.653C147.929 151.592 147.805 151.507 147.698 151.403Z" fill="#F5F5F5"/>
<path d="M148.13 156.764C148.13 156.764 148.223 156.643 148.408 156.45C148.677 156.186 148.998 155.983 149.351 155.853C149.875 155.663 150.431 155.58 150.988 155.607C151.677 155.657 152.362 155.75 153.039 155.886C153.731 156.018 154.439 156.048 155.14 155.974C155.71 155.898 156.267 155.74 156.792 155.503C157.144 155.343 157.477 155.144 157.784 154.91C157.903 154.833 158.009 154.738 158.098 154.628C157.663 154.912 157.208 155.162 156.736 155.378C156.219 155.585 155.677 155.72 155.123 155.781C154.439 155.844 153.75 155.81 153.076 155.68C152.391 155.545 151.697 155.456 151 155.414C150.42 155.393 149.841 155.495 149.303 155.712C148.938 155.859 148.614 156.089 148.356 156.385C148.289 156.466 148.23 156.552 148.178 156.643C148.155 156.68 148.138 156.721 148.13 156.764Z" fill="#F5F5F5"/>
<path d="M55.4175 41.7393L20.8447 49.9566L32.9078 100.71L67.4805 92.4925L55.4175 41.7393Z" fill="#E0E0E0"/>
<path d="M52.7261 40.242L18.1533 48.4592L30.2164 99.2124L64.7891 90.9952L52.7261 40.242Z" fill="#EBEBEB"/>
<path d="M49.9497 39.7895L15.377 48.0068L27.2098 97.7913L61.7825 89.5741L49.9497 39.7895Z" fill="#F5F5F5"/>
<path d="M49.5186 92.4926C49.5186 92.4926 57.5802 86.9986 59.5594 80.6057C58.7069 81.5617 57.6694 82.3351 56.5097 82.8789C55.3499 83.4228 54.0919 83.7259 52.8117 83.7699C52.8117 83.7699 51.9532 90.6062 49.5186 92.4926Z" fill="#EBEBEB"/>
<path d="M49.7042 53.0509C49.7042 53.1073 43.5813 54.6108 35.9993 56.4126C28.4173 58.2144 22.2582 59.6372 22.2461 59.5728C22.234 59.5083 28.369 58.0128 35.951 56.211C43.533 54.4093 49.6921 52.9904 49.7042 53.0509Z" fill="#E0E0E0"/>
<path d="M50.5626 56.6786C50.5626 56.7351 44.4397 58.2426 36.8577 60.0403C29.2757 61.8381 23.1166 63.265 23.1045 63.2005C23.0924 63.136 29.2274 61.6406 36.8094 59.8388C44.3914 58.037 50.5464 56.602 50.5626 56.6786Z" fill="#E0E0E0"/>
<path d="M51.421 60.2701C51.421 60.3265 45.2981 61.8341 37.7161 63.6358C30.1341 65.4376 23.975 66.8605 23.9629 66.796C23.9508 66.7315 30.0817 65.2321 37.6678 63.4303C45.2538 61.6285 51.4049 60.2137 51.421 60.2701Z" fill="#E0E0E0"/>
<path d="M52.296 63.8817C52.296 63.9382 46.1731 65.4457 38.5911 67.2475C31.0091 69.0493 24.85 70.4721 24.8379 70.4076C24.8258 70.3432 30.9567 68.8437 38.5428 67.0419C46.1288 65.2401 52.2637 63.8253 52.296 63.8817Z" fill="#E0E0E0"/>
<path d="M53.1384 67.4934C53.1384 67.5498 47.0155 69.0573 39.4335 70.8591C31.8515 72.6609 25.6924 74.0757 25.6924 74.0112C25.6924 73.9467 31.8112 72.4472 39.3972 70.6455C46.9833 68.8437 53.1222 67.4369 53.1384 67.4934Z" fill="#E0E0E0"/>
<path d="M53.997 71.105C53.997 71.1614 47.8742 72.669 40.2922 74.4707C32.7102 76.2725 26.5551 77.6954 26.543 77.6309C26.5309 77.5664 32.6618 76.067 40.2478 74.2652C47.8339 72.4634 53.9809 71.0486 53.997 71.105Z" fill="#E0E0E0"/>
<path d="M54.8554 74.7166C54.8554 74.7731 48.7326 76.2806 41.1506 78.0824C33.5686 79.8842 27.4135 81.307 27.4014 81.2425C27.3893 81.1781 33.5202 79.6786 41.1062 77.8768C48.6923 76.075 54.8393 74.6602 54.8554 74.7166Z" fill="#E0E0E0"/>
<path d="M55.7138 78.3323C55.7138 78.3887 49.591 79.8922 42.009 81.694C34.427 83.4958 28.2719 84.9187 28.2598 84.8542C28.2477 84.7897 34.3786 83.2902 41.9646 81.4884C49.5507 79.6866 55.6977 78.2758 55.7138 78.3323Z" fill="#E0E0E0"/>
<path d="M119.12 62.213C119.13 62.258 119.13 62.3049 119.12 62.35C118.946 62.9829 117.858 65.6311 117.487 65.619C117.116 65.6069 116.246 65.0386 116.322 64.6597C116.399 64.2808 117.789 61.3705 117.789 61.3705C117.789 61.3705 118.039 60.9271 118.878 61.1246C118.978 61.1528 119.095 62.3218 119.12 62.213Z" fill="#EB996E"/>
<path d="M117.74 60.6329C117.74 60.6329 117.74 60.6893 117.72 60.7659C117.543 61.4028 116.458 64.051 116.088 64.0349C115.717 64.0188 114.846 63.4545 114.923 63.0796C114.999 62.7047 116.39 59.7904 116.39 59.7904C116.39 59.7904 116.64 59.343 117.478 59.5405C117.998 59.6614 117.74 60.6329 117.74 60.6329Z" fill="#EB996E"/>
<path d="M116.524 59.5365C116.524 59.5365 116.524 59.5929 116.524 59.6695C116.351 60.3064 115.262 62.9546 114.891 62.9385C114.521 62.9224 113.65 62.3581 113.726 61.9832C113.803 61.6083 115.178 58.694 115.178 58.694C115.125 58.7867 115.057 58.162 116.266 58.4441C116.79 58.5651 116.524 59.5365 116.524 59.5365Z" fill="#EB996E"/>
<path d="M114.989 58.4804C114.989 58.4804 114.989 58.5368 114.989 58.6134C114.815 59.2503 113.727 61.8945 113.356 61.8824C112.985 61.8703 112.115 61.302 112.191 60.9271C112.268 60.5522 113.658 57.638 113.658 57.638C113.658 57.638 113.908 57.1905 114.747 57.388C115.243 57.509 114.989 58.4804 114.989 58.4804Z" fill="#EB996E"/>
<path d="M116.597 63.8777C116.858 63.4898 117.07 63.0715 117.23 62.6322C117.44 62.2201 117.596 61.7825 117.693 61.3302C117.431 61.7188 117.218 62.1386 117.06 62.5798C116.848 62.9894 116.692 63.426 116.597 63.8777Z" fill="#D1734A"/>
<path d="M115.021 63.269C115.368 62.7029 115.661 62.105 115.895 61.4834C116.185 60.8873 116.423 60.2668 116.605 59.6292C116.259 60.1964 115.966 60.7941 115.73 61.4149C115.44 62.011 115.202 62.6314 115.021 63.269Z" fill="#D1734A"/>
<g opacity="0.78">
<path d="M113.477 62.5112C113.831 61.9402 114.131 61.3369 114.371 60.7095C114.663 60.114 114.901 59.4934 115.081 58.8553C114.738 59.4223 114.445 60.0185 114.206 60.6369C113.908 61.2391 113.664 61.8663 113.477 62.5112Z" fill="#D1734A"/>
</g>
<path d="M117.145 67.5619C117.209 67.4047 118.265 64.2687 118.265 64.2687L112.219 61.2899C111.913 61.693 110.981 66.0906 110.981 66.0906L111.195 67.5901C111.195 67.5901 115.782 70.2263 115.907 70.2505C116.032 70.2746 117.145 67.5619 117.145 67.5619Z" fill="#EB996E"/>
<path d="M112.42 66.2075L111.803 63.9341C111.535 62.9356 111.66 61.872 112.154 60.9634L112.533 60.2701L117.668 62.608C117.668 62.608 116.479 64.2929 115.173 63.3819L116.177 65.3328L112.42 66.2075Z" fill="#EB996E"/>
<path d="M115.734 65.5182C115.706 65.5182 115.734 65.2522 115.662 64.8048C115.537 64.1888 115.192 63.6396 114.69 63.261L114.214 62.9103L114.787 63.0675L116.109 63.4383H116.081C116.368 63.4762 116.661 63.4315 116.924 63.3094C117.188 63.1874 117.411 62.9931 117.568 62.7491C117.592 62.7113 117.611 62.6707 117.625 62.6281L117.701 62.7894C116.222 62.1888 114.88 61.6285 113.961 61.177C113.493 60.9473 113.118 60.7498 112.868 60.6087C112.73 60.5457 112.602 60.4613 112.489 60.3588C113.016 60.5472 113.533 60.7638 114.037 61.0077C114.984 61.4108 116.319 61.955 117.802 62.5556L117.915 62.5999L117.874 62.7168C117.856 62.7742 117.832 62.8296 117.802 62.8821C117.626 63.1926 117.348 63.4331 117.016 63.5633C116.714 63.6775 116.39 63.7229 116.069 63.6963H116.04L114.726 63.2932L114.823 63.0997C115.354 63.5177 115.7 64.1269 115.786 64.7967C115.834 65.0376 115.815 65.2867 115.734 65.5182Z" fill="#D1734A"/>
<path d="M116.967 63.2408C117.02 63.2408 116.931 63.523 117.012 63.8938C117.028 63.9948 117.076 64.088 117.148 64.1604C117.221 64.2327 117.314 64.2805 117.415 64.2969C117.542 64.2884 117.665 64.2467 117.771 64.176C117.877 64.1053 117.963 64.008 118.02 63.8938C118.33 63.3497 118.648 62.8539 118.826 62.4911C119.003 62.1283 119.116 61.8865 119.152 61.8986C119.188 61.9106 119.152 62.1686 118.995 62.5717C118.771 63.0774 118.514 63.5676 118.225 64.0389C118.146 64.1939 118.025 64.3239 117.876 64.4143C117.728 64.5047 117.557 64.552 117.383 64.5508C117.235 64.5242 117.101 64.4491 117.001 64.3374C116.9 64.2257 116.841 64.0837 116.83 63.9341C116.806 63.7581 116.822 63.5787 116.879 63.4101C116.919 63.2973 116.951 63.2368 116.967 63.2408Z" fill="#D1734A"/>
<path d="M96.0269 36.4358L94.2574 54.5745C94.1888 55.2689 93.8507 55.9086 93.3155 56.3563C92.7804 56.804 92.091 57.0239 91.3955 56.9688L87.2316 56.6343C86.5357 56.5786 85.8895 56.2515 85.4325 55.7237C84.9756 55.1958 84.7444 54.5095 84.7889 53.8127C84.922 51.636 85.1316 48.9757 85.1316 48.9757C85.1316 48.9757 81.2579 48.3751 81.2096 44.5015C81.1854 42.6473 81.4474 38.8583 81.7255 35.3958C81.8735 33.5574 82.7085 31.8421 84.0643 30.5916C85.42 29.3412 87.1971 28.6473 89.0415 28.6482H89.2995C90.2573 28.7044 91.1942 28.9521 92.0546 29.3767C92.915 29.8014 93.6815 30.3943 94.3088 31.1204C94.936 31.8465 95.4113 32.691 95.7064 33.604C96.0015 34.517 96.1105 35.4799 96.0269 36.4358Z" fill="#EB996E"/>
<path d="M85.124 48.9313C86.917 48.9688 88.6801 48.469 90.1868 47.4964C90.1868 47.4964 88.9775 50.2857 85.1281 49.935L85.124 48.9313Z" fill="#D1734A"/>
<path d="M82.5634 38.2698C82.6319 38.3423 83.0511 38.032 83.6477 38.036C84.2443 38.04 84.6796 38.3343 84.7441 38.2617C84.8086 38.1892 84.7038 38.0965 84.5143 37.9594C84.2574 37.7816 83.952 37.6873 83.6396 37.6893C83.3296 37.6861 83.0268 37.7838 82.777 37.9675C82.5916 38.1086 82.5271 38.2375 82.5634 38.2698Z" fill="#263238"/>
<path d="M88.3969 38.2698C88.4655 38.3423 88.8847 38.032 89.4812 38.036C90.0778 38.04 90.5091 38.3343 90.5776 38.2617C90.6461 38.1892 90.5373 38.0965 90.3479 37.9594C90.0891 37.7825 89.7826 37.6883 89.4691 37.6893C89.1592 37.687 88.8567 37.7845 88.6065 37.9675C88.4252 38.1086 88.3647 38.2375 88.3969 38.2698Z" fill="#263238"/>
<path d="M86.256 41.7202C85.9423 41.6205 85.6173 41.5609 85.2886 41.5428C85.1355 41.5428 84.9944 41.4985 84.9662 41.3937C84.9529 41.2372 84.9896 41.0805 85.071 40.9463C85.2121 40.5754 85.3612 40.1925 85.5184 39.7854C86.1432 38.1408 86.5946 36.7824 86.5301 36.7582C86.4656 36.734 85.9013 38.0521 85.2766 39.7007L84.8452 40.8616C84.7517 41.0457 84.7246 41.2564 84.7687 41.4582C84.7916 41.5116 84.8258 41.5594 84.8689 41.5984C84.9121 41.6373 84.9631 41.6665 85.0186 41.6839C85.1029 41.7053 85.1896 41.7162 85.2766 41.7162C85.6017 41.7568 85.9306 41.7581 86.256 41.7202Z" fill="#263238"/>
<path d="M88.0099 42.1313C87.9132 42.1313 87.9092 42.7722 87.3569 43.2317C86.8047 43.6913 86.1154 43.6348 86.1114 43.7074C86.1074 43.7799 86.2646 43.8323 86.5548 43.8404C86.9336 43.8474 87.3025 43.7187 87.5948 43.4776C87.8768 43.2493 88.0578 42.9192 88.0986 42.5586C88.1228 42.2885 88.0543 42.1273 88.0099 42.1313Z" fill="#263238"/>
<path d="M88.2636 34.9726C88.3201 35.1338 88.9166 35.0572 89.614 35.1419C90.3113 35.2265 90.8756 35.416 90.9683 35.2708C91.0127 35.2023 90.9119 35.0491 90.6862 34.8919C90.3818 34.7002 90.0379 34.5802 89.6803 34.5411C89.3227 34.502 88.9609 34.5448 88.6224 34.6662C88.3684 34.767 88.2394 34.9121 88.2636 34.9726Z" fill="#263238"/>
<path d="M82.786 35.4724C82.8908 35.6054 83.2979 35.4724 83.7937 35.4724C84.2895 35.4724 84.7047 35.5611 84.7974 35.42C84.8417 35.3515 84.7974 35.2184 84.5918 35.0895C84.3481 34.9381 84.0651 34.862 83.7783 34.8706C83.4916 34.8792 83.2137 34.9721 82.9795 35.1378C82.794 35.2668 82.7376 35.4039 82.786 35.4724Z" fill="#263238"/>
<path d="M91.8184 32.1873H91.8425C92.4596 32.6741 92.8652 33.3801 92.9752 34.1583C92.973 34.1838 92.973 34.2094 92.9752 34.2349C93.1284 35.3394 93.1002 36.464 93.2614 37.5684C93.3655 38.6884 93.844 39.7407 94.6198 40.5553C94.9543 40.8656 95.5469 41.0833 95.829 40.7165C95.9192 40.5625 95.9666 40.3871 95.9661 40.2086C96.1717 37.5402 96.9012 35.1741 96.8972 32.3848C96.8973 32.0113 96.8089 31.6431 96.6394 31.3103C96.4698 30.9775 96.2239 30.6896 95.9218 30.4701C95.3373 30.067 94.6238 29.6196 93.9749 29.926C93.3259 30.2323 92.4834 31.4496 91.9796 31.9414" fill="#263238"/>
<path d="M94.7206 38.1851C94.7851 38.1569 97.381 37.379 97.2963 40.0474C97.2117 42.7158 94.5715 42.0628 94.5675 41.9903C94.5634 41.9177 94.7206 38.1851 94.7206 38.1851Z" fill="#EB996E"/>
<path d="M95.4264 41.0108C95.4264 41.0108 95.4707 41.043 95.5473 41.0833C95.6586 41.1277 95.7827 41.1277 95.894 41.0833C96.0682 40.9809 96.2119 40.8339 96.3104 40.6575C96.4088 40.4811 96.4585 40.2816 96.4543 40.0796C96.4678 39.8526 96.4306 39.6254 96.3454 39.4145C96.3231 39.3311 96.281 39.2542 96.2228 39.1904C96.1646 39.1266 96.0919 39.0777 96.0109 39.0477C95.9582 39.032 95.9016 39.0351 95.8509 39.0564C95.8002 39.0778 95.7584 39.116 95.7328 39.1646C95.6965 39.2372 95.7086 39.2936 95.6965 39.2976C95.6844 39.3017 95.64 39.2493 95.6642 39.1404C95.6818 39.0762 95.72 39.0195 95.7731 38.9792C95.8487 38.928 95.9405 38.9064 96.031 38.9188C96.1397 38.9435 96.2402 38.9958 96.3228 39.0706C96.4054 39.1454 96.4674 39.2403 96.5027 39.346C96.606 39.5789 96.6516 39.8334 96.6357 40.0877C96.6402 40.324 96.5755 40.5564 96.4494 40.7563C96.3233 40.9561 96.1414 41.1147 95.9262 41.2123C95.8569 41.2271 95.7852 41.2272 95.7157 41.2127C95.6463 41.1981 95.5807 41.1691 95.5232 41.1276C95.4264 41.0752 95.3982 41.0148 95.4264 41.0108Z" fill="#D1734A"/>
<path d="M94.0726 30.3492C94.7256 29.2931 92.9359 27.7695 91.6299 27.3583C90.3239 26.9472 88.6027 27.584 87.3008 28.0153C86.4946 28.2854 85.6642 28.6683 84.7976 28.6321C84.2205 28.5738 83.6554 28.4298 83.1208 28.2048C82.5838 27.9788 82.0063 27.865 81.4238 27.8702C81.1334 27.8762 80.8503 27.9616 80.6051 28.1172C80.3599 28.2729 80.1621 28.4928 80.0332 28.753C79.9777 28.8848 79.9513 29.027 79.9557 29.1699C79.9601 29.3128 79.9952 29.4531 80.0587 29.5813C80.1222 29.7094 80.2126 29.8223 80.3236 29.9124C80.4347 30.0025 80.5638 30.0676 80.7023 30.1033C80.5178 30.0036 80.3119 29.9499 80.1021 29.9468C79.8924 29.9438 79.685 29.9915 79.4977 30.0858C79.3103 30.1801 79.1486 30.3183 79.0261 30.4886C78.9037 30.6589 78.8242 30.8563 78.7944 31.0639C78.7647 31.2716 78.7855 31.4833 78.8552 31.6812C78.9249 31.879 79.0413 32.0571 79.1946 32.2003C79.3479 32.3434 79.5336 32.4474 79.7357 32.5034C79.9378 32.5594 80.1505 32.5657 80.3556 32.5218C79.9767 32.2356 79.4003 32.7072 79.4487 33.1788C79.499 33.4102 79.6088 33.6244 79.7671 33.8004C79.9254 33.9764 80.1269 34.1081 80.3516 34.1825C81.4561 34.6662 82.7459 34.513 83.8866 34.1261C85.0274 33.7391 86.0915 33.1426 87.2242 32.7314C88.3568 32.3203 90.2554 31.5746 91.3921 31.9776C92.2305 32.2719 92.815 33.2796 93.2866 33.0579C93.5097 32.9393 93.7019 32.7699 93.8475 32.5633C93.9932 32.3568 94.0882 32.1189 94.125 31.8688C94.1881 31.3654 94.1704 30.8551 94.0726 30.3573" fill="#263238"/>
<path d="M80.3794 30.0308C80.4036 30.0308 80.5165 30.2283 80.8027 30.5346C81.2084 30.9657 81.7136 31.2909 82.2739 31.4819C83.0956 31.7809 84.002 31.7447 84.7972 31.3811C85.7001 30.978 86.47 30.1718 87.3568 29.41C88.1807 28.6406 89.22 28.1413 90.3356 27.9791C90.7966 27.9236 91.2641 27.9739 91.7027 28.1261C92.1414 28.2784 92.5395 28.5286 92.867 28.8578C93.077 29.0884 93.2384 29.3589 93.3416 29.6532C93.4448 29.9475 93.4876 30.2596 93.4676 30.5709C93.4507 30.7363 93.4128 30.8988 93.3547 31.0546C93.3063 31.1594 93.2741 31.2118 93.266 31.2078C93.3171 30.9959 93.3508 30.7802 93.3668 30.5628C93.3677 29.9734 93.1393 29.4067 92.7299 28.9827C92.4163 28.6876 92.0408 28.4661 91.6308 28.3344C91.2208 28.2026 90.7866 28.1638 90.3598 28.2209C89.3014 28.3919 88.3185 28.8763 87.5382 29.6115C86.6675 30.3532 85.8735 31.1836 84.9101 31.6028C84.1997 31.9072 83.4101 31.9744 82.6585 31.7943C81.9069 31.6142 81.2334 31.1965 80.7382 30.6031C80.634 30.4771 80.5409 30.3422 80.46 30.2001C80.3955 30.0751 80.3714 30.0348 80.3794 30.0308Z" fill="#455A64"/>
<path d="M95.3942 38.0723C95.3942 38.0723 95.2814 37.9997 95.1806 37.7861C95.0479 37.4849 95.0018 37.1527 95.0476 36.8267C95.108 35.9762 95.8538 35.0572 95.9586 33.8802C96.0244 33.3358 95.9217 32.7843 95.6643 32.3001C95.4383 31.9167 95.0928 31.618 94.6808 31.4496C94.4007 31.3329 94.0951 31.2912 93.794 31.3287C93.5844 31.3609 93.4675 31.4133 93.4594 31.3932C93.4514 31.373 93.5521 31.2964 93.7738 31.2279C94.0953 31.1477 94.4333 31.1645 94.7453 31.2763C95.2128 31.4368 95.6103 31.7544 95.8699 32.1752C96.1691 32.699 96.2907 33.3057 96.2165 33.9044C96.1498 34.4868 95.9777 35.0523 95.7086 35.5732C95.4895 35.9754 95.3293 36.4071 95.233 36.855C95.1615 37.2677 95.2177 37.6924 95.3942 38.0723Z" fill="#455A64"/>
<path d="M72.5716 19.0951C72.4305 18.9782 71.9307 14.6612 71.9307 14.6612L75.5584 12.5329L81.2016 13.8349L80.0689 16.995L74.2726 20.0343L72.5716 19.0951Z" fill="#EB996E"/>
<path d="M61.3493 22.5092C61.3493 22.5092 70.4671 17.7689 76.3158 17.1482C82.8095 16.4549 89.3556 20.3205 89.3556 20.3205L88.0617 3.19344C88.0617 3.19344 81.955 -1.36544 74.1875 0.573396C67.6012 2.21798 61.0107 5.4104 61.0107 5.4104L61.3493 22.5092Z" fill="#FAFAFA"/>
<path d="M61.3495 22.5092V22.215L61.3253 21.3322C61.3052 20.526 61.2769 19.3974 61.2366 17.9261C61.1681 14.9474 61.0673 10.6706 60.9424 5.43055V5.37815L60.9908 5.35397C62.7361 4.5478 64.6387 3.70939 66.6863 2.93547C68.8365 2.08436 71.0296 1.34572 73.2566 0.722537L74.1353 0.488749L75.0423 0.30333C75.6545 0.178828 76.2737 0.0913346 76.8964 0.0413255C78.1761 -0.0467086 79.4616 0.00600777 80.7298 0.198528C82.0335 0.407656 83.3116 0.753529 84.5429 1.23042C85.8122 1.71337 87.0204 2.34381 88.1425 3.10879L88.1788 3.13298V3.18538C88.1788 3.35064 88.207 3.53203 88.2191 3.70939C88.6584 9.58232 89.0817 15.1973 89.4646 20.3124V20.4938L89.3034 20.4051C87.4843 19.4035 85.5609 18.6046 83.5675 18.0229C81.7565 17.4879 79.8809 17.2031 77.9928 17.1764C76.3177 17.1869 74.6521 17.4283 73.043 17.8939C71.5354 18.297 70.173 18.7726 68.9476 19.2281C66.5049 20.1512 64.6145 21.0017 63.3246 21.5982L61.8574 22.2915L61.4825 22.4729L61.3495 22.5294L61.4745 22.4568L61.8413 22.2633C62.1718 22.094 62.6474 21.8602 63.3004 21.5378C64.5782 20.9251 66.4646 20.0544 68.9073 19.1193C70.1166 18.6557 71.4951 18.1761 73.0067 17.7609C74.6271 17.2805 76.3068 17.0295 77.9969 17.0152C79.9086 17.0391 81.8077 17.3281 83.64 17.8737C85.6514 18.4502 87.5916 19.2506 89.4243 20.26L89.2792 20.3527C88.8761 15.2376 88.473 9.62262 88.0175 3.7497L87.9772 3.22166L88.0216 3.29824C86.9137 2.54674 85.7219 1.92717 84.4704 1.45212C83.2521 0.979532 81.9876 0.636367 80.6975 0.428286C79.437 0.228064 78.1582 0.167235 76.8843 0.246898C76.27 0.296498 75.659 0.381285 75.0543 0.500841L74.1595 0.68626L73.2848 0.916017C71.0664 1.52213 68.8802 2.24054 66.7347 3.06848C64.6911 3.85047 62.7845 4.68082 61.0472 5.48699L61.0915 5.41443C61.1762 10.6545 61.2447 14.903 61.2931 17.8697C61.3132 19.349 61.3293 20.5059 61.3414 21.3V22.2029C61.3535 22.4165 61.3495 22.5092 61.3495 22.5092Z" fill="#263238"/>
<path d="M84.5672 15.6004C84.5067 15.6004 84.2649 12.7102 84.027 9.15102C83.7892 5.59179 83.6401 2.6654 83.6965 2.6654C83.7529 2.6654 83.9948 5.55148 84.2366 9.11474C84.4785 12.678 84.6236 15.5963 84.5672 15.6004Z" fill="#E0E0E0"/>
<path d="M82.2784 14.7015C82.222 14.7015 81.9801 11.8114 81.7423 8.25214C81.5045 4.69291 81.3392 1.8028 81.4118 1.77862C81.4843 1.75443 81.7101 4.6647 81.9479 8.22796C82.1857 11.7912 82.3389 14.6975 82.2784 14.7015Z" fill="#E0E0E0"/>
<path d="M80.0733 14.3871C80.0169 14.3871 79.7751 11.497 79.5332 7.93774C79.2914 4.37851 79.1301 1.46421 79.2067 1.46421C79.2833 1.46421 79.505 4.35029 79.7428 7.91355C79.9806 11.4768 80.1298 14.383 80.0733 14.3871Z" fill="#E0E0E0"/>
<path d="M75.546 15.0199C75.4896 15.0199 75.2477 12.1298 75.0059 8.57058C74.764 5.01135 74.6028 2.12124 74.6794 2.09705C74.756 2.07287 74.9777 4.98313 75.2155 8.54639C75.4533 12.1097 75.6024 15.0159 75.546 15.0199Z" fill="#E0E0E0"/>
<path d="M73.4381 15.6004C73.3817 15.6004 73.1399 12.7143 72.902 9.15102C72.6642 5.58776 72.5151 2.6654 72.5715 2.6654C72.6279 2.6654 72.8698 5.55551 73.1116 9.11474C73.3535 12.674 73.4986 15.5963 73.4381 15.6004Z" fill="#E0E0E0"/>
<path d="M71.1968 16.1727C71.1363 16.1727 70.8985 13.2826 70.6566 9.7234C70.4148 6.16417 70.2535 3.24987 70.3261 3.24987C70.3987 3.24987 70.6284 6.13595 70.8662 9.69921C71.1041 13.2625 71.2411 16.1687 71.1968 16.1727Z" fill="#E0E0E0"/>
<path d="M66.9289 17.9342C66.8685 17.9342 66.6266 15.0481 66.3888 11.4849C66.151 7.92161 65.9857 5.01538 66.0583 5.01135C66.1308 5.00732 66.3565 7.90146 66.5984 11.4607C66.8402 15.0199 66.9853 17.9302 66.9289 17.9342Z" fill="#E0E0E0"/>
<path d="M68.9673 16.9789C68.9068 16.9789 68.669 14.0928 68.4271 10.5296C68.1853 6.9663 68.0241 4.05604 68.0966 4.05201C68.1692 4.04798 68.3989 6.94212 68.6367 10.5013C68.8746 14.0606 69.0237 16.9789 68.9673 16.9789Z" fill="#E0E0E0"/>
<path d="M64.546 18.7001C64.4895 18.7001 64.2477 15.81 64.0099 12.2507C63.7721 8.6915 63.6068 5.80139 63.6794 5.77721C63.7519 5.75302 63.9776 8.66329 64.2195 12.2265C64.4613 15.7898 64.6064 18.696 64.546 18.7001Z" fill="#E0E0E0"/>
<path d="M77.7472 14.4516C77.6907 14.4516 77.4489 11.5615 77.207 8.00223C76.9652 4.443 76.804 1.53274 76.8805 1.52871C76.9571 1.52467 77.1788 4.41478 77.4166 7.97804C77.6545 11.5413 77.8036 14.4475 77.7472 14.4516Z" fill="#E0E0E0"/>
<path d="M80.7819 14.5886C81.2552 14.3466 81.756 14.1626 82.2733 14.0404C83.2165 13.7462 84.5346 13.3592 86.026 12.9481L85.9656 13.3229L85.3771 12.9521C82.4829 11.1584 79.7863 10.4248 79.8266 10.2998C79.8266 10.2474 80.528 10.3683 81.6042 10.7029C83.001 11.1747 84.3398 11.8035 85.5947 12.5772C85.8043 12.7022 85.9978 12.8352 86.1953 12.9602C86.2283 12.9826 86.2542 13.0139 86.2699 13.0505C86.2857 13.0871 86.2907 13.1275 86.2844 13.1668C86.278 13.2062 86.2606 13.2429 86.2341 13.2727C86.2076 13.3025 86.1732 13.3241 86.1349 13.335C84.6394 13.7381 83.3133 14.0686 82.3459 14.2944C81.8389 14.4573 81.3135 14.5561 80.7819 14.5886Z" fill="#2B1FC5"/>
<path d="M83.0069 14.1291C82.894 14.1291 82.7046 13.1859 82.6038 12.0008C82.503 10.8158 82.4829 9.84029 82.6038 9.8282C82.7247 9.81611 82.9061 10.7674 83.0069 11.9565C83.1077 13.1456 83.1238 14.117 83.0069 14.1291Z" fill="#2B1FC5"/>
<path d="M86.1958 13.3673C86.1958 13.3673 86.2441 13.4398 86.2885 13.6011C86.3436 13.8422 86.3282 14.094 86.2441 14.3266C86.1039 14.6943 85.8568 15.0115 85.5347 15.2376C85.3435 15.3837 85.1367 15.508 84.918 15.6084C84.6704 15.7183 84.4106 15.7981 84.1441 15.8462C83.5337 15.9622 82.9055 15.9458 82.302 15.7979C81.9663 15.7194 81.6374 15.6143 81.3185 15.4835C80.7733 15.2851 80.2727 14.9811 79.8452 14.5889C79.4178 14.1967 79.0719 13.7241 78.8274 13.198C78.402 12.4402 78.2592 11.5561 78.4243 10.7029C78.529 10.2502 78.792 9.84992 79.166 9.57426C79.5263 9.32752 79.9414 9.17254 80.3752 9.1228C81.422 8.98627 82.4862 9.12614 83.4621 9.52852C84.438 9.93089 85.2915 10.5817 85.9378 11.4163C86.4748 12.1275 86.7953 12.9784 86.8609 13.8671C86.9076 14.1859 86.8995 14.5104 86.8367 14.8264C86.7743 14.516 86.7285 14.2025 86.6996 13.8873C86.5778 13.0502 86.234 12.261 85.704 11.6018C84.911 10.6321 83.8247 9.94608 82.6083 9.64681C81.9001 9.46646 81.1636 9.42539 80.4397 9.52589C80.0716 9.57822 79.7209 9.71629 79.4159 9.92897C79.1212 10.1461 78.915 10.4625 78.8355 10.8198C78.6961 11.5768 78.8274 12.3587 79.2063 13.0287C79.5191 13.6845 79.9884 14.2534 80.5727 14.6854C81.6016 15.3897 82.8478 15.7041 84.0876 15.5721C84.5567 15.5072 85.0039 15.3332 85.3936 15.0643C85.693 14.8738 85.9343 14.6047 86.091 14.2863C86.1785 14.0789 86.2171 13.854 86.2038 13.6293C86.1833 13.5434 86.1806 13.4542 86.1958 13.3673Z" fill="#2B1FC5"/>
<path d="M77.0418 20.7276L78.8597 19.2563C79.6546 18.6146 80.1703 17.6901 80.2987 16.6766L80.3995 15.9027L74.9377 14.7982C74.9377 14.7982 74.4258 16.4509 76.4815 16.862C74.6595 17.6682 73.9783 19.2805 73.4785 21.0904L77.0418 20.7276Z" fill="#EB996E"/>
<path d="M74.7887 18.2567C74.817 18.2567 74.9338 18.031 75.2644 17.7286C75.7182 17.3055 76.3128 17.0657 76.9331 17.0555H77.5176L76.9694 16.8499L75.6957 16.3702H75.7199C75.4648 16.2356 75.2534 16.0309 75.1106 15.7803C74.9678 15.5297 74.8995 15.2435 74.9137 14.9554C74.9179 14.9118 74.926 14.8686 74.9379 14.8264L74.7847 14.9111C76.3164 15.29 77.703 15.6084 78.7188 15.7817C79.2267 15.8704 79.6378 15.9309 79.9281 15.9591C80.0753 15.9884 80.2259 15.9966 80.3755 15.9833C79.8455 15.8272 79.3072 15.7007 78.7631 15.6044C77.7635 15.3867 76.385 15.0401 74.8532 14.6571L74.7363 14.6289L74.7001 14.7418C74.6822 14.8009 74.67 14.8617 74.6638 14.9232C74.6223 15.2722 74.7051 15.6247 74.8976 15.9188C75.0719 16.1866 75.3048 16.4113 75.5788 16.5758L76.8606 17.0192L76.8969 16.8096C76.2292 16.8375 75.5993 17.1271 75.1434 17.6158C74.9702 17.794 74.8478 18.0153 74.7887 18.2567Z" fill="#D1734A"/>
<path d="M87.6795 166.644L95.5195 104.569L94.016 95.161H78.2675L76.3892 165.511C76.3813 165.781 76.4694 166.044 76.6378 166.254C76.8061 166.465 77.0437 166.609 77.3082 166.66L85.9181 167.986C86.1223 168.017 86.3308 168.007 86.531 167.956C86.7313 167.905 86.9192 167.814 87.0835 167.689C87.2479 167.563 87.3854 167.406 87.4878 167.227C87.5902 167.047 87.6554 166.849 87.6795 166.644Z" fill="#263238"/>
<path d="M95.294 106.661L109.555 120.769L89.0381 125.755L90.4973 136.086L118.266 132.309C119.441 132.149 120.571 131.752 121.587 131.141C122.604 130.531 123.485 129.72 124.179 128.758C125.227 127.302 125.803 125.559 125.826 123.765C125.85 121.971 125.322 120.213 124.312 118.729L102.682 86.9865L93.0085 90.1346L95.294 106.661Z" fill="#263238"/>
<path d="M94.5078 103.057C94.7391 103.628 94.9054 104.223 95.0036 104.831C95.1691 105.424 95.2665 106.034 95.2938 106.649C95.0625 106.078 94.8962 105.483 94.798 104.875C94.6325 104.282 94.5352 103.672 94.5078 103.057Z" fill="#455A64"/>
<path d="M92.4316 127.053C92.4316 127.053 92.5445 127.009 92.7702 126.94L93.7658 126.63L97.5951 125.465L111.518 121.277L111.481 121.41L94.3624 103.186L94.5438 103.126C94.2012 105.992 93.8505 108.979 93.4877 112.03C91.7222 126.815 90.0655 140.194 88.7797 149.868C88.1428 154.705 87.5704 158.61 87.1673 161.307C86.9376 162.653 86.7884 163.701 86.6312 164.403L86.4619 165.209C86.4216 165.386 86.3975 165.479 86.3975 165.479C86.4075 165.386 86.4223 165.293 86.4418 165.201C86.474 165.015 86.5264 164.749 86.5909 164.395C86.732 163.693 86.8691 162.641 87.0867 161.295C87.4898 158.594 88.0098 154.684 88.6305 149.847C89.8761 140.173 91.5086 126.791 93.2741 112.006C93.6368 108.955 93.9916 105.96 94.3342 103.102L94.3584 102.88L94.5115 103.041L111.594 121.301L111.683 121.398L111.558 121.434L97.6153 125.554L93.7779 126.674L92.7702 126.964L92.4316 127.053Z" fill="#455A64"/>
<path d="M87.8161 165.475C87.7556 165.475 89.3841 152.29 91.4438 136.05C93.5036 119.81 95.2288 106.625 95.2852 106.649C95.3417 106.673 93.7172 119.826 91.6575 136.074C89.5977 152.322 87.8725 165.479 87.8161 165.475Z" fill="#455A64"/>
<path d="M92.9795 96.4872C93.1263 96.7945 93.2372 97.1178 93.31 97.4505C93.4833 98.0511 93.7131 98.8936 93.9066 99.8287C94.1001 100.764 94.2613 101.618 94.354 102.247C94.4249 102.58 94.4587 102.919 94.4548 103.259C94.3388 102.941 94.2564 102.611 94.2089 102.275C94.0638 101.586 93.8905 100.776 93.701 99.8811L93.1649 97.4949C93.0702 97.1659 93.008 96.8284 92.9795 96.4872Z" fill="#455A64"/>
<path d="M93.8953 95.2698C93.8953 95.2698 94.0968 95.0764 94.4757 95.2094C94.5864 95.249 94.6847 95.3172 94.7605 95.4071C94.8362 95.4971 94.8868 95.6055 94.907 95.7213C94.9344 95.8648 94.9184 96.0131 94.8609 96.1474C94.8035 96.2817 94.7072 96.3958 94.5846 96.4751C94.4577 96.5444 94.3129 96.5738 94.169 96.5594C94.0252 96.5451 93.889 96.4875 93.7784 96.3945C93.6872 96.3173 93.621 96.2149 93.588 96.1001C93.555 95.9853 93.5567 95.8633 93.593 95.7495C93.6316 95.6009 93.7272 95.4735 93.859 95.3948C93.9517 95.3424 94.0122 95.3424 94.0162 95.3545C94.0202 95.3666 93.7985 95.4674 93.734 95.7858C93.7161 95.8702 93.7221 95.9579 93.7513 96.0391C93.7805 96.1203 93.8317 96.1917 93.8993 96.2453C93.9815 96.3107 94.0811 96.3506 94.1857 96.3599C94.2903 96.3692 94.3954 96.3476 94.4878 96.2977C94.5752 96.2379 94.6441 96.1549 94.6869 96.0581C94.7296 95.9612 94.7444 95.8543 94.7297 95.7495C94.7165 95.6626 94.682 95.5803 94.6292 95.5099C94.5765 95.4396 94.5071 95.3834 94.4274 95.3464C94.2585 95.2795 94.0762 95.2532 93.8953 95.2698Z" fill="#455A64"/>
<path d="M113.751 123.187C113.71 123.236 112.904 122.498 111.735 121.833C110.566 121.168 109.547 120.825 109.563 120.765C111.173 121.113 112.633 121.959 113.735 123.183L113.751 123.187Z" fill="#455A64"/>
<path d="M78.0409 94.9716L76.6543 70.2988C76.6543 70.2988 74.5864 61.4108 72.8008 57.8395L82.2289 50.9306L84.6716 52.1036L89.5086 56.5013L94.402 53.6434C94.402 53.6434 100.263 56.1103 101.807 57.0374C103.35 57.9645 103.657 60.4313 103.657 60.4313C103.657 60.4313 98.574 69.3878 98.4168 72.9027C98.2596 76.4176 103.5 85.3983 103.5 85.3983C103.5 85.3983 106.366 86.2488 106.527 88.5545C106.668 90.5497 105.741 91.2632 105.741 91.2632C105.741 91.2632 105.338 89.0946 102.423 90.0217C99.5091 90.9488 93.4105 96.3461 89.037 96.4993C84.6635 96.6524 78.0409 94.9716 78.0409 94.9716Z" fill="#2B1FC5"/>
<path d="M103.399 59.3793L107.115 74.6158L111.34 64.5388L117.329 68.1665C117.329 68.1665 111.686 88.2441 106.091 86.269C106.091 86.269 102.609 84.5075 102.182 83.258C101.754 82.0084 95.2969 72.9027 95.2969 72.9027L103.399 59.3793Z" fill="#2B1FC5"/>
<path d="M103.488 85.3983C103.488 85.3983 103.436 85.3419 103.359 85.229L103.02 84.7332C102.875 84.5156 102.694 84.2495 102.512 83.9271C102.331 83.6046 102.109 83.2459 101.896 82.8226C101.682 82.3994 101.44 81.952 101.227 81.4441C101.013 80.9362 100.783 80.392 100.566 79.8116C100.117 78.5419 99.7708 77.2385 99.5296 75.9138C99.3074 74.5813 99.1874 73.2337 99.1709 71.8829C99.1709 71.2622 99.1709 70.6737 99.2152 70.1215C99.2596 69.5692 99.2999 69.0613 99.3442 68.5938C99.4531 67.6626 99.5699 66.9129 99.6828 66.401C99.7312 66.1672 99.7715 65.9697 99.8078 65.8125C99.8162 65.7428 99.8352 65.6749 99.8642 65.611C99.8733 65.6805 99.8733 65.751 99.8642 65.8206C99.84 65.9818 99.8118 66.1793 99.7795 66.4171C99.6949 66.9331 99.5982 67.6828 99.5095 68.6099C99.4732 69.0734 99.4168 69.5813 99.4087 70.1295C99.4007 70.6777 99.3765 71.2622 99.3805 71.8789C99.4092 73.215 99.5345 74.5473 99.7554 75.8654C99.9917 77.1796 100.33 78.4733 100.767 79.735C100.977 80.3114 101.17 80.8636 101.404 81.3473C101.638 81.831 101.839 82.3067 102.041 82.7299C102.242 83.1532 102.444 83.5119 102.629 83.8384C102.815 84.1649 102.972 84.439 103.105 84.6647L103.407 85.1847C103.442 85.2526 103.469 85.3243 103.488 85.3983Z" fill="#263238"/>
<path d="M71.1845 17.8657C71.1845 17.8657 61.7524 33.7149 61.1074 36.0528C60.4302 38.4713 73.5264 59.1858 73.5264 59.1858C73.5264 59.1858 73.7804 59.8509 73.7844 59.8469L83.144 52.3697L72.1116 36.7582L78.041 21.1669L71.1845 17.8657Z" fill="#2B1FC5"/>
<path d="M72.4946 37.3911C72.4624 37.4153 72.2649 37.1331 71.8497 36.7784C71.3064 36.32 70.6655 35.9919 69.9759 35.8193C69.2863 35.6468 68.5664 35.6343 67.8713 35.7828C67.3392 35.8997 67.0288 36.0569 67.0127 36.0206C67.2491 35.8296 67.5242 35.6921 67.8189 35.6175C68.1375 35.525 68.4667 35.4735 68.7984 35.4643C69.2055 35.4556 69.6121 35.5003 70.0076 35.5973C70.401 35.7007 70.7801 35.8523 71.1362 36.0488C71.4281 36.2143 71.6988 36.4147 71.9424 36.6454C72.1788 36.8506 72.3673 37.1051 72.4946 37.3911Z" fill="#263238"/>
<path d="M76.7795 60.4676C76.7392 60.4676 76.7594 59.9154 76.6102 59.0488C76.5189 58.5397 76.3841 58.0393 76.2072 57.5533C75.7869 56.3569 75.1256 55.2593 74.2643 54.3286C73.913 53.9527 73.5315 53.6063 73.1236 53.2927C72.4182 52.7606 71.9143 52.5188 71.9425 52.4865C72.0682 52.52 72.1889 52.5702 72.3013 52.6357C72.4399 52.6985 72.5745 52.7699 72.7044 52.8493C72.8792 52.9493 73.0487 53.0583 73.2122 53.1758C73.6472 53.4776 74.0521 53.8204 74.4215 54.1997C74.8637 54.6688 75.2568 55.1821 75.5945 55.7314C75.9235 56.2848 76.1937 56.8711 76.4006 57.4808C76.5668 57.979 76.6855 58.4919 76.7553 59.0125C76.7829 59.2117 76.8004 59.4121 76.8078 59.6131C76.8197 59.7647 76.8197 59.917 76.8078 60.0686C76.8199 60.2022 76.8104 60.337 76.7795 60.4676Z" fill="#263238"/>
<path d="M102.391 85.8578C102.391 85.882 102.097 85.8578 101.585 85.8901C100.854 85.9631 100.139 86.1494 99.465 86.4423C98.4683 86.8839 97.53 87.4471 96.6716 88.1191C95.6881 88.8608 94.6562 89.7637 93.4832 90.578C92.3843 91.3823 91.125 91.9405 89.791 92.2145C88.7 92.4071 87.5847 92.4194 86.4897 92.2508C85.7543 92.1433 85.03 91.9706 84.3252 91.7348C84.0753 91.6502 83.8858 91.5776 83.7568 91.5252C83.6908 91.5022 83.6273 91.4725 83.5674 91.4365C83.8318 91.495 84.0928 91.5677 84.3494 91.6542C85.0557 91.8591 85.7766 92.01 86.5059 92.1057C87.5785 92.2478 88.6668 92.2192 89.7305 92.021C91.0409 91.7482 92.2777 91.1985 93.3583 90.4087C94.5272 89.6025 95.5511 88.7036 96.5507 87.966C97.4262 87.2914 98.3855 86.7332 99.4045 86.3053C100.095 86.0178 100.83 85.8501 101.577 85.8095C101.779 85.7975 101.98 85.7975 102.182 85.8095C102.253 85.8171 102.324 85.8334 102.391 85.8578Z" fill="#263238"/>
<path d="M106.737 81.6093C106.611 81.2843 106.528 80.9442 106.491 80.5976C106.361 79.7659 106.32 78.9228 106.366 78.0824C106.414 77.2417 106.549 76.4082 106.769 75.5953C106.843 75.2543 106.962 74.9249 107.124 74.6158C107.075 74.9585 107.005 75.2977 106.914 75.6316C106.743 76.443 106.633 77.2664 106.588 78.0945C106.544 78.9225 106.565 79.7528 106.652 80.5774C106.704 80.919 106.732 81.2638 106.737 81.6093Z" fill="#263238"/>
<g opacity="0.3">
<path d="M83.9637 91.3438C83.9959 90.3361 85.1971 89.7597 86.2048 89.8202C87.2125 89.8806 88.1678 90.3361 89.1755 90.3724C90.8846 90.4369 92.4002 89.3163 93.7062 88.228C95.0122 87.1397 96.4633 85.9667 98.1724 85.8982C98.386 85.8982 98.6561 85.9344 98.7165 86.144C98.777 86.3536 98.6117 86.5108 98.4666 86.6398C96.3625 88.5182 94.2101 90.4329 91.6142 91.5333C89.0183 92.6337 85.8541 92.807 83.4961 91.2632" fill="black"/>
</g>
<g opacity="0.3">
<path d="M99.6751 66.8968C99.3909 71.8302 100.995 76.6869 104.161 80.4807C104.689 81.1055 105.274 81.7222 105.532 82.4961C105.79 83.2701 105.617 84.2697 104.899 84.6647C104.586 84.8069 104.239 84.8537 103.9 84.7992C103.56 84.7448 103.245 84.5914 102.992 84.3584C102.494 83.8859 102.106 83.3092 101.856 82.6695C99.4776 77.5825 98.3006 71.7096 99.8404 66.3083" fill="black"/>
</g>
<path d="M53.1831 148.348C53.5862 146.994 54.4125 145.688 55.7064 145.123C57.0003 144.559 58.6086 144.873 59.9872 145.373C61.3657 145.873 62.7161 146.546 64.1793 146.635C65.6425 146.723 67.2911 146.03 67.7304 144.619C68.1335 143.301 67.3475 141.903 66.3559 140.947C65.308 139.938 64.0229 139.209 62.619 138.827C61.2152 138.445 59.7378 138.423 58.323 138.762C56.9083 139.102 55.6018 139.792 54.5239 140.769C53.446 141.746 52.6314 142.979 52.1553 144.353" fill="#2B1FC5"/>
<g opacity="0.5">
<path d="M53.1822 148.348C53.5852 146.994 54.4116 145.688 55.7055 145.123C56.9994 144.559 58.6077 144.873 59.9862 145.373C61.3648 145.873 62.7151 146.546 64.1783 146.635C65.6415 146.723 67.2901 146.03 67.7295 144.619C68.1325 143.301 67.3465 141.903 66.3549 140.947C65.307 139.938 64.0219 139.209 62.618 138.827C61.2142 138.445 59.7368 138.423 58.3221 138.762C56.9073 139.102 55.6008 139.792 54.5229 140.769C53.445 141.746 52.6304 142.979 52.1543 144.353" fill="black"/>
</g>
<path d="M41.5978 154.225C39.4494 152.189 39.5582 148.638 40.6264 145.881C41.6946 143.124 44.0365 141.004 46.6444 139.605C49.1919 138.268 52.009 137.525 54.8844 137.432C57.7599 137.34 60.6191 137.899 63.2475 139.069C61.9604 139.124 60.7064 139.494 59.5954 140.146C58.4844 140.798 57.5503 141.713 56.8747 142.81C55.7017 144.765 55.4397 147.135 54.4562 149.194C53.3613 151.517 51.419 153.332 49.0278 154.268C46.6366 155.203 43.9781 155.188 41.5978 154.225Z" fill="#2B1FC5"/>
<path d="M40.5661 141.975C38.1919 139.174 37.8735 134.671 38.2241 131.011C38.5748 127.351 39.4334 123.671 38.8449 120.043C38.5023 117.891 37.6679 115.839 37.3857 113.679C37.1036 111.518 37.5026 109.079 39.1754 107.685C41.0981 106.072 44.1253 106.476 46.1286 107.967C48.1319 109.458 49.2848 111.833 50.1312 114.187C51.9935 119.362 52.6787 125.098 51.147 130.378C49.6153 135.659 46.0319 140.383 40.7716 141.975" fill="#2B1FC5"/>
<path d="M39.4256 164.983C39.4167 164.876 39.4167 164.768 39.4256 164.661C39.4256 164.451 39.4256 164.137 39.4256 163.734C39.4579 162.927 39.5344 161.767 39.7158 160.34C39.9253 158.666 40.2294 157.005 40.6268 155.366C41.1208 153.352 41.8841 151.415 42.8962 149.606C43.912 147.799 45.1586 146.132 46.6045 144.648C47.7819 143.437 49.086 142.355 50.4943 141.423C51.0868 141.02 51.6592 140.701 52.155 140.411C52.6508 140.121 53.1022 139.928 53.465 139.754L54.3196 139.395C54.4169 139.349 54.518 139.311 54.6219 139.283C54.5299 139.339 54.4343 139.388 54.3357 139.432L53.4973 139.835C53.1425 140.02 52.6911 140.238 52.2074 140.52C51.7237 140.802 51.1553 141.137 50.5709 141.552C47.4738 143.661 44.9064 146.457 43.0695 149.722C40.8848 153.544 40.2842 157.562 39.8448 160.376C39.6473 161.799 39.5465 162.956 39.4941 163.758C39.4699 164.161 39.4538 164.455 39.4417 164.681C39.4439 164.782 39.4386 164.883 39.4256 164.983Z" fill="#263238"/>
<path d="M18.9366 130.915C14.5389 133.567 14.5551 135.981 15.3088 138.259C16.0626 140.536 18.7391 142.12 20.9762 141.266C22.2379 140.782 23.1569 139.686 23.9389 138.581C24.7208 137.477 25.4545 136.296 26.5508 135.502C27.6472 134.708 29.2354 134.405 30.3358 135.191" fill="#2B1FC5"/>
<g opacity="0.5">
<path d="M18.9366 130.915C14.5389 133.567 14.5551 135.981 15.3088 138.259C16.0626 140.536 18.7391 142.12 20.9762 141.266C22.2379 140.782 23.1569 139.686 23.9389 138.581C24.7208 137.477 25.4545 136.296 26.5508 135.502C27.6472 134.708 29.2354 134.405 30.3358 135.191" fill="black"/>
</g>
<path d="M15.6441 133.821C16.7928 132.233 19.6346 131.773 21.4243 132.567C23.214 133.361 24.532 134.929 25.6929 136.489C26.8538 138.049 28.0107 139.714 29.6391 140.806C31.2676 141.899 33.541 142.294 35.1654 141.209C35.6822 140.824 36.115 140.337 36.4373 139.778C36.7595 139.219 36.9645 138.601 37.0397 137.96C37.1836 136.678 37.0962 135.379 36.7818 134.127C36.3787 132.285 35.762 130.358 34.2867 129.189C32.6421 127.883 30.3606 127.823 28.2646 127.891C25.8461 127.968 23.4276 128.149 21.1542 128.984C18.8808 129.818 16.5873 131.62 15.6279 133.821" fill="#2B1FC5"/>
<path d="M35.7703 161.48C35.7651 161.448 35.7651 161.416 35.7703 161.384C35.7703 161.307 35.7703 161.214 35.7703 161.101C35.7703 160.835 35.7703 160.469 35.734 160.009C35.7058 159.046 35.6655 157.679 35.6171 155.998C35.5687 154.318 35.4962 152.286 35.3712 150.053C35.2463 147.82 35.081 145.357 34.7424 142.797C34.5984 141.553 34.3544 140.322 34.0128 139.117C33.333 136.985 32.2913 134.987 30.9333 133.208C30.3671 132.483 29.7459 131.802 29.075 131.173C28.0959 130.266 26.9874 129.511 25.7859 128.931C25.5722 128.831 25.3828 128.734 25.2175 128.665L24.7862 128.5L24.5242 128.395L24.4355 128.351L24.5323 128.375L24.8024 128.464L25.2377 128.613C25.411 128.673 25.6005 128.766 25.8181 128.859C27.0423 129.42 28.1733 130.164 29.1718 131.068C29.8554 131.697 30.4876 132.381 31.0622 133.111C31.7144 133.954 32.2929 134.85 32.7915 135.792C33.3468 136.831 33.8056 137.918 34.162 139.041C34.509 140.257 34.7557 141.5 34.8996 142.757C35.2422 145.325 35.4035 147.788 35.5163 150.013C35.6292 152.238 35.6856 154.269 35.7219 155.966C35.7582 157.663 35.7662 159.034 35.7743 159.997V161.077C35.7743 161.194 35.7743 161.287 35.7743 161.363C35.7781 161.402 35.7768 161.442 35.7703 161.48Z" fill="#263238"/>
<path d="M37.3542 163.451C37.1454 162.835 36.985 162.203 36.8745 161.561C36.5684 159.811 36.5006 158.028 36.673 156.26C36.9425 153.646 37.5036 151.071 38.3458 148.582C39.2487 145.76 40.474 142.729 41.518 139.48C42.0342 137.901 42.4555 136.293 42.7797 134.663C43.0699 133.144 43.2784 131.61 43.4045 130.068C43.605 127.454 43.6521 124.831 43.5455 122.212C43.469 119.971 43.348 118.161 43.2755 116.911L43.1908 115.472C43.1908 115.315 43.1908 115.19 43.1908 115.098C43.1855 115.055 43.1855 115.011 43.1908 114.969C43.1944 115.01 43.1944 115.052 43.1908 115.094C43.1908 115.19 43.211 115.311 43.2271 115.468C43.2567 115.812 43.297 116.292 43.348 116.907C43.4448 118.157 43.5859 119.967 43.6786 122.208C43.8059 124.833 43.7736 127.463 43.5818 130.084C43.4604 131.633 43.2545 133.173 42.9651 134.7C42.6418 136.336 42.2205 137.951 41.7035 139.537C40.6514 142.797 39.422 145.817 38.5151 148.634C37.667 151.117 37.0939 153.685 36.806 156.293C36.6248 158.05 36.6708 159.823 36.943 161.569C37.0519 162.186 37.1526 162.661 37.2373 162.98C37.2736 163.133 37.3058 163.254 37.326 163.343C37.3394 163.378 37.3489 163.414 37.3542 163.451Z" fill="#263238"/>
<path d="M156.227 68.6704C156.035 68.4377 155.879 68.1784 155.763 67.9005C155.489 67.3805 155.098 66.6066 154.602 65.6029C153.61 63.5875 152.184 60.6732 150.466 57.0253C147 49.7295 142.231 39.5476 136.911 28.0436H137.862C137.136 29.7325 136.363 31.5101 135.637 33.3401C134.327 36.5647 133.13 39.7894 132.074 42.8932C131.526 44.4491 131.046 45.9929 130.554 47.5004C130.062 49.0079 129.631 50.4993 129.22 51.9343C127.551 57.7549 126.318 63.0715 125.419 67.5659C124.52 72.0603 123.948 75.7243 123.553 78.2597C123.355 79.5294 123.222 80.517 123.105 81.1821C123.073 81.5271 122.998 81.8669 122.883 82.1938C122.836 81.8502 122.836 81.5016 122.883 81.1579C122.932 80.4847 123 79.4851 123.133 78.2073C123.403 75.6518 123.871 71.9595 124.677 67.4289C125.483 62.8982 126.648 57.5372 128.277 51.6723C128.68 50.2051 129.131 48.7097 129.587 47.182C130.042 45.6543 130.542 44.1064 131.086 42.5425C132.138 39.4024 133.335 36.1858 134.649 32.9249C135.383 31.0868 136.165 29.2971 136.895 27.6042C136.922 27.5414 136.961 27.4846 137.01 27.437C137.059 27.3894 137.118 27.352 137.181 27.3269C137.245 27.3018 137.313 27.2896 137.381 27.2908C137.45 27.292 137.517 27.3068 137.58 27.3341C137.697 27.3834 137.791 27.4757 137.842 27.5921C143.138 39.1082 147.79 49.3586 151.087 56.7149C152.736 60.4031 154.05 63.3738 154.933 65.4296C155.372 66.4574 155.707 67.2555 155.924 67.7997C156.066 68.0741 156.168 68.3672 156.227 68.6704Z" fill="#2B1FC5"/>
<path d="M149.479 51.3055C149.556 51.5877 141.97 53.8933 132.55 56.4569C123.129 59.0205 115.402 60.8908 115.326 60.5926C115.249 60.2943 122.835 58.0048 132.275 55.4411C141.716 52.8775 149.402 51.0354 149.479 51.3055Z" fill="#2B1FC5"/>
<path d="M144.199 19.2483C144.349 19.1348 144.513 19.0413 144.687 18.9701L145.304 18.6638C145.553 18.5509 145.856 18.4421 146.194 18.3091C147.038 17.9988 147.908 17.768 148.794 17.6198C150.012 17.4366 151.249 17.4231 152.47 17.5795C154.002 17.7956 155.488 18.2584 156.872 18.95C158.505 19.7911 160.015 20.8531 161.358 22.1061C162.9 23.5409 164.27 25.1491 165.442 26.8988C165.764 27.3687 166.051 27.8618 166.3 28.3741C166.558 28.886 166.828 29.4019 167.086 29.93L167.779 31.5826C168.021 32.1389 168.183 32.7274 168.392 33.3119C169.186 35.7834 169.681 38.341 169.867 40.9301C170.057 43.7317 169.957 46.5453 169.569 49.3264C169.151 52.2958 168.514 55.2303 167.663 58.1055C167.461 58.8512 167.207 59.5849 166.981 60.3346C166.756 61.0843 166.449 61.826 166.175 62.5798C165.849 63.3093 165.546 64.0551 165.188 64.7846L164.627 65.8689L164.349 66.4131L164.035 66.9411C162.339 69.8413 160.31 72.5333 157.989 74.9625C155.577 77.4913 152.91 79.7646 150.032 81.7464C147.074 83.8362 143.879 85.5694 140.515 86.9099C137.011 88.3071 133.262 88.9856 129.491 88.9052C127.574 88.8457 125.68 88.474 123.884 87.8047C122.097 87.1341 120.465 86.1069 119.087 84.7856C118.407 84.1412 117.788 83.4355 117.237 82.6775C116.689 81.9324 116.199 81.1469 115.77 80.3275C114.925 78.7212 114.249 77.0312 113.754 75.285C111.943 68.6546 111.58 61.7122 112.69 54.9292C113.192 51.7847 113.971 48.6905 115.016 45.6825C115.149 45.3197 115.278 44.9569 115.419 44.5942C115.56 44.2314 115.677 43.8727 115.822 43.522C116.115 42.8206 116.405 42.1233 116.693 41.43L117.652 39.4145C117.958 38.7414 118.337 38.1126 118.672 37.4676C120.008 35.007 121.535 32.6552 123.239 30.4338L123.843 29.6277L124.476 28.8618C124.903 28.358 125.307 27.846 125.738 27.3664L127.032 25.9556C127.435 25.4799 127.919 25.0648 128.35 24.6254C129.212 23.7427 130.148 22.9768 131.018 22.2069L132.381 21.1266L133.05 20.5986L133.735 20.1149L135.081 19.1717L136.432 18.3252L137.089 17.9221L137.758 17.5473L139.064 16.8257C139.93 16.3743 140.789 15.9712 141.607 15.5762C142.426 15.1812 143.244 14.8667 144.026 14.5564L146.279 13.722L148.351 13.0609C150.987 12.283 153.067 11.8194 154.486 11.5494C155.195 11.4204 155.739 11.3236 156.098 11.2672C156.28 11.2202 156.467 11.1998 156.654 11.2067C156.483 11.2829 156.303 11.3384 156.118 11.372C155.76 11.4647 155.223 11.5937 154.506 11.7549C153.107 12.0935 151.047 12.6175 148.46 13.4519L146.42 14.1533L144.199 15.0038C143.433 15.3263 142.651 15.689 141.825 16.0518C140.999 16.4146 140.184 16.858 139.334 17.3256L138.056 18.0592L137.399 18.434L136.754 18.8371L135.432 19.6876L134.122 20.651L133.453 21.1347L132.8 21.6587L131.47 22.7349C130.619 23.5169 129.708 24.2788 128.87 25.1534C128.447 25.5888 127.987 25.9999 127.58 26.4715C127.173 26.9431 126.742 27.3986 126.318 27.8743C125.895 28.3499 125.512 28.8618 125.089 29.3576L124.468 30.1194L123.88 30.9256C122.215 33.1245 120.726 35.4507 119.426 37.8828C119.099 38.5197 118.732 39.1404 118.434 39.8015L117.503 41.7927L116.66 43.8565C116.511 44.1991 116.382 44.5539 116.257 44.9126L115.882 45.9848C114.878 48.9416 114.132 51.9802 113.653 55.0663C113.147 58.3118 112.971 61.6004 113.129 64.8814C113.281 68.2988 113.822 71.6878 114.742 74.9827C115.219 76.6572 115.867 78.2781 116.677 79.8197C117.083 80.594 117.548 81.3364 118.067 82.0406C118.584 82.7491 119.164 83.4089 119.8 84.0117C121.077 85.2312 122.584 86.1825 124.234 86.8091C125.928 87.4338 127.711 87.7809 129.515 87.837C133.144 87.9081 136.751 87.2544 140.124 85.9143C143.419 84.6088 146.55 82.9204 149.451 80.8838C152.276 78.9481 154.895 76.7276 157.267 74.2571C159.537 71.8897 161.524 69.2669 163.188 66.4413L163.495 65.9254L163.769 65.3973L164.317 64.3453C164.668 63.6399 164.962 62.9143 165.284 62.2089C165.546 61.4753 165.833 60.7619 166.07 60.0282C166.308 59.2946 166.554 58.5651 166.756 57.8274C167.611 55.0008 168.256 52.1149 168.686 49.1934C169.087 46.4718 169.204 43.7162 169.037 40.9704C168.878 38.4418 168.418 35.9411 167.667 33.5215C167.469 32.9531 167.316 32.3727 167.086 31.8285C166.856 31.2843 166.643 30.7402 166.425 30.2162L165.675 28.6845C165.443 28.1894 165.173 27.7124 164.869 27.2575C163.749 25.5351 162.434 23.9472 160.951 22.5253C159.664 21.2893 158.214 20.2343 156.642 19.3893C155.319 18.6987 153.895 18.2238 152.422 17.9826C151.237 17.8003 150.033 17.7813 148.843 17.9262C147.97 18.0445 147.11 18.2387 146.271 18.5066C145.932 18.6235 145.63 18.7122 145.372 18.8089L144.739 19.0669C144.567 19.1493 144.386 19.2102 144.199 19.2483Z" fill="#2B1FC5"/>
<path d="M153.24 45.8357C152.95 45.8357 152.462 40.9987 152.155 34.9524C151.849 28.9062 151.829 24.0288 152.119 24.0288C152.409 24.0288 152.893 28.8658 153.203 34.9121C153.514 40.9584 153.526 45.8195 153.24 45.8357Z" fill="#2B1FC5"/>
<path d="M159.778 32.3082C159.887 32.5742 156.718 34.1221 152.627 35.5691C148.536 37.0162 145.102 37.8224 145.021 37.5483C144.94 37.2742 148.213 36.0286 152.276 34.5816C156.34 33.1345 159.669 32.0381 159.778 32.3082Z" fill="#2B1FC5"/>
</svg>
