<svg width="285" height="227" viewBox="0 0 285 227" fill="none" xmlns="http://www.w3.org/2000/svg">
<path d="M190.717 170.148L132.987 169.882C131.336 169.875 129.703 169.542 128.181 168.903C126.658 168.265 125.277 167.332 124.115 166.16C122.953 164.987 122.033 163.597 121.409 162.069C120.784 160.54 120.466 158.904 120.474 157.253L121.052 12.5251C121.067 9.18894 122.407 5.9954 124.776 3.64667C127.145 1.29793 130.35 -0.0137192 133.687 0.000108226L191.416 0.265982C194.751 0.281278 197.943 1.62025 200.29 3.98849C202.638 6.35674 203.949 9.56038 203.935 12.895L203.351 157.629C203.345 159.281 203.012 160.915 202.374 162.439C201.735 163.962 200.802 165.344 199.629 166.507C198.455 167.67 197.064 168.59 195.535 169.215C194.006 169.839 192.369 170.157 190.717 170.148Z" fill="#263238"/>
<path d="M191.063 5.34067L179.868 5.28866C179.131 5.30233 178.431 5.60763 177.919 6.13753C177.408 6.66744 177.127 7.37864 177.14 8.11502V10.1438C177.147 10.5089 177.081 10.8718 176.948 11.2117C176.815 11.5516 176.616 11.862 176.362 12.125C176.109 12.388 175.806 12.5985 175.472 12.7445C175.137 12.8905 174.777 12.9691 174.412 12.9759L152.604 12.8719C151.867 12.8507 151.169 12.5383 150.662 12.0031C150.155 11.4679 149.88 10.7536 149.899 10.0166V7.98786C149.916 7.25131 149.641 6.53784 149.135 6.00299C148.628 5.46815 147.931 5.15528 147.194 5.1326H143.258L133.45 5.0748C132.292 5.06948 131.145 5.29224 130.074 5.73036C129.003 6.16848 128.029 6.81336 127.207 7.62817C126.385 8.44297 125.732 9.41173 125.285 10.4791C124.838 11.5464 124.605 12.6914 124.601 13.8487L124.023 155.115C124.017 156.271 124.24 157.416 124.677 158.487C125.115 159.557 125.759 160.53 126.572 161.351C127.386 162.172 128.353 162.825 129.419 163.272C130.485 163.72 131.629 163.953 132.785 163.958L190.399 164.224C191.556 164.23 192.703 164.008 193.774 163.57C194.845 163.133 195.819 162.489 196.641 161.674C197.463 160.86 198.116 159.892 198.563 158.824C199.011 157.757 199.243 156.613 199.248 155.456L199.826 14.1897C199.832 13.0332 199.61 11.8868 199.173 10.8161C198.736 9.74543 198.092 8.77135 197.278 7.94957C196.464 7.12779 195.497 6.4744 194.43 6.02676C193.364 5.57911 192.22 5.34597 191.063 5.34067Z" fill="white"/>
<path d="M170.58 22.6715L155.714 22.604L155.701 25.3321L170.567 25.3995L170.58 22.6715Z" fill="#455A64"/>
<path d="M139.541 40.9852C139.942 40.8072 140.282 40.5159 140.519 40.1472C140.756 39.7786 140.881 39.3486 140.877 38.9102C140.898 38.6208 140.86 38.3301 140.764 38.0563C140.668 37.7824 140.516 37.5313 140.319 37.3187C140.121 37.106 139.882 36.9364 139.616 36.8204C139.35 36.7044 139.063 36.6445 138.773 36.6445C138.482 36.6445 138.195 36.7044 137.929 36.8204C137.663 36.9364 137.424 37.106 137.227 37.3187C137.029 37.5313 136.878 37.7824 136.782 38.0563C136.686 38.3301 136.647 38.6208 136.669 38.9102C136.662 39.3522 136.785 39.7864 137.024 40.1585C137.262 40.5306 137.605 40.8242 138.01 41.0026C137.347 41.0818 136.722 41.3566 136.216 41.792C135.709 42.2274 135.344 42.8037 135.166 43.4475C135.912 44.2977 136.937 44.855 138.056 45.0196H139.351C140.498 44.8691 141.552 44.3062 142.316 43.4359C142.151 42.7972 141.798 42.2226 141.304 41.7859C140.809 41.3491 140.196 41.0703 139.541 40.9852Z" fill="#455A64"/>
<path d="M138.733 45.0542C138.733 45.0195 139.155 45.0542 139.889 44.8461C140.913 44.5697 141.816 43.9596 142.455 43.1121C142.92 42.4885 143.223 41.7585 143.335 40.9884C143.447 40.2184 143.365 39.4325 143.097 38.7021C142.943 38.2874 142.729 37.8978 142.461 37.5461C142.185 37.1702 141.851 36.8405 141.472 36.5693C140.679 35.9866 139.72 35.6724 138.736 35.6724C137.751 35.6724 136.792 35.9866 135.999 36.5693C135.621 36.8421 135.288 37.1716 135.011 37.5461C134.742 37.8978 134.528 38.2874 134.375 38.7021C134.105 39.4326 134.023 40.2192 134.136 40.9897C134.249 41.7602 134.554 42.4899 135.022 43.1121C135.659 43.9591 136.56 44.5694 137.583 44.8461C138.311 45.0368 138.739 45.0195 138.739 45.0542C138.637 45.0668 138.534 45.0668 138.432 45.0542C138.144 45.0532 137.857 45.0202 137.577 44.9559C136.503 44.7097 135.548 44.0965 134.878 43.2219C134.407 42.622 134.086 41.9187 133.941 41.1701C133.767 40.3131 133.825 39.4251 134.109 38.598C134.441 37.6706 135.046 36.8649 135.843 36.2861C136.685 35.6593 137.706 35.3208 138.756 35.3208C139.805 35.3208 140.827 35.6593 141.669 36.2861C142.069 36.5778 142.42 36.9309 142.709 37.3322C142.99 37.7178 143.208 38.1449 143.357 38.598C143.654 39.4237 143.722 40.3146 143.553 41.1759C143.377 42.0904 142.94 42.9345 142.295 43.6062C141.65 44.278 140.824 44.7487 139.918 44.9617C139.632 45.0296 139.339 45.0645 139.045 45.0657C138.941 45.075 138.836 45.0711 138.733 45.0542Z" fill="#455A64"/>
<path d="M194.676 49.3662C194.676 49.3662 194.826 49.3662 195.104 49.3084C195.519 49.2245 195.902 49.024 196.208 48.7304C196.453 48.4925 196.642 48.2033 196.762 47.8835C196.882 47.5637 196.93 47.2213 196.901 46.8809C196.901 46.0601 196.901 45.1469 196.901 44.0545C196.901 41.9217 196.901 39.315 196.901 36.2921C196.901 35.535 196.901 34.7547 196.901 33.9455C196.922 33.5428 196.832 33.1421 196.64 32.7873C196.449 32.4325 196.163 32.1373 195.815 31.9341C195.104 31.4833 194.173 31.6798 193.277 31.6393H190.491L130.959 31.6856C130.619 31.6866 130.285 31.7684 129.983 31.9242C129.682 32.0799 129.422 32.3053 129.225 32.5815C129.028 32.8573 128.901 33.1766 128.855 33.512C128.814 33.8357 128.855 34.2172 128.855 34.5697V38.8411C128.855 41.6732 128.855 44.4572 128.855 47.193C128.867 47.5138 128.952 47.8275 129.105 48.1101C129.257 48.3927 129.472 48.6366 129.733 48.8229C129.989 49.0084 130.283 49.133 130.595 49.1871C130.923 49.2243 131.253 49.2378 131.583 49.2275H143.31L170.065 49.2564L188.104 49.3084L193.006 49.3373H194.283H194.717C194.717 49.3373 194.566 49.3373 194.283 49.3373H193.006H188.104L170.065 49.3836L143.31 49.4183H131.542C131.197 49.4331 130.851 49.4196 130.508 49.3778C130.15 49.3197 129.811 49.1771 129.519 48.9616C129.224 48.7489 128.98 48.472 128.807 48.1516C128.634 47.8313 128.536 47.4759 128.52 47.1121C128.52 44.3686 128.52 41.5788 128.52 38.7428V34.5524C128.52 34.1883 128.52 33.8472 128.548 33.4542C128.598 33.07 128.743 32.7043 128.97 32.3907C129.194 32.0742 129.49 31.8161 129.834 31.638C130.178 31.46 130.56 31.3672 130.947 31.3677L190.48 31.4139H194.607C194.937 31.4022 195.266 31.4594 195.574 31.582C195.881 31.7045 196.159 31.8896 196.391 32.1256C196.622 32.3616 196.802 32.6432 196.919 32.9526C197.036 33.2619 197.087 33.5922 197.069 33.9224C197.069 34.7316 197.069 35.5119 197.069 36.269C197.069 39.2919 197.069 41.8986 197.04 44.0314C197.04 45.0949 197.04 46.037 197.04 46.8578C197.064 47.2093 197.01 47.5618 196.881 47.8896C196.752 48.2175 196.552 48.5126 196.294 48.7536C195.976 49.0575 195.573 49.2588 195.138 49.3316C194.987 49.3638 194.831 49.3754 194.676 49.3662Z" fill="#E0E0E0"/>
<path d="M164.782 36.165H147.969V37.4251H164.782V36.165Z" fill="#455A64"/>
<path d="M177.423 43.2915H147.969V44.5515H177.423V43.2915Z" fill="#455A64"/>
<path d="M190.653 39.6445H147.969V40.9045H190.653V39.6445Z" fill="#455A64"/>
<path d="M139.541 86.1898C139.942 86.0118 140.282 85.7205 140.519 85.3518C140.756 84.9832 140.881 84.5532 140.877 84.1148C140.898 83.8254 140.86 83.5347 140.764 83.2609C140.668 82.987 140.516 82.7359 140.319 82.5233C140.121 82.3106 139.882 82.141 139.616 82.025C139.35 81.909 139.063 81.8491 138.773 81.8491C138.482 81.8491 138.195 81.909 137.929 82.025C137.663 82.141 137.424 82.3106 137.227 82.5233C137.029 82.7359 136.878 82.987 136.782 83.2609C136.686 83.5347 136.647 83.8254 136.669 84.1148C136.662 84.5568 136.785 84.991 137.024 85.3631C137.262 85.7352 137.605 86.0288 138.01 86.2071C137.347 86.2863 136.722 86.5611 136.216 86.9966C135.709 87.432 135.344 88.0083 135.166 88.652C135.912 89.5023 136.937 90.0596 138.056 90.2242H139.351C140.498 90.0737 141.552 89.5108 142.316 88.6405C142.151 88.0018 141.798 87.4272 141.304 86.9905C140.809 86.5537 140.196 86.2749 139.541 86.1898Z" fill="#455A64"/>
<path d="M138.733 90.2589C138.733 90.2242 139.155 90.2589 139.889 90.0508C140.913 89.7745 141.816 89.1643 142.455 88.3169C142.92 87.6932 143.223 86.9633 143.335 86.1932C143.447 85.4231 143.365 84.6372 143.096 83.9068C142.943 83.4921 142.729 83.1025 142.461 82.7509C142.185 82.375 141.851 82.0453 141.472 81.774C140.679 81.1914 139.72 80.8772 138.736 80.8772C137.751 80.8772 136.792 81.1914 135.999 81.774C135.621 82.0469 135.288 82.3764 135.01 82.7509C134.742 83.1025 134.528 83.4921 134.375 83.9068C134.109 84.6367 134.029 85.4216 134.144 86.1899C134.26 86.9582 134.565 87.6855 135.034 88.3053C135.67 89.1523 136.571 89.7626 137.594 90.0393C138.322 90.23 138.75 90.2127 138.75 90.2474C138.648 90.26 138.545 90.26 138.444 90.2474C138.148 90.2492 137.853 90.2142 137.565 90.1433C136.491 89.8971 135.536 89.2839 134.866 88.4094C134.395 87.8094 134.074 87.1061 133.93 86.3575C133.763 85.4961 133.831 84.6059 134.126 83.7797C134.459 82.8523 135.063 82.0466 135.86 81.4677C136.702 80.841 137.724 80.5024 138.773 80.5024C139.823 80.5024 140.844 80.841 141.686 81.4677C142.086 81.7595 142.437 82.1125 142.727 82.5139C143.012 82.893 143.236 83.3142 143.391 83.7623C143.689 84.588 143.757 85.4789 143.588 86.3402C143.412 87.2547 142.975 88.0988 142.33 88.7705C141.685 89.4423 140.859 89.913 139.952 90.126C139.666 90.1939 139.373 90.2288 139.079 90.23C138.966 90.2559 138.849 90.2656 138.733 90.2589Z" fill="#455A64"/>
<path d="M194.676 94.5707C194.676 94.5707 194.826 94.5707 195.104 94.5129C195.519 94.429 195.902 94.2285 196.208 93.9349C196.453 93.697 196.642 93.4077 196.762 93.0879C196.882 92.7681 196.93 92.4257 196.901 92.0853C196.901 91.2646 196.901 90.3225 196.901 89.259C196.901 87.1262 196.901 84.5195 196.901 81.4966C196.901 80.7394 196.901 79.9591 196.901 79.15C196.922 78.7472 196.832 78.3465 196.64 77.9917C196.449 77.6369 196.163 77.3418 195.815 77.1386C195.104 76.6877 194.173 76.8842 193.277 76.8438H190.491L130.959 76.89C130.619 76.8911 130.285 76.9728 129.983 77.1286C129.682 77.2844 129.422 77.5097 129.225 77.7859C129.028 78.0618 128.901 78.381 128.855 78.7165C128.814 79.0401 128.855 79.4216 128.855 79.7742V84.0455C128.855 86.8777 128.855 89.6616 128.855 92.3974C128.867 92.7182 128.952 93.032 129.105 93.3146C129.257 93.5971 129.472 93.841 129.733 94.0274C129.989 94.2129 130.283 94.3374 130.595 94.3915C130.923 94.4288 131.253 94.4423 131.583 94.432H143.31L170.065 94.4609L188.104 94.5129H193.006H194.283H194.717C194.717 94.5129 194.566 94.5129 194.283 94.5129H193.006L188.104 94.5418L170.065 94.588L143.31 94.6227H131.542C131.197 94.6375 130.851 94.624 130.508 94.5822C130.15 94.5242 129.811 94.3815 129.519 94.1661C129.224 93.9534 128.98 93.6764 128.807 93.3561C128.634 93.0357 128.536 92.6803 128.52 92.3165C128.52 89.573 128.52 86.7833 128.52 83.9473V79.6759C128.52 79.3118 128.52 78.9708 128.548 78.5777C128.598 78.1935 128.743 77.8278 128.97 77.5143C129.195 77.1988 129.491 76.9414 129.835 76.7635C130.179 76.5855 130.56 76.4922 130.947 76.4912L190.48 76.5375H194.607C194.937 76.5257 195.266 76.583 195.574 76.7055C195.881 76.828 196.159 77.0132 196.391 77.2492C196.622 77.4851 196.802 77.7668 196.919 78.0761C197.036 78.3855 197.087 78.7157 197.069 79.0459C197.069 79.8551 197.069 80.6354 197.069 81.3925C197.069 84.4154 197.069 87.0222 197.04 89.1549C197.04 90.2184 197.04 91.1606 197.04 91.9813C197.064 92.3328 197.01 92.6853 196.881 93.0132C196.752 93.3411 196.552 93.6362 196.294 93.8771C195.976 94.181 195.573 94.3824 195.138 94.4551C194.99 94.5147 194.835 94.5536 194.676 94.5707Z" fill="#E0E0E0"/>
<path d="M164.447 81.3691H147.634V82.6292H164.447V81.3691Z" fill="#455A64"/>
<path d="M177.423 88.4961H147.969V89.7561H177.423V88.4961Z" fill="#455A64"/>
<path d="M190.653 84.8486H147.969V86.1086H190.653V84.8486Z" fill="#455A64"/>
<path d="M139.541 108.789C139.942 108.612 140.281 108.322 140.518 107.954C140.756 107.586 140.88 107.157 140.877 106.72C140.898 106.43 140.86 106.14 140.764 105.866C140.668 105.592 140.516 105.341 140.319 105.128C140.121 104.916 139.882 104.746 139.616 104.63C139.35 104.514 139.063 104.454 138.773 104.454C138.482 104.454 138.195 104.514 137.929 104.63C137.663 104.746 137.424 104.916 137.227 105.128C137.029 105.341 136.878 105.592 136.782 105.866C136.686 106.14 136.647 106.43 136.669 106.72C136.661 107.162 136.784 107.596 137.023 107.969C137.262 108.341 137.605 108.634 138.01 108.812C137.347 108.891 136.722 109.166 136.216 109.602C135.709 110.037 135.344 110.613 135.166 111.257C135.911 112.109 136.936 112.667 138.056 112.829H139.351C140.499 112.681 141.554 112.118 142.316 111.245C142.151 110.606 141.799 110.031 141.304 109.593C140.81 109.155 140.196 108.875 139.541 108.789Z" fill="#455A64"/>
<path d="M138.732 112.858C138.732 112.824 139.154 112.858 139.888 112.656C140.912 112.378 141.815 111.768 142.455 110.922C142.921 110.3 143.223 109.571 143.335 108.801C143.448 108.032 143.365 107.247 143.096 106.518C142.944 106.102 142.73 105.713 142.46 105.362C142.188 104.983 141.854 104.653 141.472 104.385C140.679 103.802 139.72 103.488 138.735 103.488C137.751 103.488 136.792 103.802 135.999 104.385C135.618 104.655 135.284 104.985 135.01 105.362C134.741 105.713 134.527 106.102 134.374 106.518C134.105 107.248 134.023 108.035 134.136 108.805C134.249 109.576 134.553 110.306 135.022 110.928C135.66 111.773 136.561 112.383 137.582 112.662C138.311 112.852 138.738 112.829 138.738 112.864C138.637 112.879 138.533 112.879 138.432 112.864C138.136 112.863 137.841 112.826 137.553 112.754C136.479 112.509 135.524 111.896 134.854 111.02C134.385 110.42 134.064 109.717 133.918 108.968C133.752 108.105 133.82 107.213 134.114 106.385C134.447 105.457 135.051 104.652 135.848 104.073C136.691 103.448 137.712 103.11 138.761 103.11C139.81 103.11 140.832 103.448 141.674 104.073C142.461 104.655 143.055 105.461 143.379 106.385C143.655 107.155 143.732 107.982 143.603 108.791C143.475 109.599 143.146 110.361 142.645 111.009C141.973 111.884 141.016 112.497 139.94 112.743C139.655 112.815 139.362 112.852 139.068 112.852C138.957 112.872 138.844 112.874 138.732 112.858Z" fill="#455A64"/>
<path d="M194.676 117.17C194.676 117.17 194.826 117.17 195.104 117.112C195.519 117.027 195.901 116.826 196.208 116.534C196.453 116.296 196.642 116.007 196.762 115.687C196.882 115.367 196.93 115.025 196.901 114.684C196.901 113.864 196.901 112.916 196.901 111.852C196.901 109.719 196.901 107.113 196.901 104.09C196.901 103.338 196.901 102.552 196.901 101.743C196.922 101.341 196.831 100.94 196.639 100.585C196.448 100.231 196.163 99.9355 195.815 99.7318C195.104 99.281 194.173 99.4775 193.277 99.4371H190.491L130.959 99.4833C130.619 99.4829 130.284 99.5641 129.983 99.72C129.681 99.8759 129.421 100.102 129.225 100.379C129.029 100.653 128.902 100.97 128.855 101.304C128.814 101.628 128.855 102.009 128.855 102.362V106.639C128.855 109.467 128.855 112.251 128.855 114.991C128.868 115.311 128.953 115.623 129.106 115.905C129.258 116.186 129.473 116.429 129.733 116.615C129.987 116.804 130.282 116.931 130.595 116.985C130.923 117.02 131.253 117.032 131.583 117.019H143.31L170.065 117.054L188.104 117.1H193.006H194.283H194.717H194.283H193.006H188.104L170.065 117.152L143.31 117.181H131.542C131.197 117.19 130.851 117.177 130.508 117.141C130.15 117.078 129.812 116.934 129.519 116.719C129.223 116.507 128.979 116.23 128.805 115.91C128.632 115.589 128.534 115.233 128.52 114.869C128.52 112.13 128.52 109.342 128.52 106.506V102.229C128.52 101.865 128.52 101.524 128.548 101.131C128.599 100.748 128.744 100.385 128.97 100.073C129.194 99.7563 129.49 99.4982 129.834 99.3201C130.178 99.1421 130.56 99.0494 130.947 99.0498L190.48 99.0903H194.607C195.061 99.0727 195.511 99.1871 195.901 99.4197C196.273 99.6433 196.577 99.9635 196.78 100.346C196.984 100.729 197.08 101.16 197.057 101.593C197.057 102.402 197.057 103.188 197.057 103.94C197.057 106.962 197.057 109.569 197.028 111.702C197.028 112.765 197.028 113.713 197.028 114.534C197.052 114.886 196.998 115.238 196.869 115.566C196.74 115.894 196.54 116.189 196.283 116.43C195.96 116.729 195.559 116.929 195.127 117.008C194.986 117.085 194.834 117.14 194.676 117.17Z" fill="#E0E0E0"/>
<path d="M164.782 103.975H147.969V105.235H164.782V103.975Z" fill="#455A64"/>
<path d="M177.423 111.095H147.969V112.355H177.423V111.095Z" fill="#455A64"/>
<path d="M190.653 107.448H147.969V108.708H190.653V107.448Z" fill="#455A64"/>
<path d="M139.541 131.394C139.942 131.216 140.282 130.925 140.519 130.556C140.756 130.188 140.881 129.758 140.877 129.319C140.898 129.03 140.86 128.739 140.764 128.465C140.668 128.192 140.516 127.94 140.319 127.728C140.121 127.515 139.882 127.346 139.616 127.23C139.35 127.114 139.063 127.054 138.773 127.054C138.482 127.054 138.195 127.114 137.929 127.23C137.663 127.346 137.424 127.515 137.227 127.728C137.029 127.94 136.878 128.192 136.782 128.465C136.686 128.739 136.647 129.03 136.669 129.319C136.662 129.761 136.785 130.196 137.024 130.568C137.262 130.94 137.605 131.233 138.01 131.412C137.347 131.491 136.722 131.766 136.216 132.201C135.709 132.637 135.344 133.213 135.166 133.857C135.912 134.707 136.937 135.264 138.056 135.429H139.351C140.498 135.278 141.552 134.715 142.316 133.845C142.151 133.206 141.798 132.632 141.304 132.195C140.809 131.758 140.196 131.479 139.541 131.394Z" fill="#455A64"/>
<path d="M138.732 135.463C138.732 135.429 139.154 135.463 139.888 135.255C140.913 134.979 141.816 134.369 142.455 133.521C142.92 132.898 143.223 132.168 143.335 131.398C143.447 130.628 143.365 129.842 143.096 129.111C142.943 128.697 142.729 128.307 142.461 127.955C142.185 127.579 141.851 127.25 141.472 126.979C140.679 126.396 139.72 126.082 138.735 126.082C137.751 126.082 136.792 126.396 135.999 126.979C135.621 127.251 135.288 127.581 135.01 127.955C134.742 128.307 134.528 128.697 134.374 129.111C134.105 129.842 134.023 130.628 134.136 131.399C134.249 132.169 134.553 132.899 135.022 133.521C135.658 134.368 136.56 134.979 137.582 135.255C138.311 135.446 138.738 135.429 138.738 135.463C138.637 135.476 138.534 135.476 138.432 135.463C138.136 135.465 137.841 135.43 137.553 135.359C136.479 135.113 135.525 134.5 134.854 133.625C134.384 133.025 134.063 132.322 133.918 131.574C133.752 130.712 133.82 129.822 134.114 128.996C134.447 128.068 135.051 127.263 135.848 126.684C136.692 126.06 137.713 125.724 138.761 125.724C139.81 125.724 140.831 126.06 141.674 126.684C142.074 126.975 142.425 127.329 142.715 127.73C143 128.109 143.224 128.53 143.38 128.978C143.677 129.804 143.745 130.695 143.576 131.556C143.4 132.471 142.963 133.315 142.318 133.987C141.673 134.658 140.847 135.129 139.94 135.342C139.655 135.413 139.362 135.448 139.068 135.446C138.957 135.467 138.845 135.473 138.732 135.463Z" fill="#455A64"/>
<path d="M194.676 139.775C194.676 139.775 194.826 139.775 195.104 139.717C195.519 139.633 195.902 139.433 196.208 139.139C196.453 138.901 196.642 138.612 196.762 138.292C196.882 137.973 196.93 137.63 196.901 137.29C196.901 136.469 196.901 135.527 196.901 134.463C196.901 132.331 196.901 129.724 196.901 126.701C196.901 125.944 196.901 125.164 196.901 124.354C196.922 123.952 196.832 123.551 196.64 123.196C196.449 122.841 196.163 122.546 195.815 122.343C195.104 121.892 194.173 122.089 193.277 122.048H190.491L130.959 122.089C130.619 122.09 130.285 122.172 129.983 122.327C129.682 122.483 129.422 122.708 129.225 122.985C129.028 123.261 128.901 123.58 128.855 123.915C128.814 124.239 128.855 124.62 128.855 124.973V129.244C128.855 132.076 128.855 134.86 128.855 137.596C128.867 137.917 128.952 138.231 129.105 138.513C129.257 138.796 129.472 139.04 129.733 139.226C129.989 139.412 130.283 139.536 130.595 139.59C130.922 139.63 131.253 139.644 131.583 139.631H143.31L170.065 139.66L188.104 139.712L193.006 139.74H194.283H194.717C194.717 139.74 194.566 139.74 194.283 139.74H193.006H188.104L170.065 139.787L143.31 139.821H131.542C131.197 139.836 130.851 139.823 130.508 139.781C130.15 139.723 129.811 139.58 129.519 139.365C129.224 139.152 128.98 138.875 128.807 138.555C128.634 138.234 128.536 137.879 128.52 137.515C128.52 134.772 128.52 131.982 128.52 129.146V124.875C128.52 124.511 128.52 124.17 128.548 123.776C128.598 123.392 128.743 123.027 128.97 122.713C129.195 122.398 129.491 122.14 129.835 121.962C130.179 121.784 130.56 121.691 130.947 121.69L190.48 121.736H194.607C195.06 121.724 195.509 121.838 195.901 122.066C196.273 122.29 196.577 122.611 196.781 122.995C196.985 123.379 197.08 123.811 197.057 124.245C197.057 125.054 197.057 125.834 197.057 126.591C197.057 129.614 197.057 132.221 197.028 134.354C197.028 135.417 197.028 136.359 197.028 137.18C197.053 137.532 196.998 137.884 196.869 138.212C196.74 138.54 196.54 138.835 196.283 139.076C195.964 139.38 195.561 139.581 195.127 139.654C194.983 139.714 194.831 139.755 194.676 139.775Z" fill="#E0E0E0"/>
<path d="M164.782 126.574H147.969V127.834H164.782V126.574Z" fill="#455A64"/>
<path d="M177.423 133.7H147.969V134.96H177.423V133.7Z" fill="#455A64"/>
<path d="M190.653 130.053H147.969V131.313H190.653V130.053Z" fill="#455A64"/>
<path d="M158.754 150.867C158.738 151.098 158.655 151.32 158.514 151.505C158.374 151.69 158.183 151.83 157.964 151.908C157.745 151.986 157.508 151.998 157.283 151.942C157.057 151.887 156.853 151.767 156.695 151.598C156.536 151.428 156.431 151.215 156.392 150.986C156.353 150.758 156.382 150.522 156.474 150.31C156.567 150.097 156.72 149.916 156.915 149.789C157.109 149.662 157.337 149.595 157.569 149.595C157.894 149.607 158.202 149.748 158.424 149.986C158.646 150.225 158.764 150.541 158.754 150.867Z" fill="#455A64"/>
<path d="M162.43 150.884C162.415 151.116 162.331 151.337 162.191 151.522C162.051 151.707 161.859 151.847 161.641 151.925C161.422 152.003 161.185 152.015 160.96 151.96C160.734 151.904 160.53 151.785 160.371 151.615C160.213 151.445 160.108 151.232 160.069 151.004C160.03 150.775 160.058 150.539 160.151 150.327C160.244 150.114 160.397 149.933 160.592 149.806C160.786 149.679 161.013 149.612 161.245 149.612C161.407 149.618 161.566 149.655 161.713 149.721C161.86 149.788 161.992 149.883 162.102 150.002C162.212 150.12 162.298 150.259 162.354 150.41C162.411 150.561 162.437 150.722 162.43 150.884Z" fill="#455A64"/>
<path d="M166.118 150.901C166.102 151.134 166.018 151.357 165.876 151.543C165.735 151.728 165.541 151.868 165.321 151.945C165.101 152.021 164.863 152.031 164.636 151.974C164.41 151.916 164.206 151.794 164.049 151.621C163.892 151.448 163.789 151.233 163.753 151.003C163.718 150.772 163.75 150.536 163.848 150.324C163.945 150.112 164.102 149.933 164.3 149.809C164.499 149.686 164.729 149.624 164.962 149.63C165.283 149.648 165.584 149.791 165.8 150.029C166.016 150.267 166.13 150.58 166.118 150.901Z" fill="#455A64"/>
<path d="M170.054 47.8705L106.308 52.3327C105.053 52.4205 104.107 53.5087 104.195 54.7632L105.126 68.0569C105.214 69.3114 106.302 70.2572 107.556 70.1694L171.303 65.7072C172.557 65.6194 173.503 64.5312 173.415 63.2767L172.484 49.9829C172.397 48.7284 171.308 47.7826 170.054 47.8705Z" fill="#2B1FC5"/>
<path d="M140.123 54.0064L123.353 55.2144L123.443 56.4711L140.213 55.2631L140.123 54.0064Z" fill="#FAFAFA"/>
<path d="M153.242 60.2066L123.864 62.3228L123.955 63.5795L153.333 61.4634L153.242 60.2066Z" fill="#FAFAFA"/>
<path d="M166.601 56.2631L123.917 59.251L124.005 60.511L166.69 57.5231L166.601 56.2631Z" fill="#FAFAFA"/>
<path d="M115.295 60.6134C115.683 60.4093 116.002 60.0955 116.213 59.711C116.424 59.3266 116.517 58.8886 116.48 58.4517C116.484 58.1604 116.427 57.8715 116.314 57.6032C116.2 57.3349 116.032 57.093 115.821 56.8927C115.609 56.6924 115.359 56.5381 115.085 56.4395C114.81 56.3409 114.519 56.3001 114.228 56.3197C113.938 56.3393 113.654 56.4189 113.396 56.5535C113.138 56.688 112.91 56.8746 112.727 57.1015C112.544 57.3284 112.411 57.5907 112.334 57.8718C112.258 58.1529 112.241 58.4468 112.284 58.7349C112.309 59.1762 112.464 59.6002 112.73 59.9538C112.995 60.3075 113.358 60.5751 113.775 60.7232C113.119 60.8498 112.515 61.1684 112.041 61.6387C111.567 62.1091 111.243 62.7098 111.11 63.3646C111.92 64.1685 112.994 64.6512 114.133 64.7229L115.422 64.6362C116.556 64.4034 117.566 63.7666 118.266 62.8444C118.05 62.2185 117.651 61.6716 117.122 61.274C116.593 60.8764 115.956 60.6463 115.295 60.6134Z" fill="#FAFAFA"/>
<path d="M114.798 64.7287C114.798 64.694 115.226 64.6825 115.954 64.4397C116.956 64.0874 117.81 63.4098 118.382 62.515C118.776 61.9062 119.021 61.2133 119.098 60.4921C119.184 59.6648 119.051 58.8294 118.711 58.0703C118.53 57.6614 118.286 57.2831 117.989 56.949C117.691 56.5902 117.335 56.2835 116.937 56.0416C116.103 55.5168 115.124 55.2719 114.141 55.3426C113.159 55.4132 112.224 55.7959 111.475 56.4346C110.773 57.0278 110.264 57.8166 110.012 58.7003C109.794 59.447 109.767 60.2368 109.935 60.9966C110.102 61.7564 110.459 62.4615 110.972 63.0468C111.666 63.8521 112.61 64.4015 113.654 64.6073C114.393 64.7461 114.81 64.694 114.81 64.7287C114.712 64.7561 114.611 64.7697 114.509 64.7692C114.213 64.7874 113.917 64.7719 113.625 64.7229C112.536 64.5523 111.54 64.0113 110.804 63.1913C110.295 62.624 109.927 61.9448 109.729 61.2088C109.498 60.3611 109.498 59.467 109.729 58.6194C109.853 58.162 110.048 57.7269 110.307 57.3305C110.566 56.9067 110.892 56.5279 111.272 56.2092C112.066 55.5327 113.054 55.1275 114.094 55.0527C115.134 54.9778 116.17 55.2372 117.052 55.793C117.876 56.3115 118.526 57.0642 118.919 57.9547C119.275 58.7581 119.409 59.6424 119.306 60.5152C119.215 61.2725 118.946 61.9974 118.52 62.6306C117.915 63.5523 117.004 64.2315 115.948 64.5495C115.669 64.6418 115.38 64.7 115.087 64.7229C114.991 64.7356 114.894 64.7375 114.798 64.7287Z" fill="#FAFAFA"/>
<path d="M91.6953 219.323L90.8457 224.23L98.4058 224.779L98.4289 219.959L91.6953 219.323Z" fill="#2B1FC5"/>
<path d="M95.0939 219.393C95.1275 220.141 95.083 220.89 94.961 221.629C94.9119 222.377 94.7919 223.118 94.6026 223.843C94.569 223.095 94.6136 222.345 94.7356 221.606C94.784 220.859 94.904 220.117 95.0939 219.393Z" fill="#263238"/>
<path d="M98.4058 224.248C98.0399 224.259 97.6737 224.232 97.3134 224.167L94.6836 223.878C93.6605 223.756 92.73 223.635 92.0653 223.519C91.6991 223.479 91.3385 223.397 90.9902 223.277C91.356 223.273 91.7214 223.3 92.0826 223.358L94.7125 223.652C95.7355 223.768 96.6661 223.895 97.3366 224.011C97.7009 224.049 98.0596 224.128 98.4058 224.248Z" fill="#263238"/>
<path d="M122.895 223.242L123.861 218.953L115.838 217.092L114.364 223.352L114.85 223.502C117.035 224.138 126.011 226.577 127.594 226.473C129.357 226.352 122.895 223.242 122.895 223.242Z" fill="#2B1FC5"/>
<path d="M117.284 223.965C117.32 223.261 117.098 222.568 116.659 222.017C116.229 221.473 115.61 221.11 114.925 221L114.405 223.242L117.284 223.965Z" fill="#EBEBEB"/>
<path d="M126.016 224.884C126.016 224.884 128.242 226.126 127.854 226.45C127.467 226.774 118.306 224.647 114.353 223.352L114.405 223.179L125.068 225.751C125.068 225.751 125.554 224.791 126.016 224.884Z" fill="#EBEBEB"/>
<path d="M114.289 223.144L114.428 223.19L114.815 223.306L116.26 223.71C117.48 224.04 119.15 224.473 121.052 224.913C122.953 225.352 124.647 225.71 125.884 225.953L127.357 226.23L127.762 226.3H127.901L127.762 226.259L127.363 226.173L125.901 225.866C124.664 225.606 122.953 225.236 121.075 224.797C119.196 224.358 117.503 223.936 116.277 223.641L114.827 223.271L114.434 223.173L114.289 223.144Z" fill="#263238"/>
<path d="M125.046 225.872C125.167 225.647 125.312 225.435 125.479 225.242C125.673 225.071 125.884 224.922 126.109 224.797C125.845 224.848 125.601 224.978 125.412 225.17C125.222 225.362 125.094 225.607 125.046 225.872Z" fill="#263238"/>
<path d="M122.959 224.126C122.959 224.126 123.121 224.034 123.283 223.872C123.444 223.71 123.554 223.571 123.537 223.554C123.519 223.537 123.375 223.647 123.213 223.803C123.051 223.959 122.941 224.103 122.959 224.126Z" fill="#263238"/>
<path d="M122.387 223.629C122.387 223.629 122.549 223.629 122.717 223.508C122.884 223.387 123.006 223.317 122.994 223.294C122.983 223.271 122.832 223.329 122.671 223.421C122.509 223.514 122.376 223.606 122.387 223.629Z" fill="#263238"/>
<path d="M122.155 222.78C122.278 222.857 122.416 222.908 122.56 222.93C122.698 222.975 122.843 222.993 122.988 222.982C122.988 222.953 122.814 222.889 122.583 222.832C122.352 222.774 122.161 222.751 122.155 222.78Z" fill="#263238"/>
<path d="M122.139 222.208C122.139 222.208 122.306 222.369 122.572 222.456C122.729 222.522 122.903 222.538 123.069 222.502C122.918 222.44 122.761 222.392 122.601 222.358C122.45 222.297 122.296 222.247 122.139 222.208Z" fill="#263238"/>
<path d="M123.393 223.485C123.556 223.554 123.73 223.595 123.907 223.606C124.099 223.624 124.293 223.624 124.485 223.606C124.602 223.597 124.718 223.578 124.832 223.549C124.901 223.527 124.959 223.48 124.994 223.416C125.01 223.379 125.017 223.339 125.012 223.299C125.006 223.259 124.99 223.221 124.965 223.19C124.79 223.05 124.573 222.974 124.349 222.974C124.125 222.974 123.908 223.05 123.734 223.19C123.63 223.274 123.546 223.378 123.485 223.497C123.445 223.583 123.433 223.63 123.439 223.635C123.528 223.488 123.641 223.357 123.774 223.248C123.922 223.139 124.099 223.075 124.283 223.063C124.492 223.048 124.699 223.114 124.861 223.248C124.93 223.329 124.861 223.416 124.774 223.45C124.67 223.479 124.563 223.498 124.456 223.508C124.264 223.526 124.07 223.526 123.878 223.508C123.595 223.514 123.398 223.474 123.393 223.485Z" fill="#263238"/>
<path d="M123.52 223.543C123.609 223.451 123.66 223.33 123.664 223.202C123.677 223.063 123.659 222.923 123.612 222.791C123.543 222.653 123.468 222.468 123.242 222.427C123.187 222.427 123.135 222.448 123.095 222.486C123.055 222.523 123.031 222.575 123.028 222.63C123.021 222.714 123.033 222.799 123.063 222.878C123.104 223.008 123.16 223.132 123.231 223.248C123.291 223.358 123.376 223.453 123.479 223.525C123.479 223.525 123.398 223.41 123.294 223.213C123.234 223.099 123.186 222.979 123.15 222.855C123.103 222.728 123.103 222.52 123.236 222.525C123.369 222.531 123.468 222.705 123.525 222.826C123.572 222.944 123.595 223.069 123.595 223.196C123.58 223.314 123.555 223.43 123.52 223.543Z" fill="#263238"/>
<path d="M114.966 220.977C114.966 220.977 115.197 221.005 115.544 221.133C116.009 221.29 116.419 221.578 116.726 221.961C117.033 222.344 117.225 222.806 117.278 223.294C117.318 223.67 117.278 223.901 117.278 223.907C117.3 223.856 117.314 223.801 117.318 223.745C117.331 223.593 117.331 223.44 117.318 223.289C117.282 222.784 117.095 222.302 116.78 221.906C116.466 221.51 116.039 221.218 115.555 221.069C115.412 221.023 115.265 220.992 115.116 220.977C115.066 220.967 115.015 220.967 114.966 220.977Z" fill="#263238"/>
<path d="M116.573 217.844C116.388 218.377 116.238 218.921 116.122 219.474C115.972 220.018 115.852 220.57 115.764 221.127C115.949 220.594 116.1 220.049 116.215 219.497C116.364 218.953 116.484 218.401 116.573 217.844Z" fill="#455A64"/>
<path d="M118.503 223.415C118.869 223.595 119.258 223.726 119.659 223.803C120.048 223.917 120.45 223.977 120.855 223.982C120.855 223.953 120.329 223.866 119.699 223.71C119.069 223.554 118.503 223.392 118.503 223.415Z" fill="#263238"/>
<path d="M116.902 223.051C116.902 223.051 116.902 223.173 116.949 223.306C116.995 223.439 116.977 223.548 117.006 223.554C117.035 223.56 117.076 223.439 117.047 223.283C117.018 223.127 116.925 223.034 116.902 223.051Z" fill="#263238"/>
<path d="M116.485 222.173C116.485 222.173 116.485 222.283 116.555 222.387C116.624 222.491 116.688 222.566 116.711 222.549C116.734 222.531 116.711 222.439 116.641 222.335C116.572 222.231 116.508 222.162 116.485 222.173Z" fill="#263238"/>
<path d="M115.711 221.641C115.711 221.67 115.821 221.693 115.931 221.762C116.04 221.832 116.104 221.913 116.133 221.901C116.162 221.889 116.133 221.762 115.983 221.676C115.832 221.589 115.711 221.612 115.711 221.641Z" fill="#263238"/>
<path d="M115.145 221.34C115.145 221.34 115.145 221.416 115.231 221.456C115.318 221.496 115.353 221.514 115.364 221.491C115.376 221.468 115.364 221.416 115.283 221.375C115.202 221.335 115.162 221.317 115.145 221.34Z" fill="#263238"/>
<path d="M164.695 62.284C164.118 61.4113 160.337 63.7406 160.002 63.914C159.667 64.0873 159.424 63.6134 159.719 63.4747C160.164 63.2724 164.765 61.0298 164.187 60.1686C163.863 59.6946 163.031 60.3535 163.031 60.3535C163.031 60.3535 158.875 62.7638 158.615 62.3476C158.355 61.9315 160.742 60.4229 161.58 59.9779C162.418 59.5328 162.54 58.9606 162.043 58.7525C161.696 58.6138 159.083 59.9085 158.262 60.3882C157.442 60.868 155.211 62.1569 155.783 60.6194C156.355 59.082 156.222 57.6775 155.922 57.3249C155.844 57.25 155.746 57.2012 155.639 57.1853C155.533 57.1695 155.424 57.1873 155.329 57.2365C155.233 57.2856 155.155 57.3635 155.106 57.4592C155.057 57.5549 155.039 57.6635 155.055 57.7699C155.037 58.3248 154.946 58.8749 154.783 59.4056C154.682 59.8461 154.485 60.2586 154.205 60.6136C154.043 60.7928 153.899 60.9662 153.76 61.1281L153.326 61.706C152.783 62.3592 152.511 62.7291 152.511 62.7291L130.768 90.2413L131.924 101.674L157.141 67.4166V67.3877C158.748 66.9853 160.332 66.4971 161.886 65.9254C164.152 64.989 164.071 64.7694 163.915 64.5382C163.499 63.8793 159.869 66.0409 160.384 65.1162C160.898 64.1914 165.158 62.9545 164.695 62.284Z" fill="#E5BAAB"/>
<path d="M103.169 81.9932L106.204 64.2489C106.545 63.8096 107.047 63.1623 107.614 62.3705C107.885 61.9944 108.22 61.6679 108.602 61.4052C109.063 61.0579 109.571 60.7777 110.111 60.5729C110.221 60.5527 110.321 60.4983 110.399 60.4175C110.476 60.3368 110.526 60.2337 110.541 60.123C110.556 60.0123 110.537 59.8996 110.484 59.8009C110.432 59.7021 110.35 59.6224 110.249 59.573C109.804 59.3996 108.383 59.7464 107.07 60.8388C105.758 61.9312 106.273 59.2956 106.446 58.3303C106.62 57.3651 107.024 54.3595 106.747 54.0705C106.371 53.6486 105.851 53.9723 105.706 54.9433C105.562 55.9143 104.909 58.7754 104.406 58.6598C103.903 58.5442 104.839 53.6544 104.839 53.6544C104.839 53.6544 105.209 52.6371 104.631 52.4984C103.585 52.2268 102.978 57.5038 102.932 58.0066C102.897 58.3592 102.354 58.2552 102.4 57.8795C102.447 57.5038 103.447 53.0128 102.4 52.7296C101.585 52.5042 101.863 57.0645 101.14 57.8795C100.418 58.6945 101.285 54.4116 100.499 54.2208C100.204 54.1572 99.9786 54.1457 99.8341 56.6831C99.8146 58.5122 99.8898 60.3411 100.059 62.1624C99.9381 62.8213 96.4413 81.9469 96.2101 84.8022C95.9789 87.6574 105.787 104.535 105.787 104.535L112.561 97.5988L103.169 81.9932Z" fill="#E5BAAB"/>
<path d="M98.7995 93.5126C98.5625 94.0328 102.845 100.026 105.024 104.569L106.943 117.222C104.741 121.268 102.215 125.955 100.996 131.14C109.695 135.186 119.596 134.712 129.109 132.874L127.115 118.904L130.439 105.032L138.652 95.1251L132.681 87.1836L126.15 94.1541L123.069 94.9171C120.26 95.6164 115.07 95.1598 112.423 93.975L107.995 88.2702L98.7995 93.5126Z" fill="#2B1FC5"/>
<path d="M119.884 116.436C119.475 116.695 119.029 116.89 118.56 117.014C117.441 117.389 116.273 117.601 115.092 117.644C113.915 117.685 112.737 117.558 111.595 117.268C111.118 117.174 110.658 117.006 110.231 116.771C111.818 117.161 113.447 117.356 115.081 117.349C116.713 117.24 118.326 116.933 119.884 116.436Z" fill="#263238"/>
<path d="M132.647 102.633C132.559 102.733 132.453 102.816 132.334 102.876C132.024 103.066 131.69 103.213 131.34 103.315C130.17 103.672 128.906 103.561 127.816 103.005C126.726 102.448 125.894 101.49 125.497 100.333C125.369 99.9935 125.291 99.6372 125.266 99.2753C125.266 99.021 125.266 98.8765 125.266 98.8765C125.376 99.3443 125.513 99.8055 125.676 100.258C126.102 101.331 126.905 102.212 127.933 102.736C128.962 103.261 130.146 103.393 131.265 103.107C132.149 102.905 132.618 102.581 132.647 102.633Z" fill="#263238"/>
<path d="M137.53 96.3562C137.232 95.9478 136.969 95.5147 136.744 95.0615C136.282 94.2581 135.64 93.1484 134.889 91.9461C134.138 90.7439 133.421 89.6804 132.895 88.9117C132.585 88.5126 132.31 88.0871 132.074 87.6401C132.45 87.9846 132.784 88.3727 133.068 88.7961C133.646 89.5359 134.386 90.5879 135.143 91.7959C135.9 93.0039 136.519 94.1367 136.935 94.9748C137.184 95.4119 137.384 95.8752 137.53 96.3562Z" fill="#263238"/>
<path d="M108.873 89.1953C108.445 89.5025 107.991 89.7713 107.515 89.9987L104.203 91.8309L100.92 93.7267C100.481 94.0165 100.017 94.2661 99.5332 94.4723C99.9267 94.1201 100.355 93.8083 100.811 93.5418C101.62 93.01 102.764 92.2991 104.053 91.5708C105.342 90.8426 106.544 90.2299 107.417 89.8369C107.88 89.5757 108.368 89.3608 108.873 89.1953Z" fill="#263238"/>
<path d="M106.544 100.31C106.462 100.808 106.323 101.295 106.128 101.76C106.022 102.254 105.857 102.733 105.637 103.188C105.568 102.672 105.638 102.148 105.839 101.668C105.946 101.159 106.19 100.69 106.544 100.31Z" fill="#263238"/>
<path d="M121.549 94.9117C121.445 93.6227 121.387 92.1604 121.387 92.1604C121.387 92.1604 124.502 91.3975 124.277 88.1145C124.051 84.8315 122.861 77.3177 122.861 77.3177L116.717 75.1387L111.035 80.9648L114.133 97.1485L120.011 96.7612C120.457 96.7116 120.866 96.4912 121.153 96.1463C121.44 95.8015 121.581 95.3589 121.549 94.9117Z" fill="#E5BAAB"/>
<path d="M120.694 86.1778C120.694 86.1778 120.694 86.2414 120.665 86.3281C120.625 86.3857 120.574 86.434 120.514 86.47C120.454 86.5059 120.388 86.5284 120.318 86.5362C119.948 86.5362 119.544 86.2067 119.347 85.727C119.256 85.4977 119.218 85.2506 119.237 85.0045C119.235 84.8982 119.26 84.793 119.309 84.6989C119.359 84.6049 119.431 84.525 119.521 84.467C119.559 84.4504 119.6 84.4419 119.642 84.4419C119.684 84.4419 119.725 84.4504 119.763 84.467C119.823 84.4874 119.875 84.5283 119.908 84.5826C119.966 84.675 119.937 84.7386 119.908 84.7328C119.879 84.7271 119.908 84.6808 119.833 84.623C119.794 84.59 119.745 84.5719 119.694 84.5719C119.643 84.5719 119.594 84.59 119.555 84.623C119.491 84.6759 119.441 84.7435 119.409 84.8199C119.377 84.8964 119.363 84.9796 119.37 85.0623C119.365 85.2818 119.404 85.5002 119.486 85.7039C119.659 86.1374 120.012 86.4552 120.289 86.4552C120.402 86.4542 120.51 86.4085 120.59 86.3281C120.665 86.224 120.682 86.1778 120.694 86.1778Z" fill="#D78776"/>
<path d="M122.017 74.7918L122.144 74.9652C121.013 74.1555 119.617 73.8044 118.237 73.9826C116.797 74.0518 115.383 74.3931 114.07 74.9883C113.717 75.1502 113.365 75.312 113.018 75.4854C113.206 75.1843 113.354 74.8598 113.457 74.5202C113.629 74.0023 113.641 73.4448 113.492 72.92C113.342 72.3953 113.038 71.9277 112.619 71.5782C112.148 71.2759 111.583 71.155 111.029 71.2379C110.475 71.3208 109.97 71.6019 109.608 72.029C109.271 72.4775 109.089 73.0231 109.089 73.5838C109.089 74.1446 109.271 74.6902 109.608 75.1386C109.856 75.4563 110.167 75.7187 110.523 75.9088C110.878 76.0989 111.269 76.2126 111.671 76.2426C111.44 76.3986 111.215 76.5605 111.001 76.7339C110.097 77.4899 109.417 78.4784 109.034 79.5928C108.651 80.7072 108.579 81.9051 108.828 83.0571C108.996 83.6812 109.217 84.2902 109.486 84.8777C109.532 85.3966 109.51 85.9191 109.423 86.4325C109.323 87.0626 109.076 87.6602 108.701 88.1765C108.327 88.6928 107.835 89.1132 107.267 89.4034C106.832 89.5316 106.436 89.7637 106.111 90.0796C105.979 90.2985 105.909 90.5493 105.909 90.805C105.909 91.0606 105.979 91.3114 106.111 91.5304C106.339 91.9192 106.646 92.2565 107.011 92.5211C107.376 92.7857 107.792 92.9719 108.232 93.0678C108.371 93.1017 108.512 93.1268 108.654 93.143C108.553 93.8392 108.64 94.55 108.908 95.2006C109.482 96.119 110.312 96.8496 111.296 97.3025C112.28 97.7553 113.375 97.9107 114.446 97.7495L114.532 96.2178L115.11 97.9518C115.11 97.9518 117.041 98.6743 121.393 96.7091C122.844 96.0444 120.717 90.7732 120.717 90.7732C119.636 89.7039 119.983 87.9295 119.983 87.9295C119.069 88.0451 118.179 85.658 118.37 84.8604C118.444 84.4553 118.652 84.0866 118.96 83.8132C119.268 83.5398 119.658 83.3774 120.069 83.3518C120.434 83.3518 120.341 85.2245 121.289 85.0164C122.092 85.0164 121.792 83.5194 122.04 82.7681C122.618 81.1324 123.705 78.8435 123.306 77.1674C124.566 75.6588 123.306 73.8381 122.017 74.7918Z" fill="#263238"/>
<path d="M107.181 80.0689C106.988 79.7157 106.936 79.3026 107.036 78.9129C107.104 78.4945 107.27 78.0982 107.522 77.7569C107.83 77.3247 108.27 77.0043 108.776 76.8437C109.27 76.7271 109.776 76.667 110.284 76.6645C110.671 76.6571 111.048 76.5453 111.377 76.3409C111.524 76.2442 111.651 76.1194 111.75 75.9736C111.85 75.8278 111.919 75.6639 111.955 75.4912C111.955 75.4912 112.013 75.5953 111.955 75.8033C111.888 76.0914 111.717 76.3447 111.475 76.5143C111.129 76.7705 110.715 76.9193 110.284 76.942C109.8 76.9555 109.318 77.0174 108.845 77.1269C108.442 77.271 108.082 77.5144 107.798 77.8347C107.514 78.155 107.316 78.5417 107.221 78.9591C107.169 79.3266 107.155 79.6986 107.181 80.0689Z" fill="#263238"/>
<path d="M120.983 96.5008C121.237 96.1329 121.463 95.7465 121.659 95.3448C121.862 94.8542 121.959 94.3266 121.945 93.7959C121.931 93.2653 121.806 92.7435 121.578 92.2642C121.289 91.7409 120.968 91.2352 120.619 90.7498C120.324 90.3337 120.106 89.8676 119.977 89.3742C119.898 89.1495 119.87 88.91 119.895 88.673C119.92 88.436 119.997 88.2076 120.122 88.0044C120.041 88.4427 120.063 88.8937 120.185 89.3222C120.336 89.7782 120.559 90.2074 120.844 90.5938C121.215 91.0801 121.551 91.5919 121.85 92.1255C122.131 92.6935 122.261 93.3247 122.226 93.9577C122.197 94.4687 122.07 94.9693 121.85 95.4315C121.703 95.7397 121.508 96.0226 121.272 96.2696C121.11 96.4372 120.994 96.5124 120.983 96.5008Z" fill="#263238"/>
<path d="M101.325 131.279L89.1123 219.873L101.25 220.243C101.25 220.243 113.631 142.26 114.446 142.717C115.261 143.174 123.537 176.368 123.173 178.402C122.965 179.558 113.619 219.364 114.284 219.208C114.948 219.052 125.994 220.167 125.994 220.167C125.994 220.167 135.513 178.304 135.374 177.292C135.045 174.83 128.785 130.204 128.785 130.204L101.325 131.279Z" fill="#263238"/>
<path d="M119 143.786C118.488 143.766 117.98 143.686 117.486 143.549C115.075 143.024 112.725 142.249 110.475 141.237C109.999 141.051 109.545 140.812 109.122 140.526C109.616 140.656 110.097 140.828 110.561 141.041C111.44 141.382 112.654 141.838 114.029 142.289C115.405 142.74 116.636 143.098 117.549 143.347C118.044 143.453 118.529 143.6 119 143.786Z" fill="#455A64"/>
<path d="M122.381 219.82C122.462 219.82 122.462 220.167 122.381 220.554C122.3 220.942 122.161 221.248 122.08 221.231C121.999 221.213 121.999 220.884 122.08 220.491C122.161 220.098 122.3 219.82 122.381 219.82Z" fill="#455A64"/>
<path d="M123.59 214.231C123.599 215.193 123.402 216.145 123.012 217.023C122.965 216.542 123.018 216.056 123.168 215.596C123.216 215.117 123.359 214.653 123.59 214.231Z" fill="#455A64"/>
<path d="M124.803 208.66C124.807 209.619 124.61 210.568 124.225 211.446C124.218 210.487 124.415 209.537 124.803 208.66Z" fill="#455A64"/>
<path d="M126.016 203.059C126.063 203.54 126.01 204.026 125.86 204.486C125.805 204.966 125.654 205.43 125.415 205.85C125.365 205.369 125.416 204.883 125.565 204.423C125.621 203.942 125.774 203.478 126.016 203.059Z" fill="#455A64"/>
<path d="M127.225 197.51C127.229 198.469 127.032 199.418 126.647 200.296C126.64 199.337 126.837 198.388 127.225 197.51Z" fill="#455A64"/>
<path d="M128.433 191.933C128.429 192.896 128.223 193.847 127.826 194.724C127.83 193.761 128.037 192.81 128.433 191.933Z" fill="#455A64"/>
<path d="M129.641 186.361C129.688 186.84 129.637 187.324 129.491 187.783C129.437 188.264 129.283 188.728 129.04 189.147C129.038 188.188 129.235 187.24 129.618 186.361H129.641Z" fill="#455A64"/>
<path d="M130.855 180.783C130.851 181.746 130.644 182.697 130.248 183.575C130.252 182.612 130.458 181.661 130.855 180.783Z" fill="#455A64"/>
<path d="M131.219 175.177C131.428 175.613 131.546 176.087 131.566 176.57C131.618 176.926 131.649 177.285 131.658 177.645V177.674C131.583 177.882 131.525 177.997 131.491 177.992C131.456 177.986 131.444 177.847 131.491 177.627V177.662C131.401 177.314 131.333 176.961 131.288 176.604C131.167 176.138 131.144 175.652 131.219 175.177Z" fill="#455A64"/>
<path d="M130.409 169.536C130.618 169.971 130.734 170.446 130.75 170.929C130.868 171.398 130.884 171.886 130.796 172.362C130.588 171.926 130.471 171.452 130.455 170.969C130.338 170.5 130.322 170.011 130.409 169.536Z" fill="#455A64"/>
<path d="M129.624 163.877C129.835 164.312 129.953 164.786 129.97 165.27C130.085 165.739 130.1 166.227 130.017 166.703C129.808 166.267 129.69 165.793 129.67 165.31C129.559 164.84 129.543 164.353 129.624 163.877Z" fill="#455A64"/>
<path d="M128.843 158.224C129.052 158.66 129.17 159.134 129.19 159.617C129.301 160.087 129.316 160.574 129.236 161.05C129.025 160.615 128.906 160.141 128.889 159.658C128.775 159.188 128.759 158.7 128.843 158.224Z" fill="#455A64"/>
<path d="M128.063 152.571C128.271 153.007 128.388 153.481 128.404 153.964C128.521 154.433 128.537 154.922 128.45 155.398C128.245 154.961 128.129 154.487 128.109 154.005C127.995 153.535 127.979 153.047 128.063 152.571Z" fill="#455A64"/>
<path d="M127.277 146.924C127.488 147.359 127.606 147.834 127.623 148.317C127.738 148.787 127.754 149.275 127.67 149.751C127.461 149.315 127.345 148.841 127.329 148.358C127.214 147.888 127.197 147.401 127.277 146.924Z" fill="#455A64"/>
<path d="M126.497 141.272C126.706 141.708 126.824 142.182 126.843 142.665C126.958 143.134 126.973 143.622 126.89 144.098C126.681 143.662 126.563 143.188 126.543 142.705C126.432 142.235 126.416 141.748 126.497 141.272Z" fill="#455A64"/>
<path d="M125.907 137.018C125.994 137.018 126.103 137.319 126.155 137.712C126.207 138.105 126.19 138.434 126.109 138.446C126.028 138.457 125.913 138.145 125.861 137.752C125.809 137.359 125.826 137.03 125.907 137.018Z" fill="#455A64"/>
<path d="M113.041 220.855L126.52 221.647L127.231 217.786L113.798 217.249L113.041 220.855Z" fill="#455A64"/>
<path d="M88.3145 219.867L101.799 220.653L102.504 216.798L89.0716 216.26L88.3145 219.867Z" fill="#455A64"/>
<path d="M111.925 143.179C111.844 143.179 111.844 142.826 111.925 142.439C112.006 142.052 112.133 141.746 112.214 141.763C112.295 141.78 112.301 142.11 112.214 142.497C112.127 142.884 112.006 143.191 111.925 143.179Z" fill="#455A64"/>
<path d="M110.786 148.728C110.736 148.249 110.783 147.766 110.925 147.306C110.972 146.829 111.118 146.366 111.353 145.948C111.362 146.905 111.165 147.853 110.775 148.728H110.786Z" fill="#455A64"/>
<path d="M109.678 154.305C109.622 153.828 109.666 153.344 109.805 152.884C109.852 152.405 109.996 151.941 110.227 151.52C110.289 151.997 110.245 152.482 110.099 152.941C110.055 153.42 109.911 153.885 109.678 154.305Z" fill="#455A64"/>
<path d="M108.59 159.877C108.532 159.4 108.573 158.916 108.712 158.455C108.756 157.977 108.897 157.513 109.128 157.091C109.186 157.569 109.145 158.053 109.006 158.513C108.961 158.991 108.82 159.455 108.59 159.877Z" fill="#455A64"/>
<path d="M107.521 165.455C107.462 164.978 107.501 164.494 107.637 164.033C107.679 163.553 107.819 163.087 108.047 162.663C108.113 163.139 108.076 163.624 107.937 164.085C107.897 164.566 107.755 165.033 107.521 165.455Z" fill="#455A64"/>
<path d="M106.504 171.038C106.471 170.082 106.645 169.13 107.012 168.247C107.075 168.723 107.037 169.207 106.903 169.668C106.864 170.147 106.728 170.613 106.504 171.038Z" fill="#455A64"/>
<path d="M105.509 176.628C105.474 175.671 105.642 174.718 106.001 173.83C106.068 174.306 106.034 174.79 105.903 175.252C105.869 175.733 105.735 176.201 105.509 176.628Z" fill="#455A64"/>
<path d="M104.55 182.216C104.513 181.261 104.675 180.309 105.024 179.419C105.098 179.896 105.069 180.383 104.937 180.847C104.907 181.326 104.775 181.793 104.55 182.216Z" fill="#455A64"/>
<path d="M103.637 187.817C103.559 187.343 103.584 186.858 103.713 186.395C103.741 185.916 103.869 185.447 104.088 185.02C104.16 185.494 104.135 185.977 104.013 186.441C103.984 186.921 103.857 187.389 103.637 187.817Z" fill="#455A64"/>
<path d="M102.759 193.424C102.706 192.469 102.853 191.514 103.192 190.621C103.246 191.575 103.099 192.53 102.759 193.424Z" fill="#455A64"/>
<path d="M101.92 199.042C101.844 198.567 101.864 198.082 101.978 197.614C101.999 197.134 102.121 196.663 102.337 196.233C102.413 196.708 102.393 197.193 102.279 197.661C102.258 198.141 102.136 198.612 101.92 199.042Z" fill="#455A64"/>
<path d="M101.163 204.66C101.076 204.186 101.089 203.7 101.204 203.232C101.224 202.753 101.342 202.282 101.551 201.851C101.634 202.323 101.618 202.807 101.504 203.272C101.485 203.753 101.369 204.225 101.163 204.66Z" fill="#455A64"/>
<path d="M100.388 210.284C100.287 209.815 100.287 209.33 100.388 208.862C100.404 208.381 100.518 207.909 100.724 207.475C100.8 208.426 100.676 209.383 100.36 210.284H100.388Z" fill="#455A64"/>
<path d="M99.6837 215.919C99.5973 214.967 99.7155 214.007 100.03 213.104C100.127 213.573 100.127 214.057 100.03 214.526C100.018 215.01 99.8992 215.485 99.6837 215.919Z" fill="#455A64"/>
<path d="M99.1862 220.173C99.1053 220.173 99.0764 219.838 99.1227 219.439C99.1689 219.04 99.2729 218.728 99.3538 218.74C99.4348 218.751 99.4637 219.081 99.4174 219.474C99.3712 219.867 99.2729 220.185 99.1862 220.173Z" fill="#455A64"/>
<path d="M131.138 178.205C129.966 178.204 128.795 178.142 127.629 178.02C126.456 177.995 125.285 177.906 124.121 177.754C126.469 177.557 128.834 177.709 131.138 178.205Z" fill="#455A64"/>
<path d="M130.473 176.76C128.531 177.18 126.529 177.254 124.561 176.98C125.541 176.867 126.527 176.817 127.514 176.83C128.498 176.743 129.486 176.719 130.473 176.76Z" fill="#455A64"/>
<path d="M99.892 180.98C98.7876 179.516 97.8458 177.936 97.083 176.269C98.1874 177.733 99.1293 179.312 99.892 180.98Z" fill="#455A64"/>
<path d="M129.132 133.538C129.132 133.538 129.132 133.689 129.132 133.943C129.08 134.309 129.001 134.67 128.895 135.024C128.746 135.565 128.466 136.061 128.08 136.469C127.828 136.714 127.528 136.904 127.198 137.026C126.869 137.149 126.517 137.201 126.167 137.18C125.487 137.144 124.819 136.986 124.196 136.711C123.681 136.505 123.204 136.214 122.785 135.85C122.37 135.538 122.093 135.075 122.017 134.561C122.245 134.991 122.553 135.374 122.924 135.688C123.34 136.012 123.804 136.27 124.3 136.451C124.895 136.699 125.528 136.843 126.172 136.879C126.487 136.902 126.804 136.86 127.102 136.755C127.4 136.651 127.674 136.486 127.906 136.272C128.274 135.901 128.551 135.45 128.716 134.954C128.981 134.099 129.08 133.527 129.132 133.538Z" fill="#455A64"/>
<path d="M112.214 141.792C112.214 141.792 112.116 141.723 111.971 141.578C111.739 141.397 111.524 141.194 111.33 140.971C111.024 140.642 110.776 140.263 110.596 139.85C110.498 139.313 110.473 138.764 110.521 138.22C110.584 137.064 110.717 136.07 110.816 135.33C110.845 134.938 110.921 134.55 111.041 134.174C111.139 134.174 110.972 136.012 110.821 138.255C110.775 138.767 110.789 139.283 110.862 139.792C111.023 140.175 111.237 140.533 111.498 140.856C111.694 141.162 111.931 141.33 112.076 141.521C112.22 141.711 112.232 141.752 112.214 141.792Z" fill="#455A64"/>
</svg>
