<svg width="273" height="244" viewBox="0 0 273 244" fill="none" xmlns="http://www.w3.org/2000/svg">
<path d="M79.9424 9.51233H20.6914V71.2718H79.9424V9.51233Z" fill="#E0E0E0"/>
<path d="M75.9288 9.51233H16.6777V71.2718H75.9288V9.51233Z" fill="#FAFAFA"/>
<path d="M75.9467 71.2717H16.6665V9.49475H75.9467V71.2717ZM16.6957 71.2717H75.9117V9.53559H16.6957V71.2717Z" fill="#E0E0E0"/>
<path d="M67.9603 17.8192H24.6406V62.9765H67.9603V17.8192Z" fill="#FAFAFA"/>
<path d="M24.6407 63.2739C24.3363 63.7296 23.9778 64.1468 23.5732 64.5165C22.8849 65.2457 21.9107 66.2665 20.8198 67.3107C19.7289 68.3549 18.7314 69.3408 17.9905 70.0175C17.6139 70.4124 17.193 70.7628 16.7363 71.0617C17.0511 70.607 17.4193 70.1918 17.833 69.825C18.5214 69.0958 19.4956 68.0749 20.5923 67.0249C21.689 65.9748 22.6865 64.989 23.4274 64.3123C23.7911 63.9212 24.1982 63.5728 24.6407 63.2739Z" fill="#E0E0E0"/>
<path d="M67.9604 63.1631C68.4143 63.4699 68.8313 63.8281 69.203 64.2306C69.938 64.9248 70.9239 65.899 71.9973 66.984C73.0706 68.0691 74.0273 69.0783 74.704 69.8191C75.1022 70.1906 75.4529 70.6099 75.7482 71.0675C75.2956 70.7635 74.8805 70.4071 74.5115 70.0058C73.7823 69.3116 72.7906 68.3374 71.7114 67.2465C70.6322 66.1557 69.6813 65.1465 68.9988 64.4115C68.6049 64.0375 68.2564 63.6185 67.9604 63.1631Z" fill="#E0E0E0"/>
<path d="M67.8438 17.936C68.1506 17.4821 68.5088 17.0651 68.9113 16.6934C69.6055 15.9642 70.5797 14.9784 71.6647 13.905C72.7497 12.8316 73.7589 11.8749 74.4998 11.1924C74.8722 10.7969 75.2914 10.4482 75.7482 10.1541C75.4441 10.6066 75.0878 11.0217 74.6865 11.3908C73.9923 12.1199 73.0181 13.1116 71.9272 14.185C70.8363 15.2584 69.8271 16.2209 69.0921 16.9034C68.7193 17.2969 68.3001 17.6436 67.8438 17.936Z" fill="#E0E0E0"/>
<path d="M24.5241 18.0466C24.0684 17.7421 23.6512 17.3837 23.2815 16.9791C22.5523 16.2907 21.5665 15.3165 20.4931 14.2257C19.4197 13.1348 18.463 12.1373 17.7805 11.3964C17.3856 11.0197 17.0352 10.5989 16.7363 10.1422C17.1894 10.4412 17.6063 10.7916 17.9789 11.1864C18.7081 11.8748 19.7289 12.849 20.7731 13.9457C21.8173 15.0424 22.809 16.0399 23.4857 16.7808C23.8839 17.1572 24.2328 17.5825 24.5241 18.0466Z" fill="#E0E0E0"/>
<path d="M67.8437 62.9765C67.8437 62.9765 67.8437 62.8948 67.8437 62.7548C67.8437 62.6148 67.8437 62.3931 67.8437 62.1248C67.8437 61.5414 67.8437 60.7422 67.8437 59.6864C67.8437 57.5455 67.8437 54.4362 67.7971 50.4811C67.7971 42.5767 67.7504 31.3063 67.7096 17.8134L67.8787 17.9767H24.7107L24.8974 17.7842C24.8974 34.3572 24.8974 49.8686 24.8974 62.9415L24.7341 62.7723L56.0134 62.8598L64.7986 62.9006H67.132H67.7154H67.9254H67.7329H67.1496H64.857L56.1067 62.9415L24.7224 63.029H24.5532V62.8656C24.5532 49.7869 24.5532 34.2814 24.5532 17.7084V17.6034H24.7457H67.9137H68.0012V17.7726C67.9662 31.3063 67.9371 42.6117 67.9137 50.5453C67.9137 54.477 67.8787 57.5805 67.8729 59.7097C67.8729 60.7539 67.8729 61.5589 67.8729 62.1131C67.8729 62.3756 67.8729 62.5798 67.8729 62.7256C67.8714 62.81 67.8616 62.894 67.8437 62.9765Z" fill="#E0E0E0"/>
<path d="M53.5282 33.1672H39.0728V47.6227H53.5282V33.1672Z" fill="#EBEBEB"/>
<path d="M223.014 10.6182L217.292 10.6492L217.446 39.1338L223.168 39.1028L223.014 10.6182Z" fill="#E0E0E0"/>
<path d="M182.52 10.6974L167.697 10.7776L167.782 26.5045L182.605 26.4243L182.52 10.6974Z" fill="#EBEBEB"/>
<path d="M197.283 10.6175L182.455 10.6978L182.54 26.4247L197.368 26.3445L197.283 10.6175Z" fill="#F5F5F5"/>
<path d="M167.719 15.13C177.57 15.2117 187.431 15.167 197.301 14.9958C197.343 14.9958 197.383 14.9793 197.412 14.9497C197.442 14.9202 197.458 14.8801 197.458 14.8383C197.458 14.7966 197.442 14.7565 197.412 14.727C197.383 14.6974 197.343 14.6808 197.301 14.6808C187.448 14.6283 177.566 14.6808 167.719 14.8617C167.684 14.8617 167.649 14.8758 167.624 14.901C167.599 14.9261 167.585 14.9603 167.585 14.9958C167.585 15.0314 167.599 15.0656 167.624 15.0907C167.649 15.1159 167.684 15.13 167.719 15.13Z" fill="#E0E0E0"/>
<path d="M185.386 26.1638L158.453 26.3096L158.522 39.1256L185.455 38.9799L185.386 26.1638Z" fill="#EBEBEB"/>
<path d="M212.195 26.0188L185.262 26.1646L185.332 38.9806L212.264 38.8349L212.195 26.0188Z" fill="#F5F5F5"/>
<path d="M158.473 29.8829C176.364 30.0871 194.32 29.8829 212.217 29.6145C212.259 29.6145 212.299 29.598 212.329 29.5684C212.358 29.5389 212.375 29.4988 212.375 29.457C212.375 29.4153 212.358 29.3752 212.329 29.3457C212.299 29.3161 212.259 29.2995 212.217 29.2995C194.326 29.2062 176.364 29.2179 158.473 29.6145C158.437 29.6145 158.403 29.6287 158.378 29.6538C158.353 29.679 158.339 29.7131 158.339 29.7487C158.339 29.7843 158.353 29.8184 158.378 29.8436C158.403 29.8688 158.437 29.8829 158.473 29.8829Z" fill="#E0E0E0"/>
<path d="M252.755 39.1349H148.399V43.7259H252.755V39.1349Z" fill="#E0E0E0"/>
<path d="M169.72 41.34H165.485V50.5569H169.72V41.34Z" fill="#E0E0E0"/>
<path d="M232.962 41.34H228.727V50.5569H232.962V41.34Z" fill="#E0E0E0"/>
<path d="M228.604 4.3347e-05L222.881 0.0310059L223.093 39.2083L228.816 39.1774L228.604 4.3347e-05Z" fill="#EBEBEB"/>
<path d="M237.551 7.29611L228.655 7.34424L228.827 39.0956L237.723 39.0475L237.551 7.29611Z" fill="#F5F5F5"/>
<path d="M237.488 13.4207C236.012 13.5782 234.527 13.6309 233.043 13.5782C231.558 13.6308 230.07 13.5782 228.592 13.4207C231.554 13.2185 234.526 13.2185 237.488 13.4207Z" fill="#E0E0E0"/>
<path d="M237.488 12.0907C236.012 12.2409 234.527 12.2916 233.043 12.2424C231.558 12.2914 230.071 12.2407 228.592 12.0907C231.554 11.8807 234.527 11.8807 237.488 12.0907Z" fill="#E0E0E0"/>
<path d="M237.488 34.2814C234.526 34.4836 231.554 34.4836 228.592 34.2814C231.554 34.0714 234.527 34.0714 237.488 34.2814Z" fill="#E0E0E0"/>
<path d="M237.488 32.9455C234.526 33.1477 231.554 33.1477 228.592 32.9455C231.554 32.7433 234.526 32.7433 237.488 32.9455Z" fill="#E0E0E0"/>
<path d="M233.189 30.0346C233.101 30.0346 233.031 26.832 233.031 22.8827C233.031 18.9334 233.101 15.725 233.189 15.725C233.276 15.725 233.34 18.9276 233.34 22.8827C233.34 26.8378 233.27 30.0346 233.189 30.0346Z" fill="#E0E0E0"/>
<path d="M247.271 15.1007H237.587V39.0648H247.271V15.1007Z" fill="#EBEBEB"/>
<path d="M227.303 6.70047C227.303 7.02583 227.206 7.34389 227.026 7.61441C226.845 7.88494 226.588 8.09579 226.287 8.2203C225.987 8.34481 225.656 8.37739 225.337 8.31391C225.018 8.25044 224.725 8.09376 224.495 7.8637C224.264 7.63363 224.108 7.34051 224.044 7.0214C223.981 6.70229 224.013 6.37153 224.138 6.07094C224.262 5.77034 224.473 5.51342 224.744 5.33266C225.014 5.1519 225.332 5.05542 225.658 5.05542C226.094 5.05542 226.512 5.22874 226.821 5.53724C227.129 5.84575 227.303 6.26418 227.303 6.70047Z" fill="#E0E0E0"/>
<path d="M226.165 11.2273H225.15V34.5322H226.165V11.2273Z" fill="#E0E0E0"/>
<path d="M224.416 65.3798C225.589 64.3505 226.893 63.4815 228.295 62.7955L228.417 58.4787L235.418 57.0962L237.168 61.0455C238.726 61.1458 240.264 61.4538 241.741 61.9613L244.88 58.9921L250.818 62.9764L249.261 67.0073C250.293 68.1784 251.162 69.4832 251.845 70.8866L256.168 71.0091L257.55 78.0093L253.595 79.7594C253.496 81.3157 253.19 82.8518 252.685 84.327L255.648 87.4655L251.687 93.439L247.674 91.8698C246.5 92.9008 245.193 93.7699 243.789 94.454L243.672 98.7708L236.672 100.153L234.922 96.2041C233.363 96.1037 231.825 95.7957 230.348 95.2882L227.21 98.2575L221.271 94.2732L222.829 90.2422C221.797 89.0712 220.928 87.7663 220.245 86.3629L215.922 86.2404L214.54 79.2402L218.489 77.4902C218.592 75.934 218.9 74.3982 219.405 72.9225L216.441 69.7841L220.42 63.8456L224.451 65.3973L224.416 65.3798ZM229.847 74.0834C229.001 75.3436 228.549 76.8261 228.546 78.3435C228.544 79.8608 228.991 81.3449 229.832 82.6079C230.673 83.8709 231.87 84.8561 233.271 85.439C234.672 86.0218 236.214 86.1761 237.703 85.8823C239.191 85.5885 240.56 84.8598 241.634 83.7884C242.708 82.7169 243.441 81.3509 243.739 79.8631C244.037 78.3753 243.887 76.8325 243.308 75.4299C242.729 74.0273 241.748 72.8279 240.487 71.9833C238.797 70.8514 236.727 70.4367 234.732 70.8305C232.737 71.2243 230.98 72.3944 229.847 74.0834Z" fill="#2B1FC5"/>
<path d="M192.185 62.5856C192.844 62.1856 193.555 61.8774 194.297 61.6698L194.729 59.5814L198.258 59.5172L198.765 61.5881C199.514 61.772 200.234 62.0566 200.906 62.434L202.691 61.2673L205.235 63.7232L204.126 65.5432C204.525 66.2026 204.834 66.913 205.042 67.655L207.131 68.0925L207.195 71.6218L205.124 72.1293C204.935 72.8764 204.651 73.596 204.278 74.2702L205.445 76.0552L202.989 78.5928L201.169 77.4844C200.508 77.883 199.798 78.1929 199.057 78.4061L198.62 80.4945L195.09 80.5529L194.583 78.482C193.835 78.2981 193.115 78.0156 192.442 77.6419L190.657 78.8086L188.119 76.3586L189.228 74.5327C188.826 73.874 188.516 73.1635 188.306 72.4209L186.218 71.9893L186.159 68.46L188.23 67.9525C188.412 67.2041 188.695 66.4839 189.07 65.8116L187.903 64.0265L190.353 61.4831L192.179 62.5915L192.185 62.5856ZM194.064 67.2874C193.544 67.8262 193.195 68.5069 193.062 69.2437C192.929 69.9805 193.017 70.7401 193.316 71.4267C193.615 72.1132 194.11 72.6958 194.74 73.1008C195.37 73.5058 196.105 73.715 196.854 73.7019C197.602 73.6889 198.33 73.4542 198.945 73.0275C199.561 72.6008 200.036 72.0013 200.31 71.3048C200.585 70.6083 200.646 69.846 200.488 69.1143C200.329 68.3826 199.957 67.7144 199.419 67.1941C199.061 66.8485 198.639 66.5767 198.176 66.3943C197.713 66.2119 197.219 66.1225 196.722 66.1312C196.225 66.1398 195.734 66.2464 195.278 66.4448C194.822 66.6432 194.409 66.9295 194.064 67.2874Z" fill="#455A64"/>
<path d="M194.064 67.2874C194.263 67.0436 194.502 66.8346 194.77 66.6691C195.502 66.195 196.376 65.9889 197.243 66.0857C197.841 66.1453 198.417 66.3452 198.923 66.6691C199.502 67.0492 199.969 67.5768 200.276 68.1975C200.447 68.5307 200.563 68.8891 200.621 69.2592C200.685 69.6454 200.685 70.0396 200.621 70.4259C200.514 71.2487 200.146 72.0155 199.571 72.6134C198.992 73.2064 198.241 73.6006 197.424 73.7393C197.038 73.8034 196.643 73.8034 196.257 73.7393C195.886 73.6935 195.524 73.5912 195.184 73.436C194.55 73.1507 194.006 72.6991 193.609 72.1293C193.184 71.5275 192.942 70.8151 192.914 70.0788C192.886 69.3425 193.073 68.6139 193.451 67.9816C193.607 67.7114 193.803 67.4673 194.035 67.2583C194.035 67.2583 193.807 67.5091 193.515 68.0283C193.111 68.7663 192.963 69.618 193.095 70.4492C193.195 71.0591 193.445 71.6345 193.823 72.1234C194.201 72.6123 194.695 72.9993 195.26 73.2493C195.583 73.3958 195.928 73.4922 196.28 73.5351C196.645 73.5963 197.018 73.5963 197.383 73.5351C198.155 73.4047 198.866 73.03 199.41 72.4662C199.953 71.9024 200.302 71.1791 200.405 70.4025C200.463 70.0373 200.463 69.6652 200.405 69.3C200.352 68.9494 200.246 68.609 200.09 68.2908C199.861 67.8263 199.538 67.4143 199.142 67.0808C198.746 66.7473 198.285 66.4995 197.789 66.3531C197.292 66.2068 196.77 66.165 196.257 66.2304C195.743 66.2958 195.249 66.4671 194.805 66.7333C194.309 67.0483 194.087 67.3049 194.064 67.2874Z" fill="#455A64"/>
<path d="M192.185 62.5856L192.069 62.5214L191.719 62.3231L190.342 61.5064H190.383L187.95 64.0556V63.9915L189.117 65.7415V65.7707V65.8057C188.746 66.4748 188.467 67.191 188.289 67.9349V67.9757H188.248L186.177 68.4949L186.235 68.4133C186.258 69.5255 186.282 70.7019 186.305 71.9425L186.235 71.8609L188.329 72.2925H188.382V72.345C188.601 73.0972 188.923 73.8156 189.339 74.4801L189.368 74.5268L189.339 74.5735L188.236 76.3993V76.2827L190.774 78.7327H190.651L192.436 77.566L192.483 77.531L192.541 77.5602C193.207 77.9302 193.919 78.2107 194.659 78.3944H194.717V78.4586L195.225 80.5295L195.12 80.4478L198.649 80.3836L198.544 80.4711C198.684 79.812 198.83 79.1003 198.981 78.3827V78.3186H199.046C199.776 78.1089 200.476 77.8049 201.128 77.4144H201.186H201.239L203.065 78.5227H202.931L205.381 75.9852V76.1193L204.214 74.3343L204.179 74.2759L204.208 74.2234C204.581 73.5586 204.861 72.8462 205.042 72.1059V72.0475H205.101L207.177 71.54L207.096 71.645C207.096 70.4375 207.055 69.265 207.037 68.1157L207.119 68.2091L205.031 67.7716H204.972V67.7191C204.766 66.9836 204.462 66.2792 204.068 65.6248V65.5782V65.5315L205.177 63.7114V63.8223L202.639 61.3605H202.744L200.959 62.5272H200.918H200.877C200.21 62.1545 199.496 61.872 198.754 61.6872H198.713V61.6464C198.532 60.8939 198.369 60.2172 198.217 59.5755L198.276 59.6222L194.746 59.6688L194.793 59.628C194.618 60.4622 194.472 61.1447 194.35 61.7164C193.794 61.8713 193.255 62.0804 192.74 62.3406L192.36 62.5389L192.232 62.6031C192.269 62.5731 192.308 62.5458 192.349 62.5214L192.722 62.3056C193.236 62.0346 193.775 61.8157 194.332 61.6522C194.449 61.0689 194.583 60.398 194.752 59.5638V59.523H194.793L198.322 59.4471H198.375V59.4938C198.532 60.1355 198.701 60.8122 198.888 61.5647L198.836 61.5122C199.592 61.6961 200.319 61.9806 201 62.3581H200.918L202.697 61.1914L202.756 61.1564L202.802 61.203L205.346 63.6473L205.398 63.6998L205.363 63.764C205.002 64.3473 204.64 64.9598 204.261 65.584V65.4907C204.663 66.156 204.975 66.8721 205.188 67.6199L205.118 67.5557L207.207 67.9874H207.282V68.0632C207.306 69.23 207.329 70.4064 207.352 71.5925V71.6742H207.271L205.2 72.1817L205.276 72.1059C205.092 72.8645 204.805 73.5945 204.424 74.2759V74.1884L205.591 75.9677L205.637 76.0435L205.579 76.1018L203.129 78.6452L203.065 78.7036L202.995 78.6627L201.169 77.5544H201.28C200.614 77.9607 199.896 78.2728 199.145 78.4819L199.221 78.4002C199.075 79.1178 198.923 79.8295 198.789 80.4886V80.5761H198.701L195.172 80.6345H195.085V80.5528C194.91 79.8353 194.735 79.1294 194.577 78.4761L194.653 78.5519C193.897 78.3656 193.169 78.0792 192.489 77.7002H192.594L190.809 78.8669L190.739 78.9136L190.68 78.8553L188.149 76.4052L188.09 76.3468L188.131 76.2827L189.239 74.4626V74.556C188.808 73.8997 188.468 73.1872 188.23 72.4384L188.294 72.5026L186.206 72.065H186.142V71.995C186.142 70.7583 186.101 69.5741 186.083 68.4658V68.4016H186.148L188.219 67.8999L188.166 67.9524C188.355 67.198 188.643 66.4722 189.024 65.794V65.864L187.857 64.0731V64.0381L187.886 64.0031L190.354 61.4772L191.701 62.3172L192.045 62.5331C192.093 62.5471 192.14 62.5646 192.185 62.5856Z" fill="#455A64"/>
<path d="M204.43 168.166L192.389 166.317L191.87 158.984C189.441 157.93 187.164 156.557 185.098 154.901L178.354 157.818L171.144 147.994L175.956 142.446C174.988 139.977 174.354 137.389 174.072 134.752L167.224 132.057L169.073 120.017L176.4 119.497C177.456 117.069 178.829 114.792 180.483 112.725L177.566 105.981L187.39 98.7709L192.932 103.584C195.402 102.618 197.99 101.985 200.626 101.699L203.339 94.8217L215.379 96.6709L215.898 103.998C218.327 105.053 220.604 106.426 222.671 108.081L229.421 105.164L236.66 115.023L231.847 120.565C232.813 123.035 233.445 125.622 233.726 128.259L240.574 130.954L238.719 143.024L231.386 143.537C230.331 145.966 228.958 148.243 227.303 150.31L230.22 157.059L220.373 164.258L214.825 159.445C212.356 160.412 209.768 161.043 207.131 161.324L204.43 168.166ZM192.407 166.288L204.412 168.137L207.107 161.295C209.749 161.015 212.341 160.381 214.813 159.41L220.361 164.223L230.173 157.024L227.256 150.287C228.913 148.219 230.287 145.939 231.34 143.508L238.667 142.995L240.51 130.989L233.673 128.283C233.393 125.643 232.759 123.053 231.789 120.582L236.602 115.041L229.415 105.246L222.677 108.163C220.611 106.497 218.331 105.114 215.898 104.05L215.385 96.7234L203.374 94.88L200.685 101.723C198.046 102.008 195.457 102.641 192.984 103.607L187.443 98.7943L177.648 105.981L180.565 112.719C178.896 114.785 177.512 117.067 176.452 119.503L169.125 120.022L167.282 132.028L174.125 134.723C174.397 137.366 175.021 139.962 175.98 142.441L171.167 147.982L178.354 157.771L185.092 154.854C187.161 156.512 189.443 157.885 191.876 158.938L192.407 166.288ZM204.354 144.237C203.686 144.236 203.019 144.186 202.359 144.086C200.455 143.79 198.64 143.078 197.044 141.999C195.448 140.92 194.11 139.502 193.127 137.845C192.143 136.189 191.538 134.335 191.354 132.418C191.171 130.5 191.414 128.565 192.065 126.752C192.717 124.939 193.762 123.293 195.124 121.931C196.487 120.569 198.134 119.525 199.947 118.875C201.76 118.224 203.695 117.982 205.612 118.166C207.53 118.35 209.383 118.956 211.039 119.941C213.274 121.272 215.06 123.24 216.168 125.593C217.276 127.947 217.655 130.577 217.258 133.148C216.863 135.722 215.708 138.119 213.941 140.031C212.174 141.944 209.875 143.285 207.341 143.882C206.363 144.117 205.36 144.237 204.354 144.237ZM196.619 120.641C194.556 122.163 192.987 124.258 192.107 126.666C191.228 129.074 191.076 131.687 191.672 134.18C192.474 137.546 194.579 140.455 197.524 142.27C200.47 144.085 204.015 144.656 207.382 143.858C209.262 143.411 211.019 142.552 212.527 141.343C214.035 140.134 215.255 138.605 216.099 136.866C216.943 135.128 217.391 133.224 217.409 131.291C217.427 129.359 217.016 127.446 216.204 125.692C215.393 123.938 214.202 122.386 212.718 121.149C211.233 119.911 209.492 119.019 207.621 118.537C205.749 118.055 203.794 117.994 201.896 118.36C199.999 118.726 198.206 119.509 196.648 120.652L196.619 120.641Z" fill="#E0E0E0"/>
<path d="M196.619 120.641C197.437 119.929 198.367 119.357 199.372 118.949C201.712 117.964 204.286 117.675 206.786 118.117C209.286 118.558 211.606 119.712 213.466 121.44C215.22 123.068 216.505 125.137 217.188 127.431C217.946 129.973 217.926 132.683 217.129 135.213C216.287 137.944 214.588 140.331 212.285 142.022C209.981 143.714 207.194 144.619 204.337 144.605C202.988 144.613 201.647 144.406 200.364 143.992C199.127 143.617 197.957 143.052 196.893 142.318C194.91 140.981 193.322 139.135 192.296 136.975C191.409 135.097 190.977 133.036 191.036 130.96C191.11 127.958 192.219 125.073 194.175 122.793C194.868 121.957 195.694 121.24 196.619 120.67C196.677 120.74 195.697 121.382 194.402 123.003C192.591 125.278 191.593 128.093 191.567 131.001C191.542 133.131 192.052 135.234 193.05 137.116C194.047 138.998 195.501 140.6 197.278 141.776C199.371 143.166 201.829 143.905 204.342 143.899C207.04 143.904 209.669 143.046 211.844 141.449C214.019 139.853 215.626 137.602 216.429 135.026C216.826 133.814 217.023 132.545 217.013 131.269C217.03 130.046 216.863 128.826 216.517 127.653C215.88 125.464 214.672 123.485 213.017 121.918C211.577 120.552 209.837 119.543 207.936 118.972C205.156 118.124 202.172 118.23 199.46 119.276C198.491 119.683 197.542 120.138 196.619 120.641Z" fill="#263238"/>
<path d="M192.967 103.566C192.836 103.485 192.713 103.391 192.6 103.286L191.532 102.393L187.332 98.835H187.484L177.712 106.098L177.777 105.87L180.734 112.602L180.787 112.719L180.705 112.824C179.059 114.883 177.695 117.153 176.651 119.573L176.587 119.707H176.441L169.102 120.244L169.347 120.022C168.764 123.808 168.18 127.828 167.527 132.051L167.346 131.736L174.172 134.425L174.347 134.495V134.682C174.633 137.295 175.264 139.859 176.225 142.306L176.301 142.487L176.172 142.633L171.36 148.192V147.778L178.628 157.608L178.208 157.497L184.946 154.58L185.144 154.493L185.314 154.627C187.358 156.28 189.614 157.654 192.022 158.71L192.22 158.798V159.014C192.384 161.312 192.559 163.82 192.74 166.352L192.43 166.014L204.506 167.781L204.103 168.015C204.955 165.85 205.853 163.517 206.798 161.172L206.88 160.956H207.108C209.707 160.675 212.257 160.049 214.691 159.095L214.907 159.014L215.076 159.159L220.624 163.984H220.163L229.975 156.791L229.852 157.234L226.936 150.491L226.848 150.287L226.988 150.112C228.642 148.071 230.015 145.819 231.072 143.415L231.159 143.211H231.375L238.714 142.697L238.387 143.001C239.025 138.894 239.645 134.884 240.248 130.972L240.458 131.345L233.621 128.638L233.428 128.568V128.364C233.15 125.752 232.526 123.188 231.573 120.74L231.503 120.559L231.632 120.407L236.462 114.866V115.256L229.281 105.427L229.625 105.52L222.876 108.437L222.73 108.501L222.601 108.402C220.555 106.748 218.297 105.375 215.887 104.319L215.747 104.254V104.109C215.566 101.443 215.403 99.0392 215.251 96.77L215.438 96.9742L203.339 95.0024L203.52 94.8974C202.423 97.6217 201.525 99.8617 200.778 101.723L200.749 101.793H200.679C198.701 101.99 196.747 102.381 194.846 102.959L193.44 103.409C193.288 103.47 193.132 103.519 192.973 103.554C193.117 103.476 193.267 103.409 193.422 103.356C193.725 103.234 194.186 103.053 194.811 102.843C196.715 102.212 198.68 101.78 200.673 101.553L200.574 101.629C201.297 99.7567 202.167 97.5108 203.222 94.7691L203.269 94.6407H203.403L215.444 96.4375H215.613V96.6125C215.782 98.8817 215.957 101.279 216.155 103.951L216.01 103.741C218.467 104.808 220.772 106.197 222.864 107.871L222.59 107.83L229.322 104.914L229.532 104.82L229.666 105.007L236.888 114.801L237.034 115.006L236.87 115.192L232.063 120.752L232.116 120.419C233.099 122.92 233.744 125.541 234.035 128.213L233.825 127.933L240.674 130.645L240.93 130.744L240.884 131.019C240.289 134.931 239.678 138.94 239.052 143.047L239.011 143.333H238.725L231.387 143.858L231.69 143.642C230.619 146.106 229.222 148.416 227.537 150.508L227.589 150.135C228.557 152.356 229.53 154.602 230.506 156.873L230.622 157.147L230.383 157.322L220.571 164.526L220.332 164.701L220.11 164.503C218.271 162.908 216.42 161.302 214.557 159.684L214.936 159.749C212.44 160.739 209.823 161.392 207.154 161.691L207.463 161.452C206.536 163.785 205.62 166.119 204.768 168.301L204.657 168.575L204.366 168.528L192.337 166.679L192.045 166.632V166.34C191.865 163.809 191.69 161.3 191.532 159.002L191.748 159.305C189.283 158.23 186.974 156.829 184.882 155.14L185.249 155.193L178.5 158.109L178.255 158.191L178.086 157.969C175.595 154.557 173.157 151.232 170.899 148.146L170.741 147.93L170.916 147.732L175.747 142.19L175.688 142.516C174.715 140.014 174.08 137.393 173.798 134.723L173.991 134.98L167.154 132.273L166.932 132.185L166.967 131.952C167.626 127.734 168.256 123.715 168.846 119.929L168.875 119.713H169.091L176.429 119.217L176.219 119.363C177.299 116.914 178.7 114.619 180.384 112.538L180.355 112.765L177.438 106.01L177.38 105.87L177.502 105.783L187.355 98.6367L187.431 98.5784L187.501 98.6425L191.585 102.265L192.635 103.216C192.752 103.326 192.863 103.443 192.967 103.566Z" fill="#263238"/>
<path d="M252.09 190.526C252.884 186.627 253.238 182.651 253.145 178.673C253.07 174.729 252.206 170.733 250.135 167.385C247.828 171.017 246.778 175.307 247.149 179.594C247.417 183.726 249.097 187.639 251.909 190.678" fill="#2B1FC5"/>
<path d="M247.009 201.073C247.061 196.832 247.009 192.545 246.023 188.426C245.037 184.308 242.955 180.318 239.606 177.733C238.377 182.089 238.502 186.715 239.962 190.999C241.426 195.251 243.386 198.425 247.021 201.073" fill="#2B1FC5"/>
<path d="M240.58 213.61C241.163 209.818 241.618 205.979 241.21 202.17C240.802 198.361 239.46 194.551 236.736 191.833C235.116 195.586 234.675 199.742 235.47 203.751C236.275 207.724 237.646 210.804 240.58 213.61Z" fill="#2B1FC5"/>
<path d="M235.907 222.57C235.703 218.265 235.4 213.924 234.128 209.812C232.857 205.699 230.517 201.779 226.947 199.37C225.963 203.857 226.37 208.537 228.114 212.787C229.864 217.005 232.046 220.102 235.884 222.564" fill="#2B1FC5"/>
<path d="M228.954 233.14C229.088 229.191 229.146 225.201 228.295 221.345C227.443 217.489 225.605 213.732 222.525 211.259C221.295 215.288 221.317 219.597 222.589 223.614C223.867 227.604 225.629 230.614 228.954 233.14Z" fill="#2B1FC5"/>
<path d="M223.173 242.194C223.313 238.244 223.365 234.254 222.519 230.398C221.673 226.542 220.262 223.153 217.187 220.68C215.951 224.676 215.537 228.683 216.814 232.668C218.092 236.652 219.847 239.668 223.173 242.194Z" fill="#2B1FC5"/>
<path d="M247.026 200.957C249.693 199.162 252.561 197.688 255.572 196.564C257.928 195.631 260.382 194.969 262.888 194.592C265.407 194.217 267.981 194.56 270.314 195.584C267.376 198.648 263.608 200.789 259.471 201.744C255.335 202.698 251.01 202.424 247.026 200.957Z" fill="#2B1FC5"/>
<path d="M228.942 233.21C231.112 231.75 233.446 230.549 235.896 229.634C237.812 228.874 239.808 228.336 241.846 228.03C243.894 227.725 245.987 228.004 247.884 228.835C245.494 231.327 242.43 233.069 239.065 233.846C235.701 234.623 232.183 234.402 228.942 233.21Z" fill="#2B1FC5"/>
<path d="M224.41 240.391C226.743 239.481 229.876 237.603 232.361 237.288C234.396 236.973 236.461 236.891 238.515 237.043C240.582 237.204 242.561 237.944 244.226 239.178C241.337 241.066 237.964 242.079 234.513 242.095C231.083 242.095 227.28 242.258 224.41 240.385" fill="#2B1FC5"/>
<path d="M241.531 212.828C244.198 211.031 247.069 209.556 250.083 208.435C252.436 207.5 254.888 206.836 257.392 206.458C259.912 206.086 262.486 206.432 264.818 207.455C261.878 210.517 258.11 212.655 253.975 213.609C249.839 214.563 245.515 214.292 241.531 212.828Z" fill="#2B1FC5"/>
<path d="M234.134 225.615C236.554 223.497 239.215 221.672 242.062 220.178C244.278 218.955 246.627 217.99 249.062 217.302C251.513 216.611 254.11 216.628 256.552 217.349C254.025 220.759 250.557 223.358 246.573 224.826C242.59 226.295 238.265 226.569 234.128 225.615" fill="#2B1FC5"/>
<path d="M251.541 191.845C255.892 191.504 260.097 190.123 263.805 187.82C267.512 185.517 270.612 182.358 272.845 178.608C269.642 179.011 266.428 179.775 263.64 181.368C258.973 184.069 255.852 188.619 251.541 191.868" fill="#2B1FC5"/>
<path d="M256.424 181.928C259.614 180.399 262.129 177.748 263.488 174.482C264.847 171.216 264.955 167.564 263.791 164.223C260.975 166.181 258.782 168.91 257.476 172.082C256.169 175.253 255.804 178.734 256.424 182.108" fill="#2B1FC5"/>
<path d="M222.63 242.923C222.664 242.861 222.701 242.8 222.741 242.742C222.823 242.608 222.94 242.439 223.08 242.223C223.4 241.756 223.85 241.091 224.421 240.245C224.993 239.4 225.722 238.344 226.515 237.107C227.309 235.87 228.266 234.482 229.222 232.901C230.179 231.32 231.287 229.617 232.396 227.744C233.504 225.872 234.688 223.865 235.896 221.741C238.311 217.483 240.907 212.764 243.479 207.741C248.683 197.696 253.046 188.432 256.179 181.718L259.924 173.761C260.362 172.839 260.7 172.11 260.939 171.602C261.05 171.369 261.137 171.182 261.207 171.019C261.277 170.856 261.307 170.832 261.307 170.832C261.291 170.901 261.268 170.968 261.237 171.031C261.178 171.177 261.097 171.363 260.992 171.614L260.035 173.802C259.195 175.692 257.97 178.433 256.424 181.799C253.344 188.543 249.004 197.824 243.8 207.875C241.204 212.898 238.603 217.617 236.164 221.876C234.933 223.993 233.767 226.012 232.623 227.867C231.48 229.722 230.412 231.448 229.415 233.012C228.417 234.575 227.484 235.969 226.667 237.194C225.85 238.42 225.133 239.464 224.526 240.31L223.144 242.252L222.776 242.754C222.683 242.87 222.636 242.929 222.63 242.923Z" fill="#263238"/>
<path d="M21.4614 203.99C19.933 200.583 18.7885 197.016 18.0488 193.355C17.2113 189.729 17.3563 185.946 18.4688 182.394C21.3314 185.244 23.1763 188.956 23.719 192.959C24.3147 196.782 23.5817 200.694 21.6422 204.042" fill="#2B1FC5"/>
<path d="M28.2987 212.6C27.3711 208.727 26.5486 204.795 26.5836 200.811C26.6186 196.826 27.7503 192.755 30.2645 189.692C32.2941 193.436 33.1345 197.709 32.6738 201.942C32.2129 206.137 31.0754 209.45 28.2987 212.629" fill="#2B1FC5"/>
<path d="M36.7745 222.762C35.4852 219.408 34.2485 215.99 33.8577 212.419C33.4669 208.849 33.9102 205.075 35.8178 202.03C38.071 205.133 39.3264 208.848 39.417 212.682C39.5045 216.485 38.8804 219.589 36.7745 222.762Z" fill="#2B1FC5"/>
<path d="M42.9173 229.984C42.2173 226.006 41.599 221.963 41.914 217.932C42.229 213.901 43.559 209.835 46.33 206.889C48.1472 210.808 48.7291 215.186 47.9983 219.443C47.2691 223.661 45.9099 226.951 42.8998 229.996" fill="#2B1FC5"/>
<path d="M51.4574 238.227C50.5124 234.639 49.6374 230.993 49.6199 227.289C49.6024 223.585 50.5124 219.764 52.8166 216.865C54.7795 220.3 55.6503 224.251 55.3134 228.193C54.9692 232.102 53.9717 235.193 51.4574 238.227Z" fill="#2B1FC5"/>
<path d="M28.2574 212.495C25.4399 211.4 22.5028 210.642 19.5072 210.238C17.1578 209.868 14.7739 209.768 12.4019 209.94C10.0186 210.119 7.73401 210.967 5.81006 212.385C9.13231 214.584 13.0242 215.766 17.0085 215.786C20.9927 215.805 24.8961 214.662 28.2399 212.495" fill="#2B1FC5"/>
<path d="M51.4811 238.285C49.1932 237.397 46.8083 236.782 44.3759 236.454C42.4646 236.151 40.5249 236.069 38.5949 236.209C36.6556 236.351 34.7965 237.04 33.2339 238.198C35.937 239.986 39.1032 240.947 42.3445 240.963C45.5857 240.978 48.761 240.048 51.4811 238.285Z" fill="#2B1FC5"/>
<path d="M35.7423 222.226C32.9245 221.133 29.9873 220.377 26.992 219.974C24.6447 219.604 22.2627 219.504 19.8927 219.676C17.5099 219.853 15.2252 220.699 13.3008 222.115C16.623 224.314 20.5149 225.496 24.4992 225.516C28.4834 225.535 32.3868 224.392 35.7307 222.226" fill="#2B1FC5"/>
<path d="M45.1515 232.405C42.5002 230.967 39.6884 229.847 36.7745 229.068C34.4924 228.417 32.1442 228.026 29.7743 227.902C27.3873 227.779 25.0139 228.331 22.9258 229.494C25.9468 232.091 29.6598 233.75 33.6096 234.268C37.5594 234.786 41.5746 234.141 45.1631 232.411" fill="#2B1FC5"/>
<path d="M22.2432 205.087C18.1882 205.672 14.0519 205.276 10.1815 203.932C6.31119 202.588 2.81966 200.336 0 197.363C3.01007 196.97 6.06839 197.182 8.99528 197.987C13.8254 199.492 17.6231 203.016 22.2432 205.087Z" fill="#2B1FC5"/>
<path d="M15.7389 197.007C12.5015 196.269 9.64993 194.363 7.72984 191.654C5.80975 188.945 4.95598 185.623 5.3319 182.324C8.3094 183.536 10.8752 185.579 12.7227 188.21C14.5702 190.84 15.6214 193.947 15.7506 197.159" fill="#2B1FC5"/>
<path d="M53.5166 240.531C53.4658 240.498 53.4188 240.458 53.3766 240.414L52.9916 240.059L51.5391 238.694C50.9091 238.11 50.139 237.34 49.2698 236.454C48.4006 235.567 47.3914 234.581 46.3531 233.443C42.0129 228.946 36.2261 222.535 30.1534 215.185C24.0807 207.834 18.8014 200.997 15.0271 196.021C13.137 193.53 11.6262 191.506 10.5878 190.106L9.42109 188.484L9.11775 188.059C9.07942 188.013 9.04797 187.962 9.02441 187.907L9.14108 188.035L9.46776 188.444L10.7045 190.03C11.7837 191.43 13.3237 193.431 15.2254 195.864C19.0406 200.811 24.3374 207.624 30.3926 214.963C36.4478 222.301 42.2171 228.742 46.5106 233.274C47.5723 234.441 48.5698 235.421 49.4273 236.314C50.2849 237.206 51.0374 237.964 51.6558 238.583L53.0733 240.018L53.435 240.391L53.5166 240.531Z" fill="#263238"/>
<path d="M225.284 242.923L232.675 164.666C232.818 163.207 232.657 161.734 232.203 160.339C231.749 158.945 231.012 157.66 230.037 156.564C229.063 155.468 227.872 154.586 226.54 153.972C225.208 153.359 223.764 153.028 222.298 152.999L139.992 151.366C137.282 151.311 134.653 152.293 132.642 154.111C130.63 155.929 129.389 158.446 129.171 161.149L122.865 242.888L225.284 242.923Z" fill="#455A64"/>
<path d="M213.606 242.905C213.63 242.816 213.645 242.724 213.653 242.631C213.653 242.433 213.705 242.165 213.746 241.815C213.822 241.085 213.938 240.035 214.078 238.688C214.353 235.958 214.749 232.032 215.245 227.184C216.196 217.448 217.509 204.031 218.955 189.208C220.058 177.658 221.084 166.965 221.913 158.261C221.913 157.825 221.901 157.394 221.878 156.966C221.885 156.538 221.84 156.111 221.744 155.694C221.523 154.883 221.046 154.165 220.384 153.647C219.754 153.158 218.988 152.876 218.191 152.842L216.027 152.801L208.811 152.69L204.196 152.632H202.989C202.715 152.632 202.575 152.632 202.575 152.632C202.575 152.632 202.715 152.632 202.989 152.661L204.196 152.708L208.811 152.836L216.021 153.011L218.179 153.069C218.946 153.105 219.68 153.385 220.276 153.868C220.872 154.35 221.298 155.011 221.493 155.753C221.585 156.152 221.626 156.562 221.615 156.972C221.615 157.392 221.615 157.818 221.644 158.249C220.799 166.953 219.754 177.646 218.629 189.196C217.217 204.019 215.939 217.442 215.018 227.178C214.568 232.032 214.207 235.928 213.956 238.694C213.839 240.041 213.752 241.097 213.688 241.826C213.658 242.176 213.641 242.445 213.623 242.643C213.612 242.73 213.606 242.818 213.606 242.905Z" fill="#263238"/>
<path d="M120.299 105.829C119.868 105.39 119.338 105.062 118.753 104.873H118.864C118.758 104.851 118.65 104.835 118.543 104.826C118.347 104.774 118.143 104.762 117.942 104.791C117.742 104.82 117.549 104.89 117.376 104.995C116.727 105.244 116.194 105.727 115.883 106.349C115.644 106.9 115.56 107.506 115.642 108.102C115.723 108.697 115.966 109.259 116.344 109.726C116.62 110.152 117.018 110.484 117.487 110.68C117.956 110.875 118.472 110.923 118.969 110.819C119.466 110.715 119.919 110.463 120.27 110.096C120.621 109.729 120.853 109.265 120.934 108.764C121.083 108.26 121.102 107.728 120.991 107.215C120.88 106.703 120.642 106.226 120.299 105.829Z" fill="#455A64"/>
<path d="M115.62 91.6424C113.667 91.1075 111.872 90.1099 110.386 88.734C108.901 87.358 107.769 85.6443 107.086 83.738C106.431 81.814 106.242 79.7621 106.535 77.7509C106.828 75.7398 107.595 73.827 108.772 72.1701C106.357 72.7884 103.953 70.5425 103.457 68.0866C102.962 65.6307 103.837 63.0873 104.77 60.7481C106.905 55.4104 109.577 50.0552 114.028 46.4676C118.479 42.88 125.111 41.515 129.918 44.6009C129.959 42.5067 132.415 41.4566 134.457 41.1008C143.359 39.6307 152.891 41.9642 159.903 47.7043C166.914 53.4445 171.202 62.574 170.782 71.6976C173.804 76.4344 171.867 83.633 166.891 86.1764C167.775 91.6698 166.745 97.3002 163.974 102.125C161.186 106.905 156.822 110.565 151.631 112.48" fill="#2B1FC5"/>
<path d="M118.263 86.5029C118.806 78.7035 124.038 69.1716 131.803 70.0466L156.023 76.3468C157.165 76.4708 158.219 77.0194 158.975 77.8838C159.732 78.7483 160.136 79.8654 160.107 81.0136L157.085 139.524L157.254 139.559C157.254 139.559 151.648 156.009 135.67 150.899C132.491 149.884 131.056 146.401 130.42 142.82H130.257C130.257 142.394 130.257 142.003 130.257 141.595C129.957 138.926 129.937 136.234 130.198 133.562C130.198 128.837 130.198 126.9 130.198 126.947C130.198 126.993 120.246 125.197 118.269 112.211C117.26 105.759 117.656 95.1891 118.263 86.5029Z" fill="#B78876"/>
<path d="M122.586 94.7749C122.578 95.21 122.741 95.6308 123.04 95.9471C123.338 96.2634 123.749 96.4499 124.184 96.4667C124.398 96.4883 124.614 96.4664 124.819 96.4022C125.024 96.3381 125.214 96.2331 125.378 96.0936C125.541 95.9541 125.675 95.7829 125.771 95.5903C125.866 95.3978 125.922 95.1879 125.934 94.9733C125.941 94.5396 125.778 94.1204 125.481 93.8046C125.183 93.4888 124.775 93.3012 124.342 93.2816C124.128 93.2608 123.912 93.2832 123.706 93.3476C123.501 93.412 123.311 93.5169 123.147 93.6563C122.983 93.7956 122.849 93.9664 122.753 94.1586C122.656 94.3507 122.6 94.5603 122.586 94.7749Z" fill="#263238"/>
<path d="M120.503 92.0274C120.707 92.249 121.979 91.3215 123.776 91.339C125.573 91.3565 126.873 92.2607 127.072 92.0449C127.165 91.9457 126.961 91.5548 126.389 91.1348C125.618 90.5896 124.697 90.298 123.752 90.3006C122.818 90.2912 121.905 90.5793 121.145 91.1232C120.608 91.5373 120.422 91.934 120.503 92.0274Z" fill="#263238"/>
<path d="M139.888 95.0725C139.88 95.5076 140.043 95.9284 140.342 96.2447C140.641 96.561 141.052 96.7475 141.486 96.7642C141.7 96.7858 141.916 96.7639 142.121 96.6998C142.327 96.6357 142.517 96.5307 142.68 96.3912C142.844 96.2516 142.977 96.0804 143.073 95.8879C143.168 95.6953 143.224 95.4854 143.236 95.2708C143.241 94.8376 143.078 94.4192 142.781 94.1038C142.484 93.7883 142.077 93.6002 141.644 93.5791C141.43 93.5575 141.213 93.5794 141.008 93.6434C140.802 93.7075 140.612 93.8124 140.448 93.9519C140.284 94.0913 140.15 94.2625 140.054 94.455C139.957 94.6476 139.901 94.8576 139.888 95.0725Z" fill="#263238"/>
<path d="M138.149 92.4824C138.359 92.7041 139.631 91.7766 141.422 91.7941C143.213 91.8116 144.526 92.7158 144.718 92.4999C144.817 92.4008 144.607 92.0099 144.035 91.5899C143.265 91.044 142.343 90.7523 141.399 90.7557C140.466 90.7463 139.555 91.0345 138.797 91.5782C138.243 91.9924 138.05 92.3891 138.149 92.4824Z" fill="#263238"/>
<path d="M131.552 105.742C131.552 105.643 130.449 105.444 128.635 105.199C128.18 105.147 127.742 105.054 127.672 104.739C127.633 104.266 127.743 103.792 127.987 103.385C128.425 102.277 128.88 101.122 129.364 99.8851C131.278 94.9325 132.666 90.8549 132.468 90.779C132.269 90.7032 130.554 94.6583 128.641 99.611C128.18 100.836 127.737 101.997 127.317 103.111C127.026 103.662 126.937 104.298 127.066 104.908C127.132 105.07 127.235 105.215 127.365 105.332C127.495 105.449 127.65 105.535 127.818 105.584C128.071 105.654 128.332 105.691 128.594 105.695C130.42 105.829 131.546 105.847 131.552 105.742Z" fill="#263238"/>
<path d="M130.169 126.964C136.288 127.1 142.325 125.532 147.605 122.438C147.605 122.438 143.324 131.339 130.321 130.021L130.169 126.964Z" fill="#AA6550"/>
<path d="M132.281 110.07C132.628 109.644 133.078 109.314 133.588 109.11C134.098 108.906 134.652 108.835 135.197 108.904C135.594 108.94 135.978 109.057 136.327 109.248C136.676 109.439 136.983 109.699 137.228 110.012C137.464 110.312 137.604 110.678 137.627 111.06C137.649 111.441 137.555 111.821 137.356 112.147C137.067 112.462 136.692 112.686 136.277 112.789C135.862 112.893 135.426 112.873 135.022 112.731C134.178 112.422 133.403 111.95 132.742 111.342C132.541 111.198 132.369 111.018 132.234 110.811C132.165 110.713 132.128 110.596 132.128 110.476C132.128 110.356 132.165 110.239 132.234 110.14" fill="#AA6550"/>
<path d="M136.837 107.019C136.545 107.019 136.528 108.95 134.848 110.321C133.168 111.692 131.103 111.488 131.085 111.733C131.056 111.855 131.546 112.118 132.421 112.147C133.561 112.171 134.673 111.79 135.56 111.074C136.414 110.389 136.967 109.396 137.1 108.309C137.17 107.492 136.954 107.008 136.837 107.019Z" fill="#263238"/>
<path d="M137.368 89.3555C137.543 89.8455 139.334 89.6239 141.451 89.8922C143.569 90.1605 145.255 90.7497 145.535 90.3122C145.663 90.1022 145.371 89.6414 144.689 89.1455C143.78 88.5536 142.745 88.1838 141.667 88.0663C140.59 87.9286 139.496 88.0506 138.476 88.4222C137.683 88.7255 137.292 89.1047 137.368 89.3555Z" fill="#263238"/>
<path d="M121.215 86.8414C121.53 87.2497 122.766 86.8414 124.254 86.8414C125.741 86.8414 126.996 87.1331 127.287 86.7072C127.416 86.503 127.223 86.0947 126.704 85.7038C125.976 85.2219 125.114 84.983 124.242 85.0213C123.368 85.0277 122.517 85.3071 121.81 85.8205C121.255 86.223 121.086 86.643 121.215 86.8414Z" fill="#263238"/>
<path d="M151.923 93.2816C151.862 92.5119 151.745 91.7476 151.573 90.9949C151.349 90.1224 150.995 89.2886 150.523 88.5215C149.905 87.5004 149.097 86.6073 148.143 85.8905C146.907 84.9533 145.455 84.3419 143.921 84.1126C142.386 83.8832 140.819 84.0432 139.363 84.578C138.526 84.8776 137.739 85.3024 137.03 85.838C136.275 86.3845 135.615 87.0505 135.076 87.8098C133.905 89.3929 133.273 91.3098 133.273 93.2787C133.273 95.2475 133.905 97.1644 135.076 98.7476C135.615 99.5069 136.275 100.173 137.03 100.719C137.739 101.255 138.526 101.68 139.363 101.979C140.919 102.547 142.599 102.69 144.228 102.394C145.653 102.126 146.994 101.527 148.143 100.643C149.097 99.9268 149.905 99.0336 150.523 98.0126C150.996 97.246 151.35 96.412 151.573 95.5392C151.744 94.7883 151.861 94.026 151.923 93.2583C151.929 93.3086 151.929 93.3596 151.923 93.4099C151.923 93.5266 151.923 93.6724 151.923 93.8591C151.923 94.1014 151.904 94.3434 151.864 94.5825C151.828 94.9146 151.769 95.2439 151.689 95.5683C151.479 96.459 151.135 97.3127 150.668 98.1001C150.055 99.1529 149.243 100.076 148.277 100.818C147.014 101.793 145.526 102.432 143.95 102.677C142.375 102.922 140.762 102.764 139.264 102.219C138.398 101.915 137.583 101.48 136.849 100.929C136.467 100.646 136.105 100.338 135.764 100.008C135.424 99.6634 135.111 99.2949 134.825 98.9051C133.613 97.2707 132.958 95.29 132.958 93.2553C132.958 91.2207 133.613 89.2399 134.825 87.6056C135.111 87.2158 135.424 86.8473 135.764 86.5031C136.105 86.1723 136.467 85.8644 136.849 85.5814C137.583 85.0304 138.398 84.5956 139.264 84.2922C140.868 83.712 142.599 83.5749 144.275 83.8955C145.605 84.1464 146.866 84.6792 147.972 85.458C149.079 86.2368 150.007 87.2436 150.692 88.4106C151.158 89.198 151.502 90.0516 151.713 90.9424C151.792 91.2668 151.851 91.5962 151.888 91.9282C151.927 92.1674 151.946 92.4093 151.946 92.6516C151.946 92.8382 151.946 92.9841 151.946 93.1008C151.947 93.1618 151.939 93.2227 151.923 93.2816Z" fill="#263238"/>
<path d="M166.833 86.8588C166.807 86.8014 166.789 86.7405 166.781 86.678C166.746 86.5438 166.705 86.3688 166.658 86.1471C166.611 85.9255 166.547 85.6163 166.454 85.2779C166.361 84.9396 166.25 84.5429 166.133 84.1112C165.377 81.6394 164.284 79.2837 162.884 77.111C160.806 73.8886 158.141 71.0863 155.026 68.8508C151.185 66.148 146.828 64.2673 142.227 63.3264C137.621 62.3712 132.886 62.2134 128.227 62.8597C124.421 63.3159 120.708 64.3486 117.213 65.9223C115.879 66.5393 114.598 67.2631 113.381 68.0866C112.465 68.7148 111.594 69.4047 110.773 70.1516L109.886 70.9858L109.303 71.645L108.93 72.0417C108.888 72.0914 108.841 72.1364 108.79 72.1759C108.823 72.121 108.862 72.0701 108.906 72.0242L109.256 71.6042L109.84 70.9275L110.709 70.0641C111.521 69.2982 112.387 68.5906 113.299 67.9466C114.517 67.1036 115.803 66.3622 117.143 65.7298C120.652 64.1103 124.391 63.0475 128.227 62.5797C132.91 61.9155 137.672 62.0674 142.303 63.0289C146.943 63.9807 151.335 65.8857 155.201 68.6233C158.337 70.8855 161.014 73.7245 163.088 76.9885C164.484 79.1834 165.555 81.5687 166.267 84.0704L166.565 85.2371C166.652 85.5813 166.693 85.8788 166.74 86.118C166.786 86.3571 166.81 86.5205 166.833 86.6546C166.844 86.7223 166.844 86.7912 166.833 86.8588Z" fill="#263238"/>
<path d="M169.989 74.3167C169.971 74.2742 169.961 74.2287 169.96 74.1826C169.96 74.0717 169.96 73.9434 169.907 73.78C169.872 73.43 169.79 72.9167 169.656 72.2575C169.26 70.4074 168.588 68.6276 167.661 66.9782C166.281 64.5329 164.491 62.3427 162.37 60.503C159.759 58.262 156.901 56.3246 153.853 54.7278C148.351 51.7471 142.627 49.1961 136.732 47.0975C134.468 46.2925 132.613 45.6975 131.33 45.3008L129.837 44.8458L129.457 44.7233C129.37 44.7233 129.323 44.6766 129.329 44.6708C129.335 44.665 129.376 44.6708 129.463 44.6708L129.854 44.7641C130.198 44.8516 130.706 44.98 131.353 45.1667C132.648 45.5283 134.509 46.0883 136.79 46.87C142.722 48.9195 148.474 51.456 153.987 54.4536C157.055 56.0616 159.927 58.0192 162.545 60.2871C164.678 62.1564 166.468 64.3831 167.836 66.8673C168.756 68.5418 169.406 70.3511 169.761 72.2283C169.857 72.7374 169.923 73.2516 169.96 73.7684C169.96 73.9317 169.96 74.0659 169.96 74.1709C169.978 74.2174 169.988 74.2668 169.989 74.3167Z" fill="#263238"/>
<path d="M130.035 73.7509C130.035 73.7509 142.233 73.5701 151.467 87.3372C157.552 96.4141 158.835 107.807 158.835 107.807L163.543 86.1238L160.043 76.2068L151.613 71.4408L135.618 70.5425L129.58 73.5292" fill="#2B1FC5"/>
<path d="M153.935 74.8769C134.51 70.2101 118.975 76.6269 116.128 91.8699L110.913 83.3588L122.283 69.6734L133.366 66.7916L155.644 70.1809L153.935 74.8769Z" fill="#2B1FC5"/>
<path d="M166.494 73.5584C166.471 73.4984 166.455 73.4357 166.448 73.3717C166.448 73.2317 166.395 73.0509 166.354 72.8234C166.315 72.5244 166.256 72.2283 166.179 71.9367C166.086 71.5867 166.01 71.1842 165.853 70.77C165.511 69.6931 165.061 68.6533 164.511 67.6666C163.779 66.3637 162.896 65.1516 161.88 64.0556C160.65 62.7235 159.261 61.5479 157.744 60.5555C155.998 59.4286 154.116 58.5269 152.144 57.8721C147.979 56.4545 143.102 55.9529 138.033 56.0579C132.963 56.1629 128.116 56.6412 123.851 57.7671C121.841 58.2881 119.888 59.0052 118.018 59.908C116.389 60.7008 114.851 61.6691 113.433 62.7956C111.356 64.4114 109.614 66.4167 108.305 68.6991C108.077 69.1074 107.879 69.4691 107.722 69.7958C107.564 70.1225 107.436 70.3792 107.348 70.6183C107.261 70.8575 107.191 71.0033 107.132 71.1375C107.074 71.2717 107.057 71.3125 107.051 71.3067C107.333 70.3797 107.714 69.4859 108.188 68.6408C109.469 66.3175 111.203 64.2745 113.287 62.6322C114.709 61.4911 116.255 60.5128 117.895 59.7155C119.778 58.7917 121.748 58.057 123.775 57.5221C128.063 56.3554 132.934 55.9004 138.027 55.772C143.119 55.6437 148.031 56.1804 152.231 57.6271C154.225 58.2934 156.125 59.2129 157.884 60.363C159.412 61.3705 160.808 62.566 162.038 63.9214C163.055 65.0358 163.937 66.2676 164.663 67.5907C165.204 68.5927 165.64 69.6484 165.963 70.7408C166.086 71.1356 166.188 71.5367 166.267 71.9425C166.339 72.2378 166.387 72.5381 166.413 72.8409C166.442 73.0742 166.465 73.2551 166.483 73.4242C166.49 73.4686 166.494 73.5135 166.494 73.5584Z" fill="#263238"/>
<path d="M117.586 86.6839C117.312 86.6639 117.042 86.611 116.781 86.5264C116.066 86.298 115.392 85.9552 114.786 85.5113C113.898 84.8324 113.143 83.996 112.558 83.0437C111.847 81.8776 111.322 80.6083 111 79.2811C110.46 76.8676 110.432 74.3676 110.918 71.9426C111.061 71.2083 111.274 70.4894 111.554 69.7958C111.648 69.5508 111.747 69.37 111.805 69.2475C111.863 69.125 111.91 69.0608 111.916 69.0666C111.582 70.0182 111.319 70.9931 111.128 71.9834C110.713 74.3807 110.771 76.8359 111.297 79.2111C111.614 80.506 112.117 81.7479 112.791 82.8979C113.349 83.8298 114.068 84.6553 114.914 85.3363C115.721 85.9349 116.625 86.3907 117.586 86.6839Z" fill="#FAFAFA"/>
<path d="M158.689 74.3694L158.561 74.3285L158.199 74.171L157.616 73.9143L156.799 73.6052C155.061 72.9635 153.254 72.5289 151.415 72.3101C148.686 71.9834 145.927 71.9951 143.201 72.3451C141.661 72.526 140.057 72.8176 138.4 73.156C136.744 73.4943 135.046 73.9085 133.337 74.4394C126.442 76.4344 121.127 80.7804 118.753 84.788C117.793 86.3711 117.072 88.0871 116.612 89.8807C116.443 90.5165 116.344 91.0124 116.274 91.3566C116.239 91.5082 116.215 91.6366 116.192 91.7416C116.183 91.7858 116.17 91.8288 116.151 91.8699C116.142 91.8256 116.142 91.78 116.151 91.7357C116.151 91.6307 116.186 91.5024 116.21 91.3449C116.278 90.8424 116.374 90.3439 116.495 89.8515C116.91 88.0296 117.607 86.2838 118.56 84.6772C120.941 80.5937 126.307 76.1602 133.267 74.1769C135.017 73.646 136.697 73.2377 138.359 72.8935C140.022 72.5493 141.632 72.2693 143.184 72.1001C145.932 71.7503 148.713 71.7503 151.462 72.1001C153.311 72.3418 155.124 72.8121 156.858 73.5002L157.668 73.8385L158.252 74.1244L158.602 74.3052C158.654 74.3402 158.695 74.3635 158.689 74.3694Z" fill="#263238"/>
<path d="M133.267 74.3984C133.408 74.383 133.551 74.383 133.692 74.3984C134.096 74.4289 134.497 74.4815 134.894 74.5559C136.36 74.8373 137.782 75.312 139.123 75.9677C142.53 77.5835 146.783 80.8445 150.172 85.5171C151.741 87.7283 153.117 90.0703 154.285 92.5173C155.277 94.4875 156.156 96.5131 156.916 98.5842C157.435 99.977 157.85 101.406 158.158 102.86C158.257 103.379 158.327 103.782 158.357 104.056C158.383 104.194 158.397 104.335 158.397 104.476C158.348 104.344 158.315 104.207 158.298 104.068C158.252 103.794 158.164 103.397 158.042 102.901C157.689 101.463 157.247 100.049 156.717 98.6659C155.93 96.6167 155.035 94.6111 154.034 92.6573C152.864 90.2418 151.498 87.9259 149.95 85.733C147.11 81.7502 143.379 78.4862 139.053 76.201C137.734 75.5358 136.337 75.0362 134.894 74.7134C134.381 74.6084 133.984 74.5326 133.727 74.4976C133.571 74.4802 133.416 74.447 133.267 74.3984Z" fill="#263238"/>
<path d="M129.901 93.2816C129.844 92.5114 129.727 91.7468 129.551 90.9948C129.327 90.1223 128.973 89.2885 128.501 88.5214C127.883 87.5003 127.075 86.6072 126.121 85.8905C124.972 85.0074 123.631 84.4078 122.206 84.1404C120.577 83.8443 118.898 83.9873 117.341 84.5546C116.504 84.8542 115.717 85.2791 115.008 85.8147C114.253 86.3611 113.593 87.0271 113.054 87.7864C111.887 89.371 111.257 91.2874 111.257 93.2553C111.257 95.2233 111.887 97.1396 113.054 98.7242C113.593 99.4835 114.253 100.15 115.008 100.696C115.717 101.232 116.504 101.656 117.341 101.956C118.899 102.524 120.581 102.667 122.212 102.37C123.508 102.126 124.737 101.611 125.82 100.861C126.904 100.11 127.817 99.1395 128.501 98.0125C128.974 97.2459 129.328 96.412 129.551 95.5391C129.726 94.789 129.843 94.0264 129.901 93.2582C129.91 93.3084 129.91 93.3598 129.901 93.4099C129.901 93.5266 129.901 93.6724 129.901 93.8591C129.901 94.1093 129.879 94.3591 129.837 94.6058C129.8 94.9379 129.742 95.2673 129.662 95.5916C129.459 96.4747 129.125 97.3222 128.67 98.1059C128.057 99.1587 127.244 100.082 126.278 100.824C125.016 101.799 123.528 102.438 121.952 102.683C120.376 102.928 118.764 102.77 117.265 102.224C116.399 101.921 115.585 101.486 114.85 100.935C114.469 100.652 114.106 100.344 113.765 100.013C113.426 99.6692 113.112 99.3007 112.826 98.9109C111.614 97.2765 110.96 95.2958 110.96 93.2611C110.96 91.2265 111.614 89.2457 112.826 87.6114C113.112 87.2216 113.426 86.8531 113.765 86.5088C114.106 86.1781 114.469 85.8702 114.85 85.5871C115.585 85.0362 116.399 84.6014 117.265 84.2979C119.35 83.5431 121.633 83.5436 123.717 84.2994C125.801 85.0552 127.554 86.5184 128.67 88.4339C129.136 89.2213 129.481 90.0749 129.691 90.9657C129.77 91.2901 129.829 91.6195 129.866 91.9515C129.905 92.1907 129.924 92.4326 129.924 92.6749C129.924 92.8615 129.924 93.0074 129.924 93.1241C129.925 93.1775 129.918 93.2308 129.901 93.2816Z" fill="#263238"/>
<path d="M159.232 105.106C158.81 104.668 158.287 104.339 157.709 104.149H157.826C157.719 104.123 157.609 104.106 157.499 104.097C157.303 104.044 157.098 104.033 156.898 104.063C156.697 104.093 156.505 104.164 156.333 104.272C155.686 104.523 155.156 105.005 154.845 105.625C154.605 106.176 154.521 106.783 154.602 107.379C154.683 107.974 154.927 108.536 155.306 109.003C155.581 109.43 155.979 109.763 156.447 109.958C156.916 110.154 157.433 110.203 157.929 110.099C158.426 109.994 158.88 109.742 159.23 109.374C159.58 109.007 159.811 108.542 159.891 108.04C160.038 107.535 160.054 107.001 159.939 106.488C159.824 105.975 159.58 105.5 159.232 105.106Z" fill="#455A64"/>
<path d="M122.3 80.7161C122.094 80.6432 121.898 80.5452 121.716 80.4244C121.498 80.3042 121.287 80.1697 121.086 80.0219C120.812 79.8411 120.547 79.6464 120.293 79.4385C119.622 78.9098 118.997 78.3243 118.426 77.6885C117.729 76.9028 117.104 76.0554 116.559 75.1567C116.03 74.2473 115.583 73.2927 115.224 72.3041C114.937 71.4955 114.718 70.6642 114.57 69.819C114.494 69.4632 114.471 69.1307 114.436 68.8448C114.401 68.5994 114.384 68.3519 114.384 68.104C114.36 67.8927 114.36 67.6794 114.384 67.4681C114.442 67.4681 114.477 68.3665 114.769 69.8015C114.946 70.6282 115.182 71.4411 115.474 72.2341C115.841 73.1992 116.288 74.1319 116.81 75.0225C117.345 75.905 117.952 76.7421 118.625 77.5251C119.178 78.1621 119.777 78.7586 120.415 79.3102C121.553 80.2085 122.329 80.6636 122.3 80.7161Z" fill="#FAFAFA"/>
<path d="M123.145 64.3065C123.192 64.3065 122.819 65.1582 122.393 66.5583C121.833 68.3767 121.504 70.2581 121.413 72.1584C121.325 74.0612 121.472 75.9676 121.85 77.8344C122.148 79.2637 122.434 80.127 122.393 80.1678C122.283 79.9857 122.199 79.7895 122.142 79.5845C121.942 79.0374 121.776 78.4782 121.646 77.9103C120.746 74.1377 120.934 70.1874 122.189 66.5174C122.368 65.9495 122.584 65.3941 122.836 64.8549C122.917 64.6604 123.021 64.4763 123.145 64.3065Z" fill="#FAFAFA"/>
<path d="M136.358 72.8527C136.074 72.3126 135.819 71.7576 135.594 71.1901C134.386 68.519 132.786 66.0436 130.846 63.8457C130.421 63.4085 130.02 62.949 129.644 62.469C129.788 62.5511 129.92 62.6532 130.035 62.7723C130.28 62.9765 130.618 63.2915 131.003 63.6999C133.055 65.843 134.681 68.3573 135.793 71.1084C136.003 71.6334 136.154 72.0651 136.248 72.3685C136.307 72.5239 136.344 72.6869 136.358 72.8527Z" fill="#FAFAFA"/>
<path d="M140.209 63.5656C140.394 63.9537 140.514 64.3695 140.565 64.7964C140.942 66.8304 140.875 68.9221 140.366 70.9275C140.285 71.3478 140.139 71.7531 139.935 72.1292C140.219 70.7215 140.414 69.2972 140.518 67.8649C140.505 66.4267 140.402 64.9907 140.209 63.5656Z" fill="#FAFAFA"/>
<path d="M146.754 65.7882C146.954 66.8734 146.905 67.9897 146.612 69.0536C146.319 70.1174 145.789 71.1011 145.062 71.9309C145.565 70.9826 145.987 69.9932 146.322 68.9733C146.556 67.9258 146.7 66.8602 146.754 65.7882Z" fill="#FAFAFA"/>
<path d="M152.401 89.5248C152.342 89.5248 152.465 88.5156 152.471 86.8939C152.466 84.7755 152.213 82.665 151.718 80.6053C151.213 78.5547 150.467 76.5711 149.495 74.696C148.743 73.2609 148.177 72.4268 148.218 72.3976C148.387 72.5733 148.534 72.7692 148.655 72.9809C149.029 73.5069 149.372 74.0542 149.682 74.6202C150.72 76.4872 151.505 78.4843 152.016 80.5587C152.521 82.6329 152.744 84.7658 152.681 86.8997C152.665 87.5437 152.615 88.1864 152.529 88.8248C152.509 89.0618 152.466 89.2962 152.401 89.5248Z" fill="#455A64"/>
<path d="M164.447 79.7361C164.495 80.0016 164.516 80.2713 164.511 80.5411C164.511 80.8036 164.511 81.1245 164.511 81.4978C164.511 81.8712 164.511 82.2912 164.447 82.7578C164.36 83.8507 164.198 84.9363 163.963 86.0071C163.377 88.6309 162.366 91.1413 160.97 93.439C160.397 94.3734 159.763 95.2697 159.074 96.1224C158.788 96.4899 158.491 96.7991 158.246 97.0733C158.001 97.3475 157.773 97.5808 157.587 97.7617C157.41 97.9588 157.215 98.1386 157.003 98.2983C157.155 98.0753 157.329 97.8682 157.523 97.68C157.698 97.4875 157.913 97.2483 158.141 96.9625C158.368 96.6766 158.654 96.3791 158.928 95.9883C159.591 95.1278 160.201 94.2278 160.754 93.2932C161.418 92.1445 162.003 90.9516 162.504 89.7231C162.992 88.4865 163.394 87.2176 163.706 85.9254C163.954 84.8681 164.137 83.7967 164.254 82.717C164.319 82.2562 164.33 81.8362 164.359 81.4686C164.389 81.1011 164.406 80.7861 164.406 80.5236C164.396 80.2604 164.41 79.9969 164.447 79.7361Z" fill="#FAFAFA"/>
<path d="M149.804 57.3762C149.886 57.7804 149.886 58.197 149.804 58.6013C149.649 59.5852 149.299 60.5281 148.774 61.3746C148.249 62.2211 147.56 62.9541 146.748 63.5306C146.427 63.796 146.056 63.9944 145.657 64.1139C145.657 64.0731 146.042 63.8456 146.619 63.3847C148.127 62.1685 149.176 60.4754 149.594 58.5838C149.644 58.1779 149.714 57.7749 149.804 57.3762Z" fill="#FAFAFA"/>
<path d="M161.174 63.5714C161.257 63.9709 161.247 64.3839 161.145 64.7789C160.97 65.7429 160.57 66.6522 159.978 67.4332C159.382 68.2162 158.605 68.8444 157.715 69.2649C157.358 69.467 156.958 69.5828 156.548 69.6033C156.548 69.5566 156.974 69.4224 157.61 69.0724C158.431 68.6124 159.152 67.9914 159.728 67.2465C160.3 66.4997 160.715 65.6443 160.947 64.7323C161.11 64.0323 161.122 63.5714 161.174 63.5714Z" fill="#FAFAFA"/>
<path d="M165.258 68.5999C165.103 68.9501 164.879 69.2655 164.599 69.5274C163.331 70.8994 161.586 71.7343 159.722 71.8608C159.344 71.9142 158.958 71.8883 158.59 71.785C159.853 71.6945 161.091 71.3928 162.254 70.8924C163.375 70.2999 164.39 69.5252 165.258 68.5999Z" fill="#FAFAFA"/>
<path d="M138.272 62.3522C137.684 61.5168 137.366 60.5212 137.362 59.4996C137.251 58.4905 137.455 57.4717 137.945 56.5829C137.74 57.5414 137.638 58.5193 137.642 59.4996C137.753 60.4697 137.964 61.4256 138.272 62.3522Z" fill="#FAFAFA"/>
<path d="M136.493 62.8131C136.493 62.8422 136.137 62.5739 135.694 62.0489C134.556 60.6557 133.865 58.9522 133.71 57.1604C133.653 56.7939 133.664 56.4199 133.745 56.0579C133.909 57.2789 134.2 58.4794 134.614 59.6396C135.124 60.762 135.754 61.8259 136.493 62.8131Z" fill="#455A64"/>
<path d="M126.232 57.3762C126.51 59.3954 126.064 61.4478 124.972 63.1689C124.884 63.1281 125.473 61.9205 125.818 60.3163C126.162 58.7121 126.138 57.3762 126.232 57.3762Z" fill="#FAFAFA"/>
<path d="M117.452 65.5956C117.452 65.6306 117.172 65.5431 116.799 65.2923C116.325 64.9503 115.928 64.5132 115.632 64.0089C115.323 63.5082 115.124 62.9474 115.049 62.3638C115.002 61.9205 115.049 61.6405 115.09 61.6463C115.255 62.4151 115.522 63.1586 115.883 63.8572C116.325 64.5047 116.853 65.0894 117.452 65.5956Z" fill="#455A64"/>
<path d="M122.038 43.0783C122.078 43.1133 121.454 43.7784 120.673 45.0326C119.676 46.6646 119.045 48.4933 118.824 50.3927C118.602 52.2921 118.795 54.217 119.389 56.0346C119.844 57.4346 120.317 58.2221 120.264 58.2513C120.122 58.0873 120.002 57.9049 119.908 57.7088C119.625 57.1941 119.383 56.6577 119.185 56.1046C118.523 54.265 118.297 52.2966 118.526 50.3549C118.755 48.4132 119.432 46.5512 120.503 44.9159C120.824 44.424 121.183 43.9579 121.577 43.5217C121.851 43.2183 122.02 43.0608 122.038 43.0783Z" fill="#FAFAFA"/>
<path d="M110.283 49.6469C110.335 49.6469 110.154 50.3935 110.154 51.5952C110.147 53.1609 110.513 54.7057 111.223 56.101C111.934 57.4962 112.967 58.7015 114.238 59.6163C115.212 60.3222 115.912 60.6022 115.889 60.6547C115.713 60.6265 115.544 60.5693 115.387 60.4855C114.943 60.2923 114.518 60.06 114.115 59.7913C112.771 58.8991 111.676 57.6783 110.936 56.2446C110.207 54.8001 109.856 53.1946 109.915 51.5777C109.933 51.0946 109.995 50.6142 110.102 50.1427C110.134 49.9684 110.195 49.8007 110.283 49.6469Z" fill="#455A64"/>
<path d="M132.829 46.0825C132.92 46.2021 132.989 46.3362 133.034 46.4792C133.197 46.8551 133.324 47.2458 133.413 47.6459C133.723 48.95 133.758 50.3041 133.517 51.6226C133.276 52.9411 132.764 54.1952 132.013 55.3053C131.789 55.6423 131.533 55.9568 131.249 56.2445C131.05 56.4487 130.934 56.5537 130.916 56.5362C130.899 56.5187 131.307 56.0403 131.832 55.1886C133.21 52.9471 133.699 50.2708 133.203 47.6867C133.016 46.6892 132.754 46.1059 132.829 46.0825Z" fill="#FAFAFA"/>
<path d="M138.674 48.0193C138.827 48.4273 138.898 48.8614 138.884 49.2968C138.95 51.4262 138.225 53.5044 136.848 55.1303C136.583 55.4781 136.257 55.7747 135.886 56.0054C136.133 55.6556 136.398 55.3188 136.679 54.9962C137.919 53.352 138.615 51.3614 138.668 49.3027C138.686 48.521 138.627 48.0251 138.674 48.0193Z" fill="#455A64"/>
<path d="M148.095 51.3502C148.13 51.3502 148.305 51.5836 148.463 52.0444C148.662 52.6533 148.733 53.2967 148.673 53.9345C148.605 54.5746 148.406 55.1939 148.09 55.7545C147.845 56.1804 147.629 56.3904 147.6 56.3379C147.964 55.5574 148.214 54.7282 148.34 53.8761C148.379 53.0268 148.296 52.1763 148.095 51.3502Z" fill="#FAFAFA"/>
<path d="M158.082 57.7845C158.135 57.8487 157.674 58.3212 156.916 58.6362C156.492 58.8795 155.999 58.974 155.516 58.9046C155.923 58.6833 156.351 58.5017 156.793 58.3621C157.204 58.1307 157.636 57.9374 158.082 57.7845Z" fill="#FAFAFA"/>
<path d="M163.986 62.4514C164.358 63.0718 164.51 63.7992 164.418 64.5165C164.429 65.2384 164.201 65.9439 163.77 66.5232C163.689 66.4824 164.062 65.6248 164.115 64.499C164.167 63.3731 163.899 62.4806 163.986 62.4514Z" fill="#455A64"/>
<path d="M154.775 44.245C154.775 44.245 154.892 44.3558 155.032 44.595C155.231 44.934 155.397 45.2915 155.527 45.6625C155.976 46.895 156.097 48.2228 155.88 49.5162C155.662 50.8096 155.112 52.0244 154.285 53.0419C154.039 53.35 153.763 53.6333 153.462 53.8878C153.252 54.0686 153.124 54.1503 153.106 54.1328C153.089 54.1153 153.538 53.7011 154.116 52.9136C154.868 51.8964 155.37 50.7157 155.58 49.4678C155.79 48.2199 155.702 46.94 155.323 45.7325C155.043 44.7992 154.728 44.2683 154.775 44.245Z" fill="#455A64"/>
<path d="M162.248 50.3702C162.245 50.8053 162.149 51.2348 161.968 51.6302C161.58 52.6073 160.968 53.4793 160.18 54.1756C159.393 54.8719 158.452 55.3728 157.435 55.6379C157.021 55.7706 156.584 55.8143 156.152 55.7662C156.152 55.7137 156.636 55.667 157.377 55.4337C158.337 55.1219 159.223 54.6155 159.979 53.946C160.735 53.2765 161.344 52.4584 161.77 51.5427C162.096 50.8544 162.195 50.3585 162.248 50.3702Z" fill="#FAFAFA"/>
<path d="M167.755 57.3762C167.779 57.6647 167.727 57.9545 167.603 58.2162C167.361 58.8654 166.977 59.4524 166.48 59.9347C165.982 60.417 165.384 60.7825 164.727 61.0047C164.462 61.1158 164.174 61.1599 163.887 61.133C164.76 60.8078 165.566 60.3276 166.267 59.7155C166.904 59.0352 167.409 58.2418 167.755 57.3762Z" fill="#455A64"/>
<path d="M114.856 142.966L129.306 134.624L157.692 131.823L157.878 135.983L150.213 193.974L156.455 242.905H110.971L114.856 142.966Z" fill="#263238"/>
<path d="M128.244 140.551L127.352 132.203C127.315 131.854 127.347 131.501 127.448 131.165C127.548 130.828 127.715 130.515 127.937 130.244C128.16 129.973 128.434 129.748 128.744 129.584C129.054 129.419 129.394 129.318 129.743 129.286L156.216 126.894C156.386 126.879 156.557 126.899 156.719 126.952C156.881 127.005 157.031 127.091 157.158 127.204C157.286 127.317 157.39 127.455 157.462 127.609C157.535 127.764 157.575 127.931 157.581 128.102L157.878 138.019L150.213 151.028L142.332 153.524H132.701L127.159 147.609L128.244 140.551Z" fill="#263238"/>
<path d="M153.97 134.857C153.616 134.843 153.263 134.808 152.914 134.752C151.954 134.661 150.989 134.644 150.026 134.7C148.599 134.797 147.182 135.002 145.785 135.312C144.204 135.645 142.489 136.111 140.669 136.555C138.957 136.997 137.214 137.307 135.454 137.482C134.009 137.616 132.552 137.517 131.137 137.19C130.183 136.963 129.272 136.585 128.436 136.07C128.214 135.927 128 135.771 127.795 135.604C127.655 135.487 127.585 135.417 127.596 135.411C127.608 135.405 127.911 135.621 128.506 135.96C129.348 136.422 130.252 136.76 131.19 136.963C132.584 137.253 134.015 137.326 135.431 137.179C137.171 136.99 138.894 136.674 140.588 136.234C142.402 135.79 144.129 135.33 145.727 135.015C147.139 134.714 148.573 134.53 150.015 134.466C150.99 134.429 151.966 134.481 152.931 134.624C153.276 134.682 153.515 134.729 153.713 134.775C153.801 134.795 153.887 134.822 153.97 134.857Z" fill="#455A64"/>
<g opacity="0.3">
<path d="M128.874 136.158C128.162 138.106 128.145 140.521 129.58 141.991C130.747 143.211 132.637 143.514 134.293 143.158C135.934 142.736 137.49 142.038 138.896 141.093C142.542 138.923 146.24 136.677 150.382 135.761C150.653 135.726 150.91 135.617 151.123 135.446C151.174 135.403 151.216 135.35 151.245 135.289C151.274 135.229 151.291 135.164 151.294 135.097C151.296 135.03 151.285 134.963 151.261 134.901C151.237 134.838 151.2 134.782 151.152 134.735C151.049 134.67 150.93 134.636 150.808 134.635C147.145 134.268 143.621 135.715 140.034 136.52C136.446 137.325 132.322 138.17 129.037 136.234" fill="black"/>
</g>
<path d="M133.92 129.023C133.544 129.226 133.23 129.526 133.01 129.893C132.596 130.563 132.648 131.701 132.648 132.932C132.718 135.405 133.127 137.377 133.028 137.4C132.847 136.994 132.727 136.564 132.672 136.123C132.467 135.075 132.35 134.011 132.322 132.944C132.295 132.36 132.307 131.775 132.357 131.194C132.392 130.695 132.548 130.212 132.812 129.788C132.993 129.5 133.252 129.269 133.558 129.123C133.792 129.023 133.92 129.023 133.92 129.023Z" fill="#455A64"/>
<path d="M140.92 136.275C140.815 136.275 141.055 134.443 140.728 132.238C140.401 130.033 139.69 128.341 139.789 128.3C140.028 128.626 140.211 128.988 140.331 129.374C140.677 130.283 140.92 131.228 141.055 132.191C141.197 133.157 141.226 134.136 141.142 135.108C141.134 135.506 141.059 135.901 140.92 136.275Z" fill="#455A64"/>
<path d="M149.449 127.6C149.685 127.889 149.856 128.225 149.951 128.586C150.53 130.304 150.405 132.182 149.601 133.807C149.465 134.155 149.249 134.467 148.971 134.717C149.497 133.614 149.834 132.431 149.968 131.217C150.12 129.175 149.344 127.635 149.449 127.6Z" fill="#455A64"/>
<path d="M95.5065 214.42C95.5065 214.42 101.923 167.169 103.796 158.599C104.501 155.384 105.846 152.344 107.75 149.659C109.654 146.974 112.079 144.7 114.88 142.971L116.659 228.584L108.836 238.431L100.086 241.78C98.0824 242.55 95.8709 242.585 93.844 241.879L85.4612 238.962L84.7495 222.99L91.8314 220.942L95.5065 214.42Z" fill="#263238"/>
<path d="M182.712 142.16C185.923 143.41 188.777 145.429 191.025 148.04C193.273 150.651 194.845 153.774 195.604 157.135C200.609 179.192 209.172 208.54 209.307 218.008C209.476 230.066 204.202 238.32 197.319 239.843C193.381 240.712 166.599 240.274 152.056 239.965C149.46 239.908 146.971 238.919 145.043 237.179C143.115 235.439 141.878 233.063 141.556 230.486C141.201 227.674 141.962 224.835 143.677 222.579C145.391 220.322 147.922 218.828 150.726 218.416L180.192 214.082L174.72 183.508L180.133 141.163L182.712 142.16Z" fill="#263238"/>
<path d="M157.12 132.699L168.921 137.523L180.145 141.163L180.413 174.747L173.734 242.818L150.312 242.905L150.359 212.524C149.488 197.879 150.445 183.182 153.206 168.773L156.77 139.891" fill="#263238"/>
<path d="M174.387 180.417C174.43 180.526 174.459 180.639 174.475 180.755C174.527 181.018 174.591 181.338 174.667 181.735C174.831 182.633 175.058 183.859 175.327 185.346C175.869 188.444 176.598 192.644 177.409 197.281C178.22 201.919 178.879 206.131 179.398 209.228C179.632 210.728 179.824 211.953 179.982 212.857C180.04 213.259 180.087 213.586 180.122 213.849C180.138 213.965 180.138 214.083 180.122 214.199C180.079 214.09 180.05 213.976 180.034 213.86C179.976 213.598 179.912 213.277 179.83 212.88C179.667 211.982 179.439 210.763 179.159 209.269C178.611 206.218 177.87 202.001 177.077 197.334C176.283 192.667 175.577 188.449 175.093 185.387C174.86 183.888 174.673 182.663 174.51 181.758C174.457 181.356 174.416 181.029 174.381 180.767C174.367 180.65 174.369 180.533 174.387 180.417Z" fill="#263238"/>
<path d="M185.442 146.932C185.15 147.067 184.847 147.178 184.538 147.265C183.719 147.564 182.918 147.911 182.14 148.303C179.582 149.619 177.363 151.51 175.659 153.828C175.172 154.481 174.745 155.176 174.381 155.904C174.067 156.593 173.811 157.307 173.617 158.039C173.286 159.289 173.072 160.566 172.976 161.854C172.876 162.951 172.859 163.85 172.853 164.468C172.874 164.788 172.874 165.11 172.853 165.43C172.781 165.115 172.746 164.792 172.748 164.468C172.699 163.592 172.699 162.713 172.748 161.837C172.814 160.53 173.009 159.232 173.331 157.964C173.523 157.209 173.78 156.473 174.101 155.764C174.469 155.016 174.904 154.303 175.402 153.635C177.132 151.274 179.413 149.372 182.047 148.093C182.841 147.713 183.665 147.395 184.508 147.142C184.811 147.04 185.124 146.969 185.442 146.932Z" fill="#263238"/>
<path d="M150.05 218.539C150.187 218.543 150.323 218.534 150.458 218.51L151.625 218.364L155.93 217.78L170.117 215.675L180.431 214.088H180.39C181.704 214.277 182.942 214.824 183.966 215.669C184.767 216.309 185.434 217.102 185.926 218.002C186.341 218.796 186.636 219.647 186.801 220.528C186.81 220.468 186.81 220.407 186.801 220.347C186.801 220.225 186.801 220.05 186.731 219.822C186.608 219.161 186.388 218.523 186.078 217.926C185.595 216.99 184.929 216.16 184.118 215.488C183.068 214.597 181.792 214.015 180.431 213.808H180.39L170.088 215.36L155.918 217.559L151.631 218.259L150.464 218.469C150.324 218.477 150.185 218.501 150.05 218.539Z" fill="#263238"/>
<path d="M152.418 239.977C152.516 239.961 152.61 239.929 152.698 239.884C152.965 239.787 153.225 239.67 153.474 239.534C154.398 239.042 155.223 238.383 155.907 237.591C156.92 236.41 157.673 235.028 158.117 233.537C158.668 231.712 158.813 229.789 158.543 227.902C158.236 226.008 157.431 224.23 156.21 222.751C155.232 221.547 154.019 220.554 152.646 219.834C151.731 219.345 150.748 218.997 149.729 218.801C149.373 218.725 149.081 218.726 148.889 218.696C148.792 218.683 148.694 218.683 148.597 218.696C149.982 218.927 151.32 219.383 152.558 220.044C153.884 220.781 155.051 221.772 155.994 222.961C157.161 224.406 157.932 226.131 158.228 227.966C158.488 229.799 158.355 231.666 157.837 233.443C157.418 234.903 156.703 236.261 155.737 237.434C155.081 238.225 154.291 238.896 153.404 239.417C152.786 239.784 152.406 239.942 152.418 239.977Z" fill="#263238"/>
<g opacity="0.2">
<path d="M174.825 182.599L170.426 215.447L175.997 214.199L177.724 199.866L174.825 182.599Z" fill="black"/>
</g>
<g opacity="0.3">
<path d="M84.8779 222.996C87.5244 222.517 90.2351 222.517 92.8815 222.996C94.0138 223.249 95.0774 223.746 95.999 224.451C96.9206 225.156 97.6781 226.053 98.2192 227.079C99.2571 229.008 99.5795 231.242 99.1292 233.385C98.75 235.234 98.3534 237.148 97 238.46C95.0049 240.397 93.039 241.021 90.4606 240.566L85.5021 238.956L84.8779 222.996Z" fill="black"/>
</g>
<path d="M89.148 240.234C89.2531 240.293 89.3647 240.34 89.4805 240.374C89.8048 240.491 90.1385 240.581 90.4781 240.642C91.7324 240.9 93.032 240.832 94.2524 240.444C95.0955 240.168 95.8736 239.724 96.5391 239.137C97.2918 238.456 97.911 237.641 98.365 236.734C98.8653 235.734 99.2171 234.667 99.4092 233.566C99.6648 232.388 99.6925 231.172 99.4908 229.984C99.232 228.812 98.7848 227.689 98.1666 226.659C97.6332 225.729 96.9132 224.919 96.0519 224.281C95.1905 223.642 94.2065 223.189 93.1615 222.949C92.3039 222.767 91.4305 222.669 90.5539 222.657C89.2935 222.647 88.0339 222.729 86.7855 222.902L85.7704 223.048C85.6505 223.055 85.5325 223.081 85.4204 223.124C85.5386 223.138 85.6581 223.138 85.7763 223.124L86.7971 223.042C88.0433 222.917 89.2961 222.87 90.5481 222.902C91.4064 222.929 92.2601 223.038 93.0973 223.229C94.0499 223.459 94.9491 223.871 95.7457 224.442C97.4316 225.609 98.6625 227.75 99.17 230.06C99.3642 231.207 99.3385 232.381 99.0942 233.519C98.9131 234.591 98.5771 235.63 98.0966 236.605C97.6632 237.485 97.0697 238.276 96.3466 238.939C95.7128 239.51 94.971 239.948 94.1649 240.228C92.9827 240.626 91.7212 240.73 90.4897 240.531C89.6264 240.379 89.1597 240.204 89.148 240.234Z" fill="#263238"/>
<g opacity="0.3">
<path d="M149.326 218.731C151.66 219.373 154.139 220.096 155.743 221.916C157.375 223.928 158.326 226.406 158.462 228.993C158.597 231.579 157.909 234.142 156.496 236.314C155.763 237.508 154.78 238.529 153.614 239.306C152.416 239.91 151.052 240.1 149.735 239.849C146.235 239.265 143.248 236.442 142.21 233.023C141.7 231.227 141.571 229.344 141.832 227.494C142.092 225.645 142.735 223.87 143.72 222.284C144.665 220.866 147.699 219.245 149.321 218.731" fill="black"/>
</g>
<path d="M192.086 226.869C191.984 226.641 191.9 226.405 191.835 226.163C191.689 225.708 191.479 225.049 191.194 224.244C190.504 222.138 189.484 220.155 188.172 218.37C186.821 216.604 185.002 215.252 182.922 214.467C182.049 214.182 181.15 213.987 180.238 213.884C180.486 213.852 180.737 213.852 180.985 213.884C181.668 213.929 182.342 214.06 182.992 214.275C185.139 215.02 187.019 216.384 188.394 218.195C189.74 220.001 190.76 222.028 191.409 224.186C191.672 225.008 191.853 225.679 191.993 226.146C192.054 226.382 192.085 226.625 192.086 226.869Z" fill="#455A64"/>
<path d="M171.838 166.516C171.899 166.666 171.944 166.822 171.972 166.982C172.048 167.321 172.159 167.776 172.293 168.347C172.567 169.514 172.94 171.264 173.39 173.37C174.288 177.617 175.449 183.509 176.592 190.036C177.736 196.564 178.622 202.497 179.211 206.802C179.509 208.948 179.736 210.693 179.882 211.9C179.946 212.484 179.999 212.944 180.04 213.289C180.081 213.633 180.081 213.773 180.075 213.779C180.026 213.621 179.993 213.459 179.976 213.294C179.923 212.956 179.853 212.495 179.76 211.918C179.579 210.687 179.322 208.954 179.001 206.831C178.354 202.537 177.426 196.611 176.289 190.089C175.151 183.567 174.025 177.669 173.18 173.411C172.76 171.305 172.421 169.59 172.176 168.371C172.065 167.787 171.978 167.338 171.914 167C171.875 166.841 171.85 166.679 171.838 166.516Z" fill="#455A64"/>
<path d="M181.801 142.896C181.801 142.942 181.154 143.31 180.156 144.027C178.865 144.961 177.69 146.046 176.656 147.259C175.624 148.478 174.744 149.818 174.037 151.249C173.494 152.352 173.238 153.069 173.191 153.052C173.204 152.871 173.247 152.693 173.319 152.527C173.465 152.059 173.64 151.601 173.844 151.156C174.506 149.68 175.374 148.305 176.423 147.072C177.475 145.838 178.695 144.757 180.045 143.858C180.453 143.586 180.878 143.341 181.317 143.123C181.466 143.024 181.629 142.947 181.801 142.896Z" fill="#455A64"/>
<path d="M111.513 220.866C111.506 220.816 111.506 220.765 111.513 220.715C111.513 220.604 111.513 220.458 111.513 220.283C111.513 219.88 111.513 219.32 111.513 218.615C111.484 217.168 111.478 215.074 111.315 212.495C111.228 211.206 111.093 209.794 110.866 208.295C110.638 206.796 110.283 205.209 109.868 203.552C109.052 200.239 107.885 196.611 107.64 192.632C107.52 188.897 107.999 185.167 109.058 181.583C109.938 178.27 110.918 175.342 111.624 172.833C112.204 170.875 112.675 168.887 113.036 166.877C113.176 166.165 113.229 165.605 113.293 165.232C113.293 165.057 113.339 164.917 113.357 164.8C113.374 164.684 113.357 164.655 113.392 164.66C113.397 164.709 113.397 164.758 113.392 164.806C113.392 164.923 113.392 165.063 113.357 165.238C113.316 165.617 113.281 166.183 113.159 166.895C112.816 168.929 112.346 170.939 111.753 172.915C111.076 175.412 110.119 178.346 109.25 181.665C108.226 185.219 107.765 188.912 107.885 192.609C108.13 196.541 109.273 200.151 110.084 203.477C110.49 205.049 110.813 206.642 111.053 208.248C111.274 209.759 111.397 211.165 111.467 212.472C111.607 215.062 111.583 217.139 111.572 218.609C111.572 219.315 111.572 219.875 111.543 220.277V220.709C111.541 220.762 111.531 220.816 111.513 220.866Z" fill="#455A64"/>
<path d="M172.205 153.279L172.019 153.232L171.494 153.069C170.817 152.873 170.124 152.736 169.423 152.661C166.833 152.423 164.223 152.781 161.793 153.705C160.112 154.323 158.489 155.09 156.945 155.998C155.265 156.954 153.532 158.086 151.695 159.259C149.785 160.515 147.791 161.637 145.727 162.619C143.497 163.681 141.094 164.337 138.634 164.555C136.153 164.698 133.676 164.225 131.423 163.179C129.35 162.209 127.365 161.062 125.491 159.749C123.682 158.535 121.991 157.363 120.281 156.429C118.73 155.538 117.066 154.859 115.334 154.411C113.901 154.065 112.42 153.966 110.954 154.119C109.847 154.239 108.768 154.536 107.757 155C106.901 155.418 106.114 155.965 105.423 156.622C105.459 156.571 105.501 156.524 105.546 156.482C105.633 156.394 105.762 156.254 105.937 156.091C106.466 155.627 107.055 155.235 107.687 154.924C108.704 154.432 109.796 154.112 110.919 153.979C112.406 153.808 113.911 153.893 115.369 154.23C117.125 154.672 118.812 155.349 120.386 156.243C122.096 157.17 123.816 158.337 125.636 159.544C127.503 160.842 129.478 161.976 131.54 162.934C133.745 163.944 136.165 164.396 138.587 164.252C141.015 164.04 143.385 163.396 145.587 162.35C147.641 161.378 149.625 160.265 151.526 159.019C153.369 157.853 155.107 156.733 156.805 155.776C158.366 154.871 160.006 154.109 161.705 153.501C164.166 152.585 166.807 152.257 169.417 152.544C170.122 152.635 170.818 152.791 171.494 153.011L172.013 153.203C172.081 153.218 172.146 153.244 172.205 153.279Z" fill="#FAFAFA"/>
<path d="M194.501 159.48C194.327 159.719 194.132 159.942 193.918 160.145C193.683 160.401 193.432 160.641 193.165 160.863C192.83 161.174 192.477 161.467 192.109 161.738C191.668 162.077 191.209 162.39 190.732 162.677C190.191 163.016 189.632 163.326 189.058 163.605C187.737 164.235 186.352 164.724 184.928 165.063C183.497 165.378 182.036 165.542 180.57 165.553C179.931 165.55 179.292 165.513 178.657 165.442C178.104 165.393 177.555 165.311 177.012 165.197C176.504 165.115 176.067 164.97 175.676 164.87C175.341 164.785 175.012 164.677 174.69 164.55C174.409 164.463 174.137 164.347 173.879 164.205C173.879 164.141 175.046 164.631 177.053 164.981C177.591 165.083 178.134 165.153 178.68 165.191C179.264 165.267 179.905 165.255 180.57 165.273C182.013 165.244 183.449 165.074 184.858 164.765C186.263 164.432 187.631 163.959 188.942 163.354C189.525 163.05 190.108 162.77 190.61 162.461C191.084 162.186 191.544 161.886 191.987 161.563C193.614 160.379 194.448 159.434 194.501 159.48Z" fill="#FAFAFA"/>
<path d="M111.233 170.617C110.779 170.702 110.315 170.715 109.857 170.657C108.744 170.584 107.646 170.366 106.59 170.01C105.534 169.653 104.529 169.163 103.597 168.551C103.196 168.323 102.834 168.031 102.524 167.688C103.844 168.496 105.239 169.176 106.689 169.718C108.171 170.163 109.693 170.464 111.233 170.617Z" fill="#FAFAFA"/>
<path d="M173.104 174.262C172.443 173.78 171.745 173.35 171.016 172.979C168.969 172.08 166.737 171.68 164.505 171.812C161.67 171.853 158.363 172.6 154.74 173.562C151.118 174.525 147.157 175.715 142.886 176.514C140.81 176.918 138.706 177.159 136.592 177.237C134.622 177.3 132.65 177.206 130.694 176.957C127.391 176.523 124.128 175.816 120.941 174.846C118.217 174.041 116.046 173.282 114.524 172.757L112.803 172.145L112.36 171.976C112.26 171.935 112.208 171.911 112.214 171.906C112.267 171.914 112.32 171.928 112.371 171.946L112.826 172.087L114.576 172.67C116.087 173.16 118.263 173.883 120.993 174.665C124.178 175.598 127.432 176.281 130.724 176.707C132.659 176.941 134.609 177.026 136.557 176.963C138.657 176.879 140.747 176.637 142.811 176.24C147.057 175.441 151.013 174.245 154.647 173.323C158.281 172.402 161.612 171.649 164.476 171.631C166.739 171.524 168.994 171.97 171.045 172.932L171.541 173.195L171.961 173.463C172.182 173.594 172.393 173.742 172.591 173.907L172.958 174.21L173.104 174.262Z" fill="#FAFAFA"/>
<path d="M69.6754 239.703C69.6754 239.703 75.7714 240.601 78.1048 241.546C80.6365 242.567 83.7633 241.972 85.8867 240.595C87.094 239.831 88.2234 238.95 89.2585 237.964L97.0521 238.005C98.2029 236.718 98.9754 235.138 99.2842 233.439C99.5931 231.741 99.4262 229.99 98.8021 228.38C98.3974 227.262 97.8056 226.22 97.0521 225.3C96.1479 224.279 94.7187 223.439 92.1869 222.966L82.8883 224.775C82.8883 224.775 71.0987 224.576 66.3444 224.355C65.2015 224.301 64.0713 224.614 63.1185 225.247C62.0043 225.988 60.7442 226.997 60.8434 227.622C60.9134 228.094 60.1434 231.122 62.436 233.076C62.436 233.076 60.3709 234.645 61.4384 236.121L61.9518 236.774C61.9518 236.774 60.5517 238.524 61.2343 239.294C61.9168 240.064 67.9836 243.81 70.1945 242.993C72.4054 242.176 70.6379 240.111 69.6754 239.72" fill="#B78876"/>
<path d="M64.0347 229.943C64.2951 230.017 64.5488 230.113 64.793 230.229C65.2714 230.422 65.9597 230.696 66.8406 230.999C67.2781 231.145 67.7623 231.303 68.2815 231.448C68.8007 231.594 69.3723 231.728 69.9615 231.933C70.6024 232.121 71.1781 232.485 71.6241 232.983C71.8679 233.259 72.0341 233.596 72.1058 233.957C72.1775 234.319 72.1522 234.693 72.0324 235.042C71.875 235.391 71.6005 235.673 71.2566 235.841C70.9326 235.989 70.585 236.078 70.2299 236.104C69.577 236.128 68.9235 236.079 68.2815 235.958C67.2066 235.764 66.1535 235.465 65.1372 235.065C64.268 234.739 63.5797 234.429 63.1071 234.219C62.8559 234.12 62.6138 233.999 62.3838 233.858C62.6454 233.926 62.901 234.016 63.148 234.126C63.6322 234.313 64.3147 234.593 65.1955 234.896C66.2112 235.264 67.2576 235.541 68.3223 235.724C68.9435 235.838 69.5756 235.881 70.2065 235.853C70.5295 235.83 70.8457 235.749 71.1399 235.614C71.4335 235.476 71.6661 235.235 71.7932 234.937C71.8955 234.632 71.9159 234.305 71.8524 233.99C71.7889 233.675 71.6438 233.382 71.4316 233.14C71.0157 232.677 70.4811 232.336 69.8857 232.154C69.3023 231.95 68.7482 231.816 68.2231 231.653C67.6981 231.489 67.2198 231.326 66.7823 231.168C65.9072 230.848 65.2189 230.544 64.7522 230.317C64.503 230.212 64.263 230.088 64.0347 229.943Z" fill="#AA6550"/>
<path d="M64.6765 225.527C64.9334 225.608 65.1847 225.706 65.429 225.819C65.9073 226.017 66.5957 226.297 67.4649 226.607C68.3341 226.916 69.3783 227.254 70.5508 227.563C71.201 227.678 71.8158 227.942 72.3475 228.333C72.6283 228.577 72.8107 228.915 72.8609 229.284C72.9064 229.656 72.8436 230.032 72.68 230.369C72.515 230.69 72.2851 230.974 72.005 231.202C71.7249 231.43 71.4005 231.597 71.0525 231.693C70.4212 231.885 69.7537 231.924 69.1041 231.81C68.039 231.578 66.9966 231.252 65.989 230.836L63.9181 230.072C63.6624 229.988 63.4145 229.883 63.1772 229.757C63.4415 229.809 63.7009 229.883 63.9531 229.978L66.024 230.667C67.0289 231.051 68.0628 231.355 69.1158 231.577C69.7291 231.68 70.358 231.64 70.9533 231.46C71.2674 231.371 71.5599 231.218 71.8127 231.011C72.0655 230.805 72.2733 230.548 72.4234 230.258C72.5818 229.979 72.6415 229.654 72.5928 229.337C72.5441 229.019 72.3899 228.727 72.155 228.508C71.6557 228.14 71.0792 227.891 70.4691 227.779C69.3024 227.452 68.2407 227.097 67.3774 226.764C66.514 226.432 65.8315 226.122 65.3648 225.901C65.1243 225.798 64.8938 225.673 64.6765 225.527Z" fill="#AA6550"/>
<path d="M89.1479 227.487L83.7519 225.277C83.7519 225.277 68.7773 217.903 68.5148 218.276C68.2523 218.65 67.4356 218.597 67.5756 220.446C67.7156 222.296 76.4484 226.192 76.7167 226.863C76.985 227.534 76.4484 230.725 79.6335 233.105C82.8186 235.485 85.187 235.59 85.187 235.59" fill="#B78876"/>
<path d="M85.2044 235.567H85.0702C84.945 235.558 84.8204 235.542 84.6969 235.52C84.2183 235.44 83.7478 235.317 83.291 235.153C82.5656 234.895 81.8647 234.573 81.1968 234.19C80.3047 233.695 79.4761 233.094 78.7292 232.399C77.8342 231.519 77.2123 230.399 76.9383 229.173C76.7969 228.502 76.7034 227.822 76.6583 227.137C76.6472 227.057 76.6316 226.977 76.6116 226.898C76.5765 226.84 76.5287 226.79 76.4716 226.752C76.3314 226.645 76.1853 226.546 76.0341 226.455C75.7308 226.268 75.4099 226.087 75.0833 225.901C73.7882 225.177 72.4057 224.442 70.9998 223.602C70.3056 223.182 69.6056 222.739 68.9289 222.237C68.5834 221.982 68.2595 221.7 67.9605 221.391C67.8026 221.23 67.6654 221.05 67.5522 220.855C67.4969 220.748 67.4576 220.634 67.4355 220.516C67.427 220.404 67.427 220.291 67.4355 220.178C67.3941 219.726 67.4853 219.272 67.698 218.871C67.8233 218.679 67.9909 218.517 68.188 218.399C68.2661 218.351 68.3368 218.292 68.398 218.224C68.398 218.224 68.3981 218.224 68.4506 218.171C68.4835 218.149 68.5219 218.137 68.5614 218.136H68.6664L68.8297 218.177C69.6464 218.451 70.3873 218.796 71.1631 219.122C72.6448 219.781 74.0799 220.446 75.4041 221.088C78.0934 222.366 80.5026 223.544 82.521 224.547C83.0227 224.792 83.501 225.043 83.9619 225.247L85.2802 225.802L87.3978 226.688L88.7278 227.272L89.072 227.429L89.1829 227.487L89.0604 227.452L88.7104 227.324L87.357 226.793L85.2219 225.942L83.8919 225.411C83.4252 225.207 82.9527 224.962 82.4393 224.717L75.3049 221.31C73.9574 220.68 72.5398 220.015 71.0581 219.361C70.3231 219.041 69.5648 218.691 68.7889 218.434L68.6489 218.399H68.5847C68.5847 218.399 68.5847 218.364 68.5847 218.341C68.7539 218.457 68.6256 218.376 68.6606 218.405C68.583 218.495 68.4926 218.574 68.3922 218.638C68.2261 218.737 68.0846 218.873 67.978 219.035C67.7968 219.395 67.7181 219.799 67.7505 220.201C67.7384 220.403 67.7786 220.604 67.8672 220.785C67.9689 220.959 68.0924 221.12 68.2347 221.263C68.5237 221.56 68.8358 221.833 69.1681 222.08C69.8331 222.576 70.5273 223.019 71.2156 223.433C72.5982 224.273 73.9749 225.014 75.2991 225.767C75.6258 225.953 75.9466 226.134 76.2558 226.35C76.4075 226.449 76.565 226.542 76.7108 226.659C76.8033 226.721 76.8762 226.808 76.9208 226.91C76.9502 227.001 76.9698 227.095 76.9791 227.19C77.0211 227.87 77.1088 228.546 77.2417 229.214C77.5033 230.404 78.0982 231.494 78.9567 232.358C79.6862 233.05 80.4949 233.653 81.366 234.155C82.0235 234.543 82.7123 234.874 83.4252 235.147C83.8748 235.32 84.337 235.458 84.8077 235.561C84.9652 235.596 85.0936 235.614 85.1752 235.625L85.2044 235.567Z" fill="#AA6550"/>
<path d="M68.509 235.923C68.7111 235.955 68.9075 236.016 69.0924 236.104C69.599 236.322 70.0723 236.611 70.4982 236.961C70.797 237.204 71.0688 237.477 71.3091 237.778C71.4585 237.954 71.5716 238.158 71.6417 238.379C71.7117 238.599 71.7375 238.831 71.7174 239.061C71.6626 239.317 71.5375 239.552 71.3561 239.741C71.1747 239.93 70.9443 240.064 70.6907 240.129C70.1654 240.259 69.6131 240.231 69.104 240.047C67.384 239.498 65.7198 238.787 64.1339 237.924C63.6563 237.664 63.1946 237.375 62.7513 237.06C62.5818 236.954 62.4235 236.831 62.2788 236.693C62.463 236.77 62.6389 236.866 62.8038 236.979C63.1363 237.177 63.6205 237.451 64.2272 237.766C65.8202 238.569 67.4719 239.25 69.1682 239.802C69.6281 239.969 70.1265 239.999 70.6032 239.89C70.8157 239.841 71.0103 239.734 71.165 239.58C71.3197 239.426 71.4282 239.232 71.4783 239.02C71.4955 238.819 71.4729 238.617 71.4118 238.425C71.3508 238.233 71.2524 238.054 71.1224 237.9C70.9003 237.606 70.6481 237.337 70.3699 237.095C69.8014 236.628 69.1761 236.234 68.509 235.923Z" fill="#AA6550"/>
<path d="M154.296 221.03L144.683 221.228C144.683 221.228 130.274 216.019 127.311 216.52C124.639 216.964 114.868 223.456 112.954 224.746C112.739 224.884 112.575 225.089 112.488 225.329C112.299 225.837 112.315 226.399 112.533 226.895C112.751 227.391 113.153 227.784 113.654 227.989L113.859 228.077L113.771 228.368C113.655 228.746 113.604 229.14 113.619 229.535C113.643 229.833 113.761 230.117 113.956 230.344C114.151 230.571 114.414 230.73 114.705 230.798C114.997 230.866 115.302 230.84 115.578 230.723C115.854 230.606 116.085 230.405 116.239 230.147L115.871 230.801C115.72 231.067 115.65 231.371 115.667 231.676L115.702 232.259C115.719 232.582 115.834 232.892 116.031 233.148C116.227 233.404 116.497 233.594 116.804 233.694C117.098 233.789 117.412 233.798 117.71 233.72C118.008 233.641 118.277 233.478 118.485 233.251C119.721 231.892 122.399 229.167 124.207 228.858C126.172 228.622 128.15 228.523 130.128 228.561C130.531 228.563 130.923 228.687 131.254 228.916C131.585 229.145 131.839 229.468 131.983 229.844C130.91 229.92 123.42 233.823 120.771 235.223C120.361 235.427 120.007 235.729 119.738 236.101C119.47 236.472 119.296 236.904 119.231 237.358C119.132 238.186 119.552 239.055 121.191 238.67C124.691 237.848 131.05 234.937 131.05 234.937C131.05 234.937 134.323 234.003 136.44 235.52C139.415 237.62 140.78 238.39 143.341 237.544C144.895 237.024 146.386 236.331 147.786 235.479L156.502 236.325C156.502 236.325 161.833 227.61 154.296 221.03Z" fill="#B78876"/>
<path d="M132.042 223.661C132.042 223.719 131.015 223.392 129.335 223.287C127.137 223.139 124.934 223.512 122.907 224.376C120.879 225.239 119.085 226.569 117.668 228.257C116.583 229.547 116.116 230.503 116.07 230.474C116.147 230.237 116.255 230.012 116.391 229.803C116.722 229.217 117.101 228.659 117.522 228.135C118.922 226.384 120.733 225.007 122.794 224.128C124.856 223.248 127.103 222.893 129.335 223.095C130.007 223.151 130.672 223.264 131.324 223.433C131.57 223.486 131.811 223.562 132.042 223.661Z" fill="#AA6550"/>
<path d="M130.513 220.161C129.597 219.885 128.651 219.721 127.695 219.671C125.379 219.659 123.106 220.302 121.139 221.526C119.189 222.778 117.412 224.28 115.853 225.994L114.407 227.534C114.239 227.732 114.056 227.915 113.858 228.082C113.992 227.859 114.15 227.652 114.331 227.464C114.646 227.079 115.118 226.531 115.713 225.866C117.247 224.096 119.027 222.555 120.999 221.292C123.005 220.039 125.337 219.408 127.701 219.478C128.414 219.51 129.118 219.639 129.796 219.863C129.979 219.919 130.158 219.987 130.332 220.067C130.398 220.087 130.459 220.119 130.513 220.161Z" fill="#AA6550"/>
<path d="M90.4194 82.1104C87.2559 74.7563 81.7269 68.6695 74.7098 64.8159C67.6927 60.9623 59.5896 59.5626 51.6864 60.8391C43.7833 62.1155 36.5328 65.9949 31.0856 71.8616C25.6385 77.7283 22.3067 85.2462 21.6191 93.2222C20.9315 101.198 22.9275 109.175 27.2903 115.888C31.653 122.6 38.1326 127.663 45.7007 130.273C53.2689 132.884 61.4919 132.891 69.065 130.295C76.6381 127.7 83.1272 122.649 87.5026 115.945L101.386 115.717L92.3328 104.814C94.1863 97.2401 93.5144 89.2676 90.4194 82.1104Z" fill="#FAFAFA"/>
<path d="M43.1682 63.2447C42.9679 63.3093 42.7728 63.3892 42.5848 63.4839L40.9281 64.2714C40.5606 64.4522 40.1464 64.6272 39.7089 64.8548L38.3089 65.7006L36.6813 66.6981L34.9313 68.0165C31.9574 70.3022 29.3796 73.0613 27.301 76.1834C24.5149 80.3014 22.5975 84.9441 21.6658 89.828C20.5928 95.7785 20.9934 101.901 22.8326 107.661C23.3555 109.226 23.979 110.756 24.6993 112.24C25.0843 112.987 25.4051 113.775 25.866 114.498L27.2252 116.686C29.2046 119.65 31.6106 122.305 34.3654 124.567C37.2756 126.913 40.5097 128.827 43.9674 130.248C47.6135 131.663 51.4566 132.505 55.3602 132.745C59.4081 133.019 63.4725 132.574 67.3656 131.433C68.3586 131.171 69.333 130.844 70.2824 130.453C71.2624 130.119 72.2225 129.729 73.1583 129.286C75.0519 128.378 76.8649 127.31 78.5776 126.095C82.2654 123.468 85.4307 120.176 87.9113 116.388L87.5846 116.569L101.2 116.225H102.005L101.503 115.595L92.7531 104.651L92.8289 104.984C94.1765 99.4499 94.2045 93.6769 92.9106 88.1305C92.3225 85.5445 91.4234 83.0392 90.233 80.6694C89.7045 79.5092 89.0903 78.3899 88.3954 77.321L87.4037 75.7343C87.0596 75.2209 86.6512 74.7542 86.2895 74.2642C81.0573 67.4703 73.5813 62.7564 65.1955 60.9638C62.0979 60.2731 58.9199 60.012 55.7511 60.1879L53.7444 60.3163L51.9185 60.608L50.2442 60.8821C49.7251 60.9988 49.235 61.1505 48.7684 61.273C47.8408 61.5413 47.0183 61.7163 46.3183 61.9788L44.5682 62.6555L43.5007 63.1047C43.3797 63.1448 43.2641 63.1997 43.1565 63.268C43.285 63.2492 43.4104 63.2139 43.5299 63.163L44.6032 62.8014L46.3533 62.183C47.0475 61.9497 47.8817 61.7863 48.8092 61.5413C55.5774 59.9188 62.671 60.294 69.2303 62.6216C75.7895 64.9492 81.5329 69.1292 85.7645 74.6551C86.1204 75.1392 86.517 75.6001 86.8496 76.1018L87.8179 77.6652C88.4963 78.7165 89.0931 79.8184 89.603 80.9611C90.763 83.2893 91.6366 85.7496 92.2047 88.288C93.4513 93.7257 93.4054 99.3801 92.0705 104.797L92.0239 104.978L92.1464 105.129C94.9698 108.664 97.8866 112.318 100.897 116.091L101.2 115.437L87.5787 115.764H87.3687L87.2462 115.945C83.681 121.383 78.6963 125.742 72.8316 128.551C71.9154 128.993 70.9747 129.383 70.014 129.718C69.0823 130.102 68.1253 130.421 67.1498 130.674C63.3404 131.783 59.3652 132.212 55.4069 131.94C51.5888 131.706 47.8291 130.887 44.2591 129.513C40.8649 128.123 37.6897 126.248 34.8321 123.948C32.1345 121.738 29.776 119.143 27.8319 116.248C27.3769 115.531 26.9335 114.819 26.4902 114.113C26.0468 113.407 25.7318 112.631 25.3235 111.902C24.6093 110.447 23.9915 108.946 23.4742 107.41C21.7781 102.26 21.2769 96.7906 22.0086 91.4176C22.7404 86.0445 24.6859 80.9086 27.6977 76.3993C29.7232 73.2923 32.239 70.5342 35.1471 68.2324L36.8388 66.8965L38.4314 65.8756L39.8023 64.9948C40.2339 64.7498 40.6423 64.5631 40.969 64.3764L42.5907 63.5305C42.7914 63.4529 42.9847 63.3573 43.1682 63.2447Z" fill="#263238"/>
<path d="M67.6714 114.698L69.7481 114.694C70.9079 114.692 71.8463 113.75 71.8441 112.59L71.7832 80.8675C71.781 79.7077 70.8389 78.7693 69.6791 78.7715L67.6024 78.7755C66.4426 78.7777 65.5041 79.7197 65.5064 80.8796L65.5673 112.602C65.5695 113.762 66.5115 114.7 67.6714 114.698Z" fill="#E0E0E0"/>
<path d="M57.393 114.719L59.4698 114.715C60.6296 114.713 61.568 113.771 61.5658 112.611L61.5049 80.8886C61.5027 79.7288 60.5606 78.7904 59.4008 78.7926L57.3241 78.7966C56.1642 78.7988 55.2258 79.7409 55.228 80.9007L55.2889 112.623C55.2912 113.783 56.2332 114.722 57.393 114.719Z" fill="#E0E0E0"/>
<path d="M45.7607 114.738L47.8374 114.734C48.9973 114.732 49.9357 113.79 49.9335 112.63L49.8726 80.9071C49.8703 79.7472 48.9283 78.8088 47.7685 78.811L45.6917 78.815C44.5319 78.8173 43.5935 79.7593 43.5957 80.9191L43.6566 112.642C43.6588 113.802 44.6009 114.74 45.7607 114.738Z" fill="#E0E0E0"/>
<path d="M68.6198 114.696C68.3567 114.662 68.0957 114.614 67.8381 114.551C67.1026 114.344 66.4755 113.861 66.088 113.203C65.8074 112.738 65.6582 112.206 65.6564 111.663C65.6564 111.05 65.6564 110.391 65.6564 109.68C65.6564 108.25 65.6564 106.634 65.6564 104.844C65.6564 101.256 65.6564 96.9916 65.6564 92.2665C65.6564 89.8981 65.6564 87.413 65.6564 84.8346V82.8862C65.6105 82.2458 65.6517 81.6021 65.7789 80.9728C65.9866 80.3744 66.3796 79.8578 66.9008 79.4978C67.422 79.1378 68.0443 78.9532 68.6775 78.9708C69.3106 78.9884 69.9218 79.2071 70.4222 79.5954C70.9227 79.9837 71.2864 80.5213 71.4607 81.1303C71.5515 81.7677 71.5828 82.4122 71.554 83.0554C71.554 83.7087 71.554 84.3621 71.554 85.0037C71.554 87.5822 71.554 90.0672 71.554 92.4356C71.554 97.1666 71.6007 101.425 71.6182 105.019C71.6182 106.804 71.6182 108.425 71.6591 109.849C71.6591 110.56 71.6591 111.231 71.6591 111.826C71.6345 112.369 71.4587 112.895 71.1515 113.343C70.7227 113.972 70.0732 114.418 69.3315 114.591C68.8181 114.702 68.5381 114.673 68.5381 114.696C68.8081 114.732 69.0822 114.722 69.349 114.667C70.127 114.521 70.8175 114.077 71.274 113.43C71.6134 112.965 71.8155 112.413 71.8574 111.838C71.8574 111.22 71.8574 110.566 71.8574 109.849C71.8574 108.425 71.8574 106.804 71.8574 105.019C71.8574 101.425 71.8574 97.1666 71.8574 92.4356C71.8574 90.0672 71.8574 87.5822 71.8574 85.0037V82.087C71.8701 81.7399 71.8368 81.3927 71.7582 81.0545C71.5816 80.3528 71.1757 79.7302 70.6051 79.2853C70.0345 78.8404 69.3317 78.5987 68.6081 78.5985C67.886 78.5668 67.1732 78.7716 66.5781 79.1819C65.9902 79.5962 65.5555 80.1929 65.3414 80.8795C65.2409 81.2163 65.1917 81.5663 65.1955 81.9178V82.9037C65.1955 83.557 65.1955 84.2104 65.1955 84.8521C65.1955 87.4305 65.1955 89.9156 65.2247 92.284C65.2247 97.0091 65.2714 101.273 65.2889 104.867C65.2889 106.652 65.318 108.268 65.3239 109.697C65.3239 110.409 65.3239 111.068 65.3239 111.68C65.3313 112.256 65.4989 112.817 65.808 113.302C66.2241 113.978 66.8913 114.46 67.6631 114.644C67.9749 114.727 68.3007 114.745 68.6198 114.696Z" fill="#263238"/>
<path d="M58.3411 114.714C58.0764 114.681 57.8135 114.634 57.5536 114.574C56.9223 114.392 56.3679 114.008 55.975 113.482C55.5821 112.955 55.3724 112.314 55.3777 111.657C55.3777 111.045 55.3777 110.385 55.3777 109.674C55.3777 108.25 55.3777 106.629 55.3777 104.844C55.3777 101.25 55.3777 96.9916 55.3777 92.2607V82.9037C55.3287 82.2653 55.3699 81.6231 55.5002 80.9961C55.7043 80.3945 56.0956 79.874 56.6169 79.5108C57.1381 79.1476 57.762 78.9608 58.397 78.9777C59.0321 78.9947 59.6451 79.2145 60.1463 79.605C60.6474 79.9955 61.0104 80.5361 61.1821 81.1478C61.2736 81.7851 61.303 82.4299 61.2696 83.0729C61.2696 83.7321 61.2696 84.3796 61.2696 85.0271C61.2696 87.5997 61.2696 90.0848 61.2696 92.4532C61.2696 97.1841 61.3162 101.448 61.3337 105.036C61.3337 106.827 61.3337 108.443 61.3687 109.872C61.3687 110.578 61.3687 111.249 61.3687 111.85C61.3442 112.393 61.1684 112.918 60.8612 113.366C60.4274 113.993 59.7771 114.438 59.0353 114.615C58.5278 114.72 58.242 114.691 58.2478 114.714C58.5143 114.758 58.7863 114.758 59.0528 114.714C59.8319 114.562 60.523 114.118 60.9837 113.471C61.3249 113.009 61.5272 112.458 61.5671 111.885C61.5962 111.26 61.5671 110.607 61.5671 109.895C61.5671 108.466 61.5671 106.844 61.5671 105.059C61.5671 101.472 61.5671 97.2075 61.5671 92.4765C61.5671 90.1081 61.5671 87.623 61.5671 85.0446V83.0962C61.5671 82.7695 61.5671 82.4429 61.5671 82.1103C61.5825 81.7632 61.5491 81.4156 61.4679 81.0778C61.2924 80.3766 60.8877 79.7542 60.318 79.3092C59.7484 78.8643 59.0465 78.6224 58.3236 78.6219C57.6026 78.5862 56.8901 78.7908 56.2979 79.2036C55.7056 79.6164 55.2671 80.214 55.051 80.9028C54.953 81.2401 54.9059 81.59 54.911 81.9412V82.927C54.911 83.5862 54.911 84.2337 54.911 84.8813C54.911 87.4538 54.911 89.9389 54.911 92.3073C54.911 97.0383 54.9577 101.297 54.981 104.89C54.981 106.675 54.981 108.297 55.016 109.72C55.016 110.432 55.016 111.097 55.016 111.704C55.0217 112.278 55.1873 112.84 55.4944 113.325C55.9137 114 56.5825 114.483 57.3553 114.667C57.6759 114.758 58.0133 114.774 58.3411 114.714Z" fill="#263238"/>
<path d="M46.7089 114.737C46.4439 114.704 46.1809 114.655 45.9214 114.591C45.2949 114.411 44.744 114.031 44.3516 113.511C43.9592 112.99 43.7465 112.356 43.7455 111.704C43.7455 111.091 43.7455 110.432 43.7455 109.72C43.7455 108.291 43.7455 106.675 43.7455 104.89C43.7455 101.297 43.7455 97.0383 43.7455 92.3073V82.9387C43.6965 82.3002 43.7377 81.6581 43.868 81.0311C44.0721 80.4295 44.4634 79.909 44.9846 79.5458C45.5059 79.1826 46.1297 78.9958 46.7648 79.0127C47.3999 79.0297 48.0129 79.2495 48.514 79.64C49.0152 80.0305 49.3782 80.5711 49.5498 81.1828C49.6414 81.8201 49.6707 82.4649 49.6373 83.1079C49.6373 83.7612 49.6373 84.4146 49.6373 85.0563C49.6373 87.6347 49.6373 90.1198 49.6373 92.4882C49.6373 97.2191 49.684 101.483 49.7015 105.071C49.7015 106.856 49.7015 108.478 49.7365 109.907C49.7365 110.613 49.7365 111.284 49.7365 111.879C49.712 112.422 49.5362 112.947 49.229 113.395C48.7966 114.025 48.146 114.472 47.4031 114.65C46.8956 114.755 46.6097 114.726 46.6156 114.749C46.8821 114.793 47.1541 114.793 47.4206 114.749C48.0914 114.617 48.7001 114.268 49.1525 113.756C49.6048 113.243 49.8757 112.596 49.9232 111.914C49.9232 111.295 49.9232 110.642 49.9232 109.93C49.9232 108.501 49.9232 106.879 49.9232 105.094C49.9232 101.501 49.9232 97.2425 49.9232 92.5115C49.9232 90.1431 49.9232 87.658 49.9232 85.0796V82.1628C49.9328 81.8159 49.8995 81.4691 49.824 81.1303C49.6464 80.4291 49.2404 79.8071 48.6699 79.3624C48.0995 78.9177 47.3972 78.6756 46.6739 78.6744C45.9529 78.6387 45.2404 78.8433 44.6482 79.2561C44.0559 79.6689 43.6174 80.2665 43.4013 80.9553C43.3061 81.2931 43.259 81.6427 43.2613 81.9937V82.9387C43.2613 83.5979 43.2613 84.2454 43.2613 84.8871C43.2613 87.4655 43.2613 89.9506 43.2613 92.319C43.2613 97.05 43.308 101.308 43.3313 104.902C43.3313 106.687 43.3313 108.309 43.3663 109.732C43.3663 110.444 43.3663 111.103 43.3663 111.715C43.372 112.29 43.5376 112.852 43.8447 113.337C44.264 114.012 44.9327 114.494 45.7056 114.679C46.0308 114.777 46.3745 114.797 46.7089 114.737Z" fill="#263238"/>
<path d="M62.7866 85.8555C62.7889 86.728 62.5323 87.5816 62.0494 88.3082C61.5665 89.0349 60.8789 89.6019 60.0736 89.9377C59.2683 90.2734 58.3815 90.3628 57.5254 90.1944C56.6693 90.026 55.8824 89.6075 55.2642 88.9918C54.646 88.3761 54.2244 87.5908 54.0526 86.7354C53.8809 85.88 53.9667 84.9929 54.2992 84.1862C54.6318 83.3796 55.1961 82.6897 55.9208 82.2039C56.6456 81.7181 57.4981 81.4582 58.3706 81.457C59.5392 81.4555 60.6607 81.9178 61.4887 82.7425C62.3167 83.5672 62.7835 84.6869 62.7866 85.8555Z" fill="#2B1FC5"/>
<path d="M51.1713 96.77C51.1725 97.6423 50.915 98.4953 50.4313 99.2211C49.9477 99.947 49.2597 100.513 48.4543 100.848C47.6489 101.183 46.7623 101.271 45.9066 101.102C45.0509 100.933 44.2645 100.514 43.6469 99.8984C43.0293 99.2825 42.6083 98.4972 42.437 97.642C42.2657 96.7867 42.3518 95.8999 42.6845 95.0936C43.0173 94.2873 43.5816 93.5978 44.3062 93.1122C45.0308 92.6267 45.8831 92.3669 46.7554 92.3657C47.3345 92.365 47.9081 92.4783 48.4435 92.6992C48.9789 92.9201 49.4655 93.2443 49.8755 93.6533C50.2856 94.0623 50.6111 94.548 50.8334 95.0828C51.0558 95.6176 51.1706 96.1909 51.1713 96.77Z" fill="#2B1FC5"/>
<path d="M72.5962 105.015C73.4913 102.75 72.3805 100.188 70.1153 99.2932C67.85 98.3982 65.2881 99.5089 64.3931 101.774C63.498 104.039 64.6088 106.601 66.874 107.496C69.1393 108.391 71.7012 107.281 72.5962 105.015Z" fill="#2B1FC5"/>
<path d="M36.3134 242.964H124.3L112.948 181.21C112.753 180.149 112.192 179.189 111.363 178.499C110.534 177.808 109.489 177.43 108.41 177.43H29.3482C28.6685 177.43 27.9971 177.58 27.3821 177.869C26.7671 178.159 26.2237 178.581 25.7907 179.105C25.3576 179.628 25.0456 180.242 24.8771 180.9C24.7085 181.558 24.6875 182.246 24.8155 182.914L36.3134 242.964Z" fill="#455A64"/>
<path d="M124.301 242.964H157.674L157.54 242.865C154.562 240.636 150.968 239.382 147.25 239.277L123.385 238.577L124.301 242.964Z" fill="#455A64"/>
<path d="M103.166 177.512C103.166 177.512 103.411 177.471 103.877 177.465C104.557 177.474 105.226 177.64 105.831 177.949C106.785 178.44 107.591 179.177 108.165 180.084C108.892 181.312 109.381 182.665 109.606 184.074C109.892 185.638 110.142 187.37 110.457 189.22C110.772 191.069 111.111 193.046 111.502 195.123C112.272 199.271 113.176 203.821 114.168 208.593C116.151 218.13 117.988 226.752 119.196 233.018C119.779 236.15 120.264 238.688 120.584 240.444C120.736 241.307 120.859 241.984 120.952 242.468C120.993 242.684 121.028 242.853 121.051 242.993C121.062 243.052 121.077 243.111 121.098 243.168C121.108 243.108 121.108 243.047 121.098 242.987C121.098 242.847 121.057 242.672 121.028 242.456C120.952 241.966 120.853 241.289 120.719 240.426C120.444 238.676 120.013 236.115 119.435 232.977C118.269 226.694 116.483 218.06 114.5 208.523C113.514 203.757 112.592 199.189 111.811 195.065C111.414 192.994 111.064 191.022 110.737 189.173C110.411 187.324 110.154 185.603 109.845 184.028C109.602 182.597 109.089 181.225 108.334 179.985C107.728 179.06 106.884 178.317 105.89 177.833C105.265 177.525 104.573 177.376 103.877 177.401C103.636 177.405 103.397 177.443 103.166 177.512Z" fill="#263238"/>
<path d="M73.2727 211.816C74.9334 210.155 74.9334 207.462 73.2727 205.801C71.6119 204.141 68.9193 204.141 67.2585 205.801C65.5978 207.462 65.5978 210.155 67.2585 211.816C68.9193 213.476 71.6119 213.476 73.2727 211.816Z" fill="#F5F5F5"/>
<path d="M267.63 242.905C267.63 242.987 210.73 243.057 140.559 243.057C70.3874 243.057 13.4756 242.987 13.4756 242.905C13.4756 242.824 70.3349 242.777 140.559 242.777C210.783 242.777 267.63 242.824 267.63 242.905Z" fill="#263238"/>
</svg>
