<svg width="235" height="219" viewBox="0 0 235 219" fill="none" xmlns="http://www.w3.org/2000/svg">
<g filter="url(#filter0_d_510_2135)">
<path d="M198.341 3.38843H129.205V127.59H198.341V3.38843Z" fill="#EBEBEB"/>
<path d="M194.869 6.98833H131.969V123.887H194.869V6.98833Z" fill="#FAFAFA"/>
<path d="M194.869 8.36534L131.969 88.3745V6.98833H194.869V8.36534Z" fill="#F5F5F5"/>
<path d="M196.236 40.6169H131.969V41.8611H196.236V40.6169Z" fill="#EBEBEB"/>
<path d="M196.236 68.4521H131.969V69.6963H196.236V68.4521Z" fill="#EBEBEB"/>
<path d="M196.236 96.2923H131.969V97.5365H196.236V96.2923Z" fill="#EBEBEB"/>
<path d="M161.83 41.2414V127.201H165.007V41.2414H161.83Z" fill="#EBEBEB"/>
<path d="M145.522 6.98833H144.081V41.2365H145.522V6.98833Z" fill="#EBEBEB"/>
<path d="M157.935 6.98833H156.494V41.2365H157.935V6.98833Z" fill="#EBEBEB"/>
<path d="M170.353 6.98833H168.912V41.2365H170.353V6.98833Z" fill="#EBEBEB"/>
<path d="M182.771 6.98833H181.33V41.2365H182.771V6.98833Z" fill="#EBEBEB"/>
<path d="M129.205 1.27866H126.279V128.352H129.205V1.27866Z" fill="#F5F5F5"/>
<path d="M201.268 128.706L198.342 127.585V1.27866H201.268V128.706Z" fill="#E0E0E0"/>
<path d="M201.262 0H126.279V3.38843H201.262V0Z" fill="#E0E0E0"/>
<path d="M203.249 129.124H124.209V132.281H203.249V129.124Z" fill="#E0E0E0"/>
<path d="M198.341 127.585L203.244 129.124H124.209L129.206 127.585H198.341Z" fill="#EBEBEB"/>
<path d="M129.436 209.281C137.683 204.329 140.177 194.247 140.501 185.05C140.556 183.516 140.836 181.913 140.201 180.521C139.567 179.129 137.929 178.092 136.513 178.642C135.338 179.095 134.752 180.383 134.054 181.436C133.104 182.835 131.777 183.938 130.228 184.618C129.215 185.055 127.985 185.282 127.061 184.682C125.792 183.865 125.763 182.026 125.876 180.506C126.092 177.67 126.307 174.833 126.52 171.993C126.717 170.477 126.668 168.939 126.372 167.439C125.999 165.964 125.049 164.543 123.628 164.036C122.207 163.53 120.358 164.243 119.945 165.713C119.845 166.34 119.787 166.972 119.773 167.607C119.684 168.236 119.345 168.915 118.73 169.048C118.115 169.18 117.53 168.713 117.107 168.236C115.632 166.589 114.712 164.533 113.851 162.492C112.991 160.451 112.16 158.371 110.851 156.591C109.543 154.81 107.66 153.345 105.486 153.069C103.312 152.794 100.898 153.984 100.199 156.084C99.501 158.184 100.598 160.461 101.842 162.29C103.684 165.012 105.91 167.452 108.452 169.534C108.953 169.857 109.338 170.333 109.548 170.892C109.809 171.929 108.776 172.859 107.753 173.134C106.588 173.434 105.368 173.233 104.168 173.287C102.968 173.341 101.65 173.779 101.124 174.87C100.391 176.385 101.581 178.106 102.786 179.267C105.204 181.585 108.002 183.469 111.058 184.839C112.155 185.331 113.306 185.768 114.156 186.614C115.007 187.46 115.455 188.872 114.835 189.909C114.215 190.947 112.789 191.188 111.629 190.893C110.468 190.598 109.465 189.885 108.378 189.383C106.337 188.449 103.627 188.399 102.162 190.121C101.71 190.715 101.401 191.405 101.261 192.138C101.12 192.871 101.15 193.626 101.35 194.345C101.761 195.782 102.459 197.12 103.401 198.28C106.44 202.497 110.546 205.83 115.297 207.938C120.033 209.955 124.504 210.722 129.451 209.291" fill="#F5F5F5"/>
<path d="M127.941 209.723C127.857 206.065 128.502 208.091 127.449 203.37C126.274 198.267 124.806 193.235 123.053 188.301C122.59 186.99 122.138 185.691 121.695 184.406C121.248 183.132 120.8 181.869 120.294 180.659C119.307 178.335 118.192 176.067 116.954 173.867C115.789 171.757 114.609 169.8 113.512 167.966C112.415 166.131 111.314 164.464 110.261 162.979C108.62 160.622 106.793 158.4 104.797 156.335C104.094 155.602 103.529 155.056 103.14 154.687L102.697 154.274C102.649 154.226 102.596 154.181 102.54 154.141C102.58 154.197 102.627 154.248 102.678 154.294L103.101 154.727C103.474 155.11 104.025 155.671 104.719 156.414C106.677 158.501 108.476 160.734 110.099 163.092C111.137 164.567 112.204 166.264 113.315 168.089C114.427 169.913 115.597 171.875 116.758 173.99C117.981 176.186 119.084 178.446 120.062 180.762C120.554 181.967 121.007 183.221 121.454 184.5L122.812 188.39C124.565 193.313 126.043 198.331 127.238 203.419C128.285 208.125 127.661 206.079 127.764 209.723" fill="#E0E0E0"/>
<path d="M120.226 180.639C120.316 180.434 120.382 180.22 120.422 180C120.53 179.587 120.668 178.982 120.826 178.229C121.15 176.724 121.519 174.639 121.922 172.328C122.326 170.016 122.724 167.946 123.063 166.451C123.235 165.708 123.378 165.103 123.481 164.685C123.547 164.472 123.592 164.253 123.614 164.031C123.511 164.23 123.432 164.439 123.378 164.656C123.24 165.064 123.068 165.639 122.886 166.407C122.493 167.882 122.06 169.972 121.662 172.279C121.263 174.585 120.919 176.611 120.649 178.18C120.521 178.888 120.412 179.488 120.329 179.965C120.27 180.185 120.235 180.411 120.226 180.639Z" fill="#E0E0E0"/>
<path d="M100.898 175.647C101.152 175.722 101.412 175.772 101.675 175.795C102.167 175.874 102.895 175.987 103.785 176.154C105.566 176.469 108.01 176.995 110.67 177.693C113.331 178.392 115.731 179.134 117.442 179.719C118.303 180.005 118.991 180.255 119.468 180.423C119.709 180.527 119.96 180.608 120.216 180.664C119.991 180.527 119.754 180.411 119.508 180.319C119.041 180.118 118.362 179.828 117.506 179.528C115.805 178.893 113.419 178.121 110.739 177.418C108.456 176.81 106.143 176.318 103.81 175.942C102.91 175.805 102.182 175.721 101.675 175.677C101.418 175.643 101.158 175.633 100.898 175.647Z" fill="#E0E0E0"/>
<path d="M127.248 202.991C127.31 202.921 127.361 202.844 127.401 202.76L127.784 202.076C128.114 201.481 128.571 200.601 129.122 199.514C130.218 197.335 131.645 194.281 133.174 190.888C134.704 187.495 136.095 184.426 137.148 182.228L138.402 179.631L138.741 178.923C138.787 178.842 138.821 178.754 138.84 178.662C138.784 178.735 138.735 178.812 138.692 178.893L138.308 179.577C137.974 180.177 137.522 181.052 136.971 182.139C135.869 184.318 134.443 187.377 132.918 190.77C131.394 194.163 129.997 197.227 128.945 199.425L127.686 202.027L127.351 202.735C127.306 202.815 127.271 202.901 127.248 202.991Z" fill="#E0E0E0"/>
<path d="M101.809 192.801C101.886 192.854 101.97 192.895 102.059 192.924L102.797 193.234L105.502 194.335C107.803 195.265 110.966 196.578 114.457 198.039C117.949 199.499 121.126 200.783 123.447 201.663C124.608 202.101 125.547 202.45 126.201 202.676L126.959 202.932C127.045 202.967 127.136 202.99 127.229 203.001C127.151 202.949 127.067 202.908 126.978 202.878L126.241 202.573L123.516 201.476C121.22 200.547 118.057 199.234 114.561 197.773C111.064 196.312 107.897 195.029 105.576 194.148C104.415 193.711 103.476 193.362 102.817 193.14L102.059 192.86C101.979 192.829 101.894 192.81 101.809 192.801Z" fill="#E0E0E0"/>
<path d="M90.8563 18.865H72.2617V24.8501H90.8563V18.865Z" fill="#F5F5F5"/>
<path d="M108.294 30.8352H89.6992V36.8202H108.294V30.8352Z" fill="#FAFAFA"/>
<path d="M97.9127 30.8352C97.909 30.7976 97.909 30.7597 97.9127 30.7221V30.4122C97.9127 30.1221 97.9127 29.7286 97.9127 29.227C97.9127 28.1844 97.8881 26.6992 97.8685 24.8501L97.9521 24.9337L79.7559 24.978C79.81 24.9189 79.6231 25.1058 79.8788 24.8501V30.8352L79.7509 30.7122L92.7145 30.7663L96.5357 30.8007H97.5636H97.9324C97.821 30.8077 97.7093 30.8077 97.598 30.8007H96.6144L92.8276 30.8352L79.7411 30.8942H79.6182V27.8451C79.6182 27.3533 79.6182 26.8615 79.6182 26.3304V24.8599C79.8739 24.6042 79.6919 24.7862 79.7509 24.7321L97.9471 24.7763H98.0307V24.8599C98.0307 26.7336 97.9963 28.2336 97.9865 29.286C97.9865 29.7778 97.9865 30.1663 97.9865 30.4516C97.9865 30.7368 97.9176 30.8401 97.9127 30.8352Z" fill="#E0E0E0"/>
<path d="M224.651 69.957H206.057V75.9421H224.651V69.957Z" fill="#FAFAFA"/>
<path d="M230.907 69.8045C230.903 69.7669 230.903 69.729 230.907 69.6914C230.907 69.6078 230.907 69.5045 230.907 69.3816C230.907 69.0914 230.907 68.698 230.907 68.1964C230.907 67.1538 230.882 65.6735 230.863 63.8195L230.946 63.9031L212.75 63.9473C212.804 63.8883 212.617 64.0752 212.873 63.8195V69.7947L212.745 69.6718L225.743 69.7258L229.56 69.7652H230.592H230.961C230.848 69.7722 230.735 69.7722 230.622 69.7652H229.638L225.851 69.7996L212.711 69.9127H212.588V66.8686C212.588 66.3768 212.588 65.8604 212.588 65.3489V63.8146C212.844 63.5588 212.662 63.7408 212.721 63.6867L230.917 63.7309H231V63.8146C231 65.6883 230.966 67.1882 230.956 68.2407C230.956 68.7324 230.956 69.121 230.956 69.4062C230.956 69.6914 230.907 69.8095 230.907 69.8045Z" fill="#E0E0E0"/>
<path d="M216.827 137.357H198.232V143.342H216.827V137.357Z" fill="#F5F5F5"/>
<path d="M223.3 143.135H204.705V149.12H223.3V143.135Z" fill="#FAFAFA"/>
<path d="M211.492 154.992C211.488 154.956 211.488 154.92 211.492 154.884V154.569C211.492 154.279 211.492 153.886 211.492 153.384C211.492 152.342 211.467 150.861 211.447 149.007L211.531 149.091L193.335 149.135C193.389 149.081 193.202 149.263 193.458 149.007V154.992L193.33 154.869L206.328 154.928L210.144 154.963H211.177H211.546C211.433 154.969 211.319 154.969 211.206 154.963H210.223L206.436 154.997L193.35 155.056H193.227V152.007C193.227 151.515 193.227 150.999 193.227 150.487V148.953C193.482 148.697 193.3 148.884 193.359 148.825L211.556 148.869H211.639V148.953C211.639 150.827 211.605 152.327 211.595 153.379C211.595 153.871 211.595 154.264 211.595 154.55C211.595 154.835 211.497 155.017 211.492 154.992Z" fill="#E0E0E0"/>
<path d="M29.3279 56.2656H10.7334V62.2507H29.3279V56.2656Z" fill="#FAFAFA"/>
<path d="M37.5452 56.2656C37.5452 56.2656 37.5452 56.2213 37.5452 56.1525C37.5452 56.0836 37.5452 55.9656 37.5452 55.8427C37.5452 55.5525 37.5452 55.1542 37.5452 54.6525C37.5452 53.6149 37.5157 52.1297 37.4961 50.2756L37.5797 50.3592L19.3835 50.4035L19.5113 50.2805V53.3394C19.5113 54.323 19.5113 55.3066 19.5113 56.2656L19.3884 56.1377L32.3864 56.1967L36.2027 56.2312H37.2354C37.3565 56.2199 37.4783 56.2199 37.5993 56.2312C37.488 56.2384 37.3763 56.2384 37.2649 56.2312H36.2813L32.4946 56.2656L19.413 56.3246H19.29V56.2017C19.29 55.2525 19.29 54.2788 19.29 53.2755V50.2166C19.5458 49.9559 19.3589 50.1428 19.4179 50.0838L37.6141 50.1281H37.6338V50.2117C37.6338 52.0854 37.5944 53.5853 37.5846 54.6378C37.5846 55.1296 37.5846 55.5181 37.5846 55.8033C37.5888 55.9584 37.5756 56.1135 37.5452 56.2656Z" fill="#E0E0E0"/>
<path d="M228.639 210.22C228.639 210.289 178.349 210.348 116.325 210.348C54.3002 210.348 4 210.289 4 210.22C4 210.151 54.2805 210.073 116.32 210.073C178.359 210.073 228.639 210.151 228.639 210.22Z" fill="#263238"/>
<path d="M210.508 185.38L209.849 197.557C209.837 197.765 209.746 197.962 209.594 198.106C209.443 198.25 209.242 198.331 209.033 198.334L187.124 198.496C186.906 198.496 186.697 198.41 186.541 198.258C186.386 198.105 186.296 197.897 186.292 197.68L186.224 188.198C186.224 187.98 186.31 187.77 186.464 187.615C186.618 187.461 186.827 187.373 187.045 187.372H200.52C200.737 187.369 200.945 187.283 201.1 187.131L203.426 184.804C203.579 184.651 203.786 184.564 204.002 184.564L209.682 184.524C209.793 184.523 209.904 184.544 210.007 184.587C210.11 184.63 210.203 184.693 210.28 184.773C210.357 184.854 210.418 184.949 210.457 185.053C210.496 185.157 210.514 185.269 210.508 185.38Z" fill="#2B1FC5"/>
<path opacity="0.3" d="M210.508 185.38L209.849 197.557C209.837 197.765 209.746 197.962 209.594 198.106C209.443 198.25 209.242 198.331 209.033 198.334L187.124 198.496C186.906 198.496 186.697 198.41 186.541 198.258C186.386 198.105 186.296 197.897 186.292 197.68L186.224 188.198C186.224 187.98 186.31 187.77 186.464 187.615C186.618 187.461 186.827 187.373 187.045 187.372H200.52C200.737 187.369 200.945 187.283 201.1 187.131L203.426 184.804C203.579 184.651 203.786 184.564 204.002 184.564L209.682 184.524C209.793 184.523 209.904 184.544 210.007 184.587C210.11 184.63 210.203 184.693 210.28 184.773C210.357 184.854 210.418 184.949 210.457 185.053C210.496 185.157 210.514 185.269 210.508 185.38Z" fill="black"/>
<path d="M186.312 200.245L210.252 200.069L210.147 185.763L186.207 185.939L186.312 200.245Z" fill="#F5F5F5"/>
<path d="M212.062 187.032L210.346 201.963C210.334 202.094 210.274 202.217 210.178 202.308C210.082 202.398 209.956 202.451 209.824 202.455L186.494 202.622C186.359 202.625 186.228 202.575 186.129 202.483C186.03 202.392 185.97 202.265 185.963 202.13L184.679 187.209C184.672 187.137 184.681 187.064 184.704 186.995C184.727 186.926 184.764 186.862 184.813 186.809C184.862 186.755 184.922 186.712 184.989 186.683C185.056 186.653 185.128 186.639 185.2 186.639L211.536 186.442C211.61 186.442 211.684 186.458 211.752 186.489C211.82 186.52 211.881 186.564 211.93 186.62C211.98 186.675 212.017 186.741 212.04 186.812C212.063 186.883 212.07 186.958 212.062 187.032Z" fill="#2B1FC5"/>
<path d="M216.954 183.083L216.295 195.26C216.283 195.469 216.192 195.665 216.04 195.809C215.889 195.953 215.688 196.035 215.479 196.037L193.57 196.194C193.462 196.196 193.355 196.176 193.255 196.136C193.155 196.096 193.063 196.036 192.986 195.961C192.909 195.885 192.848 195.796 192.805 195.696C192.763 195.597 192.74 195.491 192.739 195.383L192.67 185.901C192.669 185.793 192.69 185.686 192.731 185.585C192.772 185.485 192.832 185.394 192.909 185.317C192.985 185.24 193.076 185.18 193.176 185.138C193.276 185.096 193.383 185.075 193.491 185.075H206.966C207.183 185.076 207.392 184.991 207.547 184.839L209.873 182.513C210.025 182.359 210.232 182.273 210.448 182.272L216.128 182.232C216.239 182.232 216.349 182.253 216.451 182.296C216.553 182.339 216.646 182.402 216.723 182.482C216.8 182.561 216.86 182.655 216.9 182.759C216.94 182.862 216.958 182.973 216.954 183.083Z" fill="#2B1FC5"/>
<path opacity="0.3" d="M216.954 183.083L216.295 195.26C216.283 195.469 216.192 195.665 216.04 195.809C215.889 195.953 215.688 196.035 215.479 196.037L193.57 196.194C193.462 196.196 193.355 196.176 193.255 196.136C193.155 196.096 193.063 196.036 192.986 195.961C192.909 195.885 192.848 195.796 192.805 195.696C192.763 195.597 192.74 195.491 192.739 195.383L192.67 185.901C192.669 185.793 192.69 185.686 192.731 185.585C192.772 185.485 192.832 185.394 192.909 185.317C192.985 185.24 193.076 185.18 193.176 185.138C193.276 185.096 193.383 185.075 193.491 185.075H206.966C207.183 185.076 207.392 184.991 207.547 184.839L209.873 182.513C210.025 182.359 210.232 182.273 210.448 182.272L216.128 182.232C216.239 182.232 216.349 182.253 216.451 182.296C216.553 182.339 216.646 182.402 216.723 182.482C216.8 182.561 216.86 182.655 216.9 182.759C216.94 182.862 216.958 182.973 216.954 183.083Z" fill="black"/>
<path d="M192.762 197.946L216.701 197.77L216.596 183.465L192.657 183.64L192.762 197.946Z" fill="#F5F5F5"/>
<path d="M218.51 184.736L216.788 199.666C216.781 199.799 216.723 199.925 216.626 200.016C216.529 200.108 216.4 200.158 216.267 200.158L192.937 200.33C192.802 200.332 192.672 200.282 192.573 200.19C192.474 200.099 192.414 199.973 192.406 199.839L191.122 184.927C191.116 184.855 191.125 184.782 191.149 184.712C191.172 184.643 191.21 184.58 191.26 184.526C191.309 184.473 191.369 184.43 191.436 184.401C191.503 184.372 191.575 184.357 191.648 184.357L217.979 184.16C218.052 184.16 218.125 184.175 218.193 184.204C218.26 184.234 218.321 184.277 218.371 184.331C218.421 184.385 218.459 184.449 218.483 184.519C218.507 184.588 218.516 184.662 218.51 184.736Z" fill="#2B1FC5"/>
<path opacity="0.3" d="M218.51 184.736L216.788 199.666C216.781 199.799 216.723 199.925 216.626 200.016C216.529 200.108 216.4 200.158 216.267 200.158L192.937 200.33C192.802 200.332 192.672 200.282 192.573 200.19C192.474 200.099 192.414 199.973 192.406 199.839L191.122 184.927C191.116 184.855 191.125 184.782 191.149 184.712C191.172 184.643 191.21 184.58 191.26 184.526C191.309 184.473 191.369 184.43 191.436 184.401C191.503 184.372 191.575 184.357 191.648 184.357L217.979 184.16C218.052 184.16 218.125 184.175 218.193 184.204C218.26 184.234 218.321 184.277 218.371 184.331C218.421 184.385 218.459 184.449 218.483 184.519C218.507 184.588 218.516 184.662 218.51 184.736Z" fill="black"/>
<path d="M224.218 185.936L223.559 198.107C223.548 198.317 223.457 198.515 223.306 198.66C223.154 198.805 222.953 198.887 222.743 198.889L200.834 199.047C200.615 199.048 200.405 198.963 200.25 198.81C200.094 198.657 200.005 198.449 200.003 198.23L199.924 188.754C199.924 188.535 200.01 188.326 200.164 188.171C200.318 188.016 200.527 187.929 200.745 187.927H214.22C214.328 187.929 214.435 187.908 214.535 187.866C214.635 187.825 214.725 187.764 214.8 187.686L217.127 185.365C217.279 185.212 217.486 185.125 217.702 185.124L223.382 185.08C223.494 185.078 223.606 185.099 223.709 185.141C223.813 185.184 223.907 185.247 223.985 185.327C224.063 185.407 224.125 185.503 224.165 185.607C224.205 185.712 224.223 185.824 224.218 185.936Z" fill="#2B1FC5"/>
<path d="M200.02 200.797L223.96 200.622L223.855 186.316L199.915 186.492L200.02 200.797Z" fill="#F5F5F5"/>
<path d="M225.773 187.588L224.056 202.519C224.041 202.647 223.98 202.764 223.884 202.85C223.788 202.936 223.664 202.984 223.535 202.986L200.2 203.158C200.066 203.16 199.936 203.109 199.838 203.018C199.74 202.926 199.681 202.8 199.674 202.666L198.39 187.755C198.383 187.683 198.392 187.609 198.415 187.54C198.438 187.471 198.475 187.407 198.524 187.353C198.573 187.299 198.633 187.255 198.699 187.226C198.766 187.196 198.838 187.18 198.911 187.18L225.242 186.988C225.318 186.987 225.393 187.003 225.462 187.034C225.532 187.065 225.594 187.11 225.644 187.167C225.694 187.224 225.732 187.291 225.754 187.364C225.776 187.436 225.783 187.513 225.773 187.588Z" fill="#2B1FC5"/>
<path d="M198.385 189.619V210.328H228.266V189.619H198.385ZM208.137 193.352C208.137 192.946 208.298 192.557 208.585 192.27C208.872 191.983 209.261 191.822 209.666 191.822H216.984C217.192 191.811 217.4 191.841 217.596 191.913C217.791 191.984 217.97 192.095 218.121 192.238C218.273 192.381 218.393 192.553 218.476 192.744C218.558 192.935 218.6 193.141 218.6 193.349C218.6 193.557 218.558 193.763 218.476 193.955C218.393 194.146 218.273 194.318 218.121 194.461C217.97 194.604 217.791 194.715 217.596 194.786C217.4 194.857 217.192 194.888 216.984 194.876H209.666C209.262 194.876 208.873 194.716 208.587 194.43C208.3 194.144 208.138 193.757 208.137 193.352Z" fill="#455A64"/>
<path d="M182.279 189.619V210.328H198.385V189.619H182.279Z" fill="#263238"/>
<path d="M125.954 194.685L124.395 203.679C124.395 203.679 114.732 205.115 114.284 206.748L131.605 210.397L134.61 196.489L125.954 194.685Z" fill="#2B1FC5"/>
<g opacity="0.6">
<path d="M129.908 204.053C130.063 204.14 130.182 204.28 130.24 204.447C130.299 204.615 130.295 204.798 130.228 204.963C130.148 205.122 130.011 205.245 129.843 205.305C129.675 205.366 129.491 205.359 129.328 205.287C129.158 205.196 129.029 205.044 128.967 204.861C128.905 204.679 128.915 204.48 128.994 204.304C129.094 204.144 129.254 204.029 129.438 203.986C129.622 203.943 129.816 203.974 129.977 204.073" fill="white"/>
</g>
<path opacity="0.6" d="M131.605 210.392L131.851 208.981L115.13 206.03C115.13 206.03 114.289 206.202 114.265 206.763L131.605 210.392Z" fill="white"/>
<path d="M124.13 203.532C124.13 203.615 124.533 203.743 124.892 204.102C125.251 204.461 125.384 204.865 125.482 204.845C125.581 204.825 125.541 204.314 125.099 203.886C124.656 203.458 124.13 203.448 124.13 203.532Z" fill="#263238"/>
<path d="M122.157 203.901C122.118 203.974 122.457 204.196 122.649 204.614C122.841 205.032 122.861 205.43 122.949 205.445C123.038 205.46 123.185 204.992 122.915 204.461C122.644 203.93 122.177 203.817 122.157 203.901Z" fill="#263238"/>
<path d="M120.667 205.853C120.741 205.887 120.947 205.494 120.825 204.983C120.702 204.471 120.333 204.206 120.298 204.269C120.264 204.333 120.441 204.633 120.534 205.051C120.628 205.469 120.584 205.828 120.667 205.853Z" fill="#263238"/>
<path d="M124.715 201.52C124.715 201.604 125.148 201.57 125.615 201.702C126.082 201.835 126.431 202.066 126.49 202.002C126.549 201.938 126.254 201.56 125.693 201.412C125.133 201.265 124.68 201.447 124.715 201.52Z" fill="#263238"/>
<path opacity="0.3" d="M125.644 196.47L125.363 198.068L133.896 199.784L134.211 198.353L125.644 196.47Z" fill="black"/>
<path d="M125.064 199.711C125.331 199.848 125.63 199.911 125.93 199.893C126.26 199.902 126.59 199.872 126.914 199.804C127.101 199.762 127.285 199.708 127.464 199.642C127.574 199.61 127.677 199.56 127.769 199.494C127.838 199.446 127.889 199.377 127.914 199.296C127.939 199.216 127.936 199.13 127.907 199.052C127.875 198.984 127.829 198.925 127.771 198.878C127.713 198.831 127.645 198.798 127.573 198.781C127.463 198.759 127.35 198.751 127.238 198.757C127.044 198.763 126.852 198.788 126.663 198.83C126.342 198.898 126.035 199.017 125.753 199.184C125.261 199.475 125.064 199.76 125.094 199.784C125.123 199.809 125.374 199.597 125.851 199.376C126.126 199.245 126.417 199.152 126.717 199.101C126.892 199.071 127.07 199.055 127.248 199.052C127.44 199.052 127.597 199.076 127.627 199.165C127.656 199.253 127.627 199.214 127.587 199.258C127.518 199.306 127.442 199.342 127.361 199.366C127.201 199.432 127.036 199.488 126.869 199.534C126.571 199.609 126.267 199.657 125.96 199.676C125.661 199.667 125.362 199.679 125.064 199.711Z" fill="#263238"/>
<path d="M125.172 199.858C125.385 199.642 125.525 199.365 125.575 199.066C125.66 198.746 125.688 198.413 125.659 198.083C125.639 197.888 125.601 197.695 125.546 197.507C125.524 197.384 125.471 197.268 125.391 197.171C125.31 197.074 125.206 197 125.088 196.957C125.011 196.941 124.931 196.948 124.858 196.977C124.785 197.005 124.721 197.055 124.675 197.119C124.609 197.211 124.556 197.312 124.518 197.419C124.447 197.607 124.406 197.804 124.395 198.004C124.373 198.342 124.435 198.68 124.577 198.988C124.818 199.509 125.152 199.681 125.162 199.657C125.172 199.632 124.941 199.396 124.774 198.909C124.676 198.628 124.641 198.329 124.67 198.034C124.686 197.864 124.728 197.699 124.793 197.542C124.857 197.365 124.961 197.232 125.025 197.262C125.088 197.291 125.226 197.448 125.265 197.611C125.32 197.779 125.36 197.952 125.384 198.127C125.424 198.426 125.424 198.728 125.384 199.027C125.261 199.538 125.103 199.834 125.172 199.858Z" fill="#263238"/>
<path d="M184.807 194.886L181.06 189.993L180.868 189.742L174.475 194.488L180.376 200.979L180.16 207.55C176.87 208.401 176.373 210.043 176.373 210.043H183.214L189.43 198.073L184.807 194.886Z" fill="#2B1FC5"/>
<path opacity="0.6" d="M189.45 198.068L183.233 210.038L176.393 210.043L177.165 209.015L182.727 208.705L188.461 197.389L189.45 198.068Z" fill="white"/>
<path d="M180.218 204.54C180.272 204.609 180.665 204.383 181.201 204.397C181.737 204.412 182.121 204.633 182.185 204.565C182.249 204.496 181.86 204.102 181.201 204.097C180.542 204.092 180.159 204.486 180.218 204.54Z" fill="#263238"/>
<path d="M180.331 202.907C180.399 202.956 180.699 202.553 181.245 202.445C181.791 202.337 182.229 202.588 182.273 202.519C182.317 202.45 182.219 202.371 182.027 202.268C181.769 202.134 181.473 202.092 181.188 202.15C180.902 202.207 180.645 202.36 180.458 202.583C180.326 202.755 180.296 202.888 180.331 202.907Z" fill="#263238"/>
<path d="M180.282 200.817C180.355 200.852 180.591 200.458 181.068 200.291C181.546 200.124 181.973 200.291 182.008 200.207C182.042 200.124 181.939 200.075 181.747 200.006C181.494 199.919 181.218 199.92 180.966 200.01C180.713 200.099 180.498 200.271 180.355 200.497C180.252 200.675 180.252 200.802 180.282 200.817Z" fill="#263238"/>
<path d="M178.452 199.194C178.531 199.224 178.723 198.835 179.151 198.56C179.578 198.284 179.996 198.24 180.001 198.157C180.006 198.073 179.51 197.96 178.983 198.309C178.457 198.658 178.369 199.184 178.452 199.194Z" fill="#263238"/>
<path d="M177.557 197.778C177.791 197.571 177.992 197.328 178.152 197.06L178.733 196.239C178.863 196.069 178.969 195.882 179.047 195.683C179.069 195.615 179.076 195.543 179.07 195.472C179.063 195.401 179.042 195.332 179.008 195.27C178.968 195.197 178.908 195.137 178.834 195.099C178.761 195.06 178.677 195.044 178.595 195.053C178.355 195.099 178.133 195.214 177.956 195.383C177.796 195.528 177.655 195.693 177.537 195.875C177.346 196.171 177.225 196.508 177.183 196.858C177.111 197.178 177.166 197.513 177.336 197.793C177.337 197.492 177.355 197.191 177.39 196.893C177.489 196.395 177.754 195.946 178.142 195.619C178.281 195.492 178.451 195.404 178.634 195.363C178.66 195.358 178.686 195.361 178.71 195.372C178.733 195.383 178.753 195.4 178.767 195.422C178.792 195.485 178.792 195.556 178.767 195.619C178.7 195.793 178.613 195.958 178.506 196.111L177.98 196.966C177.798 197.213 177.655 197.487 177.557 197.778Z" fill="#263238"/>
<path d="M177.301 197.994C177.336 197.994 177.301 197.63 176.937 197.222C176.686 196.948 176.351 196.765 175.985 196.699C175.62 196.633 175.242 196.689 174.911 196.858C174.876 196.887 174.848 196.924 174.829 196.966C174.81 197.008 174.801 197.053 174.803 197.099C174.806 197.179 174.836 197.255 174.887 197.316C174.955 197.401 175.039 197.475 175.132 197.532C175.287 197.64 175.451 197.732 175.624 197.807C175.909 197.938 176.213 198.022 176.524 198.058C176.807 198.123 177.104 198.095 177.37 197.979C177.37 197.93 177.045 197.955 176.559 197.852C176.276 197.79 176.003 197.691 175.747 197.557C175.601 197.479 175.463 197.389 175.334 197.286C175.267 197.245 175.207 197.194 175.157 197.134C175.123 197.075 175.132 197.089 175.157 197.075C175.217 197.037 175.284 197.012 175.354 197.001C175.438 196.981 175.523 196.967 175.609 196.961C175.774 196.947 175.94 196.959 176.101 196.996C176.375 197.056 176.628 197.185 176.839 197.37C177.163 197.699 177.267 198.014 177.301 197.994Z" fill="#263238"/>
<path opacity="0.6" d="M184.802 198.673C185.25 198.673 185.613 198.31 185.613 197.861C185.613 197.413 185.25 197.05 184.802 197.05C184.354 197.05 183.99 197.413 183.99 197.861C183.99 198.31 184.354 198.673 184.802 198.673Z" fill="white"/>
<path opacity="0.3" d="M175.079 195.142L176.392 196.583L181.915 191.109L181.148 190.111L175.079 195.142Z" fill="black"/>
<path d="M141.667 107.058C141.667 107.058 135.274 128.755 129.56 153.286C126.117 168.157 122.847 195.83 122.847 195.83L138.023 199.175L144.53 163.599L151.474 142.54C153.859 135.891 157.287 131.032 161.447 127.432C165.972 121.039 168.332 113.726 167.422 105.941L141.667 107.058Z" fill="#263238"/>
<path d="M140.417 110.515L146.087 157.235C146.638 161.745 147.4 166.087 150.464 169.446L173.426 196.676L184.801 186.467L160.462 153.192L164.692 106.285L140.879 110.348" fill="#263238"/>
<path d="M160.694 152.843C160.738 152.927 159.71 153.438 158.727 154.456C157.743 155.474 157.305 156.527 157.222 156.487C157.138 156.448 157.487 155.302 158.501 154.245C159.514 153.187 160.674 152.764 160.694 152.843Z" fill="#455A64"/>
<path d="M160.351 153.192C160.351 153.281 159.441 153.251 158.349 153.359C157.257 153.468 156.382 153.664 156.348 153.576C156.952 153.246 157.626 153.066 158.315 153.05C159.446 152.937 160.361 153.109 160.351 153.192Z" fill="#455A64"/>
<path d="M166.737 116.554C166.722 116.733 166.694 116.91 166.654 117.085C166.615 117.272 166.575 117.483 166.526 117.729C166.477 117.975 166.374 118.27 166.28 118.59C165.685 120.401 164.837 122.12 163.762 123.695C162.434 125.716 160.59 127.914 158.628 130.403C157.597 131.697 156.644 133.052 155.776 134.46C154.864 135.985 154.034 137.557 153.292 139.171C151.763 142.496 150.528 145.761 149.481 148.756C148.433 151.751 147.563 154.471 146.825 156.758C146.087 159.045 145.507 160.864 145.084 162.167C144.877 162.782 144.71 163.274 144.592 163.643C144.54 163.812 144.474 163.976 144.396 164.135C144.426 163.956 144.47 163.78 144.528 163.608L144.966 162.133L146.609 156.684C147.317 154.392 148.168 151.658 149.2 148.653C150.233 145.648 151.463 142.368 152.997 139.029C153.746 137.405 154.585 135.824 155.51 134.293C156.385 132.874 157.349 131.512 158.397 130.216C160.364 127.727 162.233 125.554 163.57 123.567C164.653 122.017 165.525 120.33 166.162 118.551C166.26 118.231 166.364 117.951 166.433 117.7C166.501 117.449 166.546 117.247 166.59 117.07C166.625 116.895 166.674 116.722 166.737 116.554Z" fill="#455A64"/>
<path d="M111.894 93.5678L107.905 95.6431L100.986 99.0414C100.519 99.203 100.126 99.5278 99.8794 99.9561L97.3418 104.422H102.196L103.489 102.243C104.303 102.534 105.187 102.566 106.019 102.333C106.852 102.101 107.592 101.615 108.137 100.945L115.184 98.4857L111.894 93.5678Z" fill="#FFBE9D"/>
<path d="M158.226 38.753C158.507 38.155 158.97 37.6608 159.548 37.3405C160.126 37.0201 160.79 36.8899 161.446 36.9683C162.103 37.0466 162.718 37.3296 163.204 37.777C163.691 38.2245 164.024 38.8137 164.157 39.4612C164.201 40.0858 164.311 40.704 164.486 41.3054C164.672 41.6913 164.983 42.0024 165.37 42.1875C165.756 42.3726 166.193 42.4205 166.611 42.3234C166.362 42.7915 165.978 43.1738 165.509 43.4201C165.569 43.3812 165.638 43.3571 165.709 43.3498C165.78 43.3425 165.852 43.3522 165.919 43.3782C165.985 43.4041 166.045 43.4455 166.093 43.4989C166.14 43.5524 166.174 43.6164 166.193 43.6856C166.215 43.8301 166.194 43.978 166.132 44.1104C166.069 44.2427 165.969 44.3534 165.843 44.4282C165.588 44.571 165.304 44.6566 165.012 44.679C163.611 44.8905 162.062 44.9446 160.881 44.1873C159.593 43.3561 159.022 41.7922 158.54 40.3415" fill="#263238"/>
<path d="M144.799 34.6908C143.324 34.8187 142.095 35.9055 141.239 37.1153C140.383 38.3251 139.788 39.712 138.893 40.8923C138.224 41.7726 137.373 42.5693 137.044 43.6217C136.518 45.3036 137.442 47.2413 136.71 48.8396C136.292 49.7445 135.416 50.3592 134.983 51.2543C134.442 52.3706 134.688 53.7132 135.018 54.8935C135.183 55.7445 135.603 56.5251 136.223 57.1311C136.781 57.514 137.424 57.7553 138.096 57.8344C143.137 58.7612 148.34 58.1175 153.003 55.9902" fill="#263238"/>
<path d="M156.322 43.1053C156.302 42.0817 156.076 41.0725 155.657 40.138C155.239 39.2034 154.638 38.3624 153.888 37.6651C153.138 36.9677 152.256 36.4282 151.294 36.0786C150.331 35.729 149.309 35.5765 148.286 35.6301C144.199 35.8367 141.057 39.3579 141.032 43.4496C141.032 47.0347 141.076 50.6444 141.283 51.928C141.898 55.7984 144.386 56.9787 145.37 57.2983C145.719 57.3699 146.075 57.4046 146.432 57.4016C146.439 57.4028 146.445 57.4064 146.45 57.4118C146.454 57.4172 146.457 57.4241 146.457 57.4311L146.245 62.0097C146.28 64.9604 148.286 67.3456 151.261 67.3456C154.237 67.3456 156.204 64.7735 156.224 61.7884L156.322 43.1053Z" fill="#FFBE9D"/>
<path d="M142.493 45.4561C142.493 45.6183 142.556 45.7743 142.669 45.8909C142.782 46.0075 142.936 46.0755 143.098 46.0806C143.177 46.0873 143.257 46.078 143.332 46.0532C143.408 46.0284 143.477 45.9886 143.537 45.9363C143.597 45.8839 143.645 45.8201 143.68 45.7486C143.714 45.677 143.734 45.5993 143.737 45.52C143.74 45.3573 143.679 45.2001 143.566 45.0823C143.454 44.9645 143.3 44.8956 143.137 44.8905C143.058 44.8845 142.978 44.8944 142.902 44.9197C142.826 44.945 142.756 44.9852 142.696 45.0379C142.636 45.0906 142.588 45.1547 142.553 45.2265C142.518 45.2983 142.498 45.3763 142.493 45.4561Z" fill="#263238"/>
<path d="M142.095 44.3692C142.168 44.4528 142.64 44.1036 143.314 44.1036C143.988 44.1036 144.475 44.4381 144.549 44.3594C144.622 44.2807 144.504 44.1774 144.288 44.02C144 43.819 143.656 43.7124 143.304 43.7151C142.951 43.7098 142.605 43.8203 142.321 44.0299C142.124 44.1873 142.055 44.3397 142.095 44.3692Z" fill="#263238"/>
<path d="M149.053 45.456C149.05 45.6183 149.112 45.7749 149.224 45.8919C149.337 46.0089 149.491 46.0767 149.653 46.0806C149.732 46.0873 149.812 46.078 149.887 46.0532C149.962 46.0284 150.032 45.9886 150.092 45.9363C150.151 45.8839 150.2 45.8201 150.234 45.7486C150.269 45.677 150.288 45.5993 150.292 45.52C150.295 45.3573 150.233 45.2001 150.121 45.0823C150.009 44.9645 149.855 44.8956 149.692 44.8905C149.613 44.8845 149.533 44.8945 149.458 44.9198C149.382 44.9452 149.313 44.9854 149.253 45.0382C149.193 45.0909 149.145 45.155 149.111 45.2268C149.076 45.2986 149.057 45.3765 149.053 45.456Z" fill="#263238"/>
<path d="M148.685 44.4971C148.764 44.5757 149.236 44.2266 149.905 44.2266C150.573 44.2266 151.065 44.5659 151.139 44.4823C151.213 44.3987 151.1 44.3003 150.883 44.143C150.594 43.9448 150.251 43.8385 149.9 43.8381C149.547 43.8362 149.202 43.9464 148.916 44.1528C148.719 44.3102 148.646 44.4577 148.685 44.4971Z" fill="#263238"/>
<path d="M146.25 49.469C145.898 49.3556 145.533 49.2895 145.163 49.2723C144.991 49.2723 144.829 49.2182 144.8 49.1051C144.788 48.9337 144.828 48.7627 144.913 48.6133L145.404 47.3101C146.108 45.456 146.619 43.9266 146.54 43.902C145.984 44.9659 145.514 46.0727 145.134 47.2117C144.962 47.6691 144.804 48.1068 144.642 48.5248C144.535 48.7303 144.503 48.9672 144.554 49.1936C144.579 49.2537 144.617 49.3073 144.665 49.3507C144.714 49.3941 144.772 49.4261 144.834 49.4445C144.931 49.4695 145.029 49.4843 145.129 49.4887C145.502 49.5308 145.879 49.5241 146.25 49.469Z" fill="#263238"/>
<path d="M146.466 57.4016C146.466 57.4016 149.058 57.6131 152.294 55.6656C152.294 55.6656 151.271 59.1081 146.393 58.6163L146.466 57.4016Z" fill="#EB996E"/>
<path d="M146.536 51.0821C146.665 50.9228 146.831 50.7982 147.02 50.72C147.209 50.6418 147.415 50.6124 147.618 50.6346C147.766 50.6488 147.909 50.6922 148.04 50.7623C148.171 50.8323 148.287 50.9277 148.38 51.0428C148.47 51.1552 148.522 51.292 148.532 51.4352C148.542 51.5783 148.508 51.721 148.435 51.8444C148.327 51.9654 148.185 52.0512 148.028 52.0906C147.871 52.1301 147.706 52.1214 147.554 52.0657C147.239 51.9613 146.948 51.794 146.698 51.5739C146.623 51.5211 146.558 51.4543 146.507 51.3772C146.483 51.3398 146.47 51.2963 146.47 51.2518C146.47 51.2073 146.483 51.1638 146.507 51.1264" fill="#EB996E"/>
<path d="M148.222 49.9313C148.114 49.9313 148.114 50.6543 147.49 51.1706C146.865 51.687 146.093 51.6083 146.088 51.7067C146.083 51.805 146.26 51.8493 146.58 51.8591C147.006 51.8634 147.419 51.7191 147.75 51.451C148.067 51.192 148.27 50.8197 148.316 50.4133C148.355 50.1084 148.286 49.9264 148.222 49.9313Z" fill="#263238"/>
<path d="M148.385 43.3217C148.449 43.5036 149.117 43.4151 149.904 43.5135C150.691 43.6118 151.33 43.8184 151.434 43.6561C151.478 43.5774 151.37 43.4053 151.114 43.2332C150.771 43.0163 150.384 42.8801 149.981 42.8349C149.578 42.7898 149.17 42.8368 148.788 42.9725C148.498 43.0905 148.355 43.2332 148.385 43.3217Z" fill="#263238"/>
<path d="M142.341 42.9971C142.459 43.1496 142.921 42.9971 143.477 42.9971C144.032 42.9971 144.5 43.1004 144.608 42.9381C144.657 42.8594 144.608 42.707 144.377 42.5643C144.101 42.3903 143.779 42.3029 143.453 42.3134C143.127 42.3239 142.811 42.4319 142.547 42.6234C142.351 42.766 142.287 42.9233 142.341 42.9971Z" fill="#263238"/>
<path d="M140.143 42.6086C141.126 43.72 143.585 42.6086 144.982 41.5217C145.86 41.9162 146.857 41.953 147.761 41.6243C148.666 41.2955 149.406 40.6272 149.826 39.7611C150.869 40.7447 152.6 40.1251 153.072 38.7776C153.544 37.4301 152.919 35.7334 151.862 34.7596C150.81 33.8596 149.47 33.3659 148.085 33.3679C146.487 33.2917 144.902 33.6846 143.525 34.4982C142.148 35.3117 141.039 36.5104 140.334 37.9464C139.675 39.348 139.42 41.1431 140.143 42.6037" fill="#263238"/>
<path d="M151.616 34.6908C154.424 33.7072 157.626 36.1908 158.216 38.2071C159.239 41.7037 158.821 42.2201 159.721 43.8381C160.311 44.8905 161.944 45.8052 162.672 46.8823C163.473 48.0232 163.773 50.1084 163.532 51.4854C163.331 52.646 162.293 55.9508 162.293 55.9508C162.293 55.9508 157.98 56.4426 155.703 56.1967C155.119 56.1679 154.551 55.9993 154.046 55.7049C153.554 55.3902 154.243 53.9542 154.085 53.4083C153.628 51.8592 152.31 51.1166 152.423 49.5035C152.57 47.3642 154.184 47.0445 153.839 44.9003C153.657 43.7741 151.739 42.4021 151.425 41.3103C151.11 40.2185 149.89 36.417 151.597 34.7006" fill="#263238"/>
<path d="M158.791 41.3594C158.718 41.3594 158.767 40.6316 158.624 39.771C158.481 38.9103 158.221 38.2366 158.29 38.2071C158.627 38.6468 158.83 39.1744 158.875 39.7267C159.009 40.2672 158.98 40.8355 158.791 41.3594Z" fill="#2B1FC5"/>
<path d="M158.53 40.1595C158.53 40.1595 158.431 40.2283 158.23 40.2775C157.944 40.3483 157.649 40.3765 157.354 40.3611C156.913 40.3388 156.481 40.232 156.081 40.0464C155.591 39.8166 155.16 39.4806 154.817 39.0628C154.502 38.6519 154.142 38.2775 153.745 37.9464C153.412 37.7 153.039 37.5136 152.643 37.3956C152.266 37.3023 151.883 37.2366 151.497 37.1989C151.597 37.1531 151.707 37.1328 151.817 37.1399C152.109 37.1234 152.402 37.1499 152.687 37.2186C153.115 37.3217 153.521 37.5035 153.882 37.7546C154.302 38.0814 154.68 38.4579 155.008 38.8759C155.597 39.5961 156.445 40.0569 157.369 40.1595C157.755 40.1854 158.143 40.1854 158.53 40.1595Z" fill="#455A64"/>
<path d="M166.217 43.543C166.121 43.6385 165.996 43.7006 165.862 43.72C165.499 43.7957 165.121 43.7454 164.79 43.5774C164.305 43.3274 163.913 42.9272 163.674 42.4365C163.379 41.9102 163.182 41.2808 162.907 40.6808C162.687 40.1073 162.277 39.6265 161.746 39.3185C161.294 39.1087 160.782 39.0652 160.3 39.1956C159.852 39.3358 159.449 39.594 159.135 39.9431C159.174 39.8157 159.245 39.7005 159.341 39.6087C159.584 39.3343 159.897 39.1319 160.246 39.0234C160.771 38.8522 161.34 38.8802 161.845 39.1021C162.438 39.4241 162.896 39.9473 163.138 40.5775C163.433 41.2021 163.63 41.8217 163.881 42.3283C164.086 42.7865 164.43 43.1684 164.864 43.42C165.162 43.5909 165.506 43.6632 165.848 43.6266C166.079 43.5922 166.202 43.5233 166.217 43.543Z" fill="#455A64"/>
<path d="M158.54 39.7169C158.54 39.7169 158.417 39.7759 158.186 39.7562C157.855 39.717 157.541 39.5858 157.281 39.3775C156.903 39.0727 156.589 38.6968 156.356 38.271C156.094 37.7681 155.781 37.2935 155.422 36.8547C155.07 36.4892 154.644 36.2035 154.172 36.0169C153.701 35.8302 153.194 35.747 152.688 35.7727C152.262 35.8139 151.842 35.8996 151.434 36.0284C151.434 36.0284 151.527 35.9399 151.734 35.8416C152.031 35.7098 152.349 35.6268 152.673 35.5957C153.215 35.5382 153.763 35.6059 154.274 35.7935C154.786 35.981 155.247 36.2835 155.624 36.6776C155.994 37.1322 156.313 37.6271 156.573 38.153C156.779 38.5627 157.061 38.9298 157.404 39.2349C157.724 39.5089 158.121 39.6773 158.54 39.7169Z" fill="#455A64"/>
<path d="M159.774 56.4525C159.774 56.4525 159.951 56.182 160.266 55.6902C160.687 54.996 161.018 54.2506 161.25 53.4722C161.599 52.3263 161.641 51.1087 161.372 49.9412C161.21 49.2336 160.909 48.5652 160.487 47.9744C160.065 47.3836 159.53 46.8821 158.914 46.4987C158.25 46.1052 157.517 45.8397 156.868 45.4413C156.222 45.0657 155.707 44.501 155.392 43.8233C155.131 43.2238 154.921 42.6037 154.763 41.9693C154.624 41.428 154.435 40.9011 154.197 40.3956C154.036 40.0298 153.798 39.7026 153.501 39.4355C153.203 39.1684 152.852 38.9677 152.471 38.8464C152.185 38.7745 151.888 38.7562 151.596 38.7923C151.596 38.7923 151.669 38.753 151.822 38.7235C152.044 38.6783 152.273 38.6783 152.496 38.7235C152.901 38.8331 153.278 39.0298 153.6 39.2998C153.922 39.5699 154.181 39.9069 154.36 40.2874C154.613 40.7992 154.815 41.3345 154.964 41.8857C155.127 42.5062 155.343 43.1116 155.609 43.6955C155.904 44.3273 156.386 44.8528 156.991 45.2003C157.61 45.5839 158.343 45.8446 159.036 46.2577C159.681 46.6617 160.237 47.1905 160.674 47.813C161.111 48.4354 161.418 49.139 161.579 49.8822C161.846 51.0896 161.783 52.3467 161.397 53.5214C161.149 54.3087 160.788 55.0558 160.325 55.7394C160.204 55.9255 160.073 56.1045 159.932 56.2754C159.838 56.3984 159.784 56.4574 159.774 56.4525Z" fill="#455A64"/>
<path d="M138.52 57.6426C138.52 57.6426 138.465 57.6033 138.387 57.5049C138.273 57.3633 138.169 57.2137 138.077 57.0574C137.733 56.4749 137.509 55.8295 137.418 55.1591C137.264 54.1581 137.401 53.134 137.811 52.2083C138.072 51.6823 138.367 51.1746 138.697 50.6887C139.044 50.191 139.262 49.6147 139.331 49.0117C139.415 47.7724 138.839 46.6167 138.761 45.4856C138.637 44.4858 138.767 43.4711 139.139 42.5348C139.395 41.9099 139.78 41.3466 140.27 40.8824C140.4 40.7554 140.54 40.6386 140.688 40.5333C140.737 40.4915 140.792 40.4568 140.851 40.43C140.851 40.43 140.659 40.6119 140.359 40.9513C139.913 41.4318 139.563 41.9925 139.326 42.6037C138.993 43.5152 138.885 44.4938 139.011 45.4561C139.091 46.0273 139.21 46.5925 139.365 47.1478C139.55 47.7596 139.631 48.3978 139.606 49.0363C139.532 49.6776 139.3 50.2907 138.933 50.8215C138.606 51.2939 138.311 51.7867 138.047 52.2968C137.644 53.1793 137.494 54.1568 137.615 55.1197C137.691 55.7712 137.883 56.4039 138.18 56.9885C138.382 57.4213 138.539 57.618 138.52 57.6426Z" fill="#455A64"/>
<path d="M147.529 33.8793C146.906 33.9588 146.289 34.0854 145.685 34.258C144.242 34.7197 142.993 35.6467 142.134 36.894C141.335 38.1805 140.897 39.6584 140.865 41.1726C140.871 41.801 140.93 42.4279 141.042 43.0463C140.957 42.8932 140.897 42.7271 140.865 42.5545C140.75 42.0994 140.689 41.6322 140.683 41.1627C140.662 39.5996 141.091 38.0633 141.918 36.7366C142.805 35.4396 144.119 34.4947 145.631 34.0662C146.083 33.9377 146.548 33.8618 147.018 33.84C147.189 33.8268 147.362 33.8401 147.529 33.8793Z" fill="#455A64"/>
<path d="M144.214 40.1841C144.148 40.0519 144.106 39.9085 144.092 39.7611C144.018 39.3589 144 38.9486 144.037 38.5415C144.091 37.864 144.282 37.2046 144.599 36.6038C144.917 36.0029 145.354 35.4734 145.884 35.0478C146.413 34.6221 147.025 34.3094 147.68 34.1287C148.335 33.9481 149.02 33.9034 149.693 33.9974C150.097 34.0475 150.492 34.1517 150.868 34.3072C151.012 34.3537 151.146 34.4271 151.262 34.5236C150.744 34.3606 150.212 34.2454 149.673 34.1793C148.37 34.0426 147.066 34.4264 146.044 35.2471C145.022 36.0679 144.367 37.2591 144.219 38.5612C144.17 39.1009 144.168 39.644 144.214 40.1841Z" fill="#455A64"/>
<path d="M166.61 110.087L161.294 89.5351L163.133 81.4944L165.784 66.4013C165.784 66.4013 163.349 63.0719 157.045 62.7523L156.622 59.6983L145.827 60.0769L145.625 62.9637C144.022 63.3617 142.521 64.093 141.22 65.1098C139.918 66.1266 138.845 67.4062 138.071 68.8652L130.404 83.2845L109.435 93.7792L112.203 100.276C112.203 100.276 133.252 92.299 135.032 91.517C136.217 91.0006 137.491 88.8171 138.617 86.4762C139.458 90.499 140.329 93.6858 140.329 93.6858L140.147 109.453L166.61 110.087Z" fill="#2B1FC5"/>
<path d="M157.208 68.3685C157.208 68.3685 156.932 68.4472 156.445 68.5947C155.958 68.7423 155.255 68.9636 154.39 69.2586C153.524 69.5537 152.501 69.9127 151.316 70.1931C150.691 70.3528 150.047 70.4239 149.403 70.4045C148.708 70.3214 148.037 70.0936 147.436 69.7357C146.816 69.4062 146.246 69.0373 145.665 68.7521C145.112 68.468 144.528 68.2485 143.924 68.098C142.897 67.8419 141.833 67.7752 140.782 67.9013C139.813 68.0449 138.868 68.3144 137.969 68.7029C138.021 68.6576 138.079 68.6195 138.141 68.5898C138.31 68.4901 138.486 68.4014 138.667 68.3243C139.334 68.0301 140.037 67.8267 140.757 67.7193C142.474 67.4671 144.227 67.7487 145.778 68.5259C146.373 68.8259 146.949 69.1947 147.559 69.5095C148.126 69.8487 148.757 70.068 149.413 70.1537C150.032 70.1731 150.65 70.1086 151.252 69.9619C152.422 69.7013 153.455 69.3521 154.326 69.0865C155.196 68.821 155.909 68.5947 156.411 68.4964C156.662 68.4374 156.858 68.4029 156.991 68.3833C157.062 68.3642 157.135 68.3592 157.208 68.3685Z" fill="#FAFAFA"/>
<path d="M160.458 78.7994C160.458 78.8289 160.045 78.7256 159.288 78.6862C158.222 78.6585 157.16 78.803 156.14 79.1141C154.631 79.5931 153.164 80.1951 151.754 80.914C150.017 81.8261 148.154 82.4742 146.226 82.8369C145.713 82.9088 145.195 82.9367 144.677 82.9205C144.17 82.8997 143.668 82.8255 143.177 82.6992C142.261 82.4372 141.39 82.0376 140.595 81.514C139.075 80.5304 137.792 79.5469 136.503 79.1387C135.514 78.7451 134.421 78.6949 133.4 78.9961C133.034 79.1333 132.686 79.3132 132.362 79.5321C132.432 79.4553 132.509 79.3861 132.593 79.3256C132.83 79.1494 133.09 79.0071 133.366 78.9026C134.407 78.5556 135.536 78.5782 136.562 78.9666C137.89 79.3747 139.213 80.3731 140.723 81.3124C141.499 81.8187 142.348 82.2035 143.241 82.4533C143.714 82.5743 144.199 82.6451 144.687 82.6648C145.19 82.6809 145.693 82.6529 146.191 82.5812C148.094 82.2214 149.934 81.5887 151.655 80.7026C153.077 79.9883 154.558 79.3976 156.081 78.9371C157.122 78.6367 158.207 78.5185 159.288 78.5879C159.579 78.6103 159.869 78.6547 160.153 78.7207C160.257 78.7382 160.359 78.7646 160.458 78.7994Z" fill="#FAFAFA"/>
<path d="M140.777 71.6094C140.777 71.6094 140.777 71.6832 140.728 71.8209C140.679 71.9586 140.629 72.1553 140.541 72.411C140.369 72.9028 140.093 73.6503 139.739 74.5405C139.385 75.4306 138.952 76.5076 138.564 77.6879C138.359 78.3143 138.195 78.9533 138.072 79.601C137.927 80.2876 137.87 80.9901 137.905 81.6911C138.003 83.0583 138.203 84.4162 138.505 85.7533C138.761 86.9926 139.031 88.0991 139.257 89.0335C139.483 89.9679 139.665 90.7203 139.779 91.2465C139.838 91.5072 139.877 91.7383 139.902 91.8514C139.922 91.9217 139.93 91.9948 139.926 92.0678C139.825 91.8087 139.742 91.5424 139.68 91.2711L139.075 89.0925C138.829 88.163 138.539 87.0565 138.269 85.8172C137.95 84.4708 137.741 83.1008 137.644 81.7206C137.608 80.9979 137.667 80.2736 137.821 79.5665C137.943 78.9107 138.107 78.2635 138.313 77.6289C138.716 76.4191 139.174 75.3667 139.547 74.4864C139.921 73.6061 140.221 72.888 140.423 72.3913C140.521 72.1223 140.64 71.861 140.777 71.6094Z" fill="#263238"/>
<path d="M128.767 93.971C128.639 93.989 128.508 93.9738 128.388 93.9268C128.057 93.8232 127.75 93.6562 127.483 93.435C127.084 93.1094 126.738 92.7246 126.455 92.294C126.136 91.7494 125.913 91.1538 125.796 90.5334C125.677 89.9382 125.512 89.353 125.304 88.7827C125.119 88.3288 124.839 87.9196 124.483 87.5827C124.146 87.281 123.733 87.0769 123.288 86.9926C123.288 86.9926 123.421 86.9532 123.667 86.9926C124.013 87.0611 124.335 87.2187 124.601 87.4499C124.999 87.7872 125.313 88.2111 125.521 88.6892C125.756 89.2664 125.937 89.864 126.062 90.4744C126.175 91.0677 126.382 91.6389 126.677 92.1662C126.934 92.5864 127.252 92.9659 127.621 93.2924C127.864 93.518 128.141 93.7039 128.442 93.8432C128.639 93.9268 128.772 93.9465 128.767 93.971Z" fill="#FAFAFA"/>
<path d="M116.752 98.5545C116.708 98.5545 116.752 98.1218 116.644 97.4332C116.52 96.5388 116.28 95.6643 115.931 94.8317C115.59 93.9971 115.14 93.2116 114.593 92.4957C114.17 91.9449 113.845 91.6596 113.875 91.6252C114.208 91.8175 114.5 92.0731 114.736 92.3777C115.336 93.0809 115.819 93.8764 116.167 94.7333C116.529 95.5851 116.75 96.4905 116.821 97.4136C116.869 97.7948 116.846 98.1819 116.752 98.5545Z" fill="#FAFAFA"/>
<path d="M161.363 89.3482C161.363 89.3482 161.053 89.3482 160.497 89.4171C159.71 89.4934 158.932 89.6399 158.171 89.8548C157.188 90.1154 156.086 90.5236 154.837 90.9761C153.485 91.5006 152.085 91.891 150.657 92.1416C148.047 92.5402 145.38 92.3109 142.877 91.4728C142.123 91.216 141.389 90.902 140.683 90.5334C140.432 90.4007 140.245 90.2875 140.118 90.2138C139.99 90.14 139.926 90.0761 139.926 90.0761C140.196 90.1837 140.46 90.3052 140.718 90.44C141.435 90.7705 142.173 91.0562 142.926 91.2957C145.416 92.0765 148.052 92.2783 150.632 91.8859C152.045 91.6362 153.431 91.2559 154.773 90.7498C156.022 90.3121 157.158 89.9138 158.142 89.6728C158.914 89.4699 159.705 89.3496 160.502 89.3138C160.718 89.3007 160.935 89.3007 161.151 89.3138C161.223 89.3156 161.294 89.3272 161.363 89.3482Z" fill="#FAFAFA"/>
<g opacity="0.3">
<path d="M146.387 62.9736C147.808 63.7692 149.408 64.1906 151.036 64.1983C152.665 64.2061 154.268 63.7999 155.697 63.0178C152.576 63.1719 149.451 63.1834 146.323 63.0523" fill="black"/>
</g>
<path d="M156.971 62.6883C156.836 62.7573 156.692 62.8069 156.543 62.8359C156.148 62.9508 155.746 63.0363 155.338 63.0916C153.995 63.2659 152.638 63.3121 151.286 63.2293C149.702 63.1605 148.281 63.067 147.248 63.0621C146.216 63.0572 145.576 63.0916 145.576 63.0621C145.719 63.0151 145.868 62.9886 146.019 62.9834C146.309 62.9441 146.727 62.9146 147.248 62.8949C148.286 62.8556 149.707 62.9195 151.296 62.9883C152.636 63.0684 153.981 63.047 155.319 62.9244C156.341 62.8015 156.961 62.6441 156.971 62.6883Z" fill="#263238"/>
<path d="M150.352 85.3549C150.642 85.9303 167.653 99.4988 172.531 103.379C172.701 103.514 172.842 103.682 172.947 103.872C173.052 104.062 173.118 104.271 173.141 104.486C173.165 104.702 173.146 104.92 173.085 105.129C173.024 105.337 172.923 105.531 172.787 105.7L161.436 119.79C161.165 120.129 160.771 120.346 160.339 120.395C159.908 120.444 159.475 120.32 159.135 120.051L137.393 102.838C137.218 102.7 137.074 102.528 136.968 102.332C136.862 102.136 136.797 101.921 136.776 101.699C136.756 101.478 136.781 101.254 136.85 101.042C136.919 100.831 137.03 100.635 137.177 100.468L150.352 85.3549Z" fill="#263238"/>
<path d="M150.091 82.95C150.391 83.5451 168.607 98.0627 172.738 101.348C172.955 101.522 173.093 101.776 173.124 102.052C173.154 102.329 173.074 102.606 172.9 102.823L160.807 117.842C160.633 118.059 160.38 118.198 160.103 118.228C159.827 118.258 159.549 118.178 159.332 118.005L136.641 100.015C136.529 99.9269 136.437 99.8171 136.369 99.6921C136.301 99.5672 136.259 99.4298 136.246 99.2883C136.233 99.1467 136.248 99.0039 136.291 98.8685C136.335 98.7331 136.405 98.6079 136.498 98.5004L150.091 82.95Z" fill="#2B1FC5"/>
<path opacity="0.4" d="M150.091 82.95C150.391 83.55 168.956 98.3381 172.851 101.441C172.945 101.515 173.022 101.607 173.08 101.712C173.137 101.816 173.174 101.931 173.186 102.049C173.199 102.168 173.188 102.288 173.154 102.402C173.12 102.516 173.064 102.623 172.989 102.715L160.694 117.961C160.544 118.148 160.325 118.267 160.087 118.294C159.848 118.321 159.609 118.252 159.42 118.103L136.503 99.9069C136.406 99.8311 136.326 99.7363 136.267 99.6284C136.208 99.5205 136.172 99.4017 136.16 99.2793C136.149 99.1569 136.162 99.0334 136.2 98.9164C136.238 98.7994 136.299 98.6913 136.38 98.5988L150.091 82.95Z" fill="black"/>
<path d="M151.97 83.2156C157.739 88.0204 173.333 100.428 173.333 100.428L161.245 115.443C160.895 115.874 160.39 116.15 159.838 116.213C159.286 116.275 158.732 116.119 158.294 115.777L137.315 99.1447C137.09 98.9661 136.904 98.7438 136.767 98.4912C136.631 98.2387 136.547 97.961 136.521 97.6751C136.494 97.3892 136.526 97.101 136.615 96.8278C136.703 96.5547 136.846 96.3022 137.034 96.0858L147.986 83.55C148.477 82.9878 149.167 82.6385 149.91 82.5761C150.654 82.5137 151.393 82.743 151.97 83.2156Z" fill="#455A64"/>
<path d="M166.413 94.8956L166.718 97.0201L172.246 101.766L173.333 100.413L166.413 94.8956Z" fill="#FAFAFA"/>
<path d="M150.254 115.865L155.467 111.518L152.934 105.489L149.423 108.676C148.599 108.894 147.758 109.041 146.909 109.113C146.473 109.157 146.032 109.124 145.606 109.015C145.074 108.903 144.56 108.719 144.077 108.469C143.659 108.189 143.123 108.567 143.28 108.99C143.437 109.413 144.569 110.21 146.162 110.466C147.593 110.687 145.975 111.744 145.055 112.305C144.974 112.354 144.914 112.432 144.887 112.523C144.86 112.613 144.867 112.711 144.908 112.797C145.385 113.879 147.264 117.424 150.254 115.865Z" fill="#FFBE9D"/>
<path d="M158.526 73.1782C158.137 67.7685 163.158 62.2802 166.09 66.8292C169.306 71.8159 176.353 83.55 178.089 91.517C178.901 95.23 156.642 112.934 155.27 114.026C155.231 114.061 154.872 113.569 154.842 113.534L149.339 107.83C149.315 107.795 150.633 106.448 150.667 106.413L166.34 91.0597C166.351 91.0446 166.357 91.0266 166.357 91.008C166.357 90.9895 166.351 90.9714 166.34 90.9564C165.814 89.9974 158.895 77.3732 158.526 73.3061V73.1782Z" fill="#2B1FC5"/>
<path d="M170.909 90.9564C170.874 91.0547 169.837 90.7252 168.514 90.6957C167.191 90.6662 166.139 90.917 166.109 90.8138C166.079 90.7105 167.137 90.2925 168.529 90.322C169.92 90.3515 170.909 90.8728 170.909 90.9564Z" fill="#263238"/>
<path d="M169.925 92.6875C169.842 92.7563 169.207 92.0531 168.189 91.5367C167.171 91.0203 166.222 90.8925 166.247 90.7843C166.271 90.6761 167.265 90.6515 168.351 91.222C169.438 91.7924 169.999 92.6432 169.925 92.6875Z" fill="#263238"/>
<path d="M166.34 91.0597C166.272 90.9698 166.214 90.8725 166.168 90.7695L165.72 89.9236L164.127 86.7909C162.789 84.1107 160.965 80.4518 158.953 76.4093C157.9 74.5286 157.269 72.4408 157.104 70.2914C156.967 68.3243 157.537 66.4604 158.58 65.3735C159.047 64.873 159.632 64.4976 160.281 64.2817C160.768 64.1161 161.284 64.0541 161.796 64.0998C162.118 64.1273 162.434 64.2071 162.73 64.3358C162.834 64.3801 162.902 64.4293 162.952 64.4539C163.001 64.4785 163.025 64.4981 163.021 64.5031C162.631 64.3334 162.215 64.2303 161.791 64.1981C161.289 64.1679 160.787 64.2433 160.316 64.4194C159.696 64.6397 159.14 65.0097 158.698 65.4965C157.714 66.5735 157.163 68.3685 157.311 70.3012C157.5 72.4129 158.137 74.4601 159.18 76.306C161.171 80.3583 162.971 84.032 164.289 86.7221C164.924 88.0401 165.44 89.1122 165.809 89.8892L166.212 90.7597C166.262 90.8564 166.305 90.9566 166.34 91.0597Z" fill="#263238"/>
<g opacity="0.3">
<path d="M157.375 70.1389C156.804 74.9339 156.391 79.7829 156.834 84.5877C157.07 87.1204 159.75 90.2925 161.86 91.7137L161.294 89.5351C161.604 88.1237 162.637 83.6631 162.637 83.6631C162.637 83.6631 160.714 79.8567 159.947 78.4649C158.471 75.9195 157.592 73.0729 157.375 70.1389Z" fill="black"/>
</g>
<path d="M176.52 86.7467C176.52 86.7467 176.412 86.8696 176.181 87.0614C176.068 87.1548 175.92 87.263 175.743 87.3811C175.566 87.4991 175.37 87.6368 175.138 87.7696C174.6 88.0869 174.038 88.3615 173.456 88.5909C172.744 88.87 172.011 89.092 171.263 89.2548C170.515 89.4118 169.755 89.5072 168.991 89.54C168.365 89.5641 167.738 89.5344 167.117 89.4515C166.879 89.4232 166.642 89.3805 166.409 89.3236C166.232 89.2924 166.058 89.248 165.888 89.1908C165.735 89.1598 165.589 89.1033 165.455 89.0236C165.455 88.9794 166.094 89.1712 167.142 89.2695C167.753 89.3265 168.368 89.3396 168.981 89.3089C169.73 89.2567 170.474 89.1548 171.209 89.004C171.944 88.8424 172.667 88.6305 173.373 88.3696C173.947 88.1526 174.507 87.8996 175.05 87.6122C175.974 87.1253 176.491 86.7122 176.52 86.7467Z" fill="#FAFAFA"/>
<path d="M167.382 103.227C167.181 102.778 167.016 102.315 166.89 101.84C166.545 100.716 166.113 99.6207 165.597 98.5644C165.308 97.9887 164.967 97.4405 164.579 96.9267C164.262 96.5114 163.893 96.138 163.482 95.8153C162.774 95.2694 162.243 95.0579 162.267 95.0136C162.4 95.032 162.528 95.0736 162.646 95.1366C162.978 95.2814 163.294 95.4593 163.59 95.6677C164.031 95.9829 164.426 96.3569 164.766 96.7792C165.174 97.2974 165.528 97.856 165.823 98.4463C166.351 99.5153 166.766 100.636 167.062 101.791C167.217 102.257 167.324 102.738 167.382 103.227Z" fill="#FAFAFA"/>
<path d="M161.565 108.661C161.114 108.557 160.681 108.392 160.276 108.169C159.276 107.689 158.346 107.075 157.512 106.344C156.678 105.612 155.945 104.772 155.334 103.846C155.061 103.475 154.846 103.066 154.694 102.631C154.729 102.631 154.989 103.064 155.486 103.743C156.765 105.516 158.432 106.975 160.36 108.007C161.073 108.42 161.565 108.621 161.565 108.661Z" fill="#FAFAFA"/>
<path d="M167.082 68.4373C166.966 68.5169 166.836 68.5736 166.699 68.6046C166.338 68.7162 165.967 68.7953 165.592 68.8406C164.643 68.9832 163.315 68.8996 161.889 68.9783C161.219 69.0068 160.557 69.131 159.922 69.3472C159.409 69.5277 158.934 69.8011 158.52 70.1537C158.15 70.4948 157.839 70.8954 157.601 71.3389C157.61 71.1983 157.652 71.0619 157.724 70.9406C157.888 70.5939 158.116 70.2818 158.397 70.0209C158.813 69.6298 159.303 69.3255 159.838 69.1258C160.49 68.8923 161.173 68.7564 161.864 68.7226C163.34 68.6439 164.633 68.7521 165.568 68.6587C166.502 68.5652 167.068 68.3882 167.082 68.4373Z" fill="#FAFAFA"/>
<path d="M172.163 77.5896C172.126 77.7388 172.052 77.876 171.947 77.9879C171.684 78.3065 171.346 78.5549 170.963 78.7108C170.392 78.9216 169.791 79.0427 169.183 79.0698C168.457 79.1225 167.734 79.2161 167.019 79.3502C165.72 79.6053 164.453 80.0044 163.242 80.5403C162.312 80.9534 161.767 81.2731 161.767 81.2386C161.872 81.1324 161.993 81.0429 162.126 80.9731C162.469 80.7554 162.823 80.5567 163.188 80.378C164.392 79.7832 165.671 79.3531 166.989 79.0993C168.534 78.7649 169.989 78.9174 170.924 78.5387C171.419 78.3472 171.849 78.0179 172.163 77.5896Z" fill="#FAFAFA"/>
<path d="M50.6226 28.6959C51.6286 28.773 52.6086 29.0528 53.5036 29.5185C54.3986 29.9842 55.1902 30.6261 55.8307 31.4056C57.096 32.9721 57.986 34.8075 58.4322 36.7711C59.4158 40.5234 58.7519 44.9446 57.6503 48.6625C53.6029 47.1872 51.139 42.8299 50.0275 40.548C48.2719 36.9334 47.2883 29.3451 50.6472 28.6959" fill="#2B1FC5"/>
<path d="M63.4234 53.2558C62.8245 52.3057 62.4864 51.2145 62.4432 50.0922C62.4 48.9698 62.6533 47.8559 63.1775 46.8626C63.7214 45.8795 64.4555 45.0145 65.3369 44.318C66.2184 43.6214 67.2297 43.1072 68.3118 42.8053C69.2954 42.5102 70.456 42.3922 71.3117 42.9774C71.6941 43.2756 71.9907 43.6698 72.1713 44.1199C72.3518 44.57 72.4099 45.0598 72.3396 45.5397C72.1794 46.4996 71.7689 47.4004 71.1494 48.1511C69.1528 50.8067 66.7233 53.0099 63.4234 53.2558Z" fill="#2B1FC5"/>
<g opacity="0.3">
<path d="M63.4234 53.2558C62.8245 52.3057 62.4864 51.2145 62.4432 50.0922C62.4 48.9698 62.6533 47.8559 63.1775 46.8626C63.7214 45.8795 64.4555 45.0145 65.3369 44.318C66.2184 43.6214 67.2297 43.1072 68.3118 42.8053C69.2954 42.5102 70.456 42.3922 71.3117 42.9774C71.6941 43.2756 71.9907 43.6698 72.1713 44.1199C72.3518 44.57 72.4099 45.0598 72.3396 45.5397C72.1794 46.4996 71.7689 47.4004 71.1494 48.1511C69.1528 50.8067 66.7233 53.0099 63.4234 53.2558Z" fill="white"/>
</g>
<path d="M59.1058 57.2344C57.8454 55.229 56.1255 53.5526 54.0884 52.3442C52.0512 51.1358 49.7555 50.4301 47.3914 50.2854C46.1865 50.2264 44.7504 50.4576 44.239 51.5444C43.7275 52.6313 44.4652 53.8952 45.3012 54.7656C47.0776 56.5456 49.3409 57.7601 51.8061 58.2563C54.2714 58.7525 56.8283 58.5082 59.1549 57.5541" fill="#2B1FC5"/>
<g opacity="0.3">
<path d="M59.1058 57.2344C57.8454 55.229 56.1255 53.5526 54.0884 52.3442C52.0512 51.1358 49.7555 50.4301 47.3914 50.2854C46.1865 50.2264 44.7504 50.4576 44.239 51.5444C43.7275 52.6313 44.4652 53.8952 45.3012 54.7656C47.0776 56.5456 49.3409 57.7601 51.8061 58.2563C54.2714 58.7525 56.8283 58.5082 59.1549 57.5541" fill="white"/>
</g>
<path d="M63.4581 66.1407C63.378 65.8808 63.322 65.6142 63.2909 65.344C63.2024 64.8276 63.0794 64.0801 62.9565 63.1556C62.5859 60.7385 62.5314 58.2836 62.7942 55.8525C63.0775 53.4023 64.0114 51.0726 65.499 49.1051C65.9562 48.5189 66.483 47.9904 67.0678 47.5314C67.2256 47.4051 67.3898 47.2869 67.5596 47.1773C67.6165 47.1338 67.6794 47.099 67.7465 47.0741C66.969 47.7083 66.2632 48.4257 65.6416 49.2133C64.2245 51.1819 63.331 53.4783 63.045 55.8869C62.7917 58.2985 62.8231 60.7316 63.1384 63.1359C63.2417 64.026 63.3253 64.7686 63.3893 65.3293C63.4315 65.5978 63.4545 65.8689 63.4581 66.1407Z" fill="#263238"/>
<path d="M51.8965 34.4105C51.9562 34.5099 52.0088 34.6134 52.0539 34.7203C52.1571 34.9514 52.2948 35.2514 52.462 35.6301C52.8112 36.417 53.303 37.5678 53.903 38.994C55.098 41.8414 56.6963 45.8003 58.3635 50.2117C60.0307 54.623 61.4519 58.6508 62.4404 61.5818C62.9322 63.0572 63.3257 64.2326 63.5863 65.0539C63.7043 65.4473 63.8027 65.7669 63.8765 66.0079C63.919 66.1155 63.9487 66.2278 63.965 66.3423C63.9084 66.2407 63.8623 66.1336 63.8273 66.0227C63.7437 65.7866 63.6306 65.4768 63.488 65.0883C63.1929 64.2473 62.7749 63.0769 62.2683 61.6458C61.2356 58.7344 59.8094 54.7164 58.1275 50.31C56.4455 45.9036 54.8866 41.9496 53.7358 39.0677L52.3686 35.6744C52.2211 35.2908 52.0981 34.981 52.0047 34.7449C51.9562 34.6378 51.9199 34.5256 51.8965 34.4105Z" fill="#263238"/>
<path d="M49.3096 53.3935C49.5694 53.3884 49.8292 53.4032 50.0867 53.4378C50.3891 53.4609 50.6897 53.5036 50.9866 53.5657C51.3863 53.6302 51.782 53.7172 52.1718 53.8263L52.8505 54.0132C53.0866 54.082 53.3423 54.1804 53.5734 54.264C54.1007 54.4573 54.6177 54.6772 55.1226 54.923C57.4517 56.0572 59.4893 57.7111 61.0781 59.7573C61.4273 60.2491 61.7716 60.6868 62.0617 61.1441C62.1994 61.3703 62.342 61.5818 62.4552 61.7982L62.7797 62.4277C62.9961 62.8211 63.1338 63.2047 63.2715 63.5293C63.3921 63.8091 63.494 64.0966 63.5764 64.3899C63.6649 64.635 63.734 64.8865 63.783 65.1424C63.724 65.1424 63.4387 64.085 62.6125 62.5113C62.5043 62.3146 62.3961 62.108 62.2781 61.8966C62.1601 61.6851 62.0175 61.4835 61.8748 61.2622C61.5705 60.7931 61.2422 60.3401 60.8913 59.9048C59.304 57.9068 57.3001 56.2788 55.0193 55.1345C54.4882 54.8886 53.9915 54.6427 53.4948 54.4656C53.2538 54.3771 53.003 54.2738 52.7915 54.2001L52.1227 53.9984C50.4211 53.5116 49.2998 53.4525 49.3096 53.3935Z" fill="#263238"/>
<path d="M55.7559 62.5064H70.3276V71.034C70.3276 72.637 69.6908 74.1743 68.5573 75.3078C67.4238 76.4413 65.8865 77.0781 64.2835 77.0781H61.7999C60.197 77.0781 58.6596 76.4413 57.5261 75.3078C56.3926 74.1743 55.7559 72.637 55.7559 71.034V62.5064Z" fill="#2B1FC5"/>
<path opacity="0.3" d="M55.7559 62.5064H70.3276V71.034C70.3276 72.637 69.6908 74.1743 68.5573 75.3078C67.4238 76.4413 65.8865 77.0781 64.2835 77.0781H61.7999C60.197 77.0781 58.6596 76.4413 57.5261 75.3078C56.3926 74.1743 55.7559 72.637 55.7559 71.034V62.5064Z" fill="black"/>
<path d="M65.6022 62.5359C65.5704 62.6883 65.5139 62.8345 65.435 62.9687C65.2496 63.347 65.0325 63.709 64.7859 64.0506C63.9748 65.1913 62.9003 66.1192 61.6536 66.7554C60.4069 67.3915 59.025 67.7172 57.6254 67.7046C57.2051 67.7043 56.7855 67.6681 56.3714 67.5964C56.2168 67.5816 56.0656 67.5417 55.9238 67.4784C55.9238 67.4341 56.573 67.562 57.6205 67.5275C58.9835 67.487 60.3204 67.1444 61.5349 66.5244C62.7493 65.9044 63.811 65.0225 64.6432 63.9424C65.2826 63.126 65.558 62.5359 65.6022 62.5359Z" fill="#FAFAFA"/>
<path d="M70.191 72.3717C70.0226 72.3672 69.8563 72.3339 69.6992 72.2733C69.2799 72.1392 68.8773 71.9577 68.4992 71.7324C67.2258 70.986 66.2609 69.8093 65.7785 68.4143C65.2961 67.0194 65.3279 65.498 65.8681 64.1244C66.028 63.7147 66.2325 63.3238 66.478 62.9588C66.5628 62.8215 66.6672 62.6973 66.7878 62.59C66.5021 63.1049 66.2523 63.639 66.0403 64.1883C65.566 65.5256 65.5607 66.9845 66.0255 68.3251C66.4903 69.6658 67.3973 70.8084 68.5976 71.5651C69.1095 71.8704 69.6419 72.1399 70.191 72.3717Z" fill="#FAFAFA"/>
<path d="M66.4575 76.6798C66.4438 75.952 66.3415 75.2287 66.1526 74.5257C65.9155 73.7768 65.5475 73.0758 65.0657 72.4553C64.4738 71.6991 63.7426 71.0631 62.9117 70.5816C61.375 69.7214 59.6031 69.3767 57.8561 69.598C57.1336 69.7179 56.4191 69.8821 55.7168 70.0898C55.8873 69.9878 56.0688 69.9053 56.2578 69.8439C56.7669 69.6562 57.2944 69.5227 57.8315 69.4455C59.6227 69.1583 61.4583 69.4859 63.0395 70.375C63.9011 70.8765 64.6536 71.5454 65.2526 72.3422C65.7419 72.9903 66.1055 73.7242 66.3247 74.506C66.4703 75.031 66.5382 75.5745 66.5263 76.1191C66.5265 76.3081 66.5034 76.4964 66.4575 76.6798Z" fill="#FAFAFA"/>
<path d="M68.5323 77.0781H22.6631V210.22H68.5323V77.0781Z" fill="#263238"/>
<path d="M93.1561 77.0781H42.9346V210.22H93.1561V77.0781Z" fill="#455A64"/>
<path d="M90.913 114.867H46.1553V142.353H90.913V114.867Z" fill="#455A64"/>
<path d="M61.2393 179.774H76.5683V180.467C76.5716 180.609 76.5464 180.75 76.4941 180.881C76.4418 181.013 76.3636 181.133 76.264 181.234C76.1645 181.335 76.0456 181.415 75.9146 181.469C75.7835 181.523 75.6429 181.55 75.5011 181.549H62.3015C62.0211 181.549 61.7522 181.437 61.5539 181.239C61.3556 181.041 61.2442 180.772 61.2442 180.492V179.798L61.2393 179.774Z" fill="#263238"/>
<path d="M90.8148 179.773C90.8148 179.773 90.8148 179.936 90.8148 180.265C90.8148 180.595 90.8148 181.072 90.8148 181.691C90.8148 182.96 90.8148 184.809 90.8148 187.185C90.8148 191.97 90.8492 198.85 90.8689 207.274V207.373H90.7705L46.0177 207.402H45.8652V207.274C45.8652 197.547 45.8652 188.267 45.8652 179.823V179.705H45.9833L78.2741 179.734H87.4903H89.9492H90.5738H90.7803H90.559H89.9197H87.4608L78.2151 179.773L46.0029 179.857L46.121 179.739C46.121 188.183 46.121 197.443 46.121 207.191L45.9931 207.063L90.7459 207.087L90.6426 207.191C90.6426 198.791 90.6869 191.945 90.6967 187.165C90.6967 184.78 90.6967 182.921 90.7213 181.647C90.7213 181.018 90.7213 180.536 90.7213 180.201C90.8049 179.946 90.8148 179.773 90.8148 179.773Z" fill="#263238"/>
<path d="M75.973 186.486H62.6455V190.086H75.973V186.486Z" fill="#E0E0E0"/>
<path d="M90.913 145.461H46.1553V172.947H90.913V145.461Z" fill="#455A64"/>
<path d="M61.1808 149.027H76.5098V149.72C76.5098 150.001 76.3984 150.27 76.2001 150.468C76.0018 150.666 75.7329 150.778 75.4525 150.778H62.2234C61.9429 150.778 61.674 150.666 61.4757 150.468C61.2774 150.27 61.166 150.001 61.166 149.72V149.027H61.1808Z" fill="#263238"/>
<path d="M91.2383 149.027C91.2383 149.027 91.2383 149.189 91.2383 149.519C91.2383 149.848 91.2383 150.325 91.2383 150.945C91.2383 152.214 91.2383 154.063 91.2629 156.438C91.2629 161.223 91.2973 168.103 91.317 176.528V176.626H91.2383L46.4855 176.631H46.333V176.503C46.333 166.775 46.333 157.495 46.333 149.051V148.933H46.451L78.7419 148.963L87.958 148.987H90.417H91.0415H91.2383H91.017H90.3776H87.9187L78.6731 149.027L46.4609 149.115L46.5789 148.992C46.5789 157.436 46.5789 166.697 46.5789 176.444L46.451 176.316L91.2038 176.341L91.1006 176.444C91.1252 168.044 91.1448 161.199 91.1547 156.418C91.1547 154.033 91.1547 152.174 91.1547 150.901C91.1547 150.271 91.1547 149.789 91.1547 149.455C91.2383 149.204 91.2383 149.027 91.2383 149.027Z" fill="#263238"/>
<path d="M75.5111 155.528H62.1836V159.128H75.5111V155.528Z" fill="#E0E0E0"/>
<path d="M61.3418 80.7321H76.6709V81.4255C76.6709 81.7059 76.5595 81.9749 76.3612 82.1732C76.1629 82.3715 75.8939 82.4829 75.6135 82.4829H62.3991C62.1187 82.4829 61.8498 82.3715 61.6515 82.1732C61.4532 81.9749 61.3418 81.7059 61.3418 81.4255V80.7321Z" fill="#263238"/>
<path d="M90.9141 80.7321C90.9141 80.7321 90.9141 80.8895 90.9141 81.2239C90.9141 81.5583 90.9141 82.0304 90.9141 82.655C90.9141 83.9189 90.9142 85.7729 90.9387 88.1483C90.9387 92.9285 90.9682 99.8086 90.9928 108.233V108.331H90.8896L46.1368 108.356H45.9941V108.228C45.9941 98.5004 45.9941 89.2253 45.9941 80.7813V80.6633H46.1122L78.3981 80.6928H87.6192H90.0781H90.7027H90.9092H90.6879H90.0535H87.5946L78.3539 80.7321L46.1417 80.8206L46.2597 80.7026C46.2597 89.1466 46.2597 98.407 46.2597 108.149L46.1318 108.021L90.8846 108.051L90.7863 108.149C90.7863 99.7496 90.8256 92.9039 90.8404 88.1237C90.8404 85.7434 90.8404 83.8845 90.865 82.6107C90.865 81.9813 90.865 81.4993 90.865 81.1649C90.865 80.8305 90.9141 80.7321 90.9141 80.7321Z" fill="#263238"/>
<path d="M75.432 86.5647H62.1045V90.1646H75.432V86.5647Z" fill="#E0E0E0"/>
<path d="M46.2979 123.778V113.451C46.2979 113.023 46.4678 112.613 46.7703 112.31C47.0728 112.008 47.4831 111.838 47.9109 111.838H75.4216C75.8429 111.838 76.2469 112.005 76.5448 112.303C76.8427 112.601 77.0101 113.005 77.0101 113.426V123.754L46.2979 123.778Z" fill="#2B1FC5"/>
<path opacity="0.3" d="M46.2979 123.778V113.451C46.2979 113.023 46.4678 112.613 46.7703 112.31C47.0728 112.008 47.4831 111.838 47.9109 111.838H75.4216C75.8429 111.838 76.2469 112.005 76.5448 112.303C76.8427 112.601 77.0101 113.005 77.0101 113.426V123.754L46.2979 123.778Z" fill="black"/>
<path d="M49.1113 123.778V114.7C49.1113 114.657 49.1275 114.616 49.1568 114.585C49.186 114.554 49.2261 114.535 49.2687 114.533H77.0105V123.778H49.1113Z" fill="#FAFAFA"/>
<path d="M83.2616 112.792L82.4698 123.778H52.6133L53.41 113.584C53.4887 112.6 54.1673 111.853 54.9788 111.857L69.5013 111.936C69.4762 111.646 69.5646 111.357 69.7481 111.13C69.9315 110.904 70.1956 110.757 70.4849 110.721H81.6977C82.6173 110.731 83.3403 111.68 83.2616 112.792Z" fill="#2B1FC5"/>
<path d="M58.5244 122.711V112.384C58.5244 112.171 58.5663 111.961 58.6477 111.765C58.729 111.569 58.8483 111.391 58.9986 111.241C59.1489 111.091 59.3273 110.973 59.5236 110.892C59.7199 110.811 59.9302 110.77 60.1424 110.771H87.6531C88.0744 110.771 88.4784 110.938 88.7763 111.236C89.0742 111.534 89.2416 111.938 89.2416 112.359V122.716L58.5244 122.711Z" fill="#2B1FC5"/>
<path opacity="0.3" d="M58.5244 122.711V112.384C58.5244 112.171 58.5663 111.961 58.6477 111.765C58.729 111.569 58.8483 111.391 58.9986 111.241C59.1489 111.091 59.3273 110.973 59.5236 110.892C59.7199 110.811 59.9302 110.77 60.1424 110.771H87.6531C88.0744 110.771 88.4784 110.938 88.7763 111.236C89.0742 111.534 89.2416 111.938 89.2416 112.359V122.716L58.5244 122.711Z" fill="black"/>
<path d="M61.3419 122.711V113.628C61.3412 113.607 61.3448 113.586 61.3524 113.566C61.36 113.546 61.3715 113.529 61.3862 113.513C61.4009 113.498 61.4184 113.486 61.4379 113.478C61.4573 113.47 61.4782 113.466 61.4992 113.466H89.2411V122.711H61.3419Z" fill="#FAFAFA"/>
<path d="M95.4921 111.715L94.6806 122.711H64.8389L65.6651 112.512C65.6634 112.08 65.8236 111.664 66.1142 111.345C66.4047 111.027 66.8043 110.828 67.2339 110.79L81.7564 110.864C81.7313 110.574 81.8197 110.285 82.0032 110.058C82.1866 109.832 82.4507 109.685 82.74 109.649H93.938C94.8478 109.649 95.5708 110.608 95.4921 111.715Z" fill="#2B1FC5"/>
<path d="M75.54 123.306V112.979C75.5394 112.766 75.5806 112.556 75.6614 112.36C75.7422 112.164 75.8609 111.985 76.0108 111.835C76.1606 111.685 76.3387 111.565 76.5347 111.484C76.7307 111.403 76.9409 111.361 77.1531 111.361H104.664C104.873 111.361 105.08 111.402 105.273 111.482C105.466 111.562 105.641 111.68 105.789 111.828C105.936 111.976 106.053 112.151 106.133 112.345C106.212 112.538 106.253 112.745 106.252 112.954V123.306H75.54Z" fill="#2B1FC5"/>
<path opacity="0.3" d="M75.54 123.306V112.979C75.5394 112.766 75.5806 112.556 75.6614 112.36C75.7422 112.164 75.8609 111.985 76.0108 111.835C76.1606 111.685 76.3387 111.565 76.5347 111.484C76.7307 111.403 76.9409 111.361 77.1531 111.361H104.664C104.873 111.361 105.08 111.402 105.273 111.482C105.466 111.562 105.641 111.68 105.789 111.828C105.936 111.976 106.053 112.151 106.133 112.345C106.212 112.538 106.253 112.745 106.252 112.954V123.306H75.54Z" fill="black"/>
<path d="M78.3585 123.306V114.228C78.3571 114.186 78.3723 114.145 78.4008 114.113C78.4292 114.082 78.4688 114.063 78.5109 114.061H106.253V123.306H78.3585Z" fill="#FAFAFA"/>
<path d="M107.895 111.695H79.7549V128.19H107.895V111.695Z" fill="#E0E0E0"/>
<path d="M110.211 104.372H81.8545V121.959H110.211V104.372Z" fill="#F5F5F5"/>
<path d="M87.0234 120.847C86.9496 120.847 86.8955 117.808 86.8955 114.061C86.8955 110.313 86.9496 107.274 87.0234 107.274C87.0971 107.274 87.1512 110.313 87.1512 114.061C87.1512 117.808 87.0922 120.847 87.0234 120.847Z" fill="#263238"/>
<path d="M89.0351 120.847C88.9662 120.847 88.9072 117.808 88.9072 114.061C88.9072 110.313 88.9662 107.274 89.0351 107.274C89.1039 107.274 89.163 110.313 89.163 114.061C89.163 117.808 89.1089 120.847 89.0351 120.847Z" fill="#263238"/>
<path d="M91.2382 120.847C91.1644 120.847 91.1104 117.808 91.1104 114.061C91.1104 110.313 91.1644 107.274 91.2382 107.274C91.312 107.274 91.3661 110.313 91.3661 114.061C91.3661 117.808 91.3021 120.847 91.2382 120.847Z" fill="#263238"/>
<path d="M93.4267 120.847C93.3578 120.847 93.2988 117.808 93.2988 114.061C93.2988 110.313 93.3578 107.274 93.4267 107.274C93.4955 107.274 93.5546 110.313 93.5546 114.061C93.5546 117.808 93.4955 120.847 93.4267 120.847Z" fill="#263238"/>
<path d="M95.6201 120.847C95.5512 120.847 95.4922 117.808 95.4922 114.061C95.4922 110.313 95.5512 107.274 95.6201 107.274C95.6889 107.274 95.7479 110.313 95.7479 114.061C95.7479 117.808 95.6938 120.847 95.6201 120.847Z" fill="#263238"/>
<path d="M97.8183 120.847C97.7445 120.847 97.6904 117.808 97.6904 114.061C97.6904 110.313 97.7445 107.274 97.8183 107.274C97.8921 107.274 97.9462 110.313 97.9462 114.061C97.9462 117.808 97.8872 120.847 97.8183 120.847Z" fill="#263238"/>
<path d="M100.012 120.847C99.9428 120.847 99.8838 117.808 99.8838 114.061C99.8838 110.313 99.9428 107.274 100.012 107.274C100.081 107.274 100.14 110.313 100.14 114.061C100.14 117.808 100.09 120.847 100.012 120.847Z" fill="#263238"/>
<path d="M102.205 120.847C102.136 120.847 102.077 117.808 102.077 114.061C102.077 110.313 102.136 107.274 102.205 107.274C102.274 107.274 102.333 110.313 102.333 114.061C102.333 117.808 102.279 120.847 102.205 120.847Z" fill="#263238"/>
<path d="M104.403 120.847C104.33 120.847 104.271 117.808 104.271 114.061C104.271 110.313 104.33 107.274 104.403 107.274C104.477 107.274 104.531 110.313 104.531 114.061C104.531 117.808 104.472 120.847 104.403 120.847Z" fill="#263238"/>
<path d="M106.597 120.847C106.523 120.847 106.469 117.808 106.469 114.061C106.469 110.313 106.523 107.274 106.597 107.274C106.67 107.274 106.724 110.313 106.724 114.061C106.724 117.808 106.665 120.847 106.597 120.847Z" fill="#263238"/>
<path d="M112.503 114.262L111.716 123.306H81.8545L82.6561 114.911C82.6929 114.522 82.8736 114.161 83.1628 113.898C83.4521 113.635 83.8291 113.49 84.22 113.49L98.7474 113.554C98.7474 113.293 98.8511 113.043 99.0355 112.859C99.22 112.674 99.4702 112.571 99.731 112.571H110.929C111.146 112.568 111.362 112.612 111.562 112.698C111.761 112.783 111.941 112.91 112.089 113.069C112.237 113.228 112.351 113.417 112.422 113.622C112.493 113.828 112.521 114.046 112.503 114.262Z" fill="#2B1FC5"/>
<path d="M90.8007 118.28H46.043V145.766H90.8007V118.28Z" fill="#263238"/>
<path d="M117.884 118.28H73.126V145.766H117.884V118.28Z" fill="#455A64"/>
<path d="M117.883 145.648C117.883 145.648 117.883 145.476 117.883 145.156C117.883 144.837 117.883 144.345 117.883 143.72C117.883 142.461 117.883 140.617 117.883 138.252C117.883 133.521 117.849 126.714 117.829 118.374L117.928 118.477L73.1748 118.501L73.3027 118.374C73.3027 128.042 73.3027 137.263 73.3027 145.653L73.1846 145.535L105.377 145.594L114.618 145.624H117.077H117.711H117.933H117.726H117.101H114.642L105.426 145.658L73.1551 145.712H73.0371V145.648C73.0371 137.258 73.0371 128.037 73.0371 118.369V118.241H73.1699L117.923 118.27H118.026V118.369C118.026 126.729 117.982 133.56 117.972 138.306C117.972 140.662 117.972 142.501 117.947 143.755C117.947 144.375 117.947 144.847 117.947 145.171C117.893 145.476 117.883 145.648 117.883 145.648Z" fill="#263238"/>
<path d="M89.2324 118.28H104.561V118.885C104.561 119.166 104.45 119.434 104.252 119.633C104.054 119.831 103.785 119.942 103.504 119.942H90.2898C90.0093 119.942 89.7404 119.831 89.5421 119.633C89.3438 119.434 89.2324 119.166 89.2324 118.885V118.28Z" fill="#263238"/>
<path d="M103.848 124.442H90.5205V128.042H103.848V124.442Z" fill="#E0E0E0"/>
<path d="M103.291 101.151C102.875 102.869 102.626 104.623 102.549 106.389C102.549 106.615 102.549 106.881 102.746 107.003C102.942 107.126 103.237 106.787 103.4 106.585C103.714 106.226 104.875 104.215 104.875 104.215C105.69 104.141 106.449 103.769 107.009 103.172C107.568 102.574 107.889 101.792 107.909 100.974" fill="#FFBE9D"/>
<path d="M107.895 100.974C107.912 101.095 107.912 101.217 107.895 101.338C107.865 101.677 107.78 102.009 107.645 102.322C107.432 102.805 107.109 103.231 106.7 103.566C106.171 103.986 105.537 104.252 104.866 104.333L104.955 104.274C104.586 104.913 104.178 105.612 103.715 106.32C103.641 106.423 103.578 106.526 103.489 106.635C103.4 106.743 103.337 106.822 103.243 106.92C103.148 107.035 103.019 107.116 102.874 107.151C102.789 107.159 102.703 107.14 102.629 107.096C102.556 107.052 102.499 106.985 102.466 106.905C102.385 106.665 102.365 106.408 102.407 106.158C102.407 105.931 102.437 105.71 102.456 105.494C102.52 104.725 102.624 103.96 102.766 103.202C102.884 102.558 103.007 102.041 103.105 101.687C103.141 101.5 103.201 101.318 103.282 101.146C103.277 101.336 103.249 101.524 103.199 101.707C103.135 102.071 103.037 102.587 102.943 103.236C102.85 103.886 102.751 104.653 102.692 105.508L102.648 106.172C102.616 106.38 102.631 106.591 102.692 106.792C102.727 106.871 102.796 106.915 102.835 106.905C102.922 106.87 103 106.815 103.061 106.743L103.292 106.467C103.366 106.374 103.435 106.278 103.499 106.177C103.956 105.479 104.369 104.781 104.748 104.151L104.778 104.097H104.837C105.467 104.029 106.067 103.791 106.573 103.408C106.969 103.104 107.289 102.712 107.507 102.263C107.688 101.85 107.819 101.418 107.895 100.974Z" fill="#EB996E"/>
</g>
<defs>
<filter id="filter0_d_510_2135" x="0" y="0" width="235" height="218.397" filterUnits="userSpaceOnUse" color-interpolation-filters="sRGB">
<feFlood flood-opacity="0" result="BackgroundImageFix"/>
<feColorMatrix in="SourceAlpha" type="matrix" values="0 0 0 0 0 0 0 0 0 0 0 0 0 0 0 0 0 0 127 0" result="hardAlpha"/>
<feOffset dy="4"/>
<feGaussianBlur stdDeviation="2"/>
<feComposite in2="hardAlpha" operator="out"/>
<feColorMatrix type="matrix" values="0 0 0 0 0 0 0 0 0 0 0 0 0 0 0 0 0 0 0.25 0"/>
<feBlend mode="normal" in2="BackgroundImageFix" result="effect1_dropShadow_510_2135"/>
<feBlend mode="normal" in="SourceGraphic" in2="effect1_dropShadow_510_2135" result="shape"/>
</filter>
</defs>
</svg>
