<svg width="399" height="216" viewBox="0 0 399 216" fill="none" xmlns="http://www.w3.org/2000/svg">
<path d="M377.733 20.8022L347.812 21.1479L348.284 58.2373L378.212 58.606L377.733 20.8022Z" fill="#EBEBEB"/>
<path d="M375.6 22.1504L349.417 22.45L349.848 56.0827L376.036 56.6243L375.6 22.1504Z" fill="#FAFAFA"/>
<path d="M371.272 28.3086L353.896 27.8823L354.193 51.393L371.563 51.1914L371.272 28.3086Z" fill="#E0E0E0"/>
<path d="M354.193 51.393L371.411 39.1163L353.896 27.8823L354.193 51.393Z" fill="#F5F5F5"/>
<path d="M58.3282 44.9927L15.2852 45.4881L15.964 98.8466L59.0252 99.3824L58.3282 44.9927Z" fill="#EBEBEB"/>
<path d="M55.2615 46.9282L17.5942 47.3603L18.2124 95.7586L55.8918 96.5305L55.2615 46.9282Z" fill="#FAFAFA"/>
<path d="M49.0372 55.7946L24.0308 55.1782L24.4611 89.0011L49.4554 88.7131L49.0372 55.7946Z" fill="#E0E0E0"/>
<path d="M24.4611 89.0011L49.2372 71.3379L24.0308 55.1782L24.4611 89.0011Z" fill="#F5F5F5"/>
<path d="M92.8739 30.4634H76.7524V63.2723H92.8739V30.4634Z" fill="#F5F5F5"/>
<path d="M113.359 65.5596H93.5469V97.2566H113.359V65.5596Z" fill="#F5F5F5"/>
<path d="M115.771 29.893H134.584V0.794161H135.257V29.893H152.663V0.148926H115.771V29.893Z" fill="#F5F5F5"/>
<path d="M92.8739 65.5596H76.7524V97.2566H92.8739V65.5596Z" fill="#F5F5F5"/>
<path d="M152.663 65.5596H135.25V97.2566H152.663V65.5596Z" fill="#F5F5F5"/>
<path d="M113.359 30.4634H93.5469V63.2723H113.359V30.4634Z" fill="#F5F5F5"/>
<path d="M152.663 30.4634H135.25V63.2723H152.663V30.4634Z" fill="#F5F5F5"/>
<path d="M92.8739 97.8271H76.7524V126.39H92.8739V97.8271Z" fill="#F5F5F5"/>
<path d="M92.88 29.893V0.794161H93.5466V29.893H113.359V0.148926H76.7524V29.893H92.88Z" fill="#F5F5F5"/>
<path d="M113.359 97.8271H93.5469V126.39H113.359V97.8271Z" fill="#F5F5F5"/>
<path d="M152.663 97.8271H135.25V126.39H152.663V97.8271Z" fill="#F5F5F5"/>
<path d="M134.584 30.4634H115.771V63.2723H134.584V30.4634Z" fill="#F5F5F5"/>
<path d="M134.584 97.8271H115.771V126.39H134.584V97.8271Z" fill="#F5F5F5"/>
<path d="M134.584 65.5596H115.771V97.2566H134.584V65.5596Z" fill="#F5F5F5"/>
<path d="M266.319 30.4634H250.198V63.2723H266.319V30.4634Z" fill="#F5F5F5"/>
<path d="M286.805 65.5596H266.992V97.2566H286.805V65.5596Z" fill="#F5F5F5"/>
<path d="M289.216 29.893H308.029V0.794161H308.695V29.893H326.108V0.148926H289.216V29.893Z" fill="#F5F5F5"/>
<path d="M266.319 65.5596H250.198V97.2566H266.319V65.5596Z" fill="#F5F5F5"/>
<path d="M326.108 65.5596H308.696V97.2566H326.108V65.5596Z" fill="#F5F5F5"/>
<path d="M286.805 30.4634H266.992V63.2723H286.805V30.4634Z" fill="#F5F5F5"/>
<path d="M326.108 30.4634H308.696V63.2723H326.108V30.4634Z" fill="#F5F5F5"/>
<path d="M266.319 97.8271H250.198V126.39H266.319V97.8271Z" fill="#F5F5F5"/>
<path d="M266.325 29.893V0.794161H266.992V29.893H286.804V0.148926H250.198V29.893H266.325Z" fill="#F5F5F5"/>
<path d="M286.805 97.8271H266.992V126.39H286.805V97.8271Z" fill="#F5F5F5"/>
<path d="M326.108 97.8271H308.696V126.39H326.108V97.8271Z" fill="#F5F5F5"/>
<path d="M308.029 30.4634H289.216V63.2723H308.029V30.4634Z" fill="#F5F5F5"/>
<path d="M308.029 97.8271H289.216V126.39H308.029V97.8271Z" fill="#F5F5F5"/>
<path d="M308.029 65.5596H289.216V97.2566H308.029V65.5596Z" fill="#F5F5F5"/>
<path d="M217.464 11.6826H181.53V54.8038H217.464V11.6826Z" fill="#EBEBEB"/>
<path d="M202.215 53.8418H197.233V54.9934H202.215V53.8418Z" fill="#E0E0E0"/>
<path d="M200.652 26.5288L194.033 27.4506L191.561 33.3614L195.706 38.3504L202.33 37.4286L204.797 31.5178L200.652 26.5288Z" fill="#E0E0E0"/>
<path d="M203.742 30.3481L197.124 31.2699L194.651 37.1807L198.803 42.1697L205.421 41.248L207.894 35.3372L203.742 30.3481Z" fill="#FAFAFA"/>
<path d="M202.918 11.1006H197.937V12.0852H202.918V11.1006Z" fill="#E0E0E0"/>
<path d="M11.8364 158.853V215.127H100.577V158.398L11.8364 158.853Z" fill="#EBEBEB"/>
<path d="M97.2259 162.345H15.1943V176.58H97.2259V162.345Z" fill="#F5F5F5"/>
<path d="M97.2259 179.921H15.1943V194.157H97.2259V179.921Z" fill="#F5F5F5"/>
<path d="M97.2259 197.492H15.1943V211.728H97.2259V197.492Z" fill="#F5F5F5"/>
<path d="M40.625 162.345H15.1943V176.58H40.625V162.345Z" fill="#E0E0E0"/>
<path d="M40.625 179.921H15.1943V194.157H40.625V179.921Z" fill="#E0E0E0"/>
<path d="M40.5098 197.395H15.0791V211.63H40.5098V197.395Z" fill="#E0E0E0"/>
<path d="M42.5522 176.58L50.5645 164.752L59.3586 176.58H42.5522Z" fill="#E0E0E0"/>
<path d="M50.5645 164.752L50.9524 176.58H42.5522L50.5645 164.752Z" fill="#EBEBEB"/>
<path d="M62.1704 176.58L65.5826 172.092L69.6372 176.58H62.1704Z" fill="#E0E0E0"/>
<path d="M65.5826 172.092L65.9038 176.58H62.1704L65.5826 172.092Z" fill="#EBEBEB"/>
<path d="M30.3518 191.322C30.3778 190.662 30.6673 190.036 31.1616 189.572C31.6559 189.107 32.3177 188.839 33.0125 188.822L54.6976 188.35V194.013H33.0791C32.7124 194.012 32.3495 193.941 32.0121 193.805C31.6747 193.668 31.3697 193.468 31.1152 193.217C30.8607 192.966 30.662 192.669 30.5308 192.344C30.3997 192.018 30.3388 191.671 30.3518 191.322Z" fill="#F5F5F5"/>
<path d="M32.5522 189.934C32.2588 190.404 32.104 190.94 32.104 191.486C32.104 192.033 32.2588 192.569 32.5522 193.039H54.698V189.317L32.5522 189.934Z" fill="#EBEBEB"/>
<path d="M35.7882 186.287C35.8066 185.772 36.0316 185.284 36.4171 184.922C36.8025 184.56 37.3191 184.352 37.8609 184.34L54.7642 183.954V188.373H37.9155C37.6304 188.373 37.3482 188.319 37.0857 188.213C36.8231 188.107 36.5856 187.953 36.3872 187.758C36.1887 187.564 36.0334 187.333 35.9305 187.081C35.8276 186.828 35.7792 186.558 35.7882 186.287Z" fill="#EBEBEB"/>
<path d="M37.5035 185.25C37.274 185.616 37.1528 186.034 37.1528 186.46C37.1528 186.886 37.274 187.304 37.5035 187.67H54.7644V184.79L37.5035 185.25Z" fill="#FAFAFA"/>
<path d="M54.8011 181.131L54.7466 194.117L57.6012 194.157V181.131H54.8011Z" fill="#FAFAFA"/>
<path d="M60.8498 182.934L60.771 194.122L65.1892 194.157V182.934H60.8498Z" fill="#E0E0E0"/>
<path d="M57.6615 182.934L57.6372 194.122L59.0615 194.157V182.934H57.6615Z" fill="#E0E0E0"/>
<path d="M65.2193 182.934L65.189 194.122L66.6193 194.157V182.934H65.2193Z" fill="#FAFAFA"/>
<path d="M58.8494 181.131L58.813 194.117L60.7645 194.157V181.131H58.8494Z" fill="#EBEBEB"/>
<path d="M66.71 181.131L66.6797 194.117L68.6252 194.157V181.131H66.71Z" fill="#E0E0E0"/>
<path d="M85.9831 193.973H79.3163L74.498 189.427L74.5526 189.381L79.3345 184.824H79.3648L84.2497 184.473L89.6377 188.505L85.9831 193.973ZM79.4011 193.829H85.8982L89.4619 188.534L84.2012 184.605L79.4011 184.945L74.7102 189.41L79.4011 193.829Z" fill="#E0E0E0"/>
<path d="M80.7287 193.943L77.0195 188.972L77.0377 188.931L79.3468 184.755L80.7711 186.08H83.0257L84.2318 184.397L86.9712 188.511L86.953 188.551L84.1105 193.938L83.9712 193.869L86.8015 188.522L84.2257 184.662L83.1045 186.224H80.7044L80.6863 186.201L79.3893 184.997L77.1953 188.96L80.856 193.863L80.7287 193.943Z" fill="#E0E0E0"/>
<path d="M74.6134 189.484L74.5952 189.34L79.8074 188.655L85.2863 188.448L89.5651 188.442V188.586L85.2863 188.592L79.8195 188.799L74.6134 189.484Z" fill="#E0E0E0"/>
<path d="M81.4135 193.926L79.7407 188.724L79.7468 188.701L80.668 186.126L80.8074 186.178L79.8983 188.724L81.5589 193.88L81.4135 193.926Z" fill="#E0E0E0"/>
<path d="M82.8862 193.926L82.7407 193.886L84.3832 188.528L83.0013 186.189L83.1347 186.114L84.5408 188.505L84.5347 188.534L82.8862 193.926Z" fill="#E0E0E0"/>
<path d="M357.817 127.773C353.896 128.349 352.145 132.957 352.49 136.702C352.836 140.447 354.454 144.128 354.023 147.878C353.472 152.637 349.684 156.664 349.248 161.434C348.726 167.057 352.884 172.046 354.157 177.565C354.763 180.25 354.684 183.09 355.733 185.63C356.629 187.809 358.293 189.624 360.44 190.767C362.587 191.91 365.084 192.31 367.507 191.899C369.93 191.488 372.127 190.291 373.726 188.513C375.324 186.734 376.224 184.484 376.272 182.145C376.363 177.824 373.557 173.757 373.896 169.471C374.151 166.285 376.115 163.272 375.715 160.103C375.218 156.33 371.539 153.657 370.26 150.062C368.981 146.467 370.212 142.503 369.763 138.724C368.957 131.949 365.005 127.202 357.86 127.778" fill="#EBEBEB"/>
<path d="M337.811 160.576C337.145 166.855 340.066 174.241 343.466 179.662C346.907 185.119 352.087 189.392 358.254 191.864C358.945 192.14 359.8 192.371 360.381 191.921C360.59 191.706 360.746 191.45 360.84 191.172C360.933 190.893 360.961 190.598 360.921 190.308C360.969 183.706 358.539 177.213 354.575 171.787C350.799 166.602 347.236 163.543 337.811 160.576Z" fill="#F5F5F5"/>
<path d="M366.588 204.993C366.512 204.883 366.449 204.765 366.4 204.642C366.272 204.371 366.115 204.031 365.927 203.611C365.527 202.718 364.939 201.427 364.182 199.843C360.259 191.581 355.441 183.731 349.806 176.419C348.721 175.013 347.83 173.89 347.206 173.124L346.49 172.225C346.4 172.126 346.324 172.016 346.266 171.896C346.368 171.984 346.464 172.078 346.551 172.179L347.315 173.037C347.981 173.78 348.903 174.881 350.018 176.269C355.793 183.519 360.637 191.398 364.448 199.739C365.175 201.341 365.733 202.649 366.085 203.565C366.248 203.991 366.388 204.337 366.491 204.613C366.539 204.736 366.572 204.863 366.588 204.993Z" fill="#E0E0E0"/>
<path d="M362.333 145.142C362.372 145.332 362.396 145.525 362.406 145.718C362.436 146.145 362.484 146.721 362.539 147.446C362.642 148.985 362.787 151.151 362.969 153.784C363.327 159.159 363.824 166.579 364.43 174.771C365.036 182.963 365.642 190.378 366.072 195.747C366.29 198.408 366.46 200.569 366.587 202.084C366.636 202.81 366.678 203.392 366.709 203.812C366.725 204.014 366.725 204.216 366.709 204.417C366.665 204.227 366.634 204.035 366.618 203.841C366.569 203.415 366.503 202.839 366.424 202.113C366.272 200.575 366.054 198.42 365.818 195.776C365.309 190.412 364.672 182.998 364.066 174.8C363.46 166.602 362.999 159.182 362.709 153.807C362.581 151.145 362.472 148.973 362.399 147.435C362.399 146.709 362.351 146.133 362.333 145.707C362.32 145.519 362.32 145.33 362.333 145.142Z" fill="#E0E0E0"/>
<path d="M356.26 196.035H372.8V207.557C372.8 209.558 371.963 211.478 370.474 212.893C368.986 214.308 366.966 215.104 364.86 215.104C362.828 215.105 360.872 214.364 359.397 213.035C357.922 211.706 357.04 209.889 356.933 207.96L356.26 196.035Z" fill="#E0E0E0"/>
<path d="M399 215.127C399 215.213 309.671 215.276 199.512 215.276C89.3529 215.276 0 215.207 0 215.127C0 215.046 89.3105 214.977 199.512 214.977C309.714 214.977 399 215.046 399 215.127Z" fill="#263238"/>
<path d="M138.572 84.6112C139.22 84.6493 139.87 84.5632 140.482 84.3581C141.095 84.1529 141.658 83.8329 142.138 83.417C142.618 83.0011 143.005 82.4978 143.276 81.937C143.548 81.3761 143.698 80.7692 143.718 80.1521C143.784 77.6519 143.845 75.1285 143.845 75.1285C143.845 75.1285 147.821 74.7253 148.087 70.9806C148.354 67.2359 148.087 58.5829 148.087 58.5829C145.891 57.5615 143.447 57.1154 141.009 57.2906C138.57 57.4658 136.225 58.2559 134.214 59.5796L133.608 59.9828L134.075 80.1464C134.109 81.2879 134.589 82.3767 135.419 83.2016C136.25 84.0265 137.374 84.5288 138.572 84.6112Z" fill="#B78876"/>
<path d="M146.275 65.196C146.194 65.1196 146.139 65.0222 146.117 64.916C146.094 64.8098 146.106 64.6997 146.149 64.5996C146.192 64.4994 146.266 64.4138 146.361 64.3536C146.456 64.2934 146.567 64.2612 146.681 64.2612C146.795 64.2612 146.907 64.2934 147.001 64.3536C147.096 64.4138 147.17 64.4994 147.213 64.5996C147.257 64.6997 147.268 64.8098 147.246 64.916C147.223 65.0222 147.168 65.1196 147.087 65.196C146.979 65.298 146.833 65.3552 146.681 65.3552C146.529 65.3552 146.383 65.298 146.275 65.196Z" fill="#263238"/>
<path d="M147.808 64.5453C147.742 64.6086 147.366 64.3035 146.826 64.2804C146.287 64.2574 145.875 64.4992 145.814 64.4301C145.754 64.361 145.857 64.2862 146.033 64.1653C146.274 64.0179 146.558 63.9473 146.845 63.9638C147.131 63.9806 147.403 64.0857 147.62 64.2632C147.784 64.3956 147.839 64.5165 147.808 64.5453Z" fill="#263238"/>
<path d="M141.117 64.5456C141.196 64.5777 141.266 64.6261 141.323 64.6873C141.38 64.7484 141.421 64.8208 141.445 64.8992C141.468 64.9775 141.473 65.0599 141.458 65.1402C141.444 65.2204 141.411 65.2967 141.361 65.3633C141.312 65.4299 141.248 65.4851 141.173 65.5251C141.098 65.565 141.015 65.5886 140.93 65.5941C140.844 65.5997 140.758 65.587 140.679 65.557C140.599 65.527 140.527 65.4805 140.469 65.4208C140.359 65.3336 140.287 65.2105 140.267 65.0755C140.248 64.9406 140.282 64.8036 140.363 64.6912C140.444 64.5789 140.566 64.4993 140.706 64.4681C140.845 64.437 140.992 64.4564 141.117 64.5226V64.5456Z" fill="#263238"/>
<path d="M141.881 64.7294C141.814 64.7928 141.445 64.4876 140.899 64.4646C140.354 64.4415 139.948 64.6834 139.893 64.6143C139.839 64.5452 139.93 64.4703 140.111 64.3494C140.352 64.2014 140.636 64.131 140.922 64.1487C141.208 64.1663 141.481 64.271 141.699 64.4473C141.863 64.5797 141.923 64.7006 141.881 64.7294Z" fill="#263238"/>
<path d="M143.863 68.7165C144.148 68.6246 144.447 68.5798 144.748 68.584C144.893 68.584 145.002 68.5495 145.02 68.4746C145.032 68.339 145.002 68.2032 144.936 68.0828C144.814 67.7372 144.693 67.3857 144.56 67.017C144.201 66.1086 143.937 65.1689 143.772 64.2114C144.231 65.078 144.594 65.9873 144.857 66.9249L145.208 68.0022C145.293 68.1835 145.31 68.3866 145.257 68.5783C145.233 68.6287 145.198 68.6736 145.154 68.7095C145.11 68.7454 145.058 68.7714 145.002 68.7857C144.92 68.7963 144.836 68.7963 144.754 68.7857C144.455 68.8135 144.153 68.7901 143.863 68.7165Z" fill="#263238"/>
<path d="M142.063 69.2061L144.694 70.0697C144.494 70.3348 144.204 70.5271 143.874 70.6151C143.543 70.703 143.191 70.6812 142.875 70.5534C141.73 70.087 142.063 69.2061 142.063 69.2061Z" fill="white"/>
<path d="M143.851 75.0708C142.027 75.0171 140.261 74.4497 138.778 73.4404C138.778 73.4404 139.857 76.2 143.808 76.0444L143.851 75.0708Z" fill="#A36957"/>
<path d="M147.221 57.5977C143.967 56.5126 140.454 56.3386 137.1 57.0965C137.1 57.0965 133.748 58.2487 133.596 59.977C133.524 61.3869 133.556 62.8 133.693 64.2056L133.978 67.0861H135.19L135.312 63.1801C135.312 63.1801 137.615 61.6304 137.633 59.2569C138.76 59.1013 144.3 58.4158 148.106 59.5968V58.7614C148.099 58.5053 148.01 58.2573 147.852 58.0497C147.695 57.8421 147.474 57.6845 147.221 57.5977Z" fill="#263238"/>
<path d="M134.141 64.5107C134.141 64.3579 134.078 64.2113 133.964 64.1033C133.85 63.9953 133.696 63.9346 133.535 63.9346C132.802 63.9346 131.602 64.2111 131.511 66.1468C131.384 68.9063 134.166 68.1862 134.178 68.1055C134.19 68.0249 134.166 65.5822 134.141 64.5107Z" fill="#B78876"/>
<path d="M133.554 67.0459C133.554 67.0459 133.499 67.0805 133.414 67.1151C133.294 67.1606 133.159 67.1606 133.039 67.1151C132.856 66.9947 132.711 66.8304 132.617 66.6391C132.524 66.4479 132.485 66.2364 132.505 66.0262C132.51 65.7882 132.57 65.5542 132.681 65.3407C132.711 65.2557 132.763 65.1791 132.831 65.1178C132.9 65.0564 132.984 65.0123 133.075 64.9893C133.134 64.9756 133.195 64.9827 133.249 65.0092C133.303 65.0357 133.344 65.0798 133.366 65.1333C133.402 65.2139 133.366 65.2658 133.396 65.2716C133.427 65.2773 133.463 65.2255 133.445 65.1102C133.43 65.0427 133.391 64.9819 133.336 64.9374C133.26 64.8754 133.162 64.8443 133.063 64.851C132.942 64.8696 132.828 64.9169 132.732 64.9883C132.636 65.0598 132.56 65.1533 132.511 65.26C132.378 65.4936 132.307 65.7548 132.305 66.0205C132.28 66.2649 132.33 66.5111 132.451 66.7284C132.572 66.9456 132.757 67.1242 132.984 67.2418C133.061 67.2685 133.143 67.2777 133.224 67.2687C133.305 67.2597 133.383 67.2327 133.451 67.19C133.548 67.1151 133.566 67.0517 133.554 67.0459Z" fill="#A36957"/>
<path d="M191.621 67.5872C190.833 67.328 189.197 71.3607 189.039 70.3007C188.882 69.2406 191.615 65.5824 190.779 65.3404C189.688 65.0236 188.082 69.281 187.918 69.6266C187.754 69.9723 187.215 69.7649 187.379 69.4595C187.615 69.0102 190.003 64.2746 188.936 63.9693C188.33 63.7907 188.106 64.8335 188.106 64.8335C188.106 64.8335 186.215 69.4077 185.718 69.2406C185.221 69.0736 186.227 66.3601 186.639 65.4556C187.051 64.5512 186.766 64.0269 186.203 64.1825C185.821 64.2862 184.5 66.9996 184.112 67.8926C183.724 68.7855 182.724 71.2512 182.178 69.6497C181.633 68.0481 180.578 67.0169 180.087 66.9247C179.973 66.9141 179.858 66.9379 179.758 66.9927C179.658 67.0476 179.579 67.1307 179.532 67.2305C179.484 67.3302 179.471 67.4416 179.493 67.549C179.516 67.6564 179.573 67.7543 179.657 67.8292C180.017 68.2834 180.306 68.7838 180.518 69.3155C180.707 69.736 180.82 70.1841 180.851 70.6406C180.93 71.5559 180.914 72.4763 180.803 73.3886L171.075 90.0321L155.463 84.4324L153.317 92.9126C153.317 92.9126 173.827 101.502 175.106 100.84C178.003 99.3419 187.106 75.1226 187.106 75.1226C188.455 73.4797 189.71 71.7681 190.863 69.9953C192.142 67.8004 191.942 67.6852 191.621 67.5872Z" fill="#B78876"/>
<path d="M165.13 87.3476C160.79 85.2909 157.718 84.0754 155.342 82.6639C147.966 78.2798 146.051 79.2937 144.324 79.1094C142.881 79.5472 140.754 80.3768 139.942 80.5266C139.129 80.6764 136.154 79.7604 134.232 79.2188C129.778 79.455 127.075 81.287 122.996 84.2136L114.711 90.4586L124.517 99.9873L127.547 97.7981C127.729 102.113 127.893 102.153 128.123 106.578L128.317 123.619L156.033 124.771L154.287 107.747L153.439 94.353L161.384 98.0055L165.148 87.3476" fill="#2B1FC5"/>
<path d="M133.851 79.7257L133.814 76.9893C133.814 76.9893 138.766 77.4271 139.815 80.6821L133.851 79.7257Z" fill="#2B1FC5"/>
<path d="M144.348 79.5241L143.906 76.874C142.883 77.0104 141.934 77.4532 141.195 78.1381C140.456 78.823 139.966 79.7142 139.796 80.6821L144.348 79.5241Z" fill="#2B1FC5"/>
<path d="M144.857 89.2085C145.171 89.1533 145.49 89.1282 145.809 89.1336C146.415 89.1336 147.366 89.0644 148.493 89.0356H148.627V89.1624C148.627 90.2051 148.669 91.3977 148.7 92.6824V92.7573L148.633 92.8033L148.366 92.9819L146.954 93.9267L146.869 93.9844L146.784 93.9325L144.833 92.7803L144.766 92.74V92.6708C144.766 91.6051 144.766 90.7294 144.802 90.1302C144.795 89.8278 144.813 89.5254 144.857 89.2258C144.907 89.5466 144.939 89.8696 144.954 90.1936C144.954 90.7985 145.027 91.6454 145.051 92.6536L144.99 92.5441L146.96 93.6963H146.772L148.184 92.7457L148.445 92.5671L148.378 92.6881C148.378 91.4092 148.378 90.2109 148.378 89.1739L148.512 89.2949C147.445 89.2949 146.554 89.2949 145.918 89.2603C145.563 89.2609 145.209 89.2436 144.857 89.2085Z" fill="#263238"/>
<path d="M148.415 90.0264C147.821 90.1699 147.207 90.2186 146.597 90.1703C145.986 90.2195 145.371 90.1688 144.778 90.0206C145.37 89.8695 145.986 89.8188 146.597 89.8709C147.208 89.8194 147.823 89.872 148.415 90.0264Z" fill="#263238"/>
<path d="M139.917 85.7921C139.746 84.9519 139.681 84.095 139.724 83.24C139.658 82.3856 139.701 81.5269 139.851 80.6821C140.015 81.5233 140.078 82.3795 140.039 83.2343C140.1 84.0885 140.059 84.9466 139.917 85.7921Z" fill="#263238"/>
<path d="M140.905 81.3619C140.905 81.3273 141.033 81.2582 141.19 81.3619C141.237 81.402 141.273 81.4522 141.295 81.5084C141.317 81.5645 141.325 81.6248 141.317 81.6843C141.3 81.7604 141.26 81.8299 141.201 81.8839C141.142 81.9379 141.067 81.974 140.987 81.9876C140.906 82.0012 140.823 81.9917 140.748 81.9602C140.673 81.9287 140.61 81.8768 140.566 81.811C140.534 81.7595 140.517 81.7009 140.517 81.6411C140.517 81.5814 140.534 81.5227 140.566 81.4713C140.669 81.2985 140.827 81.3158 140.827 81.3503C140.827 81.3849 140.778 81.4482 140.772 81.5404C140.766 81.6325 140.814 81.7073 140.93 81.6901C141.045 81.6728 141.057 81.6037 141.021 81.5001C140.984 81.3964 140.905 81.4022 140.905 81.3619Z" fill="#263238"/>
<path d="M141.281 83.401C141.281 83.3607 141.438 83.3607 141.535 83.5335C141.563 83.5852 141.577 83.6424 141.577 83.7004C141.577 83.7585 141.563 83.8157 141.535 83.8674C141.496 83.9338 141.438 83.9886 141.368 84.0258C141.298 84.0629 141.218 84.081 141.138 84.078C141.058 84.0751 140.98 84.0511 140.913 84.0089C140.847 83.9667 140.793 83.9077 140.76 83.8386C140.737 83.7845 140.729 83.7262 140.734 83.6683C140.739 83.6104 140.758 83.5544 140.79 83.5047C140.905 83.3377 141.057 83.355 141.057 83.3895C141.057 83.4241 141.008 83.4874 140.996 83.5853C140.984 83.6832 140.996 83.7695 141.147 83.781C141.299 83.7925 141.317 83.7062 141.317 83.5968C141.317 83.4874 141.269 83.4413 141.281 83.401Z" fill="#263238"/>
<path d="M138.639 79.2475C138.639 79.2475 138.529 79.2475 138.378 79.2763C138.269 79.3155 138.173 79.3797 138.096 79.4632C138.02 79.5466 137.967 79.6467 137.942 79.7545C137.856 80.1058 137.793 80.4617 137.754 80.8203C137.681 81.2466 137.602 81.6902 137.523 82.1511L137.481 82.393L137.281 82.2605L136.917 82.0186C136.131 81.482 135.39 80.8888 134.699 80.2442C134.396 79.9932 134.134 79.6999 133.923 79.3743C133.99 79.3109 135.275 80.5265 137.099 81.7708L137.457 82.0128L137.214 82.1165L137.475 80.7684C137.534 80.4008 137.625 80.0385 137.748 79.6854C137.791 79.556 137.87 79.4401 137.977 79.3498C138.083 79.2596 138.214 79.1984 138.354 79.1726C138.56 79.1323 138.651 79.2475 138.639 79.2475Z" fill="#263238"/>
<path d="M144.53 79.207C144.077 80.3765 143.33 81.4229 142.354 82.2546L142.275 82.3179L142.051 82.5253L142.014 82.2315C141.796 81.0744 141.365 79.9628 140.742 78.9478C141.033 79.1725 141.27 79.4533 141.439 79.7716C141.904 80.5125 142.205 81.3358 142.324 82.1912L142.063 82.1048L142.13 82.0357C143.011 81.1576 143.813 80.2115 144.53 79.207Z" fill="#263238"/>
<path opacity="0.3" d="M153.421 94.353L156.021 94.4798L161.876 96.3867L161.366 98.0055L153.421 94.353Z" fill="black"/>
<g opacity="0.3">
<path d="M154.312 103.392C148.779 103.906 143.211 103.996 137.663 103.663C135.757 103.642 133.872 103.282 132.105 102.603C129.973 101.63 128.328 99.9007 127.523 97.7866L128.02 105.126L154.312 103.392Z" fill="black"/>
</g>
<g opacity="0.7">
<path d="M128.511 86.6794C128.439 86.7255 127.99 86.2358 127.505 85.579C127.166 85.2107 126.912 84.7789 126.76 84.3116C126.832 84.2655 127.281 84.7552 127.766 85.4062C128.104 85.777 128.358 86.2105 128.511 86.6794Z" fill="white"/>
</g>
<g opacity="0.7">
<path d="M122.814 92.9933C122.915 92.3895 123.12 91.8056 123.421 91.265C123.636 90.6864 123.947 90.1439 124.342 89.6577C124.237 90.2605 124.032 90.8438 123.736 91.386C123.521 91.9653 123.21 92.508 122.814 92.9933Z" fill="white"/>
</g>
<g opacity="0.7">
<path d="M130.093 95.2749C129.6 94.9639 129.167 94.5741 128.814 94.1227C128.388 93.7271 128.035 93.2654 127.772 92.7573C128.699 93.4607 129.486 94.3175 130.093 95.2864V95.2749Z" fill="white"/>
</g>
<g opacity="0.7">
<path d="M133.99 88.7071C134.044 88.7705 133.59 89.2256 132.972 89.7268C132.354 90.228 131.802 90.5794 131.76 90.516C131.717 90.4527 132.166 89.9976 132.784 89.4963C133.402 88.9951 133.935 88.6437 133.99 88.7071Z" fill="white"/>
</g>
<g opacity="0.7">
<path d="M135.257 85.7922C135.196 85.8498 134.729 85.4811 134.299 84.9108C133.869 84.3404 133.645 83.8046 133.693 83.7586C133.742 83.7125 134.111 84.1733 134.529 84.7206C134.948 85.2679 135.323 85.7346 135.257 85.7922Z" fill="white"/>
</g>
<g opacity="0.7">
<path d="M136.33 98.7427C135.882 99.1631 135.381 99.5288 134.839 99.8315C134.355 100.215 133.824 100.54 133.257 100.799C133.629 100.307 134.106 99.895 134.657 99.5895C135.147 99.2009 135.717 98.9126 136.33 98.7427Z" fill="white"/>
</g>
<g opacity="0.7">
<path d="M137.645 95.0497C137.584 95.1073 137.039 94.7329 136.433 94.2086C135.826 93.6844 135.402 93.212 135.463 93.1544C135.523 93.0968 136.069 93.4655 136.675 93.9897C137.281 94.514 137.681 94.9864 137.645 95.0497Z" fill="white"/>
</g>
<g opacity="0.7">
<path d="M140.905 90.856C140.976 89.8903 141.366 88.9707 142.02 88.229C141.933 88.6976 141.769 89.1504 141.536 89.5713C141.394 90.027 141.181 90.46 140.905 90.856Z" fill="white"/>
</g>
<g opacity="0.7">
<path d="M142.36 101.618C142.311 101.681 141.723 101.324 141.148 100.707C140.771 100.367 140.504 99.9312 140.378 99.4514C140.457 99.4111 140.851 99.9238 141.384 100.511C141.917 101.099 142.42 101.554 142.36 101.618Z" fill="white"/>
</g>
<g opacity="0.7">
<path d="M144.608 96.4785C144.548 96.5419 144.002 96.1098 143.342 95.5165C142.681 94.9231 142.232 94.3988 142.293 94.3354C142.776 94.5785 143.206 94.907 143.56 95.3033C144.196 95.8909 144.669 96.4209 144.608 96.4785Z" fill="white"/>
</g>
<g opacity="0.7">
<path d="M150.445 100.408C150.039 100.816 149.586 101.18 149.093 101.491C148.665 101.879 148.196 102.224 147.693 102.522C147.982 102.013 148.399 101.58 148.905 101.26C149.34 100.863 149.868 100.571 150.445 100.408Z" fill="white"/>
</g>
<g opacity="0.7">
<path d="M150.275 95.9028C150.33 95.972 149.742 96.4789 148.966 97.055C148.524 97.4404 148.016 97.7503 147.463 97.971C147.826 97.5178 148.269 97.1279 148.772 96.8188C149.216 96.4361 149.724 96.1265 150.275 95.9028Z" fill="white"/>
</g>
<g opacity="0.7">
<path d="M151.36 92.1926C151.11 91.7213 150.981 91.1999 150.985 90.6717C150.89 90.1516 150.931 89.6173 151.106 89.1162C151.243 89.6164 151.308 90.1318 151.3 90.6486C151.394 91.1582 151.415 91.6777 151.36 92.1926Z" fill="white"/>
</g>
<g opacity="0.7">
<path d="M147.378 90.9311C147.457 90.9714 147.275 91.4265 146.978 91.9508C146.681 92.475 146.372 92.8668 146.3 92.8265C146.227 92.7861 146.403 92.331 146.7 91.8068C146.997 91.2825 147.294 90.8907 147.378 90.9311Z" fill="white"/>
</g>
<g opacity="0.7">
<path d="M147.633 85.1525C146.528 84.6889 145.519 84.0433 144.651 83.2456C145.222 83.434 145.755 83.7146 146.227 84.0752C146.756 84.3562 147.231 84.7204 147.633 85.1525Z" fill="white"/>
</g>
<g opacity="0.7">
<path d="M151.621 83.0433C151.02 83.0118 150.438 82.829 149.936 82.5135C149.386 82.2808 148.91 81.9156 148.554 81.4541C149.089 81.6757 149.602 81.9416 150.088 82.2487C150.622 82.4706 151.135 82.7365 151.621 83.0433Z" fill="white"/>
</g>
<g opacity="0.7">
<path d="M154.76 85.3314C154.341 85.552 153.898 85.7277 153.439 85.8554C153.014 86.0683 152.565 86.2326 152.099 86.3448C152.051 86.2814 152.56 85.8611 153.312 85.5732C153.755 85.3491 154.262 85.2644 154.76 85.3314Z" fill="white"/>
</g>
<g opacity="0.7">
<path d="M156.827 91.4033C156.852 90.7522 157.024 90.1139 157.33 89.5309C157.543 88.9122 157.887 88.3416 158.342 87.8545C158.167 88.4729 157.927 89.0732 157.627 89.6462C157.42 90.2549 157.152 90.8434 156.827 91.4033Z" fill="white"/>
</g>
<g opacity="0.7">
<path d="M161.1 93.8518C160.881 93.3549 160.764 92.8232 160.754 92.2848C160.641 91.7591 160.631 91.2182 160.724 90.689C160.943 91.1837 161.06 91.7136 161.069 92.2502C161.182 92.7779 161.192 93.3206 161.1 93.8518Z" fill="white"/>
</g>
<g opacity="0.7">
<path d="M118.85 88.7012C118.9 89.1599 118.846 89.6233 118.693 90.0608C118.638 90.5182 118.479 90.9586 118.226 91.3512C118.177 90.8944 118.231 90.4329 118.384 89.9974C118.439 89.5383 118.598 89.0961 118.85 88.7012Z" fill="white"/>
</g>
<g opacity="0.7">
<path d="M125.202 97.3079C124.15 97.3422 123.115 97.0468 122.257 96.4673C122.769 96.5217 123.271 96.6438 123.748 96.83C124.253 96.9252 124.743 97.086 125.202 97.3079Z" fill="white"/>
</g>
<g opacity="0.7">
<path d="M132.481 81.0909C132.511 81.1715 132.032 81.396 131.469 81.7127C130.905 82.0294 130.457 82.2885 130.396 82.2482C130.335 82.2079 130.711 81.7818 131.305 81.4536C131.899 81.1254 132.457 81.016 132.481 81.0909Z" fill="white"/>
</g>
<g opacity="0.7">
<path d="M124.899 86.84C124.453 86.891 124.001 86.8438 123.578 86.7019C122.869 86.5464 122.305 86.3564 122.329 86.2758C122.775 86.2248 123.227 86.2721 123.651 86.414C124.348 86.5694 124.954 86.7364 124.899 86.84Z" fill="white"/>
</g>
<g opacity="0.7">
<path d="M136.306 79.9037C136.275 79.9785 135.809 79.8576 135.36 79.5121C134.912 79.1667 134.693 78.7521 134.754 78.7118C134.815 78.6715 135.136 78.9594 135.554 79.2876C135.972 79.6158 136.342 79.823 136.306 79.9037Z" fill="white"/>
</g>
<g opacity="0.7">
<path d="M143.602 78.3027C143.663 78.3602 143.432 78.6769 143.087 79.0051C142.742 79.3333 142.408 79.5463 142.348 79.4888C142.287 79.4312 142.517 79.1203 142.863 78.7921C143.208 78.4639 143.542 78.2451 143.602 78.3027Z" fill="white"/>
</g>
<path d="M104.869 199.739L101.038 201.848C101.038 201.848 103.856 210.599 102.129 209.043C100.584 207.655 94.8078 197.135 93.4441 194.537L93.1411 193.961L99.6624 190.591L104.869 199.739Z" fill="#2B1FC5"/>
<g opacity="0.5">
<path d="M95.2079 197.221C95.9355 196.646 96.4145 195.836 96.5533 194.946C96.6902 194.066 96.4738 193.169 95.9473 192.434L93.2866 193.892L95.2079 197.221Z" fill="white"/>
</g>
<path opacity="0.5" d="M102.275 206.203C102.275 206.203 103.081 209.366 102.408 209.28C101.735 209.193 95.4805 198.777 93.1411 193.955L93.3654 193.852L100.553 206.065C100.553 206.065 101.923 205.685 102.275 206.203Z" fill="white"/>
<path d="M93.2866 193.708C93.3074 193.764 93.3338 193.818 93.3654 193.869L93.6018 194.335L94.523 196.064C95.3109 197.498 96.4261 199.457 97.7109 201.594C98.9958 203.732 100.196 205.627 101.093 207.027L102.159 208.646L102.456 209.078L102.566 209.228C102.545 209.17 102.517 209.116 102.481 209.066L102.202 208.617L101.172 206.975C100.299 205.592 99.111 203.674 97.8261 201.537C96.5412 199.399 95.4018 197.441 94.6078 196.023L93.6503 194.341C93.5533 194.174 93.4684 194.024 93.3836 193.886C93.2987 193.748 93.2927 193.702 93.2866 193.708Z" fill="#263238"/>
<path d="M100.401 206.14C100.735 206.059 101.076 206.013 101.42 206.001C101.762 206.032 102.1 206.099 102.426 206.203C102.147 205.978 101.791 205.861 101.426 205.875C101.062 205.841 100.697 205.935 100.401 206.14Z" fill="#263238"/>
<path d="M100.22 202.672C100.574 202.771 100.948 202.787 101.311 202.718C101.141 202.649 100.956 202.619 100.771 202.631C100.587 202.604 100.398 202.618 100.22 202.672Z" fill="#263238"/>
<path d="M100.189 201.709C100.189 201.744 100.365 201.83 100.608 201.905C100.85 201.98 101.056 202.02 101.068 201.986C101.08 201.951 100.892 201.865 100.65 201.784C100.408 201.703 100.202 201.675 100.189 201.709Z" fill="#263238"/>
<path d="M100.814 200.747C100.847 200.932 100.924 201.107 101.038 201.26C101.19 201.524 101.347 201.726 101.378 201.709C101.344 201.524 101.268 201.349 101.153 201.196C101.002 200.931 100.85 200.736 100.814 200.747Z" fill="#263238"/>
<path d="M101.359 200.229C101.343 200.446 101.398 200.664 101.517 200.85C101.674 201.173 101.893 201.38 101.923 201.357C101.848 201.157 101.752 200.964 101.638 200.781C101.561 200.59 101.468 200.405 101.359 200.229Z" fill="#263238"/>
<path d="M101.244 202.533C101.329 202.742 101.45 202.937 101.602 203.109C101.758 203.306 101.932 203.489 102.123 203.656C102.234 203.761 102.358 203.852 102.493 203.927C102.534 203.951 102.58 203.967 102.628 203.974C102.676 203.981 102.724 203.978 102.771 203.967C102.822 203.952 102.867 203.924 102.9 203.885C102.934 203.846 102.954 203.798 102.959 203.748C102.941 203.462 102.818 203.19 102.613 202.98C102.407 202.77 102.131 202.635 101.832 202.597C101.656 202.572 101.476 202.584 101.305 202.631C101.242 202.645 101.182 202.671 101.129 202.706C101.357 202.667 101.591 202.667 101.82 202.706C102.061 202.749 102.284 202.857 102.462 203.017C102.681 203.203 102.814 203.464 102.832 203.742C102.832 203.875 102.674 203.904 102.547 203.834C102.426 203.76 102.31 203.678 102.202 203.587C102.012 203.427 101.836 203.254 101.674 203.069C101.402 202.74 101.262 202.533 101.244 202.533Z" fill="#263238"/>
<path d="M101.317 202.694C101.491 202.694 101.658 202.635 101.79 202.527C101.941 202.423 102.062 202.284 102.141 202.124C102.199 202.023 102.229 201.91 102.229 201.795C102.229 201.681 102.199 201.568 102.141 201.467C102.088 201.419 102.018 201.392 101.944 201.392C101.871 201.392 101.8 201.419 101.747 201.467C101.656 201.534 101.582 201.618 101.529 201.715C101.44 201.867 101.371 202.03 101.323 202.198C101.265 202.347 101.248 202.508 101.275 202.665C101.275 202.665 101.317 202.492 101.414 202.221C101.471 202.066 101.546 201.917 101.638 201.778C101.717 201.628 101.917 201.444 102.038 201.577C102.075 201.661 102.091 201.753 102.086 201.845C102.081 201.936 102.054 202.026 102.008 202.106C101.937 202.252 101.834 202.382 101.705 202.486C101.583 202.567 101.453 202.636 101.317 202.694Z" fill="#263238"/>
<path d="M96.0261 192.469C96.0261 192.469 96.2079 192.716 96.4019 193.154C96.6589 193.726 96.7449 194.354 96.6503 194.969C96.5406 195.584 96.2579 196.159 95.8321 196.634C95.5049 196.991 95.2261 197.158 95.2261 197.175C95.2966 197.152 95.3622 197.117 95.42 197.072C95.5886 196.962 95.7432 196.835 95.8806 196.692C96.3422 196.219 96.6477 195.628 96.7594 194.992C96.8597 194.354 96.7585 193.703 96.4685 193.12C96.3812 192.945 96.2757 192.779 96.1534 192.624C96.0867 192.515 96.0322 192.463 96.0261 192.469Z" fill="#263238"/>
<path d="M96.832 197.861C96.9896 198.354 97.2116 198.826 97.4926 199.267C97.7349 199.729 98.0429 200.157 98.4078 200.54C98.4381 200.54 98.0442 199.964 97.6078 199.209C97.1714 198.455 96.8684 197.844 96.832 197.861Z" fill="#263238"/>
<path d="M95.7592 196.069C95.7229 196.069 95.6562 196.19 95.5471 196.328C95.438 196.467 95.335 196.57 95.3532 196.599C95.3714 196.628 95.535 196.565 95.6562 196.403C95.7774 196.242 95.7956 196.075 95.7592 196.069Z" fill="#263238"/>
<path d="M96.238 194.917C96.2016 194.917 96.141 195.021 96.0925 195.17C96.044 195.32 96.044 195.447 96.0925 195.458C96.141 195.47 96.1895 195.355 96.238 195.205C96.2865 195.055 96.2743 194.929 96.238 194.917Z" fill="#263238"/>
<path d="M96.0625 193.736C96.0322 193.736 96.111 193.88 96.1413 194.041C96.1716 194.203 96.1413 194.341 96.1897 194.352C96.2382 194.364 96.311 194.214 96.2685 194.018C96.2261 193.823 96.0867 193.708 96.0625 193.736Z" fill="#263238"/>
<path d="M95.8622 192.947C95.8257 192.947 95.8075 193.027 95.8197 193.12C95.8318 193.212 95.8744 193.287 95.9108 193.281C95.9473 193.276 95.9655 193.195 95.9533 193.102C95.9412 193.01 95.8622 192.941 95.8622 192.947Z" fill="#263238"/>
<path d="M167.688 207.845L167.548 212.056C167.548 212.056 176.858 214.401 174.555 214.971C172.494 215.49 160.051 214.585 157.015 214.314L156.33 214.251L156.766 207.211L167.688 207.845Z" fill="#2B1FC5"/>
<g opacity="0.5">
<path d="M160.336 214.309C160.213 213.411 159.742 212.589 159.015 212.004C158.305 211.435 157.397 211.139 156.469 211.175L156.354 214.107L160.336 214.309Z" fill="white"/>
</g>
<path opacity="0.5" d="M172.094 213.358C172.094 213.358 175.342 214.377 174.912 214.872C174.482 215.367 161.876 214.913 156.33 214.25V214.014L171.033 214.671C171.033 214.671 171.445 213.358 172.094 213.358Z" fill="white"/>
<path d="M156.184 214.003H156.372L156.917 214.049L158.917 214.205C160.614 214.326 162.954 214.464 165.542 214.562C168.13 214.66 170.481 214.694 172.178 214.7H174.184H174.736C174.798 214.709 174.861 214.709 174.924 214.7C174.861 214.692 174.798 214.692 174.736 214.7H174.184L172.178 214.666C170.481 214.637 168.136 214.585 165.548 214.493C162.96 214.401 160.621 214.274 158.924 214.176L156.917 214.061H156.372C156.312 214.034 156.249 214.015 156.184 214.003Z" fill="#263238"/>
<path d="M171.051 214.832C171.154 214.521 171.292 214.222 171.463 213.94C171.673 213.679 171.912 213.441 172.178 213.231C171.83 213.341 171.535 213.566 171.348 213.865C171.126 214.141 171.021 214.486 171.051 214.832Z" fill="#263238"/>
<path d="M167.857 213.144C167.857 213.144 168.051 212.989 168.221 212.753C168.391 212.517 168.506 212.309 168.476 212.292C168.445 212.275 168.282 212.448 168.112 212.684C167.942 212.92 167.827 213.121 167.857 213.144Z" fill="#263238"/>
<path d="M166.979 212.661C166.979 212.689 167.185 212.586 167.379 212.43C167.573 212.275 167.718 212.125 167.694 212.096C167.67 212.068 167.488 212.177 167.294 212.332C167.1 212.488 166.954 212.638 166.979 212.661Z" fill="#263238"/>
<path d="M166.451 211.653C166.828 211.751 167.224 211.769 167.609 211.705C167.426 211.635 167.23 211.603 167.033 211.613C166.838 211.586 166.64 211.6 166.451 211.653Z" fill="#263238"/>
<path d="M166.288 210.944C166.474 211.07 166.695 211.141 166.924 211.146C167.147 211.187 167.379 211.167 167.591 211.088C167.376 211.044 167.156 211.02 166.936 211.019C166.723 210.977 166.506 210.952 166.288 210.944Z" fill="#263238"/>
<path d="M168.27 212.24C168.504 212.283 168.744 212.283 168.979 212.24C169.235 212.219 169.489 212.174 169.736 212.108C169.89 212.075 170.038 212.025 170.179 211.958C170.265 211.913 170.33 211.839 170.36 211.751C170.375 211.701 170.373 211.649 170.356 211.601C170.339 211.553 170.306 211.511 170.264 211.48C170.092 211.394 169.903 211.345 169.709 211.337C169.515 211.328 169.322 211.361 169.143 211.432C168.964 211.503 168.804 211.611 168.674 211.747C168.544 211.884 168.447 212.046 168.391 212.223C168.377 212.284 168.377 212.346 168.391 212.407C168.469 212.197 168.586 212.002 168.736 211.831C168.898 211.661 169.109 211.539 169.342 211.48C169.482 211.44 169.628 211.427 169.773 211.442C169.917 211.457 170.058 211.499 170.185 211.566C170.294 211.647 170.245 211.774 170.118 211.837C169.989 211.901 169.853 211.951 169.712 211.987C169.47 212.054 169.222 212.106 168.973 212.142C168.536 212.228 168.27 212.223 168.27 212.24Z" fill="#263238"/>
<path d="M168.451 212.28C168.542 212.141 168.576 211.975 168.548 211.814C168.532 211.639 168.474 211.469 168.378 211.319C168.32 211.212 168.233 211.122 168.127 211.058C168.021 210.993 167.898 210.956 167.772 210.95C167.7 210.964 167.637 211.003 167.594 211.06C167.551 211.117 167.533 211.186 167.542 211.255C167.555 211.363 167.592 211.467 167.651 211.561C167.738 211.714 167.846 211.855 167.972 211.981C168.078 212.105 168.213 212.204 168.366 212.269C168.366 212.269 168.227 212.142 168.045 211.923C167.936 211.795 167.84 211.656 167.76 211.509C167.669 211.359 167.615 211.1 167.79 211.077C167.966 211.054 168.148 211.244 168.251 211.382C168.342 211.517 168.404 211.668 168.433 211.825C168.452 211.976 168.458 212.128 168.451 212.28Z" fill="#263238"/>
<path d="M156.524 211.14C156.524 211.14 156.839 211.14 157.336 211.198C157.984 211.293 158.592 211.556 159.094 211.958C159.581 212.37 159.944 212.899 160.142 213.49C160.294 213.951 160.3 214.251 160.324 214.251C160.334 214.18 160.334 214.108 160.324 214.038C160.314 213.843 160.281 213.65 160.227 213.462C160.052 212.838 159.685 212.278 159.172 211.854C158.657 211.439 158.025 211.177 157.354 211.1C157.153 211.08 156.95 211.08 156.748 211.1C156.603 211.111 156.524 211.128 156.524 211.14Z" fill="#263238"/>
<path d="M161.766 213.341C162.291 213.472 162.83 213.542 163.372 213.548C163.914 213.597 164.461 213.575 164.996 213.485C164.996 213.45 164.269 213.485 163.378 213.422C162.487 213.358 161.772 213.301 161.766 213.341Z" fill="#263238"/>
<path d="M159.603 213.254C159.603 213.283 159.657 213.404 159.724 213.565C159.79 213.726 159.827 213.865 159.863 213.865C159.9 213.865 159.93 213.698 159.863 213.513C159.796 213.329 159.627 213.231 159.603 213.254Z" fill="#263238"/>
<path d="M158.827 212.264C158.796 212.264 158.863 212.396 158.978 212.511C159.093 212.626 159.196 212.701 159.227 212.672C159.257 212.644 159.184 212.54 159.075 212.425C158.966 212.31 158.851 212.241 158.827 212.264Z" fill="#263238"/>
<path d="M157.681 211.78C157.681 211.814 157.839 211.82 157.996 211.878C158.154 211.935 158.269 212.027 158.299 212.004C158.33 211.981 158.245 211.832 158.045 211.757C157.845 211.682 157.681 211.751 157.681 211.78Z" fill="#263238"/>
<path d="M156.857 211.538C156.857 211.572 156.9 211.63 156.991 211.665C157.082 211.7 157.167 211.705 157.179 211.665C157.192 211.624 157.137 211.572 157.046 211.538C156.955 211.503 156.87 211.509 156.857 211.538Z" fill="#263238"/>
<path d="M135.117 133.672C135.117 133.672 134.317 153.749 131.081 164.159C127.845 174.569 119.153 177.098 113.505 180.451C108.135 183.649 96.1289 189.709 96.1289 189.709L102.905 200.868C102.905 200.868 136.039 187.537 141.948 175.606C146.481 166.441 151.445 149.567 151.445 149.567L135.117 133.672Z" fill="#263238"/>
<path d="M153.724 124.69C153.724 124.69 167.7 152.516 171.433 160.069C171.824 160.858 172.005 161.727 171.961 162.598L169.494 209.498L155.318 208.819L156.851 163.589L132.833 134.951C130.763 132.522 129.29 129.683 128.524 126.643C128.268 125.649 128.134 124.631 128.124 123.607L153.742 124.69" fill="#263238"/>
<path d="M212.531 188.246L85.2805 197.095L79.0864 108.381L205.379 99.9756L212.531 188.246Z" fill="white"/>
<path d="M212.531 188.246C212.531 188.246 212.476 187.698 212.385 186.638C212.294 185.578 212.167 184.006 211.991 181.96C211.652 177.859 211.155 171.838 210.519 164.147C209.252 148.777 207.446 126.701 205.252 99.987L205.385 100.096L79.0985 108.531L79.244 108.369C79.244 108.577 79.244 108.796 79.2924 109.02C81.4925 140.602 83.5774 170.554 85.4259 197.089L85.2743 196.962L177.094 190.625L203.203 188.845L210.137 188.378L211.919 188.263L212.525 188.228C212.525 188.228 212.331 188.228 211.919 188.28L210.149 188.413L203.252 188.908L177.191 190.757L85.2925 197.233H85.1531V197.095C83.2986 170.559 81.2016 140.637 78.9894 109.026C78.9894 108.807 78.9894 108.582 78.9409 108.381V108.231H79.0985L205.385 99.8545H205.513V99.9755C207.652 126.753 209.422 148.835 210.652 164.228C211.258 171.907 211.737 177.916 212.058 182.012C212.216 184.057 212.343 185.619 212.422 186.673C212.501 187.727 212.531 188.246 212.531 188.246Z" fill="#263238"/>
<path d="M181.881 113.405C182.142 113.405 183.257 128.643 184.366 147.47C185.475 166.297 186.185 181.575 185.906 181.592C185.627 181.609 184.536 166.354 183.421 147.521C182.306 128.689 181.621 113.416 181.881 113.405Z" fill="#263238"/>
<path d="M170.579 113.237C170.845 113.237 171.954 128.481 173.07 147.308C174.185 166.135 174.888 181.413 174.609 181.425C174.33 181.436 173.233 166.187 172.124 147.354C171.015 128.521 170.318 113.237 170.579 113.237Z" fill="#263238"/>
<path d="M135.984 113.698C136.244 113.698 137.36 128.936 138.475 147.763C139.59 166.59 140.293 181.874 140.014 181.886C139.735 181.897 138.638 166.648 137.529 147.815C136.42 128.982 135.723 113.71 135.984 113.698Z" fill="#263238"/>
<path d="M146.918 113.237C147.178 113.237 148.293 128.481 149.403 147.308C150.512 166.135 151.221 181.413 150.942 181.43C150.663 181.448 149.572 166.193 148.457 147.36C147.342 128.527 146.657 113.272 146.918 113.237Z" fill="#263238"/>
<path d="M157.845 112.817C158.105 112.817 159.221 128.055 160.33 146.882C161.439 165.709 162.148 180.993 161.875 181.004C161.603 181.016 160.499 165.766 159.384 146.934C158.269 128.101 157.584 112.828 157.845 112.817Z" fill="#263238"/>
<path d="M123.832 115.225C124.093 115.225 125.208 130.463 126.317 149.29C127.426 168.117 128.135 183.395 127.856 183.412C127.578 183.43 126.487 168.175 125.372 149.342C124.256 130.509 123.572 115.237 123.832 115.225Z" fill="#263238"/>
<path d="M111.85 115.905C112.111 115.905 113.226 131.143 114.335 149.97C115.444 168.797 116.141 184.098 115.862 184.098C115.583 184.098 114.486 168.86 113.371 150.027C112.256 131.194 111.62 115.916 111.85 115.905Z" fill="#263238"/>
<path d="M99.8684 116.584C100.135 116.584 101.244 131.828 102.359 150.655C103.475 169.482 104.178 184.76 103.899 184.778C103.62 184.795 102.529 169.54 101.414 150.684C100.299 131.828 99.6078 116.602 99.8684 116.584Z" fill="#263238"/>
<path d="M115.56 91.2822C115.56 91.2822 101.438 101.139 104.111 109.009C107.323 118.457 129.905 126.021 129.905 126.021C131.675 127.421 133.615 128.902 134.754 129.604C137.178 131.085 137.263 130.86 137.33 130.532C137.499 129.662 133.13 127.761 134.196 127.582C135.263 127.404 139.39 130.578 139.536 129.651C139.724 128.441 135.13 126.545 134.748 126.355C134.366 126.165 134.518 125.566 134.857 125.779C135.342 126.056 140.518 128.827 140.712 127.646C140.821 126.995 139.718 126.701 139.718 126.701C139.718 126.701 134.76 124.483 134.869 123.93C134.978 123.377 137.899 124.569 138.887 125.048C139.875 125.526 140.378 125.226 140.148 124.598C139.99 124.172 137.021 122.628 136.051 122.179C135.081 121.729 132.414 120.542 133.99 119.972C135.566 119.402 136.499 118.244 136.536 117.714C136.572 117.184 135.893 116.809 135.542 117.213C135.128 117.597 134.646 117.909 134.118 118.134C133.759 118.311 133.368 118.42 132.966 118.457C130.863 117.23 115.826 108.381 115.766 106.808C115.699 105.114 123.342 98.858 123.342 98.858L115.56 91.2822Z" fill="#B78876"/>
<path d="M141.681 62.7131C141.681 62.7995 141.281 62.7822 140.839 62.8455C140.396 62.9089 140.026 63.0125 139.984 62.9377C139.942 62.8628 140.281 62.6152 140.79 62.5461C141.299 62.477 141.705 62.6383 141.681 62.7131Z" fill="#263238"/>
<path d="M147.202 62.4484C147.142 62.5175 146.857 62.3735 146.481 62.316C146.105 62.2584 145.79 62.2814 145.76 62.2008C145.729 62.1202 146.075 61.9359 146.541 62.0165C147.008 62.0972 147.263 62.3908 147.202 62.4484Z" fill="#263238"/>
<path d="M218.894 60.7146C214.191 82.9002 197.076 166.314 192.524 188.574C192.226 190.034 192.547 191.547 193.416 192.784C194.286 194.02 195.634 194.88 197.167 195.177L293.235 213.681C294.002 213.828 294.793 213.83 295.561 213.686C296.329 213.541 297.06 213.254 297.711 212.84C298.361 212.426 298.919 211.894 299.353 211.274C299.786 210.654 300.086 209.958 300.235 209.228L313.387 144.733L321.587 145.937C322.554 146.079 323.541 145.857 324.339 145.32C325.138 144.782 325.685 143.971 325.866 143.057L335.866 90.9714C335.955 90.5088 335.948 90.0339 335.843 89.574C335.739 89.1142 335.541 88.6783 335.259 88.2915C334.978 87.9046 334.619 87.5743 334.203 87.3194C333.787 87.0645 333.322 86.8902 332.836 86.8062L325.472 85.4927L326.435 80.4576C326.713 79.0055 326.376 77.5082 325.499 76.2905C324.622 75.0728 323.275 74.233 321.751 73.9534L225.773 56.3189C224.249 56.0456 222.673 56.3536 221.386 57.1761C220.099 57.9987 219.204 59.2698 218.894 60.7146Z" fill="#263238"/>
<path d="M226.04 62.8574L194.318 190.458L292.877 211.929L323.939 85.2274L226.04 62.8574Z" fill="#E0E0E0"/>
<path d="M214.579 58.1162L191.991 187.457L291.859 202.556L313.847 74.1549L214.579 58.1162Z" fill="#EBEBEB"/>
<path d="M199.93 64.8853L195.718 195.937L296.804 198.23L300.562 68.1805L199.93 64.8853Z" fill="white"/>
<path d="M199.937 64.8853L300.544 68.0596H300.714V68.1805C299.665 104.717 298.374 149.67 296.98 198.224V198.374H296.823H296.083L195.73 196.069H195.585V195.931C198.167 118.422 199.906 66.0893 199.949 64.8853C199.894 66.0893 198.288 118.422 195.864 195.942L195.724 195.804L296.077 198.063H296.817L296.653 198.207C298.071 149.653 299.38 104.7 300.441 68.1575L300.568 68.2842L199.937 64.8853Z" fill="#263238"/>
<path d="M286.386 92.9181C286.386 93.1714 268.992 93.1426 247.549 92.8662C226.106 92.5899 208.718 92.1638 208.718 91.9162C208.718 91.6686 226.112 91.6916 247.561 91.968C269.01 92.2444 286.392 92.6705 286.386 92.9181Z" fill="#263238"/>
<path d="M287.113 104.515C287.113 104.762 269.725 104.739 248.276 104.463C226.828 104.186 209.446 103.755 209.452 103.507C209.458 103.259 226.84 103.282 248.289 103.559C269.737 103.835 287.12 104.267 287.113 104.515Z" fill="#263238"/>
<path d="M288.156 140.054C288.156 140.302 270.761 140.279 249.319 140.003C227.876 139.726 210.482 139.3 210.488 139.047C210.494 138.794 227.876 138.822 249.331 139.104C270.786 139.387 288.156 139.807 288.156 140.054Z" fill="#263238"/>
<path d="M288.156 128.792C288.156 129.039 270.761 129.016 249.319 128.734C227.876 128.452 210.482 128.031 210.488 127.784C210.494 127.536 227.876 127.559 249.331 127.836C270.786 128.112 288.156 128.567 288.156 128.792Z" fill="#263238"/>
<path d="M288.156 117.569C288.156 117.817 270.761 117.794 249.319 117.518C227.876 117.241 210.482 116.815 210.488 116.568C210.494 116.32 227.876 116.343 249.331 116.619C270.786 116.896 288.156 117.322 288.156 117.569Z" fill="#263238"/>
<path d="M286.98 152.602C286.98 152.85 269.586 152.827 248.143 152.55C226.701 152.274 209.312 151.848 209.312 151.6C209.312 151.353 226.707 151.376 248.156 151.652C269.604 151.928 286.986 152.355 286.98 152.602Z" fill="#263238"/>
<path d="M286.774 164.936C286.774 165.184 269.38 165.161 247.937 164.884C226.495 164.608 209.1 164.176 209.106 163.928C209.113 163.681 226.495 163.704 247.949 163.98C269.404 164.257 286.774 164.688 286.774 164.936Z" fill="#263238"/>
<path d="M286.532 177.265C286.532 177.512 269.137 177.489 247.689 177.213C226.24 176.937 208.858 176.51 208.864 176.263C208.87 176.015 226.252 176.038 247.707 176.315C269.162 176.591 286.532 177.017 286.532 177.265Z" fill="#263238"/>
<path d="M299.301 95.5743C312.878 95.5743 323.884 85.1024 323.884 72.1846C323.884 59.2669 312.878 48.7949 299.301 48.7949C285.725 48.7949 274.719 59.2669 274.719 72.1846C274.719 85.1024 285.725 95.5743 299.301 95.5743Z" fill="#2B1FC5"/>
<path opacity="0.5" d="M299.326 95.5743C312.915 95.5743 323.932 85.1024 323.932 72.1846C323.932 59.2669 312.915 48.7949 299.326 48.7949C285.736 48.7949 274.719 59.2669 274.719 72.1846C274.719 85.1024 285.736 95.5743 299.326 95.5743Z" fill="black"/>
<path d="M296.598 95.5743C310.175 95.5743 321.181 85.1024 321.181 72.1846C321.181 59.2669 310.175 48.7949 296.598 48.7949C283.022 48.7949 272.016 59.2669 272.016 72.1846C272.016 85.1024 283.022 95.5743 296.598 95.5743Z" fill="#2B1FC5"/>
<path d="M296.781 58.4043H296.429C295.733 58.4043 295.168 58.9408 295.168 59.6026V84.7724C295.168 85.4342 295.733 85.9707 296.429 85.9707H296.781C297.477 85.9707 298.041 85.4342 298.041 84.7724V59.6026C298.041 58.9408 297.477 58.4043 296.781 58.4043Z" fill="#FAFAFA"/>
<path d="M282.113 72.029V72.3516C282.113 73.0166 282.68 73.5557 283.38 73.5557H309.829C310.528 73.5557 311.096 73.0166 311.096 72.3516V72.029C311.096 71.364 310.528 70.825 309.829 70.825H283.38C282.68 70.825 282.113 71.364 282.113 72.029Z" fill="#FAFAFA"/>
</svg>
