<svg width="108" height="117" viewBox="0 0 108 117" fill="none" xmlns="http://www.w3.org/2000/svg">
<path d="M18.4444 50.6124L22.8006 45.6197L24.2328 52.2733L29.4493 52.2012L25.7097 58.1015L31.1873 61.4556L24.4043 61.2667L22.4575 67.0874L17.6587 62.2414L12.0618 65.9685L12.5814 60.0707L6.58667 59.004L10.8459 56.085L8.63796 51.142L13.5064 52.1565L14.2473 45.6669L18.4444 50.6124Z" fill="white"/>
<path d="M18.4442 50.6124C18.4442 50.6124 18.3497 50.5079 18.1682 50.2941L17.3527 49.3443L14.2173 45.6893L14.272 45.6719C14.0706 47.4646 13.822 49.6501 13.541 52.1614V52.2086H13.4938L8.62289 51.2141L8.68008 51.1445L10.893 56.0875L10.9104 56.1272L10.8731 56.1546L6.61884 59.0513L6.59646 58.9468L12.5937 60.011H12.6484V60.0657C12.4843 61.9405 12.3102 63.9296 12.1312 65.9635L12.0318 65.9038L17.6287 62.1742L17.6734 62.1444L17.7107 62.1817L19.2896 63.7779L22.522 67.0252L22.415 67.0501C23.0781 65.0709 23.727 63.1315 24.3619 61.2318L24.3768 61.1871H24.4116L31.1921 61.3761L31.1598 61.4879L25.6896 58.1313L25.6399 58.1014L25.6698 58.0542L29.4143 52.1589L29.4591 52.236L24.2376 52.3006H24.2028V52.2658C23.6508 49.67 23.1784 47.4513 22.7855 45.6097L22.8402 45.6246L19.5706 49.3443C19.2026 49.762 18.9216 50.0902 18.7302 50.2941C18.5387 50.498 18.4442 50.6124 18.4442 50.6124C18.4442 50.6124 18.5412 50.4955 18.7302 50.2792L19.5631 49.312L22.7756 45.5997L22.8178 45.55L22.8328 45.6122C23.2306 47.4505 23.7113 49.6684 24.2749 52.2658L24.2326 52.231L29.4541 52.1515H29.5486L29.4964 52.2285L25.7667 58.1313L25.7468 58.0517L31.217 61.4034L31.4109 61.5203H31.1846L24.4116 61.3313L24.4738 61.2865L22.5294 67.1073L22.4971 67.2067L22.4225 67.1321L19.1902 63.8824L17.6113 62.2886H17.6933L12.0964 66.0182L11.9845 66.0928V65.9585C12.1635 63.9271 12.3401 61.938 12.5067 60.0632L12.5564 60.1304L6.56165 59.0587L6.41992 59.0339L6.53927 58.9518L10.7985 56.0377L10.7786 56.1073L8.57564 51.1594L8.53586 51.0699L8.63283 51.0898L13.4987 52.1092L13.4465 52.149C13.7374 49.6476 13.9935 47.4546 14.1925 45.6619V45.5873L14.2397 45.6445L17.3278 49.3095L18.1359 50.2742C18.3522 50.488 18.4442 50.6124 18.4442 50.6124Z" fill="#E0E0E0"/>
<path d="M16.7807 53.5165L16.915 56.637C16.9184 56.7609 16.968 56.879 17.054 56.9682C17.14 57.0574 17.2563 57.1113 17.3799 57.1193C17.5096 57.1319 17.639 57.0931 17.7404 57.0113C17.8418 56.9295 17.907 56.8111 17.922 56.6817L18.3322 53.5538C18.3393 53.498 18.3344 53.4413 18.3179 53.3875C18.3014 53.3336 18.2736 53.2839 18.2365 53.2416C18.1994 53.1993 18.1537 53.1654 18.1025 53.1421C18.0513 53.1187 17.9957 53.1065 17.9394 53.1063H17.1785C17.1252 53.1062 17.0725 53.1169 17.0234 53.1377C16.9743 53.1585 16.9299 53.1889 16.8927 53.2271C16.8556 53.2654 16.8266 53.3107 16.8074 53.3605C16.7881 53.4102 16.779 53.4632 16.7807 53.5165Z" fill="#E0E0E0"/>
<path d="M18.1705 58.8896C18.1201 59.0314 18.0287 59.155 17.9081 59.2448C17.7874 59.3347 17.6428 59.3867 17.4925 59.3944C17.3423 59.4021 17.1931 59.365 17.0639 59.2879C16.9347 59.2109 16.8313 59.0972 16.7666 58.9614C16.702 58.8255 16.6791 58.6735 16.7008 58.5247C16.7226 58.3758 16.7879 58.2367 16.8887 58.125C16.9894 58.0133 17.1211 57.9339 17.2669 57.897C17.4127 57.86 17.5662 57.8672 17.708 57.9175C17.8035 57.9491 17.8915 57.9998 17.9669 58.0664C18.0422 58.133 18.1034 58.2141 18.1466 58.3049C18.1898 58.3958 18.2142 58.4944 18.2183 58.5948C18.2224 58.6953 18.2061 58.7956 18.1705 58.8896Z" fill="#E0E0E0"/>
<path d="M19.4064 53.5687L19.5407 56.6892C19.5442 56.813 19.5938 56.9312 19.6798 57.0204C19.7658 57.1096 19.882 57.1635 20.0057 57.1715C20.1353 57.1841 20.2648 57.1453 20.3661 57.0635C20.4675 56.9817 20.5327 56.8633 20.5477 56.7339L20.958 53.6085C20.9654 53.5527 20.9608 53.4959 20.9446 53.442C20.9285 53.388 20.901 53.3381 20.8641 53.2956C20.8272 53.253 20.7817 53.2188 20.7306 53.1952C20.6795 53.1715 20.6239 53.159 20.5676 53.1585H19.8068C19.7532 53.1581 19.7002 53.1685 19.6508 53.1891C19.6014 53.2098 19.5567 53.2401 19.5193 53.2784C19.482 53.3167 19.4527 53.3622 19.4333 53.4121C19.4139 53.4619 19.4048 53.5152 19.4064 53.5687Z" fill="#E0E0E0"/>
<path d="M20.799 58.9419C20.7487 59.0836 20.6576 59.2073 20.5371 59.2972C20.4165 59.3872 20.2721 59.4394 20.1219 59.4473C19.9717 59.4552 19.8226 59.4185 19.6933 59.3417C19.564 59.2649 19.4604 59.1515 19.3955 59.0158C19.3306 58.8801 19.3074 58.7283 19.3288 58.5794C19.3501 58.4306 19.4151 58.2914 19.5155 58.1795C19.616 58.0675 19.7473 57.9879 19.893 57.9505C20.0387 57.9132 20.1921 57.9199 20.334 57.9697C20.4285 58.0029 20.5154 58.0543 20.59 58.1212C20.6645 58.1881 20.7251 58.269 20.7683 58.3593C20.8115 58.4496 20.8364 58.5475 20.8417 58.6475C20.8469 58.7475 20.8324 58.8475 20.799 58.9419Z" fill="#E0E0E0"/>
<path d="M93.4968 46.112L90.8935 42.5489L89.5608 46.8827L86.1046 46.5371L88.2479 50.6646L84.4238 52.5766L88.9342 52.8402L89.8915 56.811L93.3526 53.8721L96.8534 56.6643L96.846 52.7233L100.884 52.3578L98.2259 50.1772L99.9739 47.0245L96.6868 47.4173L96.565 43.0711L93.4968 46.112Z" fill="white"/>
<path d="M93.4967 46.1119C93.4967 46.1119 93.5664 46.0373 93.7006 45.9031C93.8349 45.7688 94.0338 45.5649 94.2899 45.3063L96.5426 43.0487L96.5923 42.9964V43.071C96.6296 44.272 96.6744 45.7415 96.7266 47.4173L96.6793 47.375L99.9664 46.9747L100.063 46.9623L100.016 47.0468L98.2756 50.2046L98.2607 50.135L100.921 52.3106L101.033 52.4026L100.889 52.415L96.8509 52.783L96.9081 52.7233C96.9081 53.9665 96.9081 55.3042 96.9081 56.6643V56.7961L96.8037 56.714L93.3028 53.9243H93.3848L92.2461 54.8915L89.9238 56.8632L89.8442 56.9303L89.8193 56.8309C89.4936 55.4783 89.1753 54.1505 88.862 52.8526L88.9192 52.8998L84.4089 52.6338H84.1826L84.3865 52.5319L88.2131 50.6248L88.1882 50.7019C87.4423 49.2332 86.7328 47.8524 86.0599 46.5595L86.0176 46.4774H86.1096L89.5657 46.8305L89.5209 46.8603L90.8611 42.5315L90.881 42.4693L90.9183 42.5215L92.8304 45.1696L93.3277 45.8608C93.4395 46.0174 93.4967 46.1094 93.4967 46.1094C93.4967 46.1094 93.4395 46.0373 93.3252 45.8857L92.8279 45.2094L90.8736 42.5663H90.9307L89.6105 46.9026V46.9374H89.5558L86.0972 46.5968L86.1469 46.5247C86.8099 47.8077 87.526 49.1827 88.2951 50.6496L88.3225 50.6994L88.2703 50.7242L84.4487 52.6413L84.4238 52.5269L88.9342 52.788H88.9814L88.9938 52.8327C89.3046 54.1257 89.6254 55.4534 89.9511 56.811L89.8467 56.7787L92.169 54.8069L93.3078 53.8372L93.35 53.8049L93.3898 53.8372L96.8907 56.6295L96.7863 56.6792C96.7863 55.3191 96.7863 53.9914 96.7863 52.7382V52.681H96.8434L100.881 52.318L100.849 52.4225L98.1936 50.2394L98.1588 50.212L98.1811 50.1722C98.7953 49.0633 99.3846 48.0066 99.9341 47.0195L99.9813 47.0941L96.6943 47.4819H96.647V47.4347C96.6048 45.7589 96.5675 44.2894 96.5376 43.086L96.5923 43.1083L94.2998 45.3461L93.7031 45.9279L93.4967 46.1119Z" fill="#E0E0E0"/>
<path d="M94.434 48.1334L94.168 50.1972C94.157 50.2789 94.1167 50.3538 94.0544 50.4078C93.9921 50.4619 93.9122 50.4913 93.8298 50.4905C93.7435 50.4894 93.6609 50.4552 93.599 50.3951C93.537 50.335 93.5004 50.2535 93.4966 50.1673L93.4046 48.0713C93.4028 48.0339 93.4089 47.9965 93.4225 47.9617C93.4362 47.9269 93.4572 47.8953 93.484 47.8692C93.5108 47.8431 93.5429 47.823 93.5781 47.8103C93.6133 47.7975 93.6508 47.7924 93.6881 47.7953L94.1854 47.8351C94.2218 47.8368 94.2575 47.8461 94.2902 47.8624C94.3229 47.8786 94.3519 47.9015 94.3753 47.9296C94.3986 47.9576 94.4159 47.9902 94.426 48.0253C94.4362 48.0604 94.4389 48.0972 94.434 48.1334Z" fill="#E0E0E0"/>
<path d="M93.2057 51.6194C93.2324 51.7132 93.2861 51.7971 93.3601 51.8607C93.4341 51.9242 93.5252 51.9646 93.622 51.9768C93.7188 51.989 93.817 51.9724 93.9044 51.9292C93.9919 51.8859 94.0647 51.8179 94.1138 51.7336C94.1629 51.6493 94.1861 51.5525 94.1805 51.4551C94.175 51.3577 94.1409 51.2641 94.0825 51.1859C94.0242 51.1077 93.9441 51.0485 93.8523 51.0154C93.7605 50.9824 93.661 50.9772 93.5663 51.0003C93.5013 51.0161 93.4401 51.0449 93.3865 51.0849C93.333 51.1249 93.288 51.1754 93.2543 51.2332C93.2207 51.291 93.199 51.355 93.1907 51.4213C93.1823 51.4877 93.1874 51.555 93.2057 51.6194Z" fill="#E0E0E0"/>
<path d="M92.6888 48.019L92.4227 50.0803C92.4123 50.1622 92.3721 50.2374 92.3097 50.2916C92.2473 50.3457 92.1672 50.3749 92.0846 50.3737C91.9983 50.3737 91.9154 50.3403 91.8533 50.2805C91.7911 50.2207 91.7546 50.1391 91.7514 50.0529L91.6594 47.9544C91.6579 47.9172 91.6643 47.8801 91.6781 47.8456C91.692 47.8111 91.713 47.7798 91.7397 47.754C91.7665 47.7282 91.7985 47.7083 91.8335 47.6957C91.8685 47.6831 91.9058 47.678 91.9429 47.6809L92.4401 47.7207C92.4766 47.7224 92.5123 47.7317 92.545 47.748C92.5777 47.7643 92.6067 47.7871 92.63 47.8152C92.6534 47.8433 92.6707 47.8759 92.6808 47.9109C92.6909 47.946 92.6936 47.9828 92.6888 48.019Z" fill="#E0E0E0"/>
<path d="M91.4604 51.505C91.487 51.5988 91.5405 51.6827 91.6144 51.7463C91.6882 51.8099 91.7791 51.8505 91.8758 51.8628C91.9725 51.8752 92.0707 51.8589 92.1582 51.8159C92.2457 51.7729 92.3186 51.7052 92.3679 51.6211C92.4172 51.537 92.4407 51.4403 92.4355 51.343C92.4303 51.2456 92.3966 51.152 92.3386 51.0736C92.2806 50.9953 92.2008 50.9357 92.1092 50.9024C92.0176 50.869 91.9183 50.8632 91.8235 50.8859C91.7583 50.9014 91.6969 50.93 91.643 50.9699C91.5891 51.0098 91.5439 51.0602 91.5099 51.118C91.476 51.1759 91.4542 51.24 91.4457 51.3065C91.4372 51.373 91.4422 51.4405 91.4604 51.505Z" fill="#E0E0E0"/>
<path d="M56.9862 116.202C74.7034 116.202 89.066 115.383 89.066 114.374C89.066 113.365 74.7034 112.547 56.9862 112.547C39.2691 112.547 24.9065 113.365 24.9065 114.374C24.9065 115.383 39.2691 116.202 56.9862 116.202Z" fill="#E0E0E0"/>
<path d="M56.2207 4.42312L52.9709 4.42709L52.9772 9.52922L56.2269 9.52525L56.2207 4.42312Z" fill="#E0E0E0"/>
<path d="M57.9634 5.95136H51.2725V0.451408C53.6147 -0.130414 55.8524 -0.170196 57.9659 0.451408L57.9634 5.95136Z" fill="#EBEBEB"/>
<path d="M58.0352 0.473789C57.9574 0.524675 57.874 0.566393 57.7866 0.59811C57.5572 0.695064 57.3222 0.778096 57.0829 0.846751C56.7252 0.963973 56.3596 1.05538 55.9889 1.12026C55.5391 1.1939 55.0845 1.2338 54.6288 1.23961C54.1727 1.23931 53.7173 1.20523 53.2662 1.13766C52.8981 1.07895 52.5343 0.995884 52.1772 0.889021C51.9367 0.82132 51.7009 0.738269 51.4711 0.640379C51.3836 0.610862 51.3001 0.570783 51.2224 0.521031C51.2224 0.50114 51.5904 0.652811 52.1996 0.816914C52.5557 0.910757 52.9168 0.984636 53.2812 1.03821C53.7278 1.09882 54.1781 1.12873 54.6288 1.12772C55.0843 1.11843 55.5387 1.07856 55.9889 1.00837C56.352 0.951467 56.7115 0.873427 57.0655 0.774645C57.6672 0.610542 58.0277 0.453898 58.0352 0.473789Z" fill="#E0E0E0"/>
<path d="M53.4829 5.9414C53.4237 5.15719 53.4038 4.37049 53.4233 3.58428C53.4233 2.2814 53.4456 1.22467 53.478 1.22467C53.5103 1.22467 53.5351 2.2814 53.5376 3.58428C53.5401 4.88716 53.5153 5.9414 53.4829 5.9414Z" fill="#E0E0E0"/>
<path d="M54.746 5.98118C54.7136 5.98118 54.6863 4.91948 54.6863 3.61162C54.6863 2.30377 54.7087 1.24207 54.741 1.24207C54.7733 1.24207 54.7982 2.30128 54.8007 3.61162C54.8031 4.92196 54.7882 5.98118 54.746 5.98118Z" fill="#E0E0E0"/>
<path d="M56.0291 5.94884C55.9968 5.94884 55.9719 4.88963 55.9694 3.58177C55.9669 2.27392 55.9918 1.21222 56.0241 1.21222C56.0564 1.21222 56.0813 2.27143 56.0838 3.58177C56.0863 4.89212 56.0614 5.94884 56.0291 5.94884Z" fill="#E0E0E0"/>
<path d="M57.0882 5.94886C57.0583 5.94886 57.031 4.80262 57.0285 3.38785C57.026 1.97308 57.0509 0.826843 57.0832 0.826843C57.1155 0.826843 57.1404 1.97308 57.1429 3.38785C57.1454 4.80262 57.1205 5.94886 57.0882 5.94886Z" fill="#E0E0E0"/>
<path d="M52.2794 5.92152C52.2471 5.92152 52.2197 4.77528 52.2197 3.36051C52.2197 1.94574 52.2421 0.7995 52.2719 0.7995C52.3018 0.7995 52.3316 1.94574 52.3316 3.36051C52.3316 4.77528 52.3092 5.92152 52.2794 5.92152Z" fill="#E0E0E0"/>
<path d="M72.0812 15.2332L70.4551 13.525L73.1031 10.9739L74.7292 12.6821L72.0812 15.2332Z" fill="#E0E0E0"/>
<path d="M74.8087 14.3604L71.4595 10.8421L74.3139 8.09216C75.7228 8.94576 76.8788 10.1593 77.6631 11.608L74.8087 14.3604Z" fill="#EBEBEB"/>
<path d="M36.2223 15.2431L34.4619 16.8095L32.0327 14.0471L33.7931 12.4807L36.2223 15.2431Z" fill="#E0E0E0"/>
<path d="M35.4614 12.4658L31.8387 15.6981L29.2205 12.7144C30.1182 11.3332 31.369 10.2172 32.8432 9.48206L35.4614 12.4658Z" fill="#EBEBEB"/>
<path d="M53.9551 61.1598C68.7473 61.1598 80.7387 49.0915 80.7387 34.2045C80.7387 19.3175 68.7473 7.24927 53.9551 7.24927C39.1628 7.24927 27.1714 19.3175 27.1714 34.2045C27.1714 49.0915 39.1628 61.1598 53.9551 61.1598Z" fill="#EBEBEB"/>
<path d="M54.0234 58.8991C67.6127 58.8849 78.6174 47.7858 78.603 34.1086C78.5887 20.4315 67.5608 9.35548 53.9715 9.36971C40.3823 9.38394 29.3776 20.483 29.3919 34.1602C29.4062 47.8373 40.4341 58.9133 54.0234 58.8991Z" fill="white"/>
<path d="M54.0298 58.9817C40.4142 58.9966 29.3272 47.8624 29.3098 34.1598C29.2924 20.4571 40.357 9.29558 53.9701 9.28315C67.5833 9.27072 78.6727 20.4024 78.6901 34.1026C78.7075 47.8027 67.6429 58.9667 54.0298 58.9817ZM53.9701 9.46217C40.4515 9.47709 29.464 20.5615 29.4789 34.1697C29.4938 47.7779 40.5087 58.8374 54.0298 58.8225C67.5509 58.8076 78.5359 47.7232 78.521 34.1125C78.5061 20.5019 67.4913 9.43482 53.9701 9.46217Z" fill="#E0E0E0"/>
<path d="M52.2496 34.58L41.1702 25.9397L54.1393 31.9394L54.5222 34.2244L52.2496 34.58Z" fill="#EBEBEB"/>
<path d="M41.1702 25.9397L52.737 32.7649L54.1393 31.9394L41.1702 25.9397Z" fill="#E0E0E0"/>
<path d="M54.5273 31.9444C54.9869 31.9404 55.4374 32.0731 55.8215 32.3256C56.2056 32.5781 56.506 32.939 56.6846 33.3626C56.8633 33.7861 56.9121 34.2531 56.8248 34.7044C56.7376 35.1558 56.5182 35.571 56.1946 35.8974C55.8709 36.2238 55.4576 36.4467 55.0071 36.5379C54.5566 36.629 54.0891 36.5842 53.6641 36.4093C53.239 36.2343 52.8755 35.937 52.6197 35.5551C52.3639 35.1731 52.2273 34.7238 52.2273 34.2642C52.2257 33.9608 52.2839 33.66 52.3987 33.3791C52.5134 33.0982 52.6825 32.8427 52.8961 32.6272C53.1097 32.4117 53.3638 32.2405 53.6437 32.1233C53.9236 32.0062 54.2238 31.9453 54.5273 31.9444Z" fill="#FAFAFA"/>
<path d="M54.5272 31.9443C54.3399 31.9647 54.1539 31.9963 53.9703 32.0388C53.4726 32.1742 53.0348 32.4728 52.7271 32.8867C52.5149 33.1697 52.3718 33.4983 52.3093 33.8465C52.2398 34.2458 52.2758 34.6563 52.4138 35.0374C52.4877 35.2422 52.5916 35.435 52.7221 35.6093C52.8547 35.7929 53.0159 35.9541 53.1995 36.0867C53.5859 36.3687 54.0513 36.5218 54.5297 36.5243C55.0081 36.5215 55.4731 36.3665 55.8575 36.0817C56.041 35.9491 56.2022 35.7879 56.3348 35.6043C56.4659 35.4308 56.5691 35.2379 56.6407 35.0325C56.779 34.6514 56.8142 34.2405 56.7426 33.8415C56.665 33.4145 56.4677 33.0184 56.1736 32.6992C55.8796 32.3801 55.5009 32.151 55.0817 32.0388C54.898 31.9967 54.712 31.9652 54.5247 31.9443C54.7151 31.9297 54.9067 31.9465 55.0916 31.9941C55.6072 32.1155 56.0649 32.4116 56.3871 32.832C56.6127 33.1235 56.766 33.4644 56.8346 33.8266C56.9137 34.242 56.8811 34.671 56.7401 35.0698C56.666 35.2857 56.5587 35.4887 56.4219 35.6715C56.2833 35.8624 56.1155 36.0302 55.9246 36.1688C55.5225 36.4692 55.0341 36.6314 54.5322 36.6312C54.03 36.6307 53.5413 36.4695 53.1373 36.1712C52.9464 36.0327 52.7785 35.8649 52.64 35.674C52.5032 35.4912 52.3959 35.2882 52.3218 35.0723C52.1791 34.674 52.1448 34.2449 52.2223 33.829C52.2911 33.4674 52.4435 33.1268 52.6674 32.8345C52.9887 32.4127 53.4466 32.1156 53.9628 31.9941C54.1469 31.9464 54.3376 31.9296 54.5272 31.9443Z" fill="#E0E0E0"/>
<path d="M54.5273 32.5361C54.8691 32.5332 55.2041 32.6318 55.4898 32.8195C55.7754 33.0072 55.9989 33.2755 56.1319 33.5904C56.2649 33.9053 56.3013 34.2526 56.2366 34.5882C56.1719 34.9238 56.009 35.2327 55.7686 35.4756C55.5281 35.7185 55.2209 35.8846 54.8859 35.9526C54.551 36.0207 54.2033 35.9878 53.8871 35.858C53.5709 35.7282 53.3003 35.5075 53.1098 35.2237C52.9192 34.94 52.8172 34.606 52.8167 34.2642C52.8147 33.8083 52.9937 33.3702 53.3145 33.0462C53.6352 32.7222 54.0714 32.5388 54.5273 32.5361Z" fill="#E0E0E0"/>
<path d="M54.4155 33.5804C54.4155 33.5804 53.9182 18.6619 54.6095 15.5067C54.6095 15.5092 55.7656 24.5548 54.4155 33.5804Z" fill="#E0E0E0"/>
<path d="M53.1024 57.0273H53.0726L53.1347 55.1675H53.1894L53.1024 57.0273ZM62.332 55.5081L61.6383 53.7801L61.6905 53.7602L62.3569 55.5007L62.332 55.5081ZM44.0195 54.6404L43.9922 54.6255L44.8127 52.9571L44.8575 52.9795L44.0195 54.6404ZM70.1617 50.3265L68.8414 49.0236L68.8762 48.9888L70.1841 50.3041L70.1617 50.3265ZM36.6946 48.7476L36.6672 48.7128L38.0994 47.5342L38.1242 47.564L36.6946 48.7476ZM75.2514 42.3873L73.5109 41.7409L73.5283 41.6911L75.2564 42.36L75.2514 42.3873ZM32.3682 40.3609V40.3136L34.1559 39.8338V39.8661L32.3682 40.3609ZM74.8163 33.1503V33.1204L76.6612 33.0061V33.0583L74.8163 33.1503ZM74.8163 33.118V33.0831L76.6612 32.9688V33.011L74.8163 33.118ZM33.6437 31.2059L31.8137 30.9299V30.8876L33.6412 31.1661L33.6437 31.2059ZM72.5412 24.7412L72.5238 24.7089L74.1673 23.8511L74.1872 23.8884L72.5412 24.7412ZM36.6772 23.0828L35.1207 22.0882L35.1405 22.0559L36.6995 23.0505L36.6772 23.0828ZM67.091 18.0577L67.0587 18.0304L68.2124 16.5758L68.2447 16.6007L67.091 18.0577ZM42.7241 16.9239L41.7097 15.3674L41.737 15.35L42.7664 16.8966L42.7241 16.9239ZM59.3831 14.1565H59.3508L59.8108 12.3514H59.858L59.3831 14.1565ZM50.7428 13.7612L50.4395 11.9237H50.4817L50.7826 13.7612H50.7428Z" fill="#E0E0E0"/>
<path d="M53.1026 57.0895H53.0702C53.062 57.0895 53.0538 57.0878 53.0462 57.0845C53.0386 57.0812 53.0318 57.0764 53.0262 57.0703C53.0206 57.0642 53.0163 57.057 53.0136 57.0492C53.0109 57.0414 53.0099 57.0331 53.0106 57.0248L53.0727 55.165C53.0752 55.1486 53.0821 55.1331 53.0926 55.1202C53.1064 55.1105 53.1229 55.1053 53.1398 55.1053H53.1921C53.2001 55.1055 53.208 55.1073 53.2153 55.1108C53.2226 55.1142 53.2291 55.1191 53.2343 55.1252C53.2402 55.1311 53.2447 55.1381 53.2477 55.1458C53.2507 55.1535 53.2521 55.1617 53.2517 55.17L53.1647 57.0298C53.1635 57.0457 53.1565 57.0605 53.145 57.0715C53.1336 57.0825 53.1184 57.0889 53.1026 57.0895ZM62.3321 55.5703C62.3197 55.5701 62.3076 55.5662 62.2974 55.5592C62.2873 55.5521 62.2794 55.5421 62.2749 55.5305L61.5812 53.8049C61.5749 53.789 61.5749 53.7712 61.5812 53.7552C61.5838 53.7477 61.5881 53.7409 61.5937 53.7353C61.5993 53.7297 61.6061 53.7255 61.6136 53.7229L61.6658 53.703C61.6731 53.6993 61.6812 53.6973 61.6894 53.6973C61.6976 53.6973 61.7057 53.6993 61.713 53.703C61.728 53.7106 61.7402 53.7228 61.7478 53.7378L62.4142 55.4783C62.4198 55.4938 62.419 55.5109 62.412 55.5258C62.405 55.5407 62.3924 55.5522 62.3769 55.5578H62.352L62.3321 55.5703ZM44.0197 54.715C44.0099 54.7172 43.9997 54.7172 43.9898 54.715L43.9625 54.7C43.9482 54.6926 43.9373 54.6799 43.9322 54.6646C43.9271 54.6492 43.9281 54.6325 43.9351 54.618L44.7557 52.9496C44.7635 52.9345 44.7769 52.9229 44.7929 52.9173C44.8081 52.9111 44.8251 52.9111 44.8402 52.9173L44.8849 52.9397C44.8926 52.9431 44.8995 52.948 44.9051 52.9543C44.9107 52.9605 44.9149 52.9678 44.9175 52.9758C44.9201 52.9838 44.9209 52.9922 44.92 53.0006C44.9192 53.0089 44.9165 53.0169 44.9123 53.0242L44.0744 54.6826C44.0675 54.6976 44.055 54.7092 44.0396 54.715H44.0197ZM70.1619 50.3886C70.154 50.3889 70.1461 50.3875 70.1388 50.3845C70.1315 50.3815 70.125 50.377 70.1196 50.3712L68.7968 49.0683C68.7908 49.0625 68.786 49.0556 68.7827 49.0479C68.7795 49.0402 68.7778 49.0319 68.7778 49.0235C68.7778 49.0152 68.7795 49.0069 68.7827 48.9992C68.786 48.9915 68.7908 48.9846 68.7968 48.9788L68.8316 48.944C68.8375 48.9381 68.8445 48.9336 68.8522 48.9306C68.8599 48.9276 68.8681 48.9262 68.8764 48.9266C68.8843 48.9263 68.8921 48.9276 68.8994 48.9307C68.9067 48.9337 68.9133 48.9382 68.9186 48.944L70.229 50.2593C70.2349 50.2649 70.2397 50.2716 70.2429 50.2791C70.2462 50.2866 70.2478 50.2947 70.2478 50.3028C70.2478 50.311 70.2462 50.319 70.2429 50.3265C70.2397 50.334 70.2349 50.3407 70.229 50.3463L70.2066 50.3712C70.1941 50.3819 70.1783 50.3881 70.1619 50.3886ZM36.6947 48.8072C36.6783 48.8055 36.6631 48.7974 36.6524 48.7849L36.6251 48.75C36.6137 48.7384 36.6073 48.7228 36.6073 48.7065C36.6073 48.6903 36.6137 48.6746 36.6251 48.663L38.0597 47.4845C38.0668 47.4814 38.0744 47.4799 38.0821 47.4799C38.0898 47.4799 38.0974 47.4814 38.1045 47.4845C38.1127 47.4851 38.1207 47.4874 38.128 47.4912C38.1352 47.4951 38.1416 47.5004 38.1468 47.5068L38.1716 47.5367C38.183 47.5483 38.1894 47.5639 38.1894 47.5802C38.1894 47.5965 38.183 47.6121 38.1716 47.6237L36.7419 48.8047C36.7347 48.8085 36.7267 48.8107 36.7186 48.8111C36.7104 48.8115 36.7023 48.8102 36.6947 48.8072ZM75.2516 42.447H75.2292L73.4887 41.798C73.4736 41.7919 73.4616 41.7802 73.4551 41.7653C73.4486 41.7505 73.4481 41.7336 73.4539 41.7185L73.4713 41.6712C73.4733 41.6632 73.4774 41.6558 73.483 41.6497C73.4887 41.6436 73.4957 41.639 73.5036 41.6364C73.5187 41.6302 73.5357 41.6302 73.5508 41.6364L75.2913 42.3028C75.3068 42.3084 75.3195 42.3199 75.3265 42.3348C75.3334 42.3497 75.3342 42.3668 75.3286 42.3823L75.3162 42.4122C75.3108 42.4243 75.3016 42.4344 75.2899 42.4407C75.2782 42.447 75.2647 42.4492 75.2516 42.447ZM32.3683 40.423H32.3385C32.3241 40.4149 32.3135 40.4015 32.3086 40.3857L32.2962 40.3385C32.293 40.331 32.2913 40.323 32.2913 40.3149C32.2913 40.3068 32.293 40.2987 32.2962 40.2913C32.3049 40.2774 32.3181 40.2668 32.3335 40.2614L34.1212 39.7815C34.1293 39.7793 34.1376 39.7787 34.1459 39.7797C34.1541 39.7808 34.1621 39.7835 34.1692 39.7876C34.1764 39.7918 34.1827 39.7974 34.1877 39.804C34.1927 39.8107 34.1963 39.8182 34.1983 39.8263V39.8561C34.2029 39.872 34.2011 39.889 34.1932 39.9034C34.1852 39.9179 34.1719 39.9286 34.1561 39.9332L32.3733 40.4305L32.3683 40.423ZM74.8164 33.2124C74.8004 33.2124 74.7849 33.2062 74.7733 33.1951C74.7617 33.184 74.7549 33.1688 74.7543 33.1527V33.0831C74.7536 33.075 74.7545 33.0667 74.757 33.0589C74.7595 33.0511 74.7636 33.0439 74.7689 33.0377C74.7742 33.0314 74.7807 33.0263 74.788 33.0226C74.7953 33.0189 74.8033 33.0166 74.8115 33.016L76.6589 32.9016C76.6671 32.9009 76.6754 32.902 76.6832 32.9047C76.6911 32.9073 76.6982 32.9116 76.7043 32.9172C76.7104 32.9228 76.7152 32.9297 76.7185 32.9372C76.7219 32.9448 76.7235 32.953 76.7235 32.9613V33.0583C76.7249 33.0664 76.7243 33.0747 76.7217 33.0825C76.7191 33.0903 76.7146 33.0974 76.7086 33.103C76.7033 33.1091 76.6969 33.1141 76.6896 33.1175C76.6823 33.1209 76.6744 33.1228 76.6663 33.1229L74.8189 33.2149L74.8164 33.2124ZM33.6439 31.268L31.8139 30.9896C31.8057 30.9887 31.7979 30.9861 31.7908 30.9821C31.7837 30.978 31.7776 30.9726 31.7727 30.9661C31.7678 30.9595 31.7643 30.9521 31.7624 30.9441C31.7605 30.9362 31.7602 30.928 31.7616 30.9199V30.8777C31.7627 30.8697 31.7655 30.862 31.7698 30.8551C31.7741 30.8483 31.7798 30.8424 31.7865 30.8379C31.7928 30.8329 31.7999 30.8293 31.8076 30.8271C31.8153 30.825 31.8233 30.8244 31.8313 30.8255L33.6613 31.1039C33.6695 31.1051 33.6774 31.108 33.6844 31.1123C33.6915 31.1166 33.6977 31.1223 33.7026 31.129C33.7074 31.1357 33.7109 31.1433 33.7128 31.1514C33.7147 31.1595 33.7149 31.1679 33.7135 31.176V31.2158C33.7102 31.2317 33.7014 31.2458 33.6886 31.2556C33.6788 31.2644 33.6667 31.2704 33.6538 31.273L33.6439 31.268ZM72.5414 24.8034H72.524C72.516 24.8014 72.5085 24.7977 72.502 24.7925C72.4956 24.7874 72.4904 24.7809 72.4867 24.7735L72.4693 24.7387C72.4653 24.7315 72.4628 24.7236 72.462 24.7155C72.4611 24.7074 72.4618 24.6991 72.4641 24.6913C72.4664 24.6834 72.4703 24.6761 72.4754 24.6697C72.4806 24.6634 72.4869 24.6581 72.4941 24.6542L74.1376 23.7989C74.1528 23.7926 74.1697 23.7926 74.1849 23.7989C74.1929 23.8008 74.2004 23.8045 74.2068 23.8097C74.2132 23.8148 74.2185 23.8213 74.2222 23.8287L74.2421 23.8685C74.2492 23.8834 74.2503 23.9005 74.2452 23.9162C74.2401 23.9319 74.2292 23.9451 74.2147 23.953L72.5712 24.8058L72.5414 24.8034ZM36.6773 23.1449C36.666 23.1485 36.6538 23.1485 36.6425 23.1449L35.1034 22.1429C35.0897 22.1342 35.0799 22.1205 35.0762 22.1047C35.0725 22.0889 35.0751 22.0723 35.0835 22.0584L35.1059 22.026C35.1096 22.0189 35.1149 22.0127 35.1213 22.008C35.1278 22.0033 35.1353 22.0001 35.1432 21.9987C35.1506 21.9955 35.1587 21.9938 35.1668 21.9938C35.1749 21.9938 35.1829 21.9955 35.1904 21.9987L36.7519 22.9932C36.7657 23.0024 36.7756 23.0166 36.7793 23.0328C36.783 23.049 36.7803 23.066 36.7718 23.0803L36.7469 23.1176C36.7369 23.1307 36.723 23.1403 36.7071 23.1449H36.6773ZM67.0911 18.1199C67.0765 18.1197 67.0624 18.1144 67.0513 18.105L67.0215 18.0801C67.0156 18.0745 67.0108 18.0678 67.0076 18.0603C67.0043 18.0528 67.0027 18.0447 67.0027 18.0366C67.0027 18.0284 67.0043 18.0204 67.0076 18.0129C67.0108 18.0054 67.0156 17.9986 67.0215 17.9931L68.1727 16.536C68.1834 16.5234 68.1986 16.5154 68.215 16.5136C68.2221 16.5106 68.2297 16.5091 68.2374 16.5091C68.2451 16.5091 68.2527 16.5106 68.2598 16.5136L68.2921 16.541C68.3035 16.5526 68.3098 16.5682 68.3098 16.5845C68.3098 16.6008 68.3035 16.6164 68.2921 16.628L67.1384 18.0826C67.1333 18.089 67.1269 18.0943 67.1196 18.0982C67.1123 18.102 67.1043 18.1043 67.0961 18.105L67.0911 18.1199ZM42.7242 16.9861H42.7118C42.6958 16.9818 42.6818 16.9721 42.672 16.9587L41.6576 15.4022C41.6488 15.3882 41.6458 15.3714 41.649 15.3552C41.6522 15.3391 41.6615 15.3247 41.675 15.3152L41.7023 15.2978C41.7092 15.2931 41.7169 15.2899 41.725 15.2883C41.733 15.2866 41.7414 15.2866 41.7495 15.2882C41.7576 15.2898 41.7653 15.2931 41.7721 15.2977C41.779 15.3023 41.7848 15.3083 41.7894 15.3152L42.8187 16.8642C42.8271 16.8781 42.8297 16.8948 42.826 16.9106C42.8223 16.9263 42.8125 16.9401 42.7988 16.9488L42.7591 16.9761C42.751 16.9817 42.7415 16.9852 42.7317 16.9861H42.7242ZM59.3832 14.2187H59.3683H59.3335C59.3176 14.214 59.3041 14.2034 59.2957 14.1891C59.2874 14.1747 59.2849 14.1577 59.2888 14.1416L59.7512 12.339C59.7561 12.3232 59.7667 12.3098 59.7811 12.3017C59.7884 12.2979 59.7965 12.296 59.8047 12.296C59.8129 12.296 59.821 12.2979 59.8283 12.3017L59.8731 12.3141C59.8889 12.3189 59.9022 12.3296 59.9104 12.3439C59.9153 12.3584 59.9153 12.3742 59.9104 12.3887L59.4553 14.1864C59.4494 14.1974 59.4403 14.2063 59.4293 14.2121C59.4182 14.2179 59.4056 14.2202 59.3932 14.2187H59.3832ZM50.7429 13.8233C50.7296 13.8226 50.7167 13.8183 50.7056 13.8109C50.6925 13.8014 50.6836 13.7871 50.6808 13.7711L50.3799 11.9337C50.3769 11.9266 50.3754 11.919 50.3754 11.9113C50.3754 11.9036 50.3769 11.896 50.3799 11.8889C50.3897 11.8755 50.4037 11.8658 50.4197 11.8616H50.462C50.4772 11.8558 50.494 11.8558 50.5092 11.8616C50.522 11.8714 50.5309 11.8855 50.5341 11.9013L50.8349 13.7388C50.8364 13.747 50.8361 13.7554 50.8342 13.7634C50.8324 13.7715 50.8289 13.7791 50.824 13.7859C50.8192 13.7926 50.813 13.7983 50.8059 13.8026C50.7988 13.8069 50.7909 13.8097 50.7827 13.8109H50.7429V13.8233Z" fill="#E0E0E0"/>
<path d="M108 110.846C108 110.881 83.8221 110.91 54.0025 110.91C24.1829 110.91 0 110.881 0 110.846C0 110.811 24.1729 110.781 54.0025 110.781C83.832 110.781 108 110.811 108 110.846Z" fill="#263238"/>
<path d="M87.2459 104.548C87.2285 103.389 88.0415 102.325 89.0809 101.813C90.1202 101.3 91.3435 101.286 92.4773 101.507C92.5097 101.508 92.5412 101.517 92.5697 101.533C92.5981 101.548 92.6226 101.57 92.6414 101.596C92.6508 101.624 92.6542 101.654 92.6512 101.683C92.6482 101.712 92.6389 101.74 92.624 101.765C92.2141 102.764 91.4488 103.575 90.4758 104.043C89.511 104.501 88.2678 104.856 87.2434 104.54" fill="#455A64"/>
<path d="M90.5109 102.469C90.4733 102.473 90.4365 102.482 90.4015 102.496C90.3343 102.519 90.2299 102.546 90.1031 102.596C89.7387 102.734 89.3854 102.901 89.0464 103.093C87.9188 103.724 86.9554 104.61 86.234 105.682C85.5127 106.754 85.0536 107.98 84.894 109.262C84.8443 109.643 84.8235 110.027 84.8319 110.411C84.8319 110.547 84.8468 110.659 84.8518 110.726C84.8503 110.764 84.8562 110.801 84.8692 110.836C84.8776 110.694 84.8776 110.552 84.8692 110.411C84.88 110.025 84.9132 109.641 84.9686 109.26C85.1506 107.999 85.6145 106.796 86.3256 105.74C87.0368 104.683 87.9769 103.801 89.0762 103.158C89.408 102.962 89.7518 102.786 90.1056 102.633C90.2442 102.588 90.3797 102.533 90.5109 102.469Z" fill="#263238"/>
<path d="M86.5894 106.644C87.0245 105.788 88.0315 105.326 88.9887 105.356C89.9512 105.429 90.8644 105.811 91.592 106.445C91.6343 106.48 91.679 106.519 91.6766 106.574C91.6725 106.598 91.6636 106.621 91.6503 106.641C91.637 106.661 91.6197 106.678 91.5995 106.691C90.913 107.264 90.0386 107.561 89.1454 107.526C88.2627 107.489 87.2159 107.278 86.5894 106.644Z" fill="#455A64"/>
<path d="M85.207 106.326C84.5233 105.843 84.2473 104.911 84.394 104.088C84.5795 103.262 85.0259 102.519 85.667 101.967C85.7018 101.937 85.7441 101.902 85.7889 101.91C85.8336 101.917 85.8585 101.957 85.8809 101.992C86.2917 102.66 86.4397 103.458 86.2961 104.229C86.1519 104.99 85.8286 105.871 85.207 106.333" fill="#455A64"/>
<path d="M89.0708 106.298C88.8875 106.24 88.6964 106.209 88.5039 106.209C87.5696 106.161 86.6457 106.423 85.8758 106.955C85.7116 107.055 85.5647 107.181 85.4407 107.328C85.4655 107.367 86.1344 106.776 87.1638 106.487C88.1931 106.199 89.0708 106.345 89.0708 106.298Z" fill="#263238"/>
<path d="M85.3536 103.988C85.2878 104.162 85.2468 104.343 85.2318 104.528C85.1669 104.968 85.1329 105.411 85.1299 105.856C85.1245 106.3 85.1494 106.745 85.2044 107.186C85.2168 107.37 85.2536 107.551 85.3138 107.725C85.3536 107.725 85.2467 106.887 85.2591 105.856C85.2716 104.824 85.3909 103.996 85.3536 103.988Z" fill="#263238"/>
<path d="M101.207 64.3499C101.207 64.3871 97.7509 64.417 93.4867 64.417C89.2225 64.417 85.7788 64.3871 85.7788 64.3499C85.7788 64.3126 89.2349 64.2852 93.4867 64.2852C97.7385 64.2852 101.207 64.315 101.207 64.3499Z" fill="#263238"/>
<path d="M98.1164 67.0824C98.1164 67.1197 94.6603 67.1471 90.3961 67.1471C86.1319 67.1471 82.6882 67.1197 82.6882 67.0824C82.6882 67.0451 86.1444 67.0178 90.3961 67.0178C94.6479 67.0178 98.1164 67.0476 98.1164 67.0824Z" fill="#263238"/>
<path d="M58.5256 97.4068C58.5256 97.444 54.8606 97.4714 50.3403 97.4714C45.82 97.4714 42.155 97.444 42.155 97.4068C42.155 97.3695 45.8175 97.3421 50.3403 97.3421C54.8631 97.3421 58.5256 97.3719 58.5256 97.4068Z" fill="#263238"/>
<path d="M55.2434 100.306C55.2434 100.341 51.5784 100.371 47.0581 100.371C42.5378 100.371 38.8704 100.341 38.8704 100.306C38.8704 100.271 42.5353 100.241 47.0581 100.241C51.5809 100.241 55.2434 100.269 55.2434 100.306Z" fill="#263238"/>
<path d="M84.8141 23.6969L81.2013 18.7713L79.3688 24.7711L74.5825 24.2986L77.5562 30.0075L72.2651 32.6605L78.5085 33.016L79.8412 38.5135L84.6276 34.4382L89.4761 38.2972L89.4587 32.842L95.0482 32.3298L91.3658 29.3162L93.7801 24.9476L89.23 25.4996L89.0534 19.4824L84.8141 23.6969Z" fill="white"/>
<path d="M84.8117 23.6969L85.0926 23.411L85.9107 22.5855L89.0311 19.46L89.0833 19.4078V19.4824C89.1356 21.1458 89.1977 23.1772 89.2698 25.4971L89.2226 25.4573L93.7727 24.9003H93.8672L93.82 24.9849C93.074 26.3549 92.2585 27.8219 91.4106 29.356L91.3982 29.2864L95.0831 32.2974L95.195 32.3869H95.0507L89.4613 32.9041L89.5185 32.8419C89.5185 34.5824 89.5309 36.4149 89.5384 38.2971V38.4289L89.4339 38.3469L84.5829 34.4904H84.665L83.0911 35.8331C82.007 36.7531 80.937 37.6648 79.8811 38.5682L79.8015 38.6353L79.7767 38.5334C79.3225 36.6636 78.8783 34.8311 78.444 33.0359L78.5012 33.0856L72.2578 32.7251H72.0315L72.2354 32.6231L77.5265 29.9751L77.5016 30.0497L74.5353 24.3309L74.4906 24.2489H74.585L79.3615 24.7263L79.3167 24.7586C80.0344 22.4197 80.6494 20.4206 81.1616 18.7614L81.1815 18.7017L81.2188 18.7514L83.8793 22.4139L84.568 23.3662C84.7247 23.5825 84.8017 23.6969 84.8017 23.6969C84.8017 23.6969 84.7222 23.595 84.5655 23.3836L83.8693 22.4462L81.1765 18.7912H81.2337C80.7364 20.4488 80.1289 22.4495 79.4112 24.7934L79.3987 24.8282H79.3615L74.5751 24.3608L74.6248 24.2862C75.5498 26.0615 76.5468 27.9686 77.6085 30.0049L77.6359 30.0572L77.5837 30.082L72.2951 32.7375L72.2702 32.6231L78.5136 32.9787H78.5608V33.0234C78.9968 34.817 79.4418 36.6495 79.896 38.5209L79.7916 38.4861L83.0016 35.7511L84.578 34.4109L84.6177 34.3761L84.66 34.4084L89.5085 38.2673L89.4041 38.317C89.4041 36.4373 89.4041 34.5874 89.3892 32.8618V32.8046H89.4464L95.0358 32.2949L95.0035 32.3994L91.3311 29.3535L91.2963 29.3237L91.3186 29.2839L93.7354 24.9177L93.7852 24.9898L89.235 25.5344H89.1878V25.4846C89.1256 23.1648 89.0684 21.1309 89.0237 19.47L89.0784 19.4899L85.9181 22.6054C85.5601 22.9584 85.2841 23.227 85.0951 23.411C84.9062 23.595 84.8117 23.6969 84.8117 23.6969Z" fill="#263238"/>
<path d="M86.1148 26.4941L85.7468 29.3535C85.7323 29.4665 85.677 29.5702 85.5914 29.6453C85.5058 29.7204 85.3957 29.7616 85.2819 29.7613C85.1625 29.7602 85.0482 29.7134 84.9622 29.6307C84.8762 29.5479 84.8251 29.4354 84.8194 29.3162L84.6876 26.4121C84.6853 26.3602 84.6941 26.3085 84.7134 26.2603C84.7326 26.2121 84.7619 26.1685 84.7993 26.1326C84.8367 26.0966 84.8814 26.069 84.9303 26.0516C84.9792 26.0342 85.0312 26.0274 85.083 26.0317L85.7816 26.0864C85.8306 26.0904 85.8783 26.1042 85.9218 26.1271C85.9654 26.1499 86.0038 26.1813 86.0349 26.2194C86.066 26.2575 86.0892 26.3014 86.1029 26.3486C86.1166 26.3958 86.1207 26.4453 86.1148 26.4941Z" fill="#263238"/>
<path d="M84.4186 31.3203C84.4538 31.4545 84.5281 31.5753 84.632 31.6673C84.736 31.7594 84.8649 31.8185 85.0024 31.8371C85.14 31.8558 85.28 31.8333 85.4047 31.7723C85.5294 31.7114 85.6332 31.6148 85.703 31.4948C85.7727 31.3748 85.8053 31.2368 85.7966 31.0982C85.7879 30.9597 85.7382 30.8269 85.6539 30.7166C85.5696 30.6063 85.4545 30.5235 85.3231 30.4787C85.1917 30.4339 85.05 30.4291 84.9159 30.4649C84.8268 30.488 84.7432 30.5286 84.6699 30.5842C84.5966 30.6398 84.5351 30.7094 84.4889 30.7889C84.4426 30.8684 84.4126 30.9563 84.4005 31.0476C84.3885 31.1388 84.3946 31.2314 84.4186 31.3203Z" fill="#263238"/>
<path d="M83.6975 26.3375L83.3394 29.1919C83.3248 29.3064 83.2685 29.4114 83.1814 29.4871C83.0943 29.5628 82.9824 29.6037 82.867 29.6022C82.7474 29.6011 82.6328 29.5544 82.5464 29.4717C82.46 29.3891 82.4084 29.2765 82.402 29.1571L82.2703 26.253C82.2684 26.2012 82.2774 26.1497 82.2968 26.1016C82.3162 26.0536 82.3455 26.0103 82.3828 25.9743C82.4202 25.9384 82.4646 25.9108 82.5134 25.8933C82.5621 25.8757 82.614 25.8687 82.6656 25.8726L83.3643 25.9273C83.4135 25.9312 83.4614 25.9451 83.5052 25.9682C83.5489 25.9912 83.5875 26.0228 83.6186 26.0612C83.6497 26.0995 83.6728 26.1438 83.6863 26.1913C83.6999 26.2388 83.7037 26.2885 83.6975 26.3375Z" fill="#263238"/>
<path d="M82.0023 31.1636C82.0375 31.2979 82.1118 31.4187 82.2157 31.5107C82.3196 31.6027 82.4485 31.6618 82.5861 31.6805C82.7236 31.6992 82.8636 31.6766 82.9883 31.6157C83.1131 31.5547 83.2169 31.4581 83.2866 31.3381C83.3564 31.2181 83.389 31.0801 83.3803 30.9416C83.3715 30.803 83.3219 30.6702 83.2376 30.5599C83.1533 30.4496 83.0381 30.3669 82.9068 30.3221C82.7754 30.2773 82.6337 30.2725 82.4995 30.3083C82.4107 30.3317 82.3273 30.3724 82.2542 30.4281C82.181 30.4838 82.1196 30.5533 82.0734 30.6328C82.0272 30.7122 81.9972 30.8 81.985 30.8911C81.9727 30.9822 81.9786 31.0748 82.0023 31.1636Z" fill="#263238"/>
<path d="M61.9568 43.5659L63.9957 31.5938C64.5999 28.6324 63.3791 25.8128 60.4028 25.2907L60.1243 25.2584C58.7754 25.1024 57.4172 25.4599 56.3198 26.2597C55.2225 27.0594 54.4663 28.2429 54.2017 29.5748C53.7044 32.1433 53.1624 34.9902 53.0206 36.3826C52.7322 39.2693 55.5618 40.0451 55.5618 40.0451C55.5618 40.0451 55.3131 41.7856 55.1714 42.631L56.6334 44.2869L61.9568 43.5659Z" fill="#FFBF9D"/>
<path d="M55.5617 40.0451C56.8925 40.1951 58.2384 39.9613 59.4405 39.3713C59.4405 39.3713 58.2893 41.4325 55.4424 40.8408L55.5617 40.0451Z" fill="#FF9A6C"/>
<path d="M54.7462 32.3521C54.7332 32.4593 54.7623 32.5672 54.8271 32.6534C54.892 32.7396 54.9878 32.7974 55.0943 32.8146C55.1462 32.8246 55.1997 32.8242 55.2515 32.8133C55.3033 32.8024 55.3524 32.7813 55.3959 32.7512C55.4394 32.7211 55.4765 32.6826 55.505 32.638C55.5335 32.5934 55.5528 32.5435 55.5617 32.4914C55.5759 32.3843 55.5473 32.276 55.4822 32.1899C55.417 32.1038 55.3205 32.0468 55.2136 32.0314C55.1618 32.021 55.1084 32.0211 55.0566 32.0317C55.0049 32.0422 54.9557 32.0631 54.9121 32.093C54.8686 32.1229 54.8314 32.1613 54.8029 32.2058C54.7744 32.2503 54.7551 32.3 54.7462 32.3521Z" fill="#263238"/>
<path d="M54.679 30.9175C54.7238 30.9771 55.0619 30.7832 55.5045 30.8354C55.9471 30.8876 56.2504 31.1462 56.3002 31.0841C56.3499 31.0219 56.2852 30.9597 56.1559 30.8354C55.9797 30.6809 55.76 30.5845 55.5269 30.5594C55.2961 30.5323 55.0627 30.5793 54.8605 30.6937C54.7138 30.7981 54.6566 30.8901 54.679 30.9175Z" fill="#263238"/>
<path d="M58.7245 32.7499C58.7115 32.8571 58.7405 32.965 58.8054 33.0512C58.8703 33.1374 58.966 33.1952 59.0725 33.2124C59.1245 33.2224 59.178 33.222 59.2298 33.2111C59.2816 33.2002 59.3307 33.1791 59.3742 33.149C59.4177 33.1189 59.4548 33.0804 59.4833 33.0358C59.5117 32.9912 59.531 32.9413 59.54 32.8892C59.5535 32.7822 59.5247 32.6742 59.4596 32.5883C59.3946 32.5023 59.2985 32.4452 59.1919 32.4292C59.1401 32.4184 59.0866 32.4183 59.0346 32.4287C58.9827 32.4391 58.9335 32.46 58.8898 32.4899C58.8461 32.5199 58.809 32.5584 58.7806 32.603C58.7522 32.6477 58.7331 32.6977 58.7245 32.7499Z" fill="#263238"/>
<path d="M59.0056 31.5217C59.0503 31.5813 59.391 31.3874 59.8311 31.4396C60.2712 31.4918 60.577 31.7504 60.6292 31.7032C60.6814 31.6559 60.6143 31.5788 60.485 31.4545C60.3084 31.3 60.089 31.2029 59.8559 31.176C59.6252 31.1486 59.3917 31.1956 59.1896 31.3103C59.0429 31.4023 58.9733 31.4943 59.0056 31.5217Z" fill="#263238"/>
<path d="M57.0236 34.7391C56.7985 34.6404 56.5622 34.5694 56.32 34.5278C56.2081 34.5029 56.1037 34.4681 56.0937 34.3885C56.0977 34.2708 56.1376 34.1572 56.2081 34.0628L56.6432 33.2398C57.2474 32.0687 57.7 31.099 57.6527 31.0741C57.6055 31.0493 57.0759 31.9817 56.4692 33.1528L56.049 33.9832C55.9629 34.1111 55.9242 34.265 55.9396 34.4184C55.9511 34.4602 55.9721 34.4988 56.001 34.5312C56.0299 34.5635 56.0659 34.5887 56.1062 34.6048C56.1666 34.63 56.2302 34.6467 56.2951 34.6546C56.533 34.7159 56.7781 34.7443 57.0236 34.7391Z" fill="#263238"/>
<path d="M59.3111 30.0995C59.3558 30.2188 59.8084 30.1616 60.3231 30.2238C60.8377 30.286 61.2704 30.4302 61.34 30.3208C61.3698 30.2685 61.2977 30.1542 61.1262 30.0373C60.8987 29.8933 60.6414 29.8031 60.3737 29.7738C60.1061 29.7445 59.8353 29.7768 59.5821 29.8682C59.3906 29.9453 59.2937 30.0423 59.3111 30.0995Z" fill="#263238"/>
<path d="M54.8504 29.4977C54.9275 29.6121 55.3029 29.5649 55.7331 29.627C56.1632 29.6892 56.5188 29.8185 56.6207 29.7265C56.6655 29.6817 56.6207 29.5723 56.479 29.453C56.277 29.3016 56.0385 29.2063 55.7878 29.177C55.5395 29.1404 55.2859 29.1722 55.0543 29.269C54.8852 29.3535 54.8181 29.443 54.8504 29.4977Z" fill="#263238"/>
<path d="M63.5231 33.6997C63.5753 33.6848 65.5719 33.3442 65.281 35.306C64.9901 37.2678 63.0805 36.5716 63.083 36.5144C63.0855 36.4572 63.5231 33.6997 63.5231 33.6997Z" fill="#FFBF9D"/>
<path d="M63.7941 35.8605C63.7941 35.8605 63.824 35.8878 63.8787 35.9251C63.9536 35.9691 64.042 35.9842 64.1273 35.9674C64.3461 35.9227 64.5699 35.6193 64.6246 35.2662C64.6539 35.1009 64.6463 34.931 64.6022 34.769C64.5928 34.7051 64.568 34.6446 64.5299 34.5926C64.4917 34.5406 64.4414 34.4987 64.3834 34.4706C64.3457 34.4542 64.3035 34.4514 64.2641 34.4627C64.2246 34.4741 64.1903 34.4988 64.1671 34.5327C64.1323 34.585 64.1397 34.6247 64.1298 34.6272C64.1198 34.6297 64.0925 34.5874 64.1298 34.5104C64.1459 34.4624 64.1797 34.4224 64.2243 34.3985C64.2537 34.3815 64.2864 34.3708 64.3202 34.3669C64.354 34.3631 64.3882 34.3662 64.4207 34.3761C64.4987 34.4048 64.5682 34.4527 64.6229 34.5152C64.6777 34.5778 64.7158 34.653 64.734 34.7341C64.7921 34.9165 64.8049 35.1102 64.7713 35.2986C64.6992 35.6914 64.4431 36.0445 64.1472 36.0718C64.092 36.0791 64.0359 36.074 63.983 36.0568C63.9301 36.0396 63.8817 36.0107 63.8414 35.9724C63.7891 35.9077 63.7867 35.863 63.7941 35.8605Z" fill="#FF9A6C"/>
<path d="M50.6632 26.3698C50.7105 26.2578 50.7997 26.1686 50.9118 26.1212C51.156 26.0549 51.4135 26.0549 51.6577 26.1212C52.2848 26.1995 52.9215 26.1349 53.5201 25.9322C53.3406 25.8082 53.1812 25.6572 53.0476 25.4847C52.9041 25.3082 52.8117 25.0957 52.7806 24.8704C52.7495 24.645 52.7808 24.4154 52.8711 24.2067C52.8867 24.1672 52.9112 24.1318 52.9427 24.1034C52.9742 24.0749 53.0118 24.0541 53.0526 24.0425C53.1869 24.0202 53.2789 24.1619 53.3535 24.2763C53.4447 24.446 53.5798 24.5881 53.7447 24.6879C53.9096 24.7876 54.0982 24.8412 54.2909 24.8432C54.5554 24.8657 54.8216 24.8275 55.0691 24.7313L55.0989 24.7089C55.2158 24.6169 55.3302 24.5324 55.4421 24.4603C56.2874 23.8362 56.9961 23.4209 57.6798 23.2544C58.6943 23.0057 60.3204 23.0853 61.2802 23.503C62.2399 23.9207 63.0207 24.8531 63.0207 25.8949C63.6497 25.5046 64.4901 25.6314 65.1341 26.0043H65.1515C65.8726 26.3872 66.1859 27.2475 66.2978 28.0606L66.3127 28.1949C66.5096 28.6422 66.8105 29.0361 67.1904 29.3436C67.2575 29.3958 67.3346 29.4604 67.3296 29.5475C67.3246 29.6345 67.2451 29.6917 67.1705 29.7315C66.9679 29.8329 66.7455 29.8889 66.5191 29.8956C66.5603 30.0906 66.6177 30.2819 66.6906 30.4674C66.7553 30.6241 66.8323 30.8131 66.7354 30.9647C66.6928 31.0149 66.6361 31.051 66.5726 31.0683C66.5092 31.0856 66.4419 31.0833 66.3798 31.0617C66.2561 31.015 66.1435 30.943 66.0491 30.8504L66.2132 31.4943C65.9306 31.5015 65.6504 31.4419 65.3952 31.3203C65.1267 32.0215 64.8109 33.3442 64.5523 33.8067C64.0302 33.7396 63.9108 33.665 63.6348 33.7147C63.2793 33.7769 63.3215 34.3985 62.9038 34.1623C62.69 34.0429 62.4687 33.1379 62.4289 32.8967C62.1512 31.2959 62.2216 29.6541 62.6353 28.083C62.3694 27.6993 62.0316 27.3708 61.6407 27.1158L61.6705 27.1531C60.9072 26.7552 60.0395 26.3499 59.2239 26.6135C58.5899 26.8199 58.1547 27.3818 57.6401 27.807C57.2028 28.1993 56.6872 28.4941 56.1274 28.672C55.5675 28.8499 54.9763 28.9068 54.3928 28.8388C54.1442 29.6892 53.9129 31.1015 53.7513 31.9046L53.2988 30.184C53.2565 30.0821 53.2267 29.9776 53.1943 29.8757V29.8458C53.1505 29.6773 53.0974 29.5113 53.0352 29.3486C52.93 29.4137 52.8047 29.4383 52.6827 29.4179C52.5606 29.3974 52.4502 29.3333 52.372 29.2374C52.2937 29.1415 52.2531 29.0205 52.2575 28.8968C52.262 28.7731 52.3113 28.6553 52.3962 28.5653C52.4788 28.482 52.5735 28.4115 52.6772 28.3565C52.5638 28.4375 52.4315 28.4879 52.2929 28.5027C52.1544 28.5175 52.0144 28.4963 51.8865 28.441C51.7605 28.3819 51.6576 28.2828 51.5938 28.1591C51.5299 28.0355 51.5087 27.8942 51.5334 27.7573C51.5575 27.6659 51.6055 27.5825 51.6723 27.5157C51.7391 27.4489 51.8225 27.401 51.9138 27.3768C51.5522 27.3523 51.206 27.2207 50.9193 26.9989C50.8089 26.9414 50.7226 26.8466 50.6757 26.7314C50.6288 26.6162 50.6243 26.488 50.6632 26.3698Z" fill="#263238"/>
<path d="M62.0835 26.0739C62.1737 26.1697 62.2568 26.2719 62.3321 26.3797C62.5192 26.6869 62.6237 27.0372 62.6355 27.3967C62.6495 27.6459 62.6378 27.8958 62.6007 28.1426C62.5634 28.4087 62.5012 28.6896 62.4366 28.983C62.365 29.2929 62.3118 29.6067 62.2774 29.9229C62.2643 30.0884 62.2643 30.2547 62.2774 30.4202C62.2775 30.5993 62.3228 30.7755 62.4092 30.9324C62.4509 30.9956 62.5084 31.0468 62.576 31.0808C62.6436 31.1148 62.719 31.1305 62.7946 31.1263C62.9396 31.1214 63.0788 31.068 63.1899 30.9746C63.3774 30.7828 63.5097 30.5441 63.5729 30.2834H63.5132C63.5643 30.5114 63.6481 30.7308 63.7618 30.9349C63.877 31.1256 64.0614 31.2645 64.2765 31.3227C64.3758 31.3502 64.4806 31.3502 64.5799 31.3227C64.6681 31.2914 64.7457 31.2359 64.8038 31.1624C64.8619 31.089 64.898 31.0006 64.9081 30.9075C64.9156 30.8243 64.8945 30.741 64.8484 30.6713L64.8136 30.6937C64.956 30.9148 65.1432 31.1037 65.3631 31.2481C65.4218 31.2851 65.4824 31.3192 65.5446 31.3501L65.6092 31.3774C65.6092 31.3774 65.5893 31.3625 65.5496 31.3401C65.5098 31.3178 65.4501 31.2805 65.3755 31.2283C65.164 31.0801 64.9847 30.8906 64.8484 30.6713L64.8136 30.6937C64.8521 30.7609 64.8687 30.8384 64.8611 30.9155C64.8535 30.9926 64.8222 31.0654 64.7713 31.1238C64.7193 31.1945 64.6462 31.2467 64.5625 31.273C64.4731 31.2986 64.3783 31.2986 64.2889 31.273C64.0888 31.2169 63.9179 31.086 63.8116 30.9075C63.6984 30.7084 63.6147 30.494 63.5629 30.271L63.5331 30.1715L63.5007 30.2685C63.4385 30.5163 63.3125 30.7434 63.1352 30.9274C63.0365 31.0118 62.912 31.06 62.7822 31.0642C62.7177 31.0674 62.6535 31.0537 62.5959 31.0245C62.5384 30.9953 62.4894 30.9515 62.454 30.8976C62.374 30.7512 62.3321 30.587 62.3321 30.4202C62.3197 30.2546 62.3197 30.0884 62.3321 29.9229C62.3643 29.61 62.4158 29.2995 62.4863 28.993C62.5485 28.6971 62.6081 28.4136 62.6454 28.1451C62.6777 27.8978 62.686 27.648 62.6703 27.3992C62.6593 27.0339 62.5502 26.6784 62.3545 26.3698C62.2819 26.2563 62.1903 26.1561 62.0835 26.0739Z" fill="#455A64"/>
<path d="M52.7869 27.5707L52.8068 27.5931L52.8714 27.6553C52.9052 27.6905 52.9418 27.7229 52.9808 27.7522C53.0322 27.7945 53.0862 27.8335 53.1424 27.8691C53.502 28.1009 53.9141 28.2386 54.3409 28.2694C54.9746 28.3218 55.6098 28.1879 56.1684 27.884C56.8436 27.5098 57.4358 27.0022 57.9089 26.3922C58.1575 26.0739 58.3912 25.7432 58.6275 25.4399C58.8454 25.1446 59.1041 24.8818 59.3958 24.6591C59.6608 24.4601 59.9708 24.3294 60.2983 24.2787C60.445 24.2562 60.5942 24.2562 60.7409 24.2787C60.8757 24.3069 61.0061 24.3529 61.1288 24.4155C61.3405 24.5246 61.5269 24.6771 61.6758 24.863C61.7881 25.0037 61.8771 25.1615 61.9394 25.3305C61.9855 25.4774 62.0138 25.6293 62.0239 25.783C62.0239 25.783 62.0239 25.783 62.0239 25.7532V25.6637C62.0171 25.548 61.9963 25.4336 61.9617 25.323C61.9061 25.1496 61.8221 24.9866 61.7131 24.8406C61.5643 24.6465 61.3751 24.487 61.1586 24.3732C61.0326 24.3067 60.8978 24.2581 60.7583 24.229C60.607 24.1981 60.4516 24.1922 60.2983 24.2116C59.9601 24.2599 59.6395 24.3924 59.3659 24.597C59.0682 24.8215 58.8044 25.0878 58.5827 25.3877C58.3341 25.691 58.1202 26.0217 57.8641 26.3375C57.3971 26.9448 56.8129 27.4521 56.146 27.8293C55.597 28.128 54.9744 28.2643 54.3508 28.2222C53.931 28.1942 53.5242 28.0654 53.1648 27.8467C53.0342 27.7612 52.9081 27.6691 52.7869 27.5707Z" fill="#455A64"/>
<path d="M52.7097 26.2703C52.7365 26.3032 52.7675 26.3324 52.8017 26.3574C52.8916 26.43 52.9863 26.4965 53.0852 26.5563C53.2318 26.6453 53.3857 26.7219 53.5452 26.785C53.7415 26.8611 53.9447 26.9186 54.1518 26.9566C54.3586 26.9932 54.5684 27.0098 54.7784 27.0063C54.9504 27.0031 55.1218 26.9848 55.2906 26.9516C55.4035 26.9289 55.5148 26.899 55.6238 26.8621C55.6652 26.852 55.7047 26.8352 55.7407 26.8124C55.7407 26.8124 55.5666 26.8596 55.2807 26.9044C55.116 26.9292 54.9499 26.9425 54.7834 26.9442C54.5768 26.943 54.3706 26.9256 54.1668 26.8919C53.9646 26.8534 53.7658 26.7985 53.5725 26.7278C53.415 26.6677 53.2621 26.5963 53.115 26.514C52.8589 26.3698 52.7172 26.2604 52.7097 26.2703Z" fill="#455A64"/>
<path d="M57.4812 35.4278C57.6334 35.4419 57.7744 35.5141 57.8748 35.6294C57.9751 35.7447 58.0272 35.8942 58.0201 36.0469C58.0131 36.1996 57.9475 36.3438 57.8369 36.4493C57.7264 36.5549 57.5794 36.6138 57.4265 36.6138C57.2737 36.6138 57.1267 36.5549 57.0161 36.4493C56.9056 36.3438 56.84 36.1996 56.8329 36.0469C56.8259 35.8942 56.8779 35.7447 56.9783 35.6294C57.0787 35.5141 57.2196 35.4419 57.3718 35.4278" fill="#FF9A6C"/>
<path d="M57.2898 36.5144C57.3948 36.5622 57.5109 36.5803 57.6254 36.5666C57.6854 36.5584 57.7431 36.5384 57.7951 36.5076C57.8472 36.4769 57.8927 36.4361 57.9288 36.3876C57.9728 36.3279 58.0042 36.2598 58.0209 36.1875C58.0375 36.1153 58.0392 36.0403 58.0258 35.9674C57.9917 35.8206 57.9027 35.6925 57.7771 35.6093C57.6737 35.5418 57.5526 35.5063 57.429 35.5074C57.3128 35.5149 57.1982 35.5383 57.0884 35.577C57.0884 35.577 57.1108 35.5497 57.1679 35.5223C57.2452 35.4824 57.3298 35.4587 57.4166 35.4527C57.5698 35.4411 57.7222 35.4849 57.8458 35.5762C57.9695 35.6675 58.0563 35.8001 58.0904 35.95C58.1071 36.0331 58.1055 36.1188 58.0858 36.2013C58.066 36.2837 58.0286 36.3609 57.976 36.4274C57.9337 36.4821 57.8805 36.5274 57.8197 36.5603C57.7589 36.5933 57.6919 36.6132 57.623 36.6188C57.5631 36.6295 57.5016 36.6256 57.4436 36.6074C57.3856 36.5892 57.3328 36.5573 57.2898 36.5144Z" fill="#263238"/>
<path d="M22.5643 96.7081L20.7392 103.491C20.7392 103.491 13.2328 103.914 12.7827 105.135L25.809 109.145L29.0861 98.7022L22.5643 96.7081Z" fill="#455A64"/>
<path d="M24.9413 104.167C25.0549 104.244 25.1363 104.359 25.1698 104.492C25.2033 104.624 25.1866 104.765 25.1228 104.886C25.0506 105.003 24.9362 105.087 24.8033 105.122C24.6705 105.157 24.5294 105.139 24.4092 105.072C24.2893 104.991 24.2038 104.868 24.1694 104.727C24.1349 104.586 24.1539 104.437 24.2227 104.309C24.3106 104.195 24.4393 104.119 24.5818 104.099C24.7242 104.078 24.8692 104.113 24.9861 104.197" fill="#E0E0E0"/>
<path d="M25.799 109.145L26.0875 108.078L13.4913 104.632C13.4913 104.632 12.8324 104.707 12.7727 105.13L25.799 109.145Z" fill="#263238"/>
<path d="M20.5503 103.359C20.5329 103.424 20.8412 103.551 21.0898 103.857C21.3385 104.162 21.4255 104.476 21.4926 104.468C21.5598 104.461 21.5772 104.065 21.2664 103.705C20.9556 103.344 20.5528 103.297 20.5503 103.359Z" fill="white"/>
<path d="M19.0086 103.503C18.9762 103.561 19.2174 103.752 19.3517 104.09C19.486 104.428 19.4586 104.729 19.5233 104.744C19.5879 104.759 19.7371 104.413 19.5655 103.998C19.394 103.583 19.0285 103.449 19.0086 103.503Z" fill="white"/>
<path d="M17.7307 104.901C17.7829 104.931 17.9793 104.652 17.9147 104.242C17.85 103.832 17.6039 103.613 17.5591 103.658C17.5143 103.702 17.6436 103.946 17.6834 104.274C17.7232 104.602 17.6685 104.873 17.7307 104.901Z" fill="white"/>
<path d="M21.1373 101.86C21.1373 101.925 21.4655 101.927 21.8161 102.064C22.1667 102.201 22.4129 102.397 22.4651 102.352C22.5173 102.307 22.3134 101.999 21.8982 101.855C21.4829 101.711 21.1199 101.8 21.1373 101.86Z" fill="white"/>
<path d="M83.0563 86.3049L87.3578 81.2699C87.3578 81.2699 93.8549 83.9677 94.74 83.1148L85.3986 74.395L78.3794 81.9611L83.0563 86.3049Z" fill="#455A64"/>
<path d="M84.0857 78.9849C84.0215 78.8725 84.0005 78.7406 84.0265 78.6138C84.0526 78.487 84.124 78.3741 84.2274 78.2962C84.3356 78.2268 84.4665 78.202 84.5926 78.2271C84.7187 78.2521 84.8302 78.325 84.9037 78.4304C84.9706 78.5495 84.9919 78.6889 84.9635 78.8225C84.9352 78.9561 84.8591 79.0749 84.7495 79.1565C84.6291 79.2167 84.49 79.2278 84.3615 79.1874C84.233 79.1471 84.1252 79.0584 84.0608 78.9401" fill="#E0E0E0"/>
<path d="M85.3985 74.395L84.7222 75.1856L93.9219 83.2516C93.9219 83.2516 94.5062 83.4555 94.7325 83.1148L85.3985 74.395Z" fill="#263238"/>
<path d="M87.4649 81.4613C87.5047 81.4116 87.2958 81.1779 87.2162 80.8198C87.1367 80.4618 87.1864 80.156 87.1292 80.1361C87.072 80.1162 86.893 80.4444 87.0074 80.882C87.1218 81.3196 87.435 81.5111 87.4649 81.4613Z" fill="white"/>
<path d="M88.8224 81.9636C88.8721 81.9288 88.7478 81.6677 88.7727 81.3271C88.7975 80.9864 88.9418 80.7378 88.8945 80.698C88.8473 80.6582 88.5787 80.892 88.5564 81.3146C88.534 81.7373 88.7801 82.0083 88.8224 81.9636Z" fill="white"/>
<path d="M90.4684 81.2972C90.4361 81.2475 90.1601 81.4191 90.0457 81.7821C89.9313 82.1451 90.0457 82.4435 90.1054 82.4236C90.165 82.4037 90.1526 82.1451 90.2521 81.8492C90.3515 81.5533 90.5082 81.3445 90.4684 81.2972Z" fill="white"/>
<path d="M86.3584 82.4982C86.3782 82.4385 86.1097 82.3067 85.8611 82.0481C85.6124 81.7896 85.4956 81.521 85.4359 81.5384C85.3762 81.5558 85.416 81.899 85.7044 82.1998C85.9928 82.5007 86.3484 82.5628 86.3584 82.4982Z" fill="white"/>
<path d="M48.53 77.1797C48.53 77.1797 65.3482 97.5385 68.7347 98.3391C74.2769 99.652 86.3111 83.5549 86.3111 83.5549L80.9479 77.9306L70.1395 87.3069L61.2853 72.9006L48.53 77.1797Z" fill="#263238"/>
<path d="M69.2492 92.6278C69.2161 92.5623 69.1942 92.4917 69.1845 92.419C69.1384 92.2273 69.1035 92.033 69.0801 91.8372C69.0046 91.1887 69.0171 90.5329 69.1174 89.8878C69.2203 89.2432 69.411 88.6158 69.6843 88.023C69.7662 87.8434 69.8592 87.669 69.9628 87.5008C69.9948 87.4359 70.0368 87.3764 70.0871 87.3243C70.107 87.3243 69.9578 87.6053 69.7688 88.0702C69.525 88.6641 69.3498 89.284 69.2467 89.9176C69.1478 90.5525 69.1228 91.1966 69.1721 91.8372C69.2119 92.3195 69.2691 92.6229 69.2492 92.6278Z" fill="#455A64"/>
<path d="M20.6047 99.4705C20.6047 99.4705 27.8153 75.7799 29.7349 72.2243C31.0502 69.7951 40.9038 69.7752 40.9038 69.7752L61.6132 69.7951C62.5948 71.9193 62.8811 74.299 62.4312 76.5954C61.8395 79.4523 59.1243 81.4937 56.6155 82.0481C55.3609 82.3123 54.0691 82.3493 52.8013 82.1575L36.7043 80.0143C36.521 81.3716 36.1925 82.7053 35.7246 83.9925C34.8842 86.4416 28.514 103.138 28.514 103.138L20.6047 99.4705Z" fill="#263238"/>
<g opacity="0.3">
<path d="M62.6577 75.2279C62.3271 77.0062 61.4388 78.6329 60.1216 79.8725C58.7433 81.0822 57.0209 81.83 55.196 82.0108L53.0403 81.889C53.371 82.068 53.816 82.4982 54.1467 82.6772C55.2327 83.3825 56.5186 83.7154 57.8103 83.6256C59.1021 83.5359 60.3296 83.0285 61.3076 82.1799C63.2271 80.4245 63.9457 77.493 62.6577 75.2279Z" fill="black"/>
</g>
<path d="M62.7771 74.8052C62.7826 74.8531 62.7826 74.9015 62.7771 74.9494C62.7771 75.0439 62.7771 75.1856 62.7423 75.3647C62.6801 75.8723 62.5659 76.3722 62.4017 76.8565C61.8643 78.4785 60.8245 79.8873 59.4328 80.8789C58.0412 81.8704 56.3701 82.3931 54.6615 82.3714C54.1481 82.37 53.6364 82.3142 53.1348 82.2048C52.9583 82.1725 52.824 82.1252 52.732 82.1028C52.6836 82.0937 52.6367 82.0778 52.5928 82.0556C52.5928 82.0556 52.7917 82.0929 53.1448 82.1551C53.6454 82.2436 54.1531 82.2853 54.6615 82.2794C55.4183 82.2761 56.1711 82.1698 56.8992 81.9636C58.3915 81.5208 59.7281 80.6652 60.755 79.4954C61.7818 78.3256 62.4569 76.8893 62.7025 75.3522C62.7473 75.0016 62.7647 74.8027 62.7771 74.8052Z" fill="#455A64"/>
<path d="M34.5339 76.0235C34.7142 76.17 34.8769 76.3369 35.0188 76.5208C35.7374 77.3986 36.2802 78.4065 36.6176 79.4896C36.6982 79.7099 36.75 79.9398 36.7717 80.1734C36.6771 79.96 36.5941 79.7417 36.5231 79.5194C36.3323 78.9931 36.1038 78.4812 35.8393 77.9878C35.573 77.4972 35.2722 77.0261 34.9392 76.578C34.7926 76.4019 34.6573 76.2167 34.5339 76.0235Z" fill="#455A64"/>
<path d="M73.5659 64.4642C73.5659 64.4642 73.1631 66.0655 72.7678 66.3862C72.7678 66.3862 69.7468 69.2008 69.6026 69.3152C69.4584 69.4296 68.9959 69.6111 68.7821 69.4594C68.7146 69.3921 68.6615 69.3117 68.626 69.2233C68.5905 69.1348 68.5734 69.04 68.5757 68.9447C68.5757 68.9447 67.8298 69.3401 67.5388 69.1287C67.4572 69.0786 67.396 69.001 67.3664 68.9099C67.3368 68.8187 67.3406 68.72 67.3772 68.6314C67.3772 68.6314 66.8128 68.8503 66.507 68.4897C66.4164 68.365 66.353 68.2227 66.3209 68.0719C66.2887 67.9211 66.2886 67.7653 66.3205 67.6145C66.3205 67.6145 65.8232 67.9228 65.5746 67.6145C65.4159 67.3544 65.33 67.0564 65.3259 66.7517L65.7909 66.0953C65.7909 66.0953 67.0565 64.688 67.4419 64.3026C67.8273 63.9172 69.3664 63.5243 69.9855 63.3951L71.5469 61.5302L73.5659 64.4642Z" fill="#FFBF9D"/>
<path d="M72.7677 66.3862L70.9078 62.393C70.9078 62.393 73.0834 59.4963 74.1402 57.6017C75.1969 55.707 74.7742 55.8363 74.7742 55.8363C73.7839 55.2408 72.739 54.7412 71.6537 54.3445C69.8237 53.6732 67.5909 52.2609 67.5909 52.2609C67.5909 52.2609 64.4282 50.7093 63.9011 49.7023C63.374 48.6953 63.1949 46.4054 64.3412 45.5749C64.6559 45.3623 65.005 45.2059 65.373 45.1124C66.6684 44.7642 68.0484 44.9327 69.222 45.5824C71.0868 46.5894 74.2421 48.295 74.6921 48.5288C74.6921 48.5288 79.9783 51.7437 80.5601 52.2733C81.9773 53.5662 82.4522 55.1078 80.9082 57.4102C79.4412 59.6057 72.7677 66.3862 72.7677 66.3862Z" fill="#FFBF9D"/>
<path d="M74.7466 56.2714C74.7615 56.0975 74.8114 55.9283 74.8933 55.7741C75.2402 54.9916 75.8647 54.3653 76.6462 54.0163C76.8005 53.934 76.9695 53.8833 77.1435 53.8671C76.6028 54.0878 76.1118 54.4147 75.6997 54.8286C75.2875 55.2424 74.9626 55.7347 74.7441 56.2764L74.7466 56.2714Z" fill="#FF9A6C"/>
<path d="M53.0055 42.4694C52.6972 42.6285 49.0546 47.9743 48.4504 48.9166C47.8462 49.859 46.0436 65.4787 46.0436 65.4787L45.6606 69.9194L63.1352 70.914C63.2926 70.9326 63.4521 70.9116 63.5994 70.8529C63.7466 70.7943 63.8769 70.6998 63.9784 70.578C64.0799 70.4563 64.1494 70.3112 64.1806 70.1558C64.2118 70.0004 64.2037 69.8396 64.1571 69.6882L63.0457 66.053C62.7032 64.9365 62.692 63.7446 63.0133 62.6218L66.0244 52.0769L69.4358 49.9883L64.4231 43.275L62.0909 42.9095L53.0055 42.4694Z" fill="#2B1FC5"/>
<path d="M73.5906 47.0841L68.6874 53.7627C68.6874 53.7627 61.5862 49.5357 61.3326 47.8972C61.3003 47.6983 61.2779 47.4944 61.258 47.2855C61.2063 46.7637 61.2662 46.2369 61.4339 45.74C61.6015 45.2432 61.873 44.7877 62.2302 44.4038C62.5875 44.02 63.0224 43.7166 63.5059 43.5138C63.9895 43.311 64.5107 43.2135 65.0349 43.2277H65.0945C67.0762 43.3346 73.5906 47.0841 73.5906 47.0841Z" fill="#2B1FC5"/>
<path d="M44.1613 52.4772L42.6694 44.9409C42.6694 44.9409 50.6061 42.2655 52.4212 42.4072C53.4853 42.4823 54.5252 42.7608 55.4844 43.2277L49.9074 50.7989L44.1613 52.4772Z" fill="#2B1FC5"/>
<path d="M49.0622 45.3834C49.0654 45.4015 49.0654 45.42 49.0622 45.4381C49.0622 45.4804 49.0622 45.5326 49.0448 45.5948C49.0232 45.7406 48.9934 45.9396 48.9553 46.1915C48.8658 46.7211 48.7414 47.467 48.5898 48.382C48.279 50.2294 47.8439 52.783 47.4087 55.6076C46.9736 58.4321 46.6081 60.9956 46.3744 62.8555C46.2625 63.7854 46.168 64.5388 46.1133 65.0584C46.0835 65.3071 46.0611 65.511 46.0437 65.6577C46.0387 65.7282 46.027 65.7982 46.0089 65.8665C46.0039 65.7962 46.0039 65.7255 46.0089 65.6552L46.0561 65.0535C46.0959 64.5313 46.1755 63.7779 46.2749 62.8455C46.4863 60.9807 46.8294 58.4147 47.2695 55.5877C47.7096 52.7606 48.1522 50.2096 48.4878 48.3771C48.6569 47.4646 48.7937 46.7236 48.8931 46.1965C48.9404 45.9478 48.9777 45.7489 49.0075 45.6022C49.0373 45.4555 49.0597 45.3834 49.0622 45.3834Z" fill="#263238"/>
<path d="M67.5287 50.4632C67.5287 50.4856 67.2527 50.3936 66.8077 50.3389C66.5461 50.3089 66.2823 50.3022 66.0195 50.319C65.6999 50.3436 65.3834 50.3994 65.0746 50.4856C64.7663 50.578 64.4681 50.7013 64.1845 50.8536C63.9542 50.9797 63.7361 51.127 63.5331 51.2937C63.185 51.5771 63.0084 51.7909 62.991 51.7909C62.9736 51.7909 63.0233 51.7263 63.1004 51.6244C63.2122 51.4813 63.3371 51.3489 63.4734 51.229C63.6745 51.0494 63.8936 50.8911 64.1273 50.7566C64.4157 50.5947 64.7208 50.4646 65.0373 50.3687C65.3561 50.279 65.6838 50.2248 66.0145 50.2071C66.284 50.1951 66.5541 50.2118 66.8201 50.2568C66.9998 50.283 67.1764 50.3272 67.3472 50.3886C67.4666 50.4259 67.5312 50.4533 67.5287 50.4632Z" fill="#263238"/>
<path d="M61.825 50.2792C61.7555 50.1877 61.6971 50.0884 61.6509 49.9833C61.5058 49.7039 61.3763 49.4167 61.263 49.123C61.0953 48.6851 60.9737 48.231 60.9 47.7679C60.8091 47.1977 60.8209 46.6158 60.9348 46.0498C61.0456 45.4792 61.2921 44.9436 61.6534 44.4883C61.9525 44.12 62.3318 43.8249 62.7624 43.6255C63.0509 43.4911 63.3621 43.4118 63.6798 43.3918C63.7627 43.3869 63.8457 43.3869 63.9285 43.3918C63.9882 43.3918 64.018 43.3918 64.018 43.4067C63.5762 43.4182 63.1425 43.5276 62.7482 43.7271C62.3539 43.9267 62.0088 44.2113 61.738 44.5604C61.3945 45.0049 61.1595 45.5234 61.0517 46.0747C60.8724 47.0867 60.9721 48.1285 61.3401 49.0882C61.4719 49.4612 61.5888 49.7546 61.6857 49.9584C61.7394 50.0621 61.7859 50.1692 61.825 50.2792Z" fill="#263238"/>
<path d="M58.1597 61.7565C58.0401 61.84 57.9146 61.9148 57.7843 61.9802C57.5356 62.117 57.1825 62.3085 56.74 62.5397C55.8498 63.0071 54.6141 63.6287 53.2291 64.2802C51.8442 64.9316 50.5737 65.4861 49.6487 65.874C49.1862 66.0654 48.8108 66.2171 48.5472 66.319C48.415 66.3792 48.2777 66.4275 48.137 66.4633C48.2628 66.391 48.3932 66.3271 48.5273 66.2718L49.6114 65.7894C50.5264 65.3817 51.7895 64.8148 53.172 64.1633C54.5544 63.5119 55.8001 62.9052 56.6977 62.4626L57.7619 61.938C57.8884 61.8649 58.0216 61.8041 58.1597 61.7565Z" fill="#263238"/>
<path d="M35.9388 38.9187C35.9388 38.9187 31.0754 49.4935 31.4036 51.2613C31.7591 53.1808 32.9203 53.7477 35.1879 53.4469C37.4555 53.146 43.9053 51.1842 43.9053 51.1842L42.7218 45.2168L36.8588 46.9175L39.4471 39.1176L35.9388 38.9187Z" fill="#FFBF9D"/>
<path d="M36.3764 51.3359C36.3292 51.316 36.7941 50.4035 36.9334 49.1752C37.0726 47.9469 36.8463 46.9548 36.8961 46.9374C36.9844 47.1412 37.0398 47.3578 37.0602 47.5789C37.2174 48.6462 37.0878 49.7361 36.6847 50.7367C36.614 50.9514 36.51 51.1536 36.3764 51.3359Z" fill="#FF9A6C"/>
<path d="M43.6741 31.4869C43.6567 31.5291 43.0848 31.3302 42.3936 31.0468C41.7024 30.7633 41.1504 30.4998 41.1728 30.46C41.1952 30.4202 41.7621 30.6166 42.4533 30.9001C43.1445 31.1835 43.689 31.4471 43.6741 31.4869Z" fill="#455A64"/>
<path d="M41.1526 35.3408C40.8219 35.3035 39.9865 35.7336 39.2828 36.584L39.2455 36.6213C38.7483 37.1932 38.4275 35.4452 38.3902 34.7987C38.3818 34.6991 38.3511 34.6026 38.3003 34.5164C38.2496 34.4302 38.18 34.3566 38.0969 34.3009C38.0138 34.2453 37.9192 34.2091 37.8202 34.195C37.7212 34.1808 37.6203 34.1892 37.5249 34.2194L35.3245 35.0822H34.9813C34.6606 35.1792 34.4642 35.853 34.5238 36.1737L35.1032 39.1649C35.2698 39.8337 35.6004 40.0526 36.0505 40.5672L39.2555 39.7194C39.3375 39.4558 39.6533 38.1678 39.7925 37.8123C39.9167 37.4913 40.0968 37.195 40.3246 36.9371C40.5705 36.6431 40.8463 36.3756 41.1476 36.1389C41.1725 36.1389 41.1974 36.1066 41.2198 36.0967C41.2901 36.0597 41.3481 36.0031 41.3867 35.9336C41.4253 35.8642 41.4428 35.785 41.4369 35.7058C41.4311 35.6265 41.4023 35.5507 41.354 35.4877C41.3057 35.4246 41.24 35.377 41.1651 35.3507L41.1526 35.3408Z" fill="#FFBF9D"/>
<path d="M39.5565 28.4659C39.5565 28.4659 37.3934 28.1426 34.1983 25.4449C31.0033 22.7471 29.3299 18.9802 28.9768 19.02C28.6238 19.0598 26.9579 18.4282 24.372 25.3578C21.7861 32.2875 23.0915 33.7545 23.6982 33.6998C24.3049 33.6451 28.3378 32.1831 30.9262 32.2925C33.5145 32.4019 36.9135 33.5158 36.9135 33.5158L39.5565 28.4659Z" fill="#2B1FC5"/>
<path d="M44.0172 31.9841L43.4229 33.3442L43.1594 33.9534C42.9861 34.3546 42.6649 34.6736 42.2624 34.8441C41.86 35.0145 41.4074 35.0232 40.9987 34.8684L36.5952 33.665L38.6962 27.7249L43.1544 29.714C43.5688 29.9019 43.892 30.246 44.0537 30.6713C44.2153 31.0966 44.2022 31.5685 44.0172 31.9841Z" fill="#263238"/>
<path d="M42.1573 33.6302L40.5212 36.4L39.8101 36.1514L34.8373 39.7219L33.6836 37.0241C33.6836 37.0241 36.5579 35.9947 37.1422 35.0226C37.7265 34.0504 37.1422 33.7793 37.1422 33.7793L38.557 32.3571L42.1573 33.6302Z" fill="#263238"/>
<path d="M24.6007 25.5294C23.2381 29.259 22.7881 32.5063 23.6061 32.8096C24.4241 33.113 26.1721 30.3481 27.5347 26.6185C28.8972 22.8888 29.3473 19.6416 28.5292 19.3407C27.7112 19.0399 25.9632 21.8097 24.6007 25.5294Z" fill="#263238"/>
<path d="M43.3558 32.3844C43.3409 32.4267 42.7093 32.2278 41.9435 31.9443C41.1777 31.6609 40.5735 31.3948 40.5884 31.3551C40.6033 31.3153 41.2349 31.5092 41.9982 31.7952C42.7615 32.0811 43.3707 32.3372 43.3558 32.3844Z" fill="#455A64"/>
<path d="M42.9405 33.3318C42.9405 33.3542 42.7864 33.3318 42.5477 33.2721C42.4308 33.2448 42.2991 33.21 42.1325 33.1677C41.9659 33.1254 41.8117 33.0533 41.6352 32.9887C40.939 32.7201 40.392 32.4491 40.4168 32.4093C40.4417 32.3696 41.0011 32.5734 41.6924 32.837C41.8639 32.9016 42.0255 32.9762 42.1896 33.026C42.3538 33.0757 42.4756 33.1229 42.59 33.1652C42.8113 33.2473 42.9455 33.3094 42.9405 33.3318Z" fill="#455A64"/>
<path d="M27.8356 24.4926C27.8356 24.4926 25.9136 23.4731 25.0781 26.054C24.2427 28.6349 26.2144 28.9109 26.2144 28.9109C26.9593 27.5214 27.505 26.0341 27.8356 24.4926Z" fill="#FAFAFA"/>
<path d="M29.5885 21.3622C29.59 21.5288 29.5767 21.6952 29.5487 21.8594C29.5139 22.1702 29.4617 22.6203 29.3821 23.1748L29.1882 24.0723C29.1533 24.234 29.116 24.4006 29.0788 24.5696C29.0613 24.6567 29.0415 24.7437 29.0216 24.8183C29.0017 24.8929 28.9693 24.9923 28.9445 25.0818C28.8351 25.4374 28.7207 25.8079 28.6038 26.1933L28.5143 26.4867C28.4845 26.5836 28.4397 26.6781 28.4024 26.7751L28.1687 27.3644L27.935 27.9536C27.8927 28.0506 27.8604 28.1476 27.8157 28.2396L27.6789 28.5131L27.1617 29.5549C27.1195 29.6369 27.0822 29.7215 27.0374 29.8035C26.9926 29.8856 26.9429 29.9552 26.8982 30.0323L26.6346 30.4699L26.1522 31.2531C25.8315 31.7081 25.558 32.0687 25.3715 32.3198C25.2823 32.4548 25.1799 32.5806 25.0657 32.6952C25.1391 32.5522 25.2222 32.4143 25.3143 32.2825L26.0602 31.186L26.5177 30.4003C26.5998 30.2586 26.6843 30.1119 26.7664 29.9627C26.8087 29.8856 26.8534 29.811 26.8982 29.7339C26.9429 29.6568 26.9777 29.5723 27.02 29.4853L27.5173 28.4484C27.5596 28.3564 27.6043 28.2669 27.6491 28.1749C27.6938 28.0829 27.7261 27.986 27.7659 27.8915L27.9996 27.3047L28.2334 26.7204C28.2682 26.6234 28.3129 26.5314 28.3428 26.4344C28.3726 26.3375 28.4049 26.2405 28.4348 26.1435L28.7804 25.0421C28.8077 24.9525 28.8376 24.868 28.8624 24.7934L28.9221 24.5448C28.9619 24.3757 28.9992 24.2091 29.039 24.0475C29.1136 23.7292 29.1832 23.4309 29.2478 23.1598C29.3398 22.6153 29.4144 22.1653 29.4666 21.8569C29.4937 21.689 29.5344 21.5235 29.5885 21.3622Z" fill="#263238"/>
<path d="M36.9584 33.4511C36.8378 33.4981 36.739 33.5883 36.6811 33.7041C36.6232 33.8198 36.6104 33.953 36.6451 34.0777C36.7844 34.575 37.0156 35.3806 37.1946 35.8679C37.2444 36.0266 37.3228 36.1749 37.4259 36.3055C37.4772 36.3679 37.5448 36.4148 37.6211 36.4412C37.6975 36.4675 37.7796 36.4722 37.8585 36.4547C37.9388 36.421 38.0082 36.3658 38.0591 36.2952C38.11 36.2245 38.1404 36.1412 38.1469 36.0544C38.1606 35.8773 38.1404 35.6992 38.0872 35.5297C37.9704 35.0548 37.759 34.3437 37.5775 33.7644C37.5595 33.7017 37.5289 33.6433 37.4876 33.5928C37.4462 33.5423 37.395 33.5007 37.337 33.4707C37.2791 33.4407 37.2156 33.4228 37.1505 33.4182C37.0854 33.4135 37.0201 33.4222 36.9584 33.4436V33.4511Z" fill="#FFBF9D"/>
<path d="M36.2096 34.3263C36.0874 34.3734 35.9873 34.4648 35.9293 34.5822C35.8712 34.6997 35.8595 34.8346 35.8963 34.9604C36.038 35.4576 36.2693 36.2657 36.4483 36.7506C36.4961 36.9101 36.5746 37.0588 36.6795 37.1882C36.73 37.251 36.797 37.2985 36.873 37.3253C36.949 37.3521 37.031 37.3571 37.1097 37.3399C37.1903 37.3057 37.2601 37.25 37.3113 37.179C37.3626 37.108 37.3935 37.0244 37.4006 36.9371C37.4143 36.76 37.394 36.5819 37.3409 36.4124C37.2216 35.94 37.0127 35.2289 36.8312 34.6496C36.8132 34.5865 36.7825 34.5278 36.741 34.477C36.6995 34.4262 36.6481 34.3844 36.59 34.3542C36.5318 34.3239 36.468 34.3059 36.4026 34.3011C36.3373 34.2963 36.2716 34.3049 36.2096 34.3263Z" fill="#FFBF9D"/>
<path d="M35.5111 34.8559C35.4023 34.8935 35.3121 34.9715 35.2593 35.0739C35.2065 35.1762 35.1952 35.295 35.2277 35.4054C35.357 35.843 35.5683 36.5343 35.725 36.9569C35.7695 37.0952 35.8404 37.2236 35.9338 37.3349C35.9805 37.3906 36.0416 37.4324 36.1105 37.4556C36.1794 37.4789 36.2533 37.4827 36.3242 37.4667C36.3963 37.4395 36.4592 37.3923 36.5054 37.3306C36.5517 37.269 36.5794 37.1954 36.5853 37.1186C36.5981 36.9656 36.5795 36.8116 36.5306 36.666C36.4212 36.2558 36.2297 35.6391 36.0631 35.1369C36.0451 35.0815 36.0163 35.0302 35.9784 34.9861C35.9404 34.9419 35.8941 34.9057 35.8421 34.8796C35.79 34.8534 35.7333 34.8379 35.6752 34.8338C35.6172 34.8298 35.5588 34.8373 35.5037 34.8559H35.5111Z" fill="#FFBF9D"/>
<path d="M34.626 34.9927C34.5169 35.0308 34.4267 35.1093 34.3739 35.212C34.3212 35.3148 34.3099 35.4339 34.3425 35.5447C34.4718 35.9873 34.6832 36.681 34.8398 37.1037C34.8852 37.2429 34.957 37.372 35.0512 37.4841C35.0984 37.5398 35.16 37.5815 35.2292 37.6048C35.2985 37.628 35.3727 37.6318 35.444 37.6159C35.5161 37.5883 35.579 37.5411 35.6256 37.4795C35.6722 37.418 35.7006 37.3446 35.7076 37.2678C35.7184 37.113 35.6989 36.9576 35.6504 36.8103C35.541 36.3975 35.3495 35.7809 35.1829 35.2762C35.1647 35.2204 35.1355 35.1688 35.0972 35.1243C35.0589 35.0798 35.0122 35.0433 34.9597 35.017C34.9073 34.9906 34.8501 34.9749 34.7915 34.9708C34.733 34.9666 34.6742 34.9741 34.6185 34.9927H34.626Z" fill="#FFBF9D"/>
<path d="M37.3786 36.3279C37.3313 36.3453 37.1498 35.9425 36.9758 35.4303C36.8017 34.9181 36.6973 34.4855 36.747 34.4706C36.7968 34.4556 36.9758 34.856 37.1498 35.3682C37.3239 35.8804 37.4258 36.3155 37.3786 36.3279Z" fill="#FF9A6C"/>
<path d="M36.5777 37.039C36.5304 37.054 36.329 36.589 36.1525 36.0022C35.976 35.4154 35.8517 34.9281 35.9039 34.9107C35.9561 34.8933 36.1525 35.3582 36.3315 35.945C36.5106 36.5318 36.6274 37.0241 36.5777 37.039Z" fill="#FF9A6C"/>
<path d="M35.7896 37.0863C35.7449 37.1087 35.5261 36.7158 35.3495 36.1912C35.173 35.6665 35.1009 35.2239 35.1531 35.2115C35.2053 35.1991 35.3471 35.6168 35.5236 36.1315C35.7001 36.6462 35.8493 37.0614 35.7896 37.0863Z" fill="#FF9A6C"/>
<path d="M19.3619 30.4078C19.3619 30.4426 17.6413 30.8702 15.5005 31.365C13.3597 31.8598 11.6167 32.2278 11.6067 32.193C11.5968 32.1582 13.3298 31.7305 15.4706 31.2382C17.6114 30.7459 19.3544 30.373 19.3619 30.4078Z" fill="#263238"/>
<path d="M20.7939 26.4817C20.7939 26.5165 17.8823 26.5314 14.2894 26.5115C10.6966 26.4916 7.78247 26.4469 7.78247 26.4096C7.78247 26.3723 10.6941 26.3623 14.2894 26.3822C17.8848 26.4021 20.7964 26.4469 20.7939 26.4817Z" fill="#263238"/>
<path d="M21.7015 24.2613C21.6841 24.2912 19.516 23.2668 16.858 21.9614C14.2 20.656 12.0543 19.5769 12.0692 19.5446C12.0841 19.5123 14.2547 20.5392 16.9152 21.8445C19.5757 23.1499 21.7165 24.229 21.7015 24.2613Z" fill="#263238"/>
<path d="M23.8847 22.1106C23.8549 22.1305 22.3233 19.8604 20.4659 17.0383C18.6086 14.2162 17.1242 11.9113 17.154 11.8914C17.1838 11.8715 18.7155 14.1441 20.5728 16.9662C22.4302 19.7883 23.9146 22.0907 23.8847 22.1106Z" fill="#263238"/>
</svg>
